<?xml version="1.0" encoding="UTF-8" standalone="no"?>
<!DOCTYPE svg PUBLIC "-//W3C//DTD SVG 1.1//EN"
 "http://www.w3.org/Graphics/SVG/1.1/DTD/svg11.dtd">
<!-- Generated by graphviz version 9.0.0 (20230911.1827)
 -->
<!-- Title: include/sir/ansimacros.h Pages: 1 -->
<!--zoomable 370 -->

<svg id="main" version="1.1" xmlns="http://www.w3.org/2000/svg" xmlns:xlink="http://www.w3.org/1999/xlink" xml:space="preserve" onload="init(evt)">
<style type="text/css"><![CDATA[
.node, .edge {opacity: 0.7;}
.node.selected, .edge.selected {opacity: 1;}
.edge:hover path { stroke: red; }
.edge:hover polygon { stroke: red; fill: red; }
]]></style>

<defs>
  <circle id="rim" cx="0" cy="0" r="7"/>
  <circle id="rim2" cx="0" cy="0" r="3.5"/>
  <g id="zoomPlus">
    <use xlink:href="#rim" fill="#404040"><set attributeName="fill" to="#808080" begin="zoomplus.mouseover" end="zoomplus.mouseout"/></use>
    <path d="M-4,0h8M0,-4v8" fill="none" stroke="white" stroke-width="1.5" pointer-events="none"/>
  </g>
  <g id="zoomMin">
    <use xlink:href="#rim" fill="#404040"><set attributeName="fill" to="#808080" begin="zoomminus.mouseover" end="zoomminus.mouseout"/></use>
    <path d="M-4,0h8" fill="none" stroke="white" stroke-width="1.5" pointer-events="none"/>
  </g>
  <g id="arrowUp" transform="translate(30 24)">
    <use xlink:href="#rim"/>
    <path pointer-events="none" fill="none" stroke="white" stroke-width="1.5" d="M0,-3.0v7 M-2.5,-0.5L0,-3.0L2.5,-0.5"/>
  </g>
  <g id="arrowRight" transform="rotate(90) translate(36 -43)">
    <use xlink:href="#rim"/>
    <path pointer-events="none" fill="none" stroke="white" stroke-width="1.5" d="M0,-3.0v7 M-2.5,-0.5L0,-3.0L2.5,-0.5"/>
  </g>
  <g id="arrowDown" transform="rotate(180) translate(-30 -48)">
    <use xlink:href="#rim"/>
    <path pointer-events="none" fill="none" stroke="white" stroke-width="1.5" d="M0,-3.0v7 M-2.5,-0.5L0,-3.0L2.5,-0.5"/>
  </g>
  <g id="arrowLeft" transform="rotate(270) translate(-36 17)">
    <use xlink:href="#rim"/>
    <path pointer-events="none" fill="none" stroke="white" stroke-width="1.5" d="M0,-3.0v7 M-2.5,-0.5L0,-3.0L2.5,-0.5"/>
  </g>
  <g id="resetDef">
    <use xlink:href="#rim2" fill="#404040"><set attributeName="fill" to="#808080" begin="reset.mouseover" end="reset.mouseout"/></use>
  </g>
</defs>
<script type="application/ecmascript">
var viewWidth = 1230;
var viewHeight = 370;
var sectionId = 'dynsection-0';
</script>
<script type="application/ecmascript" xlink:href="svg.min.js"/>
<svg id="graph" class="graph">
<g id="viewport">
<title>include/sir/ansimacros.h</title>
<!-- Node1 -->
<g id="Node000001" class="node">
<title>Node1</title>
<g id="a_Node000001"><a xlink:title="ANSI escape sequence macros.">
<polygon fill="#999999" stroke="#666666" points="435.12,-362 313.38,-362 313.38,-342.75 435.12,-342.75 435.12,-362"/>
<text text-anchor="middle" x="374.25" y="-348.5" font-family="Helvetica,sans-Serif" font-size="10.00">include/sir/ansimacros.h</text>
</a>
</g>
</g>
<!-- Node2 -->
<g id="Node000002" class="node">
<title>Node2</title>
<g id="a_Node000002"><a xlink:href="types_8h_source.html" target="_top" xlink:title=" ">
<polygon fill="white" stroke="#666666" points="684,-306.75 588.5,-306.75 588.5,-287.5 684,-287.5 684,-306.75"/>
<text text-anchor="middle" x="636.25" y="-293.25" font-family="Helvetica,sans-Serif" font-size="10.00">include/sir/types.h</text>
</a>
</g>
</g>
<!-- Node1&#45;&gt;Node2 -->
<g id="edge1_Node000001_Node000002" class="edge">
<title>Node1&#45;&gt;Node2</title>
<g id="a_edge1_Node000001_Node000002"><a xlink:title=" ">
<path fill="none" stroke="#63b8ff" d="M430.17,-340.01C478.39,-330.21 547.11,-316.24 591.69,-307.18"/>
<polygon fill="#63b8ff" stroke="#63b8ff" points="429.58,-336.56 420.47,-341.98 430.97,-343.42 429.58,-336.56"/>
</a>
</g>
</g>
<!-- Node8 -->
<g id="Node000008" class="node">
<title>Node8</title>
<g id="a_Node000008"><a xlink:href="tests__shared_8h_source.html" target="_top" xlink:title=" ">
<polygon fill="white" stroke="#666666" points="294.88,-74.5 189.62,-74.5 189.62,-55.25 294.88,-55.25 294.88,-74.5"/>
<text text-anchor="middle" x="242.25" y="-61" font-family="Helvetica,sans-Serif" font-size="10.00">tests/tests_shared.h</text>
</a>
</g>
</g>
<!-- Node1&#45;&gt;Node8 -->
<g id="edge47_Node000001_Node000008" class="edge">
<title>Node1&#45;&gt;Node8</title>
<g id="a_edge47_Node000001_Node000008"><a xlink:title=" ">
<path fill="none" stroke="#63b8ff" d="M301.83,-346.29C232.46,-337.01 138.25,-310.86 138.25,-237.25 138.25,-237.25 138.25,-237.25 138.25,-174.38 138.25,-125.84 193.15,-90.56 223.17,-74.89"/>
<polygon fill="#63b8ff" stroke="#63b8ff" points="301.31,-349.75 311.67,-347.5 302.17,-342.81 301.31,-349.75"/>
</a>
</g>
</g>
<!-- Node3 -->
<g id="Node000003" class="node">
<title>Node3</title>
<g id="a_Node000003"><a xlink:href="sir_8h.html" target="_top" xlink:title="Public interface to libsir.">
<polygon fill="white" stroke="#666666" points="632.12,-129.75 564.38,-129.75 564.38,-110.5 632.12,-110.5 632.12,-129.75"/>
<text text-anchor="middle" x="598.25" y="-116.25" font-family="Helvetica,sans-Serif" font-size="10.00">include/sir.h</text>
</a>
</g>
</g>
<!-- Node2&#45;&gt;Node3 -->
<g id="edge2_Node000002_Node000003" class="edge">
<title>Node2&#45;&gt;Node3</title>
<g id="a_edge2_Node000002_Node000003"><a xlink:title=" ">
<path fill="none" stroke="#63b8ff" d="M635.7,-276.16C634.27,-259.73 629.93,-236.67 617.25,-221 594.5,-192.88 563.35,-215.72 544.25,-185 530.98,-163.67 560.31,-142 580.72,-130.19"/>
<polygon fill="#63b8ff" stroke="#63b8ff" points="632.18,-275.9 636.22,-285.69 639.17,-275.51 632.18,-275.9"/>
</a>
</g>
</g>
<!-- Node10 -->
<g id="Node000010" class="node">
<title>Node10</title>
<g id="a_Node000010"><a xlink:href="condition_8h.html" target="_top" xlink:title=" ">
<polygon fill="white" stroke="#666666" points="110.5,-185 0,-185 0,-165.75 110.5,-165.75 110.5,-185"/>
<text text-anchor="middle" x="55.25" y="-171.5" font-family="Helvetica,sans-Serif" font-size="10.00">include/sir/condition.h</text>
</a>
</g>
</g>
<!-- Node2&#45;&gt;Node10 -->
<g id="edge10_Node000002_Node000010" class="edge">
<title>Node2&#45;&gt;Node10</title>
<g id="a_edge10_Node000002_Node000010"><a xlink:title=" ">
<path fill="none" stroke="#63b8ff" d="M576.62,-295.3C495.88,-292.91 347.89,-284.01 226.25,-251.5 166.42,-235.51 100.68,-201.56 71.15,-185.35"/>
<polygon fill="#63b8ff" stroke="#63b8ff" points="576.43,-298.8 586.52,-295.57 576.62,-291.8 576.43,-298.8"/>
</a>
</g>
</g>
<!-- Node12 -->
<g id="Node000012" class="node">
<title>Node12</title>
<g id="a_Node000012"><a xlink:href="console_8h_source.html" target="_top" xlink:title=" ">
<polygon fill="white" stroke="#666666" points="545.88,-129.75 440.62,-129.75 440.62,-110.5 545.88,-110.5 545.88,-129.75"/>
<text text-anchor="middle" x="493.25" y="-116.25" font-family="Helvetica,sans-Serif" font-size="10.00">include/sir/console.h</text>
</a>
</g>
</g>
<!-- Node2&#45;&gt;Node12 -->
<g id="edge12_Node000002_Node000012" class="edge">
<title>Node2&#45;&gt;Node12</title>
<g id="a_edge12_Node000002_Node000012"><a xlink:title=" ">
<path fill="none" stroke="#63b8ff" d="M576.86,-294.22C545.46,-289.81 509.34,-278.59 489.25,-251.5 461.6,-214.21 480.8,-153.04 489.54,-130.15"/>
<polygon fill="#63b8ff" stroke="#63b8ff" points="576.34,-297.68 586.68,-295.38 577.16,-290.73 576.34,-297.68"/>
</a>
</g>
</g>
<!-- Node13 -->
<g id="Node000013" class="node">
<title>Node13</title>
<g id="a_Node000013"><a xlink:href="defaults_8h.html" target="_top" xlink:title="Default levels, options, and text styling.">
<polygon fill="white" stroke="#666666" points="659.25,-185 553.25,-185 553.25,-165.75 659.25,-165.75 659.25,-185"/>
<text text-anchor="middle" x="606.25" y="-171.5" font-family="Helvetica,sans-Serif" font-size="10.00">include/sir/defaults.h</text>
</a>
</g>
</g>
<!-- Node2&#45;&gt;Node13 -->
<g id="edge13_Node000002_Node000013" class="edge">
<title>Node2&#45;&gt;Node13</title>
<g id="a_edge13_Node000002_Node000013"><a xlink:title=" ">
<path fill="none" stroke="#63b8ff" d="M645.57,-277.06C651.84,-261.5 657.71,-239.19 650.25,-221 644.06,-205.9 630.02,-193.17 619.45,-185.23"/>
<polygon fill="#63b8ff" stroke="#63b8ff" points="642.43,-275.53 641.54,-286.09 648.82,-278.39 642.43,-275.53"/>
</a>
</g>
</g>
<!-- Node14 -->
<g id="Node000014" class="node">
<title>Node14</title>
<g id="a_Node000014"><a xlink:href="errors_8h_source.html" target="_top" xlink:title=" ">
<polygon fill="white" stroke="#666666" points="331.38,-245.88 235.12,-245.88 235.12,-226.62 331.38,-226.62 331.38,-245.88"/>
<text text-anchor="middle" x="283.25" y="-232.38" font-family="Helvetica,sans-Serif" font-size="10.00">include/sir/errors.h</text>
</a>
</g>
</g>
<!-- Node2&#45;&gt;Node14 -->
<g id="edge15_Node000002_Node000014" class="edge">
<title>Node2&#45;&gt;Node14</title>
<g id="a_edge15_Node000002_Node000014"><a xlink:title=" ">
<path fill="none" stroke="#63b8ff" d="M576.87,-287.36C519.92,-278.8 431.57,-265.11 355.25,-251.5 346.34,-249.91 336.84,-248.11 327.75,-246.33"/>
<polygon fill="#63b8ff" stroke="#63b8ff" points="576.27,-290.81 586.68,-288.83 577.31,-283.89 576.27,-290.81"/>
</a>
</g>
</g>
<!-- Node15 -->
<g id="Node000015" class="node">
<title>Node15</title>
<g id="a_Node000015"><a xlink:href="helpers_8h_source.html" target="_top" xlink:title=" ">
<polygon fill="white" stroke="#666666" points="458.75,-185 355.75,-185 355.75,-165.75 458.75,-165.75 458.75,-185"/>
<text text-anchor="middle" x="407.25" y="-171.5" font-family="Helvetica,sans-Serif" font-size="10.00">include/sir/helpers.h</text>
</a>
</g>
</g>
<!-- Node2&#45;&gt;Node15 -->
<g id="edge32_Node000002_Node000015" class="edge">
<title>Node2&#45;&gt;Node15</title>
<g id="a_edge32_Node000002_Node000015"><a xlink:title=" ">
<path fill="none" stroke="#63b8ff" d="M577.02,-292.47C539.5,-287.64 491.57,-276.6 456.25,-251.5 432.13,-234.36 416.82,-201.28 410.53,-185.36"/>
<polygon fill="#63b8ff" stroke="#63b8ff" points="576.46,-295.93 586.8,-293.61 577.27,-288.98 576.46,-295.93"/>
</a>
</g>
</g>
<!-- Node17 -->
<g id="Node000017" class="node">
<title>Node17</title>
<g id="a_Node000017"><a xlink:href="filecache_8h_source.html" target="_top" xlink:title=" ">
<polygon fill="white" stroke="#666666" points="836.5,-129.75 726,-129.75 726,-110.5 836.5,-110.5 836.5,-129.75"/>
<text text-anchor="middle" x="781.25" y="-116.25" font-family="Helvetica,sans-Serif" font-size="10.00">include/sir/filecache.h</text>
</a>
</g>
</g>
<!-- Node2&#45;&gt;Node17 -->
<g id="edge29_Node000002_Node000017" class="edge">
<title>Node2&#45;&gt;Node17</title>
<g id="a_edge29_Node000002_Node000017"><a xlink:title=" ">
<path fill="none" stroke="#63b8ff" d="M670.22,-282.55C707,-265.79 763.67,-233.42 788.25,-185 797.34,-167.09 790.19,-142.79 785.14,-129.94"/>
<polygon fill="#63b8ff" stroke="#63b8ff" points="669.1,-279.22 661.35,-286.45 671.91,-285.63 669.1,-279.22"/>
</a>
</g>
</g>
<!-- Node18 -->
<g id="Node000018" class="node">
<title>Node18</title>
<g id="a_Node000018"><a xlink:href="maps_8h_source.html" target="_top" xlink:title=" ">
<polygon fill="white" stroke="#666666" points="338,-185 242.5,-185 242.5,-165.75 338,-165.75 338,-185"/>
<text text-anchor="middle" x="290.25" y="-171.5" font-family="Helvetica,sans-Serif" font-size="10.00">include/sir/maps.h</text>
</a>
</g>
</g>
<!-- Node2&#45;&gt;Node18 -->
<g id="edge33_Node000002_Node000018" class="edge">
<title>Node2&#45;&gt;Node18</title>
<g id="a_edge33_Node000002_Node000018"><a xlink:title=" ">
<path fill="none" stroke="#63b8ff" d="M577.04,-288.46C533.99,-281.72 474.82,-270.05 425.25,-251.5 377.77,-233.73 326.82,-201.25 303.39,-185.47"/>
<polygon fill="#63b8ff" stroke="#63b8ff" points="576.26,-291.88 586.68,-289.92 577.31,-284.96 576.26,-291.88"/>
</a>
</g>
</g>
<!-- Node19 -->
<g id="Node000019" class="node">
<title>Node19</title>
<g id="a_Node000019"><a xlink:href="mutex_8h_source.html" target="_top" xlink:title=" ">
<polygon fill="white" stroke="#666666" points="971.5,-245.88 873,-245.88 873,-226.62 971.5,-226.62 971.5,-245.88"/>
<text text-anchor="middle" x="922.25" y="-232.38" font-family="Helvetica,sans-Serif" font-size="10.00">include/sir/mutex.h</text>
</a>
</g>
</g>
<!-- Node2&#45;&gt;Node19 -->
<g id="edge35_Node000002_Node000019" class="edge">
<title>Node2&#45;&gt;Node19</title>
<g id="a_edge35_Node000002_Node000019"><a xlink:title=" ">
<path fill="none" stroke="#63b8ff" d="M694.34,-284.91C739.39,-276.12 803.36,-263.41 859.25,-251.5 866.82,-249.89 874.88,-248.11 882.63,-246.37"/>
<polygon fill="#63b8ff" stroke="#63b8ff" points="693.94,-281.43 684.79,-286.77 695.28,-288.3 693.94,-281.43"/>
</a>
</g>
</g>
<!-- Node20 -->
<g id="Node000020" class="node">
<title>Node20</title>
<g id="a_Node000020"><a xlink:href="plugins_8h_source.html" target="_top" xlink:title=" ">
<polygon fill="white" stroke="#666666" points="779.38,-185 677.12,-185 677.12,-165.75 779.38,-165.75 779.38,-185"/>
<text text-anchor="middle" x="728.25" y="-171.5" font-family="Helvetica,sans-Serif" font-size="10.00">include/sir/plugins.h</text>
</a>
</g>
</g>
<!-- Node2&#45;&gt;Node20 -->
<g id="edge37_Node000002_Node000020" class="edge">
<title>Node2&#45;&gt;Node20</title>
<g id="a_edge37_Node000002_Node000020"><a xlink:title=" ">
<path fill="none" stroke="#63b8ff" d="M650.18,-277.99C670.14,-252.02 706.13,-205.17 721.25,-185.48"/>
<polygon fill="#63b8ff" stroke="#63b8ff" points="647.4,-275.86 644.09,-285.92 652.95,-280.13 647.4,-275.86"/>
</a>
</g>
</g>
<!-- Node21 -->
<g id="Node000021" class="node">
<title>Node21</title>
<g id="a_Node000021"><a xlink:href="queue_8h_source.html" target="_top" xlink:title=" ">
<polygon fill="white" stroke="#666666" points="1087.12,-245.88 989.38,-245.88 989.38,-226.62 1087.12,-226.62 1087.12,-245.88"/>
<text text-anchor="middle" x="1038.25" y="-232.38" font-family="Helvetica,sans-Serif" font-size="10.00">include/sir/queue.h</text>
</a>
</g>
</g>
<!-- Node2&#45;&gt;Node21 -->
<g id="edge39_Node000002_Node000021" class="edge">
<title>Node2&#45;&gt;Node21</title>
<g id="a_edge39_Node000002_Node000021"><a xlink:title=" ">
<path fill="none" stroke="#63b8ff" d="M695.41,-290.49C764.2,-283.46 881,-270.07 980.25,-251.5 988,-250.05 996.25,-248.21 1004.04,-246.33"/>
<polygon fill="#63b8ff" stroke="#63b8ff" points="695.48,-286.96 685.88,-291.45 696.18,-293.92 695.48,-286.96"/>
</a>
</g>
</g>
<!-- Node22 -->
<g id="Node000022" class="node">
<title>Node22</title>
<g id="a_Node000022"><a xlink:href="textstyle_8h_source.html" target="_top" xlink:title=" ">
<polygon fill="white" stroke="#666666" points="963.75,-129.75 854.75,-129.75 854.75,-110.5 963.75,-110.5 963.75,-129.75"/>
<text text-anchor="middle" x="909.25" y="-116.25" font-family="Helvetica,sans-Serif" font-size="10.00">include/sir/textstyle.h</text>
</a>
</g>
</g>
<!-- Node2&#45;&gt;Node22 -->
<g id="edge41_Node000002_Node000022" class="edge">
<title>Node2&#45;&gt;Node22</title>
<g id="a_edge41_Node000002_Node000022"><a xlink:title=" ">
<path fill="none" stroke="#63b8ff" d="M681.3,-283.73C704.84,-276.22 733.58,-265.4 757.25,-251.5 819,-215.22 879.8,-152.91 901.19,-129.95"/>
<polygon fill="#63b8ff" stroke="#63b8ff" points="680.53,-280.3 672,-286.59 682.59,-286.99 680.53,-280.3"/>
</a>
</g>
</g>
<!-- Node23 -->
<g id="Node000023" class="node">
<title>Node23</title>
<g id="a_Node000023"><a xlink:href="threadpool_8h_source.html" target="_top" xlink:title=" ">
<polygon fill="white" stroke="#666666" points="1221.5,-245.88 1105,-245.88 1105,-226.62 1221.5,-226.62 1221.5,-245.88"/>
<text text-anchor="middle" x="1163.25" y="-232.38" font-family="Helvetica,sans-Serif" font-size="10.00">include/sir/threadpool.h</text>
</a>
</g>
</g>
<!-- Node2&#45;&gt;Node23 -->
<g id="edge44_Node000002_Node000023" class="edge">
<title>Node2&#45;&gt;Node23</title>
<g id="a_edge44_Node000002_Node000023"><a xlink:title=" ">
<path fill="none" stroke="#63b8ff" d="M695.83,-292.5C783.78,-286.67 953.39,-273.55 1096.25,-251.5 1105.3,-250.1 1114.97,-248.26 1124.06,-246.36"/>
<polygon fill="#63b8ff" stroke="#63b8ff" points="695.75,-289 686,-293.15 696.2,-295.98 695.75,-289"/>
</a>
</g>
</g>
<!-- Node24 -->
<g id="Node000024" class="node">
<title>Node24</title>
<g id="a_Node000024"><a xlink:href="plugin__sample_8h_source.html" target="_top" xlink:title=" ">
<polygon fill="white" stroke="#666666" points="608.12,-251.5 498.38,-251.5 498.38,-221 608.12,-221 608.12,-251.5"/>
<text text-anchor="start" x="506.38" y="-238" font-family="Helvetica,sans-Serif" font-size="10.00">plugins/sample/plugin</text>
<text text-anchor="middle" x="553.25" y="-226.75" font-family="Helvetica,sans-Serif" font-size="10.00">_sample.h</text>
</a>
</g>
</g>
<!-- Node2&#45;&gt;Node24 -->
<g id="edge46_Node000002_Node000024" class="edge">
<title>Node2&#45;&gt;Node24</title>
<g id="a_edge46_Node000002_Node000024"><a xlink:title=" ">
<path fill="none" stroke="#63b8ff" d="M614.35,-280.59C601.77,-271.67 586.07,-260.53 573.74,-251.78"/>
<polygon fill="#63b8ff" stroke="#63b8ff" points="612.23,-283.38 622.41,-286.31 616.28,-277.67 612.23,-283.38"/>
</a>
</g>
</g>
<!-- Node4 -->
<g id="Node000004" class="node">
<title>Node4</title>
<g id="a_Node000004"><a xlink:href="example_8c.html" target="_top" xlink:title="A simple demonstration of initialization, configuration, and basic usage of libsir.">
<polygon fill="white" stroke="#666666" points="504.62,-74.5 403.88,-74.5 403.88,-55.25 504.62,-55.25 504.62,-74.5"/>
<text text-anchor="middle" x="454.25" y="-61" font-family="Helvetica,sans-Serif" font-size="10.00">example/example.c</text>
</a>
</g>
</g>
<!-- Node3&#45;&gt;Node4 -->
<g id="edge3_Node000003_Node000004" class="edge">
<title>Node3&#45;&gt;Node4</title>
<g id="a_edge3_Node000003_Node000004"><a xlink:title=" ">
<path fill="none" stroke="#63b8ff" d="M563.22,-106.17C537.08,-96.5 502.01,-83.54 478.8,-74.95"/>
<polygon fill="#63b8ff" stroke="#63b8ff" points="561.81,-109.38 572.4,-109.57 564.24,-102.82 561.81,-109.38"/>
</a>
</g>
</g>
<!-- Node5 -->
<g id="Node000005" class="node">
<title>Node5</title>
<g id="a_Node000005"><a xlink:href="sir_8hh_source.html" target="_top" xlink:title=" ">
<polygon fill="white" stroke="#666666" points="385.75,-74.5 312.75,-74.5 312.75,-55.25 385.75,-55.25 385.75,-74.5"/>
<text text-anchor="middle" x="349.25" y="-61" font-family="Helvetica,sans-Serif" font-size="10.00">include/sir.hh</text>
</a>
</g>
</g>
<!-- Node3&#45;&gt;Node5 -->
<g id="edge4_Node000003_Node000005" class="edge">
<title>Node3&#45;&gt;Node5</title>
<g id="a_edge4_Node000003_Node000005"><a xlink:title=" ">
<path fill="none" stroke="#63b8ff" d="M552.92,-109.43C505.05,-99.19 430.48,-83.25 386.09,-73.75"/>
<polygon fill="#63b8ff" stroke="#63b8ff" points="551.9,-112.79 562.41,-111.46 553.36,-105.95 551.9,-112.79"/>
</a>
</g>
</g>
<!-- Node7 -->
<g id="Node000007" class="node">
<title>Node7</title>
<g id="a_Node000007"><a xlink:href="sir_8c.html" target="_top" xlink:title="Public interface to libsir.">
<polygon fill="white" stroke="#666666" points="704.5,-74.5 654,-74.5 654,-55.25 704.5,-55.25 704.5,-74.5"/>
<text text-anchor="middle" x="679.25" y="-61" font-family="Helvetica,sans-Serif" font-size="10.00">src/sir.c</text>
</a>
</g>
</g>
<!-- Node3&#45;&gt;Node7 -->
<g id="edge6_Node000003_Node000007" class="edge">
<title>Node3&#45;&gt;Node7</title>
<g id="a_edge6_Node000003_Node000007"><a xlink:title=" ">
<path fill="none" stroke="#63b8ff" d="M621.59,-103.78C635.79,-94.45 653.44,-82.85 665.44,-74.95"/>
<polygon fill="#63b8ff" stroke="#63b8ff" points="619.69,-100.84 613.26,-109.26 623.53,-106.69 619.69,-100.84"/>
</a>
</g>
</g>
<!-- Node3&#45;&gt;Node8 -->
<g id="edge7_Node000003_Node000008" class="edge">
<title>Node3&#45;&gt;Node8</title>
<g id="a_edge7_Node000003_Node000008"><a xlink:title=" ">
<path fill="none" stroke="#63b8ff" d="M552.84,-110.33C511,-104.03 372.37,-84.34 295.08,-73.37"/>
<polygon fill="#63b8ff" stroke="#63b8ff" points="552.1,-113.75 562.52,-111.84 553.18,-106.84 552.1,-113.75"/>
</a>
</g>
</g>
<!-- Node6 -->
<g id="Node000006" class="node">
<title>Node6</title>
<g id="a_Node000006"><a xlink:href="tests_09_09_8hh_source.html" target="_top" xlink:title=" ">
<polygon fill="white" stroke="#666666" points="340.25,-19.25 252.25,-19.25 252.25,0 340.25,0 340.25,-19.25"/>
<text text-anchor="middle" x="296.25" y="-5.75" font-family="Helvetica,sans-Serif" font-size="10.00">tests/tests++.hh</text>
</a>
</g>
</g>
<!-- Node5&#45;&gt;Node6 -->
<g id="edge5_Node000005_Node000006" class="edge">
<title>Node5&#45;&gt;Node6</title>
<g id="a_edge5_Node000005_Node000006"><a xlink:title=" ">
<path fill="none" stroke="#63b8ff" d="M332.53,-47.07C323.47,-37.98 312.65,-27.1 305.19,-19.61"/>
<polygon fill="#63b8ff" stroke="#63b8ff" points="329.9,-49.39 339.43,-54.01 334.86,-44.45 329.9,-49.39"/>
</a>
</g>
</g>
<!-- Node8&#45;&gt;Node6 -->
<g id="edge8_Node000008_Node000006" class="edge">
<title>Node8&#45;&gt;Node6</title>
<g id="a_edge8_Node000008_Node000006"><a xlink:title=" ">
<path fill="none" stroke="#63b8ff" d="M259.29,-47.07C268.51,-37.98 279.54,-27.1 287.14,-19.61"/>
<polygon fill="#63b8ff" stroke="#63b8ff" points="256.91,-44.51 252.24,-54.02 261.82,-49.49 256.91,-44.51"/>
</a>
</g>
</g>
<!-- Node9 -->
<g id="Node000009" class="node">
<title>Node9</title>
<g id="a_Node000009"><a xlink:href="tests_8h_source.html" target="_top" xlink:title=" ">
<polygon fill="white" stroke="#666666" points="1006.62,-19.25 935.88,-19.25 935.88,0 1006.62,0 1006.62,-19.25"/>
<text text-anchor="middle" x="971.25" y="-5.75" font-family="Helvetica,sans-Serif" font-size="10.00">tests/tests.h</text>
</a>
</g>
</g>
<!-- Node8&#45;&gt;Node9 -->
<g id="edge9_Node000008_Node000009" class="edge">
<title>Node8&#45;&gt;Node9</title>
<g id="a_edge9_Node000008_Node000009"><a xlink:title=" ">
<path fill="none" stroke="#63b8ff" d="M306.47,-54.99C553.07,-29.78 837.32,-16.29 935.69,-12.08"/>
<polygon fill="#63b8ff" stroke="#63b8ff" points="306.22,-51.49 296.63,-56 306.93,-58.46 306.22,-51.49"/>
</a>
</g>
</g>
<!-- Node11 -->
<g id="Node000011" class="node">
<title>Node11</title>
<g id="a_Node000011"><a xlink:href="sircondition_8c.html" target="_top" xlink:title=" ">
<polygon fill="white" stroke="#666666" points="158.38,-74.5 68.12,-74.5 68.12,-55.25 158.38,-55.25 158.38,-74.5"/>
<text text-anchor="middle" x="113.25" y="-61" font-family="Helvetica,sans-Serif" font-size="10.00">src/sircondition.c</text>
</a>
</g>
</g>
<!-- Node10&#45;&gt;Node11 -->
<g id="edge11_Node000010_Node000011" class="edge">
<title>Node10&#45;&gt;Node11</title>
<g id="a_edge11_Node000010_Node000011"><a xlink:title=" ">
<path fill="none" stroke="#63b8ff" d="M65.26,-155.65C77.86,-132.08 98.99,-92.54 108.44,-74.88"/>
<polygon fill="#63b8ff" stroke="#63b8ff" points="62.34,-153.69 60.71,-164.16 68.51,-156.99 62.34,-153.69"/>
</a>
</g>
</g>
<!-- Node13&#45;&gt;Node7 -->
<g id="edge14_Node000013_Node000007" class="edge">
<title>Node13&#45;&gt;Node7</title>
<g id="a_edge14_Node000013_Node000007"><a xlink:title=" ">
<path fill="none" stroke="#63b8ff" d="M621.04,-156.61C627.49,-148.58 635,-138.87 641.25,-129.75 654.24,-110.81 667.53,-87.32 674.43,-74.77"/>
<polygon fill="#63b8ff" stroke="#63b8ff" points="618.42,-154.28 614.8,-164.23 623.84,-158.71 618.42,-154.28"/>
</a>
</g>
</g>
<!-- Node14&#45;&gt;Node8 -->
<g id="edge28_Node000014_Node000008" class="edge">
<title>Node14&#45;&gt;Node8</title>
<g id="a_edge28_Node000014_Node000008"><a xlink:title=" ">
<path fill="none" stroke="#63b8ff" d="M258.56,-219.76C246.95,-211.06 234.17,-199.11 227.25,-185 212.65,-155.23 216.62,-142.99 223.25,-110.5 225.91,-97.46 232.52,-83.52 237.2,-74.76"/>
<polygon fill="#63b8ff" stroke="#63b8ff" points="256.44,-222.54 266.64,-225.41 260.45,-216.81 256.44,-222.54"/>
</a>
</g>
</g>
<!-- Node14&#45;&gt;Node15 -->
<g id="edge16_Node000014_Node000015" class="edge">
<title>Node14&#45;&gt;Node15</title>
<g id="a_edge16_Node000014_Node000015"><a xlink:title=" ">
<path fill="none" stroke="#63b8ff" d="M312.75,-221.24C336.17,-210.12 368.23,-194.9 388.33,-185.36"/>
<polygon fill="#63b8ff" stroke="#63b8ff" points="311.25,-218.08 303.72,-225.53 314.26,-224.4 311.25,-218.08"/>
</a>
</g>
</g>
<!-- Node16 -->
<g id="Node000016" class="node">
<title>Node16</title>
<g id="a_Node000016"><a xlink:href="internal_8h_source.html" target="_top" xlink:title=" ">
<polygon fill="white" stroke="#666666" points="345.75,-129.75 242.75,-129.75 242.75,-110.5 345.75,-110.5 345.75,-129.75"/>
<text text-anchor="middle" x="294.25" y="-116.25" font-family="Helvetica,sans-Serif" font-size="10.00">include/sir/internal.h</text>
</a>
</g>
</g>
<!-- Node14&#45;&gt;Node16 -->
<g id="edge27_Node000014_Node000016" class="edge">
<title>Node14&#45;&gt;Node16</title>
<g id="a_edge27_Node000014_Node000016"><a xlink:title=" ">
<path fill="none" stroke="#63b8ff" d="M259.21,-219.42C241.9,-205.9 223.2,-185.55 233.25,-165.75 241.56,-149.37 259.03,-137.56 273.15,-130.22"/>
<polygon fill="#63b8ff" stroke="#63b8ff" points="257.13,-222.23 267.28,-225.29 261.25,-216.58 257.13,-222.23"/>
</a>
</g>
</g>
<!-- Node15&#45;&gt;Node4 -->
<g id="edge17_Node000015_Node000004" class="edge">
<title>Node15&#45;&gt;Node4</title>
<g id="a_edge17_Node000015_Node000004"><a xlink:title=" ">
<path fill="none" stroke="#63b8ff" d="M413.93,-154.82C418.45,-142.05 424.77,-125.11 431.25,-110.5 436.84,-97.91 444.29,-83.86 449.17,-74.95"/>
<polygon fill="#63b8ff" stroke="#63b8ff" points="410.67,-153.54 410.69,-164.14 417.28,-155.84 410.67,-153.54"/>
</a>
</g>
</g>
<!-- Node15&#45;&gt;Node5 -->
<g id="edge18_Node000015_Node000005" class="edge">
<title>Node15&#45;&gt;Node5</title>
<g id="a_edge18_Node000015_Node000005"><a xlink:title=" ">
<path fill="none" stroke="#63b8ff" d="M397.24,-155.65C384.64,-132.08 363.51,-92.54 354.06,-74.88"/>
<polygon fill="#63b8ff" stroke="#63b8ff" points="393.99,-156.99 401.79,-164.16 400.16,-153.69 393.99,-156.99"/>
</a>
</g>
</g>
<!-- Node15&#45;&gt;Node8 -->
<g id="edge26_Node000015_Node000008" class="edge">
<title>Node15&#45;&gt;Node8</title>
<g id="a_edge26_Node000015_Node000008"><a xlink:title=" ">
<path fill="none" stroke="#63b8ff" d="M348.74,-163.05C301.09,-153.23 240.55,-139.16 233.25,-129.75 220.76,-113.65 230.58,-88.16 237.3,-74.76"/>
<polygon fill="#63b8ff" stroke="#63b8ff" points="347.93,-166.45 358.43,-165.02 349.33,-159.59 347.93,-166.45"/>
</a>
</g>
</g>
<!-- Node15&#45;&gt;Node12 -->
<g id="edge19_Node000015_Node000012" class="edge">
<title>Node15&#45;&gt;Node12</title>
<g id="a_edge19_Node000015_Node000012"><a xlink:title=" ">
<path fill="none" stroke="#63b8ff" d="M431.59,-159.3C446.74,-149.92 465.72,-138.17 478.59,-130.2"/>
<polygon fill="#63b8ff" stroke="#63b8ff" points="429.79,-156.3 423.13,-164.55 433.47,-162.26 429.79,-156.3"/>
</a>
</g>
</g>
<!-- Node15&#45;&gt;Node16 -->
<g id="edge20_Node000015_Node000016" class="edge">
<title>Node15&#45;&gt;Node16</title>
<g id="a_edge20_Node000015_Node000016"><a xlink:title=" ">
<path fill="none" stroke="#63b8ff" d="M377.82,-160.51C357.54,-150.95 331.16,-138.52 313.51,-130.2"/>
<polygon fill="#63b8ff" stroke="#63b8ff" points="376.17,-163.6 386.71,-164.7 379.16,-157.27 376.17,-163.6"/>
</a>
</g>
</g>
<!-- Node16&#45;&gt;Node4 -->
<g id="edge21_Node000016_Node000004" class="edge">
<title>Node16&#45;&gt;Node4</title>
<g id="a_edge21_Node000016_Node000004"><a xlink:title=" ">
<path fill="none" stroke="#63b8ff" d="M332.01,-106.56C361.17,-96.85 400.84,-83.65 426.98,-74.95"/>
<polygon fill="#63b8ff" stroke="#63b8ff" points="331.21,-103.14 322.83,-109.61 333.42,-109.78 331.21,-103.14"/>
</a>
</g>
</g>
<!-- Node16&#45;&gt;Node5 -->
<g id="edge22_Node000016_Node000005" class="edge">
<title>Node16&#45;&gt;Node5</title>
<g id="a_edge22_Node000016_Node000005"><a xlink:title=" ">
<path fill="none" stroke="#63b8ff" d="M311.6,-102.32C321,-93.23 332.23,-82.35 339.97,-74.86"/>
<polygon fill="#63b8ff" stroke="#63b8ff" points="309.17,-99.81 304.42,-109.28 314.04,-104.84 309.17,-99.81"/>
</a>
</g>
</g>
<!-- Node16&#45;&gt;Node7 -->
<g id="edge23_Node000016_Node000007" class="edge">
<title>Node16&#45;&gt;Node7</title>
<g id="a_edge23_Node000016_Node000007"><a xlink:title=" ">
<path fill="none" stroke="#63b8ff" d="M357.36,-110.4C443.38,-98.5 593.6,-77.72 653.51,-69.44"/>
<polygon fill="#63b8ff" stroke="#63b8ff" points="357.1,-106.9 347.67,-111.74 358.06,-113.83 357.1,-106.9"/>
</a>
</g>
</g>
<!-- Node16&#45;&gt;Node8 -->
<g id="edge25_Node000016_Node000008" class="edge">
<title>Node16&#45;&gt;Node8</title>
<g id="a_edge25_Node000016_Node000008"><a xlink:title=" ">
<path fill="none" stroke="#63b8ff" d="M277.84,-102.32C268.96,-93.23 258.34,-82.35 251.02,-74.86"/>
<polygon fill="#63b8ff" stroke="#63b8ff" points="275.12,-104.54 284.61,-109.25 280.12,-99.65 275.12,-104.54"/>
</a>
</g>
</g>
<!-- Node16&#45;&gt;Node11 -->
<g id="edge24_Node000016_Node000011" class="edge">
<title>Node16&#45;&gt;Node11</title>
<g id="a_edge24_Node000016_Node000011"><a xlink:title=" ">
<path fill="none" stroke="#63b8ff" d="M252.84,-106.94C219.73,-97.2 174.06,-83.77 144.1,-74.95"/>
<polygon fill="#63b8ff" stroke="#63b8ff" points="251.51,-110.2 262.09,-109.66 253.49,-103.48 251.51,-110.2"/>
</a>
</g>
</g>
<!-- Node17&#45;&gt;Node7 -->
<g id="edge30_Node000017_Node000007" class="edge">
<title>Node17&#45;&gt;Node7</title>
<g id="a_edge30_Node000017_Node000007"><a xlink:title=" ">
<path fill="none" stroke="#63b8ff" d="M753.92,-104.86C735.72,-95.36 712.34,-83.15 696.64,-74.95"/>
<polygon fill="#63b8ff" stroke="#63b8ff" points="752.12,-107.87 762.61,-109.39 755.36,-101.66 752.12,-107.87"/>
</a>
</g>
</g>
<!-- Node17&#45;&gt;Node9 -->
<g id="edge31_Node000017_Node000009" class="edge">
<title>Node17&#45;&gt;Node9</title>
<g id="a_edge31_Node000017_Node000009"><a xlink:title=" ">
<path fill="none" stroke="#63b8ff" d="M806.89,-104.48C846.75,-81.72 922.38,-38.53 955.29,-19.74"/>
<polygon fill="#63b8ff" stroke="#63b8ff" points="805.39,-101.31 798.44,-109.31 808.86,-107.39 805.39,-101.31"/>
</a>
</g>
</g>
<!-- Node18&#45;&gt;Node16 -->
<g id="edge34_Node000018_Node000016" class="edge">
<title>Node18&#45;&gt;Node16</title>
<g id="a_edge34_Node000018_Node000016"><a xlink:title=" ">
<path fill="none" stroke="#63b8ff" d="M291.77,-154.13C292.39,-145.84 293.08,-136.67 293.58,-130.11"/>
<polygon fill="#63b8ff" stroke="#63b8ff" points="288.28,-153.84 291.02,-164.07 295.26,-154.36 288.28,-153.84"/>
</a>
</g>
</g>
<!-- Node19&#45;&gt;Node9 -->
<g id="edge36_Node000019_Node000009" class="edge">
<title>Node19&#45;&gt;Node9</title>
<g id="a_edge36_Node000019_Node000009"><a xlink:title=" ">
<path fill="none" stroke="#63b8ff" d="M934.48,-216.62C947.06,-196.25 965.82,-162.19 973.25,-129.75 982.44,-89.63 976.13,-39.9 972.87,-19.74"/>
<polygon fill="#63b8ff" stroke="#63b8ff" points="931.63,-214.59 929.22,-224.9 937.53,-218.34 931.63,-214.59"/>
</a>
</g>
</g>
<!-- Node20&#45;&gt;Node7 -->
<g id="edge38_Node000020_Node000007" class="edge">
<title>Node20&#45;&gt;Node7</title>
<g id="a_edge38_Node000020_Node000007"><a xlink:title=" ">
<path fill="none" stroke="#63b8ff" d="M719.5,-155.01C708.83,-131.37 691.22,-92.38 683.32,-74.88"/>
<polygon fill="#63b8ff" stroke="#63b8ff" points="716.31,-156.44 723.62,-164.12 722.69,-153.56 716.31,-156.44"/>
</a>
</g>
</g>
<!-- Node21&#45;&gt;Node9 -->
<g id="edge40_Node000021_Node000009" class="edge">
<title>Node21&#45;&gt;Node9</title>
<g id="a_edge40_Node000021_Node000009"><a xlink:title=" ">
<path fill="none" stroke="#63b8ff" d="M1034.23,-215.54C1027.15,-182.08 1011.31,-112.25 991.25,-55.25 986.8,-42.6 980.22,-28.56 975.84,-19.67"/>
<polygon fill="#63b8ff" stroke="#63b8ff" points="1030.73,-215.92 1036.19,-225 1037.59,-214.49 1030.73,-215.92"/>
</a>
</g>
</g>
<!-- Node22&#45;&gt;Node7 -->
<g id="edge42_Node000022_Node000007" class="edge">
<title>Node22&#45;&gt;Node7</title>
<g id="a_edge42_Node000022_Node000007"><a xlink:title=" ">
<path fill="none" stroke="#63b8ff" d="M858.98,-107.49C811.41,-96.47 741.91,-80.38 704.82,-71.79"/>
<polygon fill="#63b8ff" stroke="#63b8ff" points="857.97,-110.84 868.5,-109.69 859.55,-104.02 857.97,-110.84"/>
</a>
</g>
</g>
<!-- Node22&#45;&gt;Node9 -->
<g id="edge43_Node000022_Node000009" class="edge">
<title>Node22&#45;&gt;Node9</title>
<g id="a_edge43_Node000022_Node000009"><a xlink:title=" ">
<path fill="none" stroke="#63b8ff" d="M919.95,-100.4C933.42,-76.83 956.01,-37.29 966.11,-19.63"/>
<polygon fill="#63b8ff" stroke="#63b8ff" points="917,-98.51 915.07,-108.93 923.07,-101.99 917,-98.51"/>
</a>
</g>
</g>
<!-- Node23&#45;&gt;Node9 -->
<g id="edge45_Node000023_Node000009" class="edge">
<title>Node23&#45;&gt;Node9</title>
<g id="a_edge45_Node000023_Node000009"><a xlink:title=" ">
<path fill="none" stroke="#63b8ff" d="M1148.01,-217.42C1109.18,-171.99 1007.6,-53.15 978.9,-19.58"/>
<polygon fill="#63b8ff" stroke="#63b8ff" points="1145.34,-219.69 1154.5,-225.02 1150.67,-215.14 1145.34,-219.69"/>
</a>
</g>
</g>
</g>
</svg>

<g id="navigator" transform="translate(0 0)" fill="#404254">
  <rect fill="#f2f5e9" fill-opacity="0.5" stroke="#606060" stroke-width=".5" x="0" y="0" width="60" height="60"/>
  <use id="zoomplus" xlink:href="#zoomPlus" x="17" y="9" onmousedown="handleZoom(evt,'in')"/>
  <use id="zoomminus" xlink:href="#zoomMin" x="42" y="9" onmousedown="handleZoom(evt,'out')"/>
  <use id="reset" xlink:href="#resetDef" x="30" y="36" onmousedown="handleReset()"/>
   <use id="arrowup" xlink:href="#arrowUp" x="0" y="0" onmousedown="handlePan(0,-1)"/>
  <use id="arrowright" xlink:href="#arrowRight" x="0" y="0" onmousedown="handlePan(1,0)"/>
  <use id="arrowdown" xlink:href="#arrowDown" x="0" y="0" onmousedown="handlePan(0,1)"/>
  <use id="arrowleft" xlink:href="#arrowLeft" x="0" y="0" onmousedown="handlePan(-1,0)"/>
</g>
<svg viewBox="0 0 15 15" width="100%" height="30px" preserveAspectRatio="xMaxYMin meet">
 <g id="arrow_out" transform="scale(0.3 0.3)">
  <a xlink:href="ansimacros_8h__dep__incl_org.svg" target="_base">
   <rect id="button" ry="5" rx="5" y="6" x="6" height="38" width="38"
        fill="#f2f5e9" fill-opacity="0.5" stroke="#606060" stroke-width="1.0"/>
   <path id="arrow"
     d="M 11.500037,31.436501 C 11.940474,20.09759 22.043105,11.32322 32.158766,21.979434 L 37.068811,17.246167 C 37.068811,17.246167 37.088388,32 37.088388,32 L 22.160133,31.978069 C 22.160133,31.978069 26.997745,27.140456 26.997745,27.140456 C 18.528582,18.264221 13.291696,25.230495 11.500037,31.436501 z"
     style="fill:#404040;"/>
  </a>
 </g>
</svg>

<style type='text/css'>
<![CDATA[
[data-mouse-over-selected='false'] { opacity: 0.7; }
[data-mouse-over-selected='true']  { opacity: 1.0; }
]]>
</style>
<script type="application/ecmascript"><![CDATA[
document.addEventListener('DOMContentLoaded', (event) => {
  highlightEdges();
  highlightAdjacentNodes();
});
]]></script>
</svg>
