<?xml version="1.0" encoding="UTF-8" standalone="no"?>
<!DOCTYPE svg PUBLIC "-//W3C//DTD SVG 1.1//EN"
 "http://www.w3.org/Graphics/SVG/1.1/DTD/svg11.dtd">
<!-- Generated by graphviz version 8.1.0 (20230707.0739)
 -->
<!-- Title: include/sir/ansimacros.h Pages: 1 -->
<svg width="1231pt" height="364pt"
 viewBox="0.00 0.00 1230.50 364.00" xmlns="http://www.w3.org/2000/svg" xmlns:xlink="http://www.w3.org/1999/xlink">
<g id="graph0" class="graph" transform="scale(1 1) rotate(0) translate(4 360)">
<title>include/sir/ansimacros.h</title>
<!-- Node1 -->
<g id="Node000001" class="node">
<title>Node1</title>
<g id="a_Node000001"><a xlink:title="ANSI escape sequence macros.">
<polygon fill="#999999" stroke="#666666" points="436.12,-356 314.38,-356 314.38,-337.5 436.12,-337.5 436.12,-356"/>
<text text-anchor="middle" x="375.25" y="-342.5" font-family="Helvetica,sans-Serif" font-size="10.00">include/sir/ansimacros.h</text>
</a>
</g>
</g>
<!-- Node2 -->
<g id="Node000002" class="node">
<title>Node2</title>
<g id="a_Node000002"><a xlink:href="types_8h_source.html" target="_top" xlink:title=" ">
<polygon fill="white" stroke="#666666" points="685,-301.5 589.5,-301.5 589.5,-283 685,-283 685,-301.5"/>
<text text-anchor="middle" x="637.25" y="-288" font-family="Helvetica,sans-Serif" font-size="10.00">include/sir/types.h</text>
</a>
</g>
</g>
<!-- Node1&#45;&gt;Node2 -->
<g id="edge1_Node000001_Node000002" class="edge">
<title>Node1&#45;&gt;Node2</title>
<g id="a_edge1_Node000001_Node000002"><a xlink:title=" ">
<path fill="none" stroke="#63b8ff" d="M429.44,-334.89C478.06,-325.15 548.5,-311.03 593.59,-302"/>
<polygon fill="#63b8ff" stroke="#63b8ff" points="428.93,-331.63 419.81,-337.02 430.3,-338.49 428.93,-331.63"/>
</a>
</g>
</g>
<!-- Node8 -->
<g id="Node000008" class="node">
<title>Node8</title>
<g id="a_Node000008"><a xlink:href="tests__shared_8h_source.html" target="_top" xlink:title=" ">
<polygon fill="white" stroke="#666666" points="293.88,-73 188.62,-73 188.62,-54.5 293.88,-54.5 293.88,-73"/>
<text text-anchor="middle" x="241.25" y="-59.5" font-family="Helvetica,sans-Serif" font-size="10.00">tests/tests_shared.h</text>
</a>
</g>
</g>
<!-- Node1&#45;&gt;Node8 -->
<g id="edge47_Node000001_Node000008" class="edge">
<title>Node1&#45;&gt;Node8</title>
<g id="a_edge47_Node000001_Node000008"><a xlink:title=" ">
<path fill="none" stroke="#63b8ff" d="M303.39,-341.36C233.64,-332.74 138.25,-307.44 138.25,-233.5 138.25,-233.5 138.25,-233.5 138.25,-171.75 138.25,-123.53 193.21,-88.66 222.84,-73.37"/>
<polygon fill="#63b8ff" stroke="#63b8ff" points="302.58,-344.9 312.91,-342.56 303.37,-337.95 302.58,-344.9"/>
</a>
</g>
</g>
<!-- Node3 -->
<g id="Node000003" class="node">
<title>Node3</title>
<g id="a_Node000003"><a xlink:href="sir_8h.html" target="_top" xlink:title="Public interface to libsir.">
<polygon fill="white" stroke="#666666" points="632.5,-127.5 564,-127.5 564,-109 632.5,-109 632.5,-127.5"/>
<text text-anchor="middle" x="598.25" y="-114" font-family="Helvetica,sans-Serif" font-size="10.00">include/sir.h</text>
</a>
</g>
</g>
<!-- Node2&#45;&gt;Node3 -->
<g id="edge2_Node000002_Node000003" class="edge">
<title>Node2&#45;&gt;Node3</title>
<g id="a_edge2_Node000002_Node000003"><a xlink:title=" ">
<path fill="none" stroke="#63b8ff" d="M636.57,-271.78C635.06,-255.75 630.68,-233.26 618.25,-218 595.41,-189.94 564.35,-212.72 545.25,-182 532.15,-160.93 561.34,-139.51 581.39,-127.95"/>
<polygon fill="#63b8ff" stroke="#63b8ff" points="633.12,-271.78 637.24,-281.55 640.11,-271.35 633.12,-271.78"/>
</a>
</g>
</g>
<!-- Node10 -->
<g id="Node000010" class="node">
<title>Node10</title>
<g id="a_Node000010"><a xlink:href="condition_8h.html" target="_top" xlink:title=" ">
<polygon fill="white" stroke="#666666" points="110.5,-182 0,-182 0,-163.5 110.5,-163.5 110.5,-182"/>
<text text-anchor="middle" x="55.25" y="-168.5" font-family="Helvetica,sans-Serif" font-size="10.00">include/sir/condition.h</text>
</a>
</g>
</g>
<!-- Node2&#45;&gt;Node10 -->
<g id="edge10_Node000002_Node000010" class="edge">
<title>Node2&#45;&gt;Node10</title>
<g id="a_edge10_Node000002_Node000010"><a xlink:title=" ">
<path fill="none" stroke="#63b8ff" d="M578.19,-290.43C497.28,-288.07 348.02,-279.25 225.25,-247 165.57,-231.32 99.79,-197.96 70.62,-182.26"/>
<polygon fill="#63b8ff" stroke="#63b8ff" points="578.05,-293.95 588.14,-290.72 578.24,-286.96 578.05,-293.95"/>
</a>
</g>
</g>
<!-- Node12 -->
<g id="Node000012" class="node">
<title>Node12</title>
<g id="a_Node000012"><a xlink:href="console_8h_source.html" target="_top" xlink:title=" ">
<polygon fill="white" stroke="#666666" points="545.88,-127.5 440.62,-127.5 440.62,-109 545.88,-109 545.88,-127.5"/>
<text text-anchor="middle" x="493.25" y="-114" font-family="Helvetica,sans-Serif" font-size="10.00">include/sir/console.h</text>
</a>
</g>
</g>
<!-- Node2&#45;&gt;Node12 -->
<g id="edge12_Node000002_Node000012" class="edge">
<title>Node2&#45;&gt;Node12</title>
<g id="a_edge12_Node000002_Node000012"><a xlink:title=" ">
<path fill="none" stroke="#63b8ff" d="M578.29,-289.56C546.79,-285.27 510.45,-274.17 490.25,-247 462.99,-210.32 481.54,-149.95 489.83,-127.77"/>
<polygon fill="#63b8ff" stroke="#63b8ff" points="577.86,-293.15 588.19,-290.81 578.65,-286.2 577.86,-293.15"/>
</a>
</g>
</g>
<!-- Node13 -->
<g id="Node000013" class="node">
<title>Node13</title>
<g id="a_Node000013"><a xlink:href="defaults_8h.html" target="_top" xlink:title="Default levels, options, and text styling.">
<polygon fill="white" stroke="#666666" points="660.25,-182 554.25,-182 554.25,-163.5 660.25,-163.5 660.25,-182"/>
<text text-anchor="middle" x="607.25" y="-168.5" font-family="Helvetica,sans-Serif" font-size="10.00">include/sir/defaults.h</text>
</a>
</g>
</g>
<!-- Node2&#45;&gt;Node13 -->
<g id="edge13_Node000002_Node000013" class="edge">
<title>Node2&#45;&gt;Node13</title>
<g id="a_edge13_Node000002_Node000013"><a xlink:title=" ">
<path fill="none" stroke="#63b8ff" d="M646.31,-273.11C652.6,-257.92 658.64,-235.91 651.25,-218 644.97,-202.78 630.64,-190.03 620.03,-182.19"/>
<polygon fill="#63b8ff" stroke="#63b8ff" points="642.85,-271.26 641.88,-281.81 649.22,-274.17 642.85,-271.26"/>
</a>
</g>
</g>
<!-- Node14 -->
<g id="Node000014" class="node">
<title>Node14</title>
<g id="a_Node000014"><a xlink:href="errors_8h_source.html" target="_top" xlink:title=" ">
<polygon fill="white" stroke="#666666" points="331.75,-241.75 234.75,-241.75 234.75,-223.25 331.75,-223.25 331.75,-241.75"/>
<text text-anchor="middle" x="283.25" y="-228.25" font-family="Helvetica,sans-Serif" font-size="10.00">include/sir/errors.h</text>
</a>
</g>
</g>
<!-- Node2&#45;&gt;Node14 -->
<g id="edge15_Node000002_Node000014" class="edge">
<title>Node2&#45;&gt;Node14</title>
<g id="a_edge15_Node000002_Node000014"><a xlink:title=" ">
<path fill="none" stroke="#63b8ff" d="M578.61,-282.48C521.72,-273.86 432.96,-260.13 356.25,-247 347.48,-245.5 338.14,-243.83 329.17,-242.18"/>
<polygon fill="#63b8ff" stroke="#63b8ff" points="577.79,-286.05 588.21,-284.08 578.84,-279.13 577.79,-286.05"/>
</a>
</g>
</g>
<!-- Node15 -->
<g id="Node000015" class="node">
<title>Node15</title>
<g id="a_Node000015"><a xlink:href="helpers_8h_source.html" target="_top" xlink:title=" ">
<polygon fill="white" stroke="#666666" points="460.12,-182 356.38,-182 356.38,-163.5 460.12,-163.5 460.12,-182"/>
<text text-anchor="middle" x="408.25" y="-168.5" font-family="Helvetica,sans-Serif" font-size="10.00">include/sir/helpers.h</text>
</a>
</g>
</g>
<!-- Node2&#45;&gt;Node15 -->
<g id="edge32_Node000002_Node000015" class="edge">
<title>Node2&#45;&gt;Node15</title>
<g id="a_edge32_Node000002_Node000015"><a xlink:title=" ">
<path fill="none" stroke="#63b8ff" d="M578.6,-287.66C541.05,-282.9 492.87,-271.96 457.25,-247 433.19,-230.14 417.66,-197.37 411.4,-182.03"/>
<polygon fill="#63b8ff" stroke="#63b8ff" points="578.06,-291.24 588.39,-288.9 578.85,-284.28 578.06,-291.24"/>
</a>
</g>
</g>
<!-- Node17 -->
<g id="Node000017" class="node">
<title>Node17</title>
<g id="a_Node000017"><a xlink:href="filecache_8h_source.html" target="_top" xlink:title=" ">
<polygon fill="white" stroke="#666666" points="836.5,-127.5 726,-127.5 726,-109 836.5,-109 836.5,-127.5"/>
<text text-anchor="middle" x="781.25" y="-114" font-family="Helvetica,sans-Serif" font-size="10.00">include/sir/filecache.h</text>
</a>
</g>
</g>
<!-- Node2&#45;&gt;Node17 -->
<g id="edge29_Node000002_Node000017" class="edge">
<title>Node2&#45;&gt;Node17</title>
<g id="a_edge29_Node000002_Node000017"><a xlink:title=" ">
<path fill="none" stroke="#63b8ff" d="M670.43,-278.41C707.16,-262.17 764.45,-230.37 789.25,-182 798.27,-164.41 790.65,-140.53 785.33,-127.91"/>
<polygon fill="#63b8ff" stroke="#63b8ff" points="669.49,-275.43 661.66,-282.58 672.23,-281.87 669.49,-275.43"/>
</a>
</g>
</g>
<!-- Node18 -->
<g id="Node000018" class="node">
<title>Node18</title>
<g id="a_Node000018"><a xlink:href="maps_8h_source.html" target="_top" xlink:title=" ">
<polygon fill="white" stroke="#666666" points="338,-182 242.5,-182 242.5,-163.5 338,-163.5 338,-182"/>
<text text-anchor="middle" x="290.25" y="-168.5" font-family="Helvetica,sans-Serif" font-size="10.00">include/sir/maps.h</text>
</a>
</g>
</g>
<!-- Node2&#45;&gt;Node18 -->
<g id="edge33_Node000002_Node000018" class="edge">
<title>Node2&#45;&gt;Node18</title>
<g id="a_edge33_Node000002_Node000018"><a xlink:title=" ">
<path fill="none" stroke="#63b8ff" d="M578.26,-283.4C535.48,-276.61 476.68,-265.01 427.25,-247 379.1,-229.46 326.96,-197.61 303.27,-182.35"/>
<polygon fill="#63b8ff" stroke="#63b8ff" points="577.64,-287 588.06,-285.06 578.71,-280.08 577.64,-287"/>
</a>
</g>
</g>
<!-- Node19 -->
<g id="Node000019" class="node">
<title>Node19</title>
<g id="a_Node000019"><a xlink:href="mutex_8h_source.html" target="_top" xlink:title=" ">
<polygon fill="white" stroke="#666666" points="972.12,-241.75 874.38,-241.75 874.38,-223.25 972.12,-223.25 972.12,-241.75"/>
<text text-anchor="middle" x="923.25" y="-228.25" font-family="Helvetica,sans-Serif" font-size="10.00">include/sir/mutex.h</text>
</a>
</g>
</g>
<!-- Node2&#45;&gt;Node19 -->
<g id="edge35_Node000002_Node000019" class="edge">
<title>Node2&#45;&gt;Node19</title>
<g id="a_edge35_Node000002_Node000019"><a xlink:title=" ">
<path fill="none" stroke="#63b8ff" d="M692.88,-280.46C738.02,-271.64 803.29,-258.75 860.25,-247 867.59,-245.49 875.4,-243.84 882.94,-242.23"/>
<polygon fill="#63b8ff" stroke="#63b8ff" points="692.28,-277.2 683.14,-282.55 693.62,-284.07 692.28,-277.2"/>
</a>
</g>
</g>
<!-- Node20 -->
<g id="Node000020" class="node">
<title>Node20</title>
<g id="a_Node000020"><a xlink:href="plugins_8h_source.html" target="_top" xlink:title=" ">
<polygon fill="white" stroke="#666666" points="780.38,-182 678.12,-182 678.12,-163.5 780.38,-163.5 780.38,-182"/>
<text text-anchor="middle" x="729.25" y="-168.5" font-family="Helvetica,sans-Serif" font-size="10.00">include/sir/plugins.h</text>
</a>
</g>
</g>
<!-- Node2&#45;&gt;Node20 -->
<g id="edge37_Node000002_Node000020" class="edge">
<title>Node2&#45;&gt;Node20</title>
<g id="a_edge37_Node000002_Node000020"><a xlink:title=" ">
<path fill="none" stroke="#63b8ff" d="M650.59,-274.21C670.51,-248.77 707.29,-201.8 722.45,-182.44"/>
<polygon fill="#63b8ff" stroke="#63b8ff" points="647.28,-271.77 643.87,-281.8 652.79,-276.08 647.28,-271.77"/>
</a>
</g>
</g>
<!-- Node21 -->
<g id="Node000021" class="node">
<title>Node21</title>
<g id="a_Node000021"><a xlink:href="queue_8h_source.html" target="_top" xlink:title=" ">
<polygon fill="white" stroke="#666666" points="1088.12,-241.75 990.38,-241.75 990.38,-223.25 1088.12,-223.25 1088.12,-241.75"/>
<text text-anchor="middle" x="1039.25" y="-228.25" font-family="Helvetica,sans-Serif" font-size="10.00">include/sir/queue.h</text>
</a>
</g>
</g>
<!-- Node2&#45;&gt;Node21 -->
<g id="edge39_Node000002_Node000021" class="edge">
<title>Node2&#45;&gt;Node21</title>
<g id="a_edge39_Node000002_Node000021"><a xlink:title=" ">
<path fill="none" stroke="#63b8ff" d="M695.94,-285.52C764.64,-278.39 881.69,-264.94 981.25,-247 988.78,-245.64 996.8,-243.94 1004.4,-242.21"/>
<polygon fill="#63b8ff" stroke="#63b8ff" points="695.93,-282.11 686.34,-286.61 696.65,-289.07 695.93,-282.11"/>
</a>
</g>
</g>
<!-- Node22 -->
<g id="Node000022" class="node">
<title>Node22</title>
<g id="a_Node000022"><a xlink:href="textstyle_8h_source.html" target="_top" xlink:title=" ">
<polygon fill="white" stroke="#666666" points="963.75,-127.5 854.75,-127.5 854.75,-109 963.75,-109 963.75,-127.5"/>
<text text-anchor="middle" x="909.25" y="-114" font-family="Helvetica,sans-Serif" font-size="10.00">include/sir/textstyle.h</text>
</a>
</g>
</g>
<!-- Node2&#45;&gt;Node22 -->
<g id="edge41_Node000002_Node000022" class="edge">
<title>Node2&#45;&gt;Node22</title>
<g id="a_edge41_Node000002_Node000022"><a xlink:title=" ">
<path fill="none" stroke="#63b8ff" d="M680.96,-279.36C704.72,-271.9 734.1,-261.03 758.25,-247 819.41,-211.46 879.92,-150.4 901.22,-127.9"/>
<polygon fill="#63b8ff" stroke="#63b8ff" points="680.03,-276.29 671.47,-282.54 682.06,-282.99 680.03,-276.29"/>
</a>
</g>
</g>
<!-- Node23 -->
<g id="Node000023" class="node">
<title>Node23</title>
<g id="a_Node000023"><a xlink:href="threadpool_8h_source.html" target="_top" xlink:title=" ">
<polygon fill="white" stroke="#666666" points="1222.5,-241.75 1106,-241.75 1106,-223.25 1222.5,-223.25 1222.5,-241.75"/>
<text text-anchor="middle" x="1164.25" y="-228.25" font-family="Helvetica,sans-Serif" font-size="10.00">include/sir/threadpool.h</text>
</a>
</g>
</g>
<!-- Node2&#45;&gt;Node23 -->
<g id="edge44_Node000002_Node000023" class="edge">
<title>Node2&#45;&gt;Node23</title>
<g id="a_edge44_Node000002_Node000023"><a xlink:title=" ">
<path fill="none" stroke="#63b8ff" d="M696.26,-287.53C784.02,-281.54 953.98,-268.27 1097.25,-247 1106.05,-245.69 1115.45,-243.99 1124.33,-242.24"/>
<polygon fill="#63b8ff" stroke="#63b8ff" points="696.2,-284.09 686.46,-288.25 696.67,-291.07 696.2,-284.09"/>
</a>
</g>
</g>
<!-- Node24 -->
<g id="Node000024" class="node">
<title>Node24</title>
<g id="a_Node000024"><a xlink:href="plugin__sample_8h_source.html" target="_top" xlink:title=" ">
<polygon fill="white" stroke="#666666" points="609.12,-247 499.38,-247 499.38,-218 609.12,-218 609.12,-247"/>
<text text-anchor="start" x="507.38" y="-233.5" font-family="Helvetica,sans-Serif" font-size="10.00">plugins/sample/plugin</text>
<text text-anchor="middle" x="554.25" y="-223" font-family="Helvetica,sans-Serif" font-size="10.00">_sample.h</text>
</a>
</g>
</g>
<!-- Node2&#45;&gt;Node24 -->
<g id="edge46_Node000002_Node000024" class="edge">
<title>Node2&#45;&gt;Node24</title>
<g id="a_edge46_Node000002_Node000024"><a xlink:title=" ">
<path fill="none" stroke="#63b8ff" d="M616.35,-276.71C603.45,-267.73 587,-256.29 574.28,-247.43"/>
<polygon fill="#63b8ff" stroke="#63b8ff" points="613.8,-279.89 624,-282.73 617.79,-274.14 613.8,-279.89"/>
</a>
</g>
</g>
<!-- Node4 -->
<g id="Node000004" class="node">
<title>Node4</title>
<g id="a_Node000004"><a xlink:href="example_8c.html" target="_top" xlink:title="A simple demonstration of initialization, configuration, and basic usage of libsir.">
<polygon fill="white" stroke="#666666" points="503.88,-73 404.62,-73 404.62,-54.5 503.88,-54.5 503.88,-73"/>
<text text-anchor="middle" x="454.25" y="-59.5" font-family="Helvetica,sans-Serif" font-size="10.00">example/example.c</text>
</a>
</g>
</g>
<!-- Node3&#45;&gt;Node4 -->
<g id="edge3_Node000003_Node000004" class="edge">
<title>Node3&#45;&gt;Node4</title>
<g id="a_edge3_Node000003_Node000004"><a xlink:title=" ">
<path fill="none" stroke="#63b8ff" d="M564.47,-104.93C537.93,-95.26 501.63,-82.02 478.06,-73.43"/>
<polygon fill="#63b8ff" stroke="#63b8ff" points="562.88,-108.44 573.47,-108.58 565.28,-101.87 562.88,-108.44"/>
</a>
</g>
</g>
<!-- Node5 -->
<g id="Node000005" class="node">
<title>Node5</title>
<g id="a_Node000005"><a xlink:href="sir_8hh.html" target="_top" xlink:title="C++ interface to libsir.">
<polygon fill="white" stroke="#666666" points="386.12,-73 312.38,-73 312.38,-54.5 386.12,-54.5 386.12,-73"/>
<text text-anchor="middle" x="349.25" y="-59.5" font-family="Helvetica,sans-Serif" font-size="10.00">include/sir.hh</text>
</a>
</g>
</g>
<!-- Node3&#45;&gt;Node5 -->
<g id="edge4_Node000003_Node000005" class="edge">
<title>Node3&#45;&gt;Node5</title>
<g id="a_edge4_Node000003_Node000005"><a xlink:title=" ">
<path fill="none" stroke="#63b8ff" d="M552.98,-107.7C505.22,-97.64 430.86,-81.96 386.42,-72.59"/>
<polygon fill="#63b8ff" stroke="#63b8ff" points="552.12,-111.31 562.63,-109.95 553.56,-104.46 552.12,-111.31"/>
</a>
</g>
</g>
<!-- Node7 -->
<g id="Node000007" class="node">
<title>Node7</title>
<g id="a_Node000007"><a xlink:href="sir_8c.html" target="_top" xlink:title="Public interface to libsir.">
<polygon fill="white" stroke="#666666" points="704.88,-73 653.62,-73 653.62,-54.5 704.88,-54.5 704.88,-73"/>
<text text-anchor="middle" x="679.25" y="-59.5" font-family="Helvetica,sans-Serif" font-size="10.00">src/sir.c</text>
</a>
</g>
</g>
<!-- Node3&#45;&gt;Node7 -->
<g id="edge6_Node000003_Node000007" class="edge">
<title>Node3&#45;&gt;Node7</title>
<g id="a_edge6_Node000003_Node000007"><a xlink:title=" ">
<path fill="none" stroke="#63b8ff" d="M620.5,-102.83C635.04,-93.41 653.54,-81.42 665.85,-73.43"/>
<polygon fill="#63b8ff" stroke="#63b8ff" points="619.11,-100.2 612.63,-108.58 622.92,-106.08 619.11,-100.2"/>
</a>
</g>
</g>
<!-- Node3&#45;&gt;Node8 -->
<g id="edge7_Node000003_Node000008" class="edge">
<title>Node3&#45;&gt;Node8</title>
<g id="a_edge7_Node000003_Node000008"><a xlink:title=" ">
<path fill="none" stroke="#63b8ff" d="M552.69,-108.66C490.51,-98.69 365.79,-81.59 294.29,-71.9"/>
<polygon fill="#63b8ff" stroke="#63b8ff" points="552.11,-112.28 562.54,-110.44 553.24,-105.37 552.11,-112.28"/>
</a>
</g>
</g>
<!-- Node6 -->
<g id="Node000006" class="node">
<title>Node6</title>
<g id="a_Node000006"><a xlink:href="tests_09_09_8hh_source.html" target="_top" xlink:title=" ">
<polygon fill="white" stroke="#666666" points="339.25,-18.5 251.25,-18.5 251.25,0 339.25,0 339.25,-18.5"/>
<text text-anchor="middle" x="295.25" y="-5" font-family="Helvetica,sans-Serif" font-size="10.00">tests/tests++.hh</text>
</a>
</g>
</g>
<!-- Node5&#45;&gt;Node6 -->
<g id="edge5_Node000005_Node000006" class="edge">
<title>Node5&#45;&gt;Node6</title>
<g id="a_edge5_Node000005_Node000006"><a xlink:title=" ">
<path fill="none" stroke="#63b8ff" d="M332.68,-46.64C323.22,-37.44 311.73,-26.27 304,-18.76"/>
<polygon fill="#63b8ff" stroke="#63b8ff" points="329.72,-48.62 339.33,-53.08 334.6,-43.6 329.72,-48.62"/>
</a>
</g>
</g>
<!-- Node8&#45;&gt;Node6 -->
<g id="edge8_Node000008_Node000006" class="edge">
<title>Node8&#45;&gt;Node6</title>
<g id="a_edge8_Node000008_Node000006"><a xlink:title=" ">
<path fill="none" stroke="#63b8ff" d="M257.82,-46.64C267.28,-37.44 278.77,-26.27 286.5,-18.76"/>
<polygon fill="#63b8ff" stroke="#63b8ff" points="255.9,-43.6 251.17,-53.08 260.78,-48.62 255.9,-43.6"/>
</a>
</g>
</g>
<!-- Node9 -->
<g id="Node000009" class="node">
<title>Node9</title>
<g id="a_Node000009"><a xlink:href="tests_8h_source.html" target="_top" xlink:title=" ">
<polygon fill="white" stroke="#666666" points="1006.62,-18.5 935.88,-18.5 935.88,0 1006.62,0 1006.62,-18.5"/>
<text text-anchor="middle" x="971.25" y="-5" font-family="Helvetica,sans-Serif" font-size="10.00">tests/tests.h</text>
</a>
</g>
</g>
<!-- Node8&#45;&gt;Node9 -->
<g id="edge9_Node000008_Node000009" class="edge">
<title>Node8&#45;&gt;Node9</title>
<g id="a_edge9_Node000008_Node000009"><a xlink:title=" ">
<path fill="none" stroke="#63b8ff" d="M304.97,-54.4C552.61,-30.09 837.26,-16.18 935.7,-11.78"/>
<polygon fill="#63b8ff" stroke="#63b8ff" points="304.93,-50.99 295.32,-55.45 305.62,-57.95 304.93,-50.99"/>
</a>
</g>
</g>
<!-- Node11 -->
<g id="Node000011" class="node">
<title>Node11</title>
<g id="a_Node000011"><a xlink:href="sircondition_8c.html" target="_top" xlink:title=" ">
<polygon fill="white" stroke="#666666" points="158.38,-73 68.12,-73 68.12,-54.5 158.38,-54.5 158.38,-73"/>
<text text-anchor="middle" x="113.25" y="-59.5" font-family="Helvetica,sans-Serif" font-size="10.00">src/sircondition.c</text>
</a>
</g>
</g>
<!-- Node10&#45;&gt;Node11 -->
<g id="edge11_Node000010_Node000011" class="edge">
<title>Node10&#45;&gt;Node11</title>
<g id="a_edge11_Node000010_Node000011"><a xlink:title=" ">
<path fill="none" stroke="#63b8ff" d="M64.88,-153.98C77.49,-130.72 99.08,-90.89 108.56,-73.4"/>
<polygon fill="#63b8ff" stroke="#63b8ff" points="61.49,-151.89 59.8,-162.35 67.64,-155.23 61.49,-151.89"/>
</a>
</g>
</g>
<!-- Node13&#45;&gt;Node7 -->
<g id="edge14_Node000013_Node000007" class="edge">
<title>Node13&#45;&gt;Node7</title>
<g id="a_edge14_Node000013_Node000007"><a xlink:title=" ">
<path fill="none" stroke="#63b8ff" d="M621.11,-154.64C627.46,-146.56 634.96,-136.7 641.25,-127.5 654.05,-108.79 667.42,-85.76 674.38,-73.46"/>
<polygon fill="#63b8ff" stroke="#63b8ff" points="617.82,-152.15 614.32,-162.15 623.29,-156.51 617.82,-152.15"/>
</a>
</g>
</g>
<!-- Node14&#45;&gt;Node8 -->
<g id="edge28_Node000014_Node000008" class="edge">
<title>Node14&#45;&gt;Node8</title>
<g id="a_edge28_Node000014_Node000008"><a xlink:title=" ">
<path fill="none" stroke="#63b8ff" d="M259.15,-216.73C247.39,-208.15 234.3,-196.22 227.25,-182 212.82,-152.89 217.01,-140.89 223.25,-109 225.8,-95.98 232.19,-81.95 236.63,-73.26"/>
<polygon fill="#63b8ff" stroke="#63b8ff" points="256.92,-220.13 267.15,-222.88 260.86,-214.35 256.92,-220.13"/>
</a>
</g>
</g>
<!-- Node14&#45;&gt;Node15 -->
<g id="edge16_Node000014_Node000015" class="edge">
<title>Node14&#45;&gt;Node15</title>
<g id="a_edge16_Node000014_Node000015"><a xlink:title=" ">
<path fill="none" stroke="#63b8ff" d="M311.84,-218.29C335.63,-207.3 368.83,-191.96 389.41,-182.45"/>
<polygon fill="#63b8ff" stroke="#63b8ff" points="310.57,-215.48 302.96,-222.85 313.51,-221.84 310.57,-215.48"/>
</a>
</g>
</g>
<!-- Node16 -->
<g id="Node000016" class="node">
<title>Node16</title>
<g id="a_Node000016"><a xlink:href="internal_8h_source.html" target="_top" xlink:title=" ">
<polygon fill="white" stroke="#666666" points="345.75,-127.5 242.75,-127.5 242.75,-109 345.75,-109 345.75,-127.5"/>
<text text-anchor="middle" x="294.25" y="-114" font-family="Helvetica,sans-Serif" font-size="10.00">include/sir/internal.h</text>
</a>
</g>
</g>
<!-- Node14&#45;&gt;Node16 -->
<g id="edge27_Node000014_Node000016" class="edge">
<title>Node14&#45;&gt;Node16</title>
<g id="a_edge27_Node000014_Node000016"><a xlink:title=" ">
<path fill="none" stroke="#63b8ff" d="M260.04,-216.66C242.55,-203.48 223.16,-183.29 233.25,-163.5 241.69,-146.95 259.54,-135.15 273.76,-127.91"/>
<polygon fill="#63b8ff" stroke="#63b8ff" points="257.66,-219.98 267.85,-222.88 261.7,-214.26 257.66,-219.98"/>
</a>
</g>
</g>
<!-- Node15&#45;&gt;Node4 -->
<g id="edge17_Node000015_Node000004" class="edge">
<title>Node15&#45;&gt;Node4</title>
<g id="a_edge17_Node000015_Node000004"><a xlink:title=" ">
<path fill="none" stroke="#63b8ff" d="M414.45,-152.91C418.76,-140.32 424.87,-123.47 431.25,-109 436.84,-96.32 444.43,-82.21 449.33,-73.4"/>
<polygon fill="#63b8ff" stroke="#63b8ff" points="410.9,-151.49 411.03,-162.09 417.53,-153.72 410.9,-151.49"/>
</a>
</g>
</g>
<!-- Node15&#45;&gt;Node5 -->
<g id="edge18_Node000015_Node000005" class="edge">
<title>Node15&#45;&gt;Node5</title>
<g id="a_edge18_Node000015_Node000005"><a xlink:title=" ">
<path fill="none" stroke="#63b8ff" d="M398.45,-153.98C385.63,-130.72 363.66,-90.89 354.02,-73.4"/>
<polygon fill="#63b8ff" stroke="#63b8ff" points="395.73,-155.29 403.62,-162.35 401.86,-151.91 395.73,-155.29"/>
</a>
</g>
</g>
<!-- Node15&#45;&gt;Node8 -->
<g id="edge26_Node000015_Node000008" class="edge">
<title>Node15&#45;&gt;Node8</title>
<g id="a_edge26_Node000015_Node000008"><a xlink:title=" ">
<path fill="none" stroke="#63b8ff" d="M351.32,-160.96C303.12,-151.24 240.7,-137.07 233.25,-127.5 220.97,-111.73 230.19,-86.67 236.55,-73.5"/>
<polygon fill="#63b8ff" stroke="#63b8ff" points="350.48,-164.56 360.98,-163.08 351.85,-157.69 350.48,-164.56"/>
</a>
</g>
</g>
<!-- Node15&#45;&gt;Node12 -->
<g id="edge19_Node000015_Node000012" class="edge">
<title>Node15&#45;&gt;Node12</title>
<g id="a_edge19_Node000015_Node000012"><a xlink:title=" ">
<path fill="none" stroke="#63b8ff" d="M431.6,-157.33C446.85,-147.91 466.27,-135.92 479.19,-127.93"/>
<polygon fill="#63b8ff" stroke="#63b8ff" points="429.95,-154.85 423.29,-163.08 433.63,-160.8 429.95,-154.85"/>
</a>
</g>
</g>
<!-- Node15&#45;&gt;Node16 -->
<g id="edge20_Node000015_Node000016" class="edge">
<title>Node15&#45;&gt;Node16</title>
<g id="a_edge20_Node000015_Node000016"><a xlink:title=" ">
<path fill="none" stroke="#63b8ff" d="M379.53,-158.53C358.73,-148.94 331.18,-136.26 313.1,-127.93"/>
<polygon fill="#63b8ff" stroke="#63b8ff" points="377.88,-162.08 388.43,-163.08 380.81,-155.72 377.88,-162.08"/>
</a>
</g>
</g>
<!-- Node16&#45;&gt;Node4 -->
<g id="edge21_Node000016_Node000004" class="edge">
<title>Node16&#45;&gt;Node4</title>
<g id="a_edge21_Node000016_Node000004"><a xlink:title=" ">
<path fill="none" stroke="#63b8ff" d="M331,-105.19C360.56,-95.49 401.37,-82.1 427.79,-73.43"/>
<polygon fill="#63b8ff" stroke="#63b8ff" points="330.08,-102.14 321.67,-108.58 332.26,-108.79 330.08,-102.14"/>
</a>
</g>
</g>
<!-- Node16&#45;&gt;Node5 -->
<g id="edge22_Node000016_Node000005" class="edge">
<title>Node16&#45;&gt;Node5</title>
<g id="a_edge22_Node000016_Node000005"><a xlink:title=" ">
<path fill="none" stroke="#63b8ff" d="M311.13,-101.14C320.76,-91.94 332.46,-80.77 340.34,-73.26"/>
<polygon fill="#63b8ff" stroke="#63b8ff" points="309.15,-98.14 304.33,-107.58 313.98,-103.21 309.15,-98.14"/>
</a>
</g>
</g>
<!-- Node16&#45;&gt;Node7 -->
<g id="edge23_Node000016_Node000007" class="edge">
<title>Node16&#45;&gt;Node7</title>
<g id="a_edge23_Node000016_Node000007"><a xlink:title=" ">
<path fill="none" stroke="#63b8ff" d="M356.83,-108.72C442.77,-97 593.48,-76.45 653.51,-68.26"/>
<polygon fill="#63b8ff" stroke="#63b8ff" points="356.61,-105.35 347.17,-110.17 357.55,-112.29 356.61,-105.35"/>
</a>
</g>
</g>
<!-- Node16&#45;&gt;Node8 -->
<g id="edge25_Node000016_Node000008" class="edge">
<title>Node16&#45;&gt;Node8</title>
<g id="a_edge25_Node000016_Node000008"><a xlink:title=" ">
<path fill="none" stroke="#63b8ff" d="M277.71,-100.86C268.47,-91.72 257.35,-80.7 249.84,-73.26"/>
<polygon fill="#63b8ff" stroke="#63b8ff" points="274.93,-103.03 284.5,-107.58 279.86,-98.06 274.93,-103.03"/>
</a>
</g>
</g>
<!-- Node16&#45;&gt;Node11 -->
<g id="edge24_Node000016_Node000011" class="edge">
<title>Node16&#45;&gt;Node11</title>
<g id="a_edge24_Node000016_Node000011"><a xlink:title=" ">
<path fill="none" stroke="#63b8ff" d="M253.99,-105.57C220.46,-95.85 173.46,-82.21 143.18,-73.43"/>
<polygon fill="#63b8ff" stroke="#63b8ff" points="252.78,-109.16 263.36,-108.58 254.73,-102.43 252.78,-109.16"/>
</a>
</g>
</g>
<!-- Node17&#45;&gt;Node7 -->
<g id="edge30_Node000017_Node000007" class="edge">
<title>Node17&#45;&gt;Node7</title>
<g id="a_edge30_Node000017_Node000007"><a xlink:title=" ">
<path fill="none" stroke="#63b8ff" d="M754.79,-103.63C736.27,-94.1 712.07,-81.64 696.12,-73.43"/>
<polygon fill="#63b8ff" stroke="#63b8ff" points="752.91,-107.12 763.41,-108.58 756.12,-100.89 752.91,-107.12"/>
</a>
</g>
</g>
<!-- Node17&#45;&gt;Node9 -->
<g id="edge31_Node000017_Node000009" class="edge">
<title>Node17&#45;&gt;Node9</title>
<g id="a_edge31_Node000017_Node000009"><a xlink:title=" ">
<path fill="none" stroke="#63b8ff" d="M805.98,-103.32C845.85,-80.87 923.16,-37.33 955.95,-18.87"/>
<polygon fill="#63b8ff" stroke="#63b8ff" points="804.47,-100.72 797.48,-108.67 807.91,-106.82 804.47,-100.72"/>
</a>
</g>
</g>
<!-- Node18&#45;&gt;Node16 -->
<g id="edge34_Node000018_Node000016" class="edge">
<title>Node18&#45;&gt;Node16</title>
<g id="a_edge34_Node000018_Node000016"><a xlink:title=" ">
<path fill="none" stroke="#63b8ff" d="M291.74,-152.22C292.38,-143.79 293.1,-134.36 293.6,-127.76"/>
<polygon fill="#63b8ff" stroke="#63b8ff" points="288.18,-151.84 290.91,-162.08 295.16,-152.38 288.18,-151.84"/>
</a>
</g>
</g>
<!-- Node19&#45;&gt;Node9 -->
<g id="edge36_Node000019_Node000009" class="edge">
<title>Node19&#45;&gt;Node9</title>
<g id="a_edge36_Node000019_Node000009"><a xlink:title=" ">
<path fill="none" stroke="#63b8ff" d="M934.88,-213.71C947.21,-193.7 965.9,-159.77 973.25,-127.5 982.3,-87.8 975.99,-38.57 972.79,-18.93"/>
<polygon fill="#63b8ff" stroke="#63b8ff" points="931.5,-211.5 929.11,-221.82 937.42,-215.25 931.5,-211.5"/>
</a>
</g>
</g>
<!-- Node20&#45;&gt;Node7 -->
<g id="edge38_Node000020_Node000007" class="edge">
<title>Node20&#45;&gt;Node7</title>
<g id="a_edge38_Node000020_Node000007"><a xlink:title=" ">
<path fill="none" stroke="#63b8ff" d="M720.8,-153.66C709.91,-130.37 691.43,-90.81 683.29,-73.4"/>
<polygon fill="#63b8ff" stroke="#63b8ff" points="717.92,-154.78 725.33,-162.35 724.26,-151.81 717.92,-154.78"/>
</a>
</g>
</g>
<!-- Node21&#45;&gt;Node9 -->
<g id="edge40_Node000021_Node000009" class="edge">
<title>Node21&#45;&gt;Node9</title>
<g id="a_edge40_Node000021_Node000009"><a xlink:title=" ">
<path fill="none" stroke="#63b8ff" d="M1035.16,-212.55C1027.87,-179.83 1011.47,-110.81 991.25,-54.5 986.69,-41.8 980.02,-27.69 975.66,-18.9"/>
<polygon fill="#63b8ff" stroke="#63b8ff" points="1031.86,-212.86 1037.43,-221.88 1038.7,-211.36 1031.86,-212.86"/>
</a>
</g>
</g>
<!-- Node22&#45;&gt;Node7 -->
<g id="edge42_Node000022_Node000007" class="edge">
<title>Node22&#45;&gt;Node7</title>
<g id="a_edge42_Node000022_Node000007"><a xlink:title=" ">
<path fill="none" stroke="#63b8ff" d="M860.35,-106.09C812.86,-95.25 742.58,-79.21 705.07,-70.64"/>
<polygon fill="#63b8ff" stroke="#63b8ff" points="859.48,-109.71 870.01,-108.52 861.04,-102.88 859.48,-109.71"/>
</a>
</g>
</g>
<!-- Node22&#45;&gt;Node9 -->
<g id="edge43_Node000022_Node000009" class="edge">
<title>Node22&#45;&gt;Node9</title>
<g id="a_edge43_Node000022_Node000009"><a xlink:title=" ">
<path fill="none" stroke="#63b8ff" d="M919.55,-99.48C933.02,-76.22 956.11,-36.39 966.24,-18.9"/>
<polygon fill="#63b8ff" stroke="#63b8ff" points="916.1,-97.45 914.12,-107.85 922.16,-100.96 916.1,-97.45"/>
</a>
</g>
</g>
<!-- Node23&#45;&gt;Node9 -->
<g id="edge45_Node000023_Node000009" class="edge">
<title>Node23&#45;&gt;Node9</title>
<g id="a_edge45_Node000023_Node000009"><a xlink:title=" ">
<path fill="none" stroke="#63b8ff" d="M1149.68,-214.79C1111.05,-170.52 1007.05,-51.29 978.56,-18.63"/>
<polygon fill="#63b8ff" stroke="#63b8ff" points="1147.47,-216.59 1156.68,-221.83 1152.75,-211.99 1147.47,-216.59"/>
</a>
</g>
</g>
</g>
</svg>
