<?xml version="1.0" encoding="UTF-8" standalone="no"?>
<!DOCTYPE svg PUBLIC "-//W3C//DTD SVG 1.1//EN"
 "http://www.w3.org/Graphics/SVG/1.1/DTD/svg11.dtd">
<!-- Generated by graphviz version 12.2.1 (20241206.2353)
 -->
<!-- Title: sir::default_adapter&lt; TPolicy &gt; Pages: 1 -->
<svg width="397pt" height="300pt"
 viewBox="0.00 0.00 397.25 299.75" xmlns="http://www.w3.org/2000/svg" xmlns:xlink="http://www.w3.org/1999/xlink">
<g id="graph0" class="graph" transform="scale(1 1) rotate(0) translate(4 295.75)">
<title>sir::default_adapter&lt; TPolicy &gt;</title>
<!-- Node1 -->
<g id="Node000001" class="node">
<title>Node1</title>
<g id="a_Node000001"><a xlink:title="The default adapter implementation.">
<polygon fill="#999999" stroke="#666666" points="200,-165.5 100.75,-165.5 100.75,-136.5 200,-136.5 200,-165.5"/>
<text text-anchor="start" x="108.75" y="-152" font-family="Helvetica,sans-Serif" font-size="10.00">sir::default_adapter</text>
<text text-anchor="middle" x="150.38" y="-141.5" font-family="Helvetica,sans-Serif" font-size="10.00">&lt; TPolicy &gt;</text>
</a>
</g>
</g>
<!-- Node3 -->
<g id="Node000003" class="node">
<title>Node3</title>
<g id="a_Node000003"><a xlink:href="classsir_1_1logger.html" target="_top" xlink:title=" ">
<polygon fill="white" stroke="#666666" points="369.38,-291.75 255.88,-291.75 255.88,-252.25 369.38,-252.25 369.38,-291.75"/>
<text text-anchor="start" x="263.88" y="-278.25" font-family="Helvetica,sans-Serif" font-size="10.00">sir::logger&lt; true,</text>
<text text-anchor="start" x="263.88" y="-267.75" font-family="Helvetica,sans-Serif" font-size="10.00"> default_policy, default</text>
<text text-anchor="middle" x="312.62" y="-257.25" font-family="Helvetica,sans-Serif" font-size="10.00">_adapter &gt;</text>
</a>
</g>
</g>
<!-- Node1&#45;&gt;Node3 -->
<g id="edge2_Node000001_Node000003" class="edge">
<title>Node1&#45;&gt;Node3</title>
<g id="a_edge2_Node000001_Node000003"><a xlink:title=" ">
<path fill="none" stroke="#63b8ff" d="M168.17,-174.71C183.74,-195.2 208.57,-224.37 236,-243 242.05,-247.11 248.76,-250.74 255.62,-253.93"/>
<polygon fill="#63b8ff" stroke="#63b8ff" points="171.17,-172.88 162.4,-166.93 165.54,-177.05 171.17,-172.88"/>
</a>
</g>
</g>
<!-- Node4 -->
<g id="Node000004" class="node">
<title>Node4</title>
<g id="a_Node000004"><a xlink:href="classsir_1_1logger.html" target="_top" xlink:title=" ">
<polygon fill="white" stroke="#666666" points="388.88,-233.75 236.38,-233.75 236.38,-194.25 388.88,-194.25 388.88,-233.75"/>
<text text-anchor="start" x="244.38" y="-220.25" font-family="Helvetica,sans-Serif" font-size="10.00">sir::logger&lt; true,</text>
<text text-anchor="start" x="244.38" y="-209.75" font-family="Helvetica,sans-Serif" font-size="10.00"> default_policy, default</text>
<text text-anchor="middle" x="312.62" y="-199.25" font-family="Helvetica,sans-Serif" font-size="10.00">_adapter, std_format_adapter &gt;</text>
</a>
</g>
</g>
<!-- Node1&#45;&gt;Node4 -->
<g id="edge3_Node000001_Node000004" class="edge">
<title>Node1&#45;&gt;Node4</title>
<g id="a_edge3_Node000001_Node000004"><a xlink:title=" ">
<path fill="none" stroke="#63b8ff" d="M198.43,-170.06C210.65,-174.97 223.8,-180.21 236,-185 243.33,-187.88 251.07,-190.88 258.69,-193.83"/>
<polygon fill="#63b8ff" stroke="#63b8ff" points="199.97,-166.91 189.38,-166.42 197.35,-173.4 199.97,-166.91"/>
</a>
</g>
</g>
<!-- Node5 -->
<g id="Node000005" class="node">
<title>Node5</title>
<g id="a_Node000005"><a xlink:href="classsir_1_1logger.html" target="_top" xlink:title=" ">
<polygon fill="white" stroke="#666666" points="370.88,-176 254.38,-176 254.38,-126 370.88,-126 370.88,-176"/>
<text text-anchor="start" x="262.38" y="-162.5" font-family="Helvetica,sans-Serif" font-size="10.00">sir::logger&lt; true,</text>
<text text-anchor="start" x="262.38" y="-152" font-family="Helvetica,sans-Serif" font-size="10.00"> default_policy, default</text>
<text text-anchor="start" x="262.38" y="-141.5" font-family="Helvetica,sans-Serif" font-size="10.00">_adapter, boost_format</text>
<text text-anchor="middle" x="312.62" y="-131" font-family="Helvetica,sans-Serif" font-size="10.00">_adapter &gt;</text>
</a>
</g>
</g>
<!-- Node1&#45;&gt;Node5 -->
<g id="edge4_Node000001_Node000005" class="edge">
<title>Node1&#45;&gt;Node5</title>
<g id="a_edge4_Node000001_Node000005"><a xlink:title=" ">
<path fill="none" stroke="#63b8ff" d="M211.72,-151C225.56,-151 240.24,-151 253.97,-151"/>
<polygon fill="#63b8ff" stroke="#63b8ff" points="211.84,-147.5 201.84,-151 211.84,-154.5 211.84,-147.5"/>
</a>
</g>
</g>
<!-- Node6 -->
<g id="Node000006" class="node">
<title>Node6</title>
<g id="a_Node000006"><a xlink:href="classsir_1_1logger.html" target="_top" xlink:title=" ">
<polygon fill="white" stroke="#666666" points="389.25,-107.75 236,-107.75 236,-68.25 389.25,-68.25 389.25,-107.75"/>
<text text-anchor="start" x="244" y="-94.25" font-family="Helvetica,sans-Serif" font-size="10.00">sir::logger&lt; true,</text>
<text text-anchor="start" x="244" y="-83.75" font-family="Helvetica,sans-Serif" font-size="10.00"> default_policy, default</text>
<text text-anchor="middle" x="312.62" y="-73.25" font-family="Helvetica,sans-Serif" font-size="10.00">_adapter, fmt_format_adapter &gt;</text>
</a>
</g>
</g>
<!-- Node1&#45;&gt;Node6 -->
<g id="edge5_Node000001_Node000006" class="edge">
<title>Node1&#45;&gt;Node6</title>
<g id="a_edge5_Node000001_Node000006"><a xlink:title=" ">
<path fill="none" stroke="#63b8ff" d="M198.43,-131.94C210.65,-127.03 223.8,-121.79 236,-117 243.33,-114.12 251.07,-111.12 258.69,-108.17"/>
<polygon fill="#63b8ff" stroke="#63b8ff" points="197.35,-128.6 189.38,-135.58 199.97,-135.09 197.35,-128.6"/>
</a>
</g>
</g>
<!-- Node7 -->
<g id="Node000007" class="node">
<title>Node7</title>
<g id="a_Node000007"><a xlink:href="classsir_1_1logger.html" target="_top" xlink:title=" ">
<polygon fill="white" stroke="#666666" points="370.5,-50 254.75,-50 254.75,0 370.5,0 370.5,-50"/>
<text text-anchor="start" x="262.75" y="-36.5" font-family="Helvetica,sans-Serif" font-size="10.00">sir::logger&lt; true,</text>
<text text-anchor="start" x="262.75" y="-26" font-family="Helvetica,sans-Serif" font-size="10.00"> default_policy, default</text>
<text text-anchor="start" x="262.75" y="-15.5" font-family="Helvetica,sans-Serif" font-size="10.00">_adapter, std_iostream</text>
<text text-anchor="middle" x="312.62" y="-5" font-family="Helvetica,sans-Serif" font-size="10.00">_adapter &gt;</text>
</a>
</g>
</g>
<!-- Node1&#45;&gt;Node7 -->
<g id="edge6_Node000001_Node000007" class="edge">
<title>Node1&#45;&gt;Node7</title>
<g id="a_edge6_Node000001_Node000007"><a xlink:title=" ">
<path fill="none" stroke="#63b8ff" d="M168.7,-127.31C184.45,-107.09 209.26,-78.29 236,-59 241.72,-54.87 248.02,-51.08 254.47,-47.65"/>
<polygon fill="#63b8ff" stroke="#63b8ff" points="166.12,-124.93 162.84,-135 171.69,-129.17 166.12,-124.93"/>
</a>
</g>
</g>
<!-- Node2 -->
<g id="Node000002" class="node">
<title>Node2</title>
<g id="a_Node000002"><a xlink:href="classsir_1_1adapter.html" target="_top" xlink:title="Defines the abstract interface for an adapter, which ultimately becomes a public base class of logger...">
<polygon fill="white" stroke="#666666" points="64.75,-160.25 0,-160.25 0,-141.75 64.75,-141.75 64.75,-160.25"/>
<text text-anchor="middle" x="32.38" y="-146.75" font-family="Helvetica,sans-Serif" font-size="10.00">sir::adapter</text>
</a>
</g>
</g>
<!-- Node2&#45;&gt;Node1 -->
<g id="edge1_Node000001_Node000002" class="edge">
<title>Node2&#45;&gt;Node1</title>
<g id="a_edge1_Node000001_Node000002"><a xlink:title=" ">
<path fill="none" stroke="#63b8ff" d="M76.47,-151C84.23,-151 92.37,-151 100.29,-151"/>
<polygon fill="#63b8ff" stroke="#63b8ff" points="76.59,-147.5 66.59,-151 76.59,-154.5 76.59,-147.5"/>
</a>
</g>
</g>
</g>
</svg>
