<?xml version="1.0" encoding="UTF-8" standalone="no"?>
<!DOCTYPE svg PUBLIC "-//W3C//DTD SVG 1.1//EN"
 "http://www.w3.org/Graphics/SVG/1.1/DTD/svg11.dtd">
<!-- Generated by graphviz version 14.1.4 (20260321.0153)
 -->
<!-- Title: sir::adapter Pages: 1 -->
<svg width="424pt" height="316pt"
 viewBox="0.00 0.00 424.00 316.00" xmlns="http://www.w3.org/2000/svg" xmlns:xlink="http://www.w3.org/1999/xlink">

<svg id="main" version="1.1" xmlns="http://www.w3.org/2000/svg" xmlns:xlink="http://www.w3.org/1999/xlink" xml:space="preserve">

<style type="text/css"><![CDATA[
.node, .edge {opacity: 0.7;}
.node.selected, .edge.selected {opacity: 1;}
.edge:hover path { stroke: red; }
.edge:hover polygon { stroke: red; fill: red; }
]]></style>
<script type="application/ecmascript" xlink:href="svg.min.js"/>
<svg id="graph" class="graph">
<g id="graph0" class="graph" transform="scale(1 1) rotate(0) translate(4 312.12)">
<title>sir::adapter</title>
<!-- Node1 -->
<g id="Node000001" class="node">
<title>Node1</title>
<g id="a_Node000001"><a xlink:title="Defines the abstract interface for an adapter, which ultimately becomes a public base class of logger...">
<polygon fill="#999999" stroke="#666666" points="64.75,-122.88 0,-122.88 0,-103.62 64.75,-103.62 64.75,-122.88"/>
<text xml:space="preserve" text-anchor="middle" x="32.38" y="-109.38" font-family="Helvetica,sans-Serif" font-size="10.00">sir::adapter</text>
</a>
</g>
</g>
<!-- Node2 -->
<g id="Node000002" class="node">
<title>Node2</title>
<g id="a_Node000002"><a xlink:href="classsir_1_1boost__format__adapter.html" target="_top" xlink:title="Adapter for boost::format (when available).">
<polygon fill="white" stroke="#666666" points="227.75,-226.5 100.75,-226.5 100.75,-196 227.75,-196 227.75,-226.5"/>
<text xml:space="preserve" text-anchor="start" x="108.75" y="-213" font-family="Helvetica,sans-Serif" font-size="10.00">sir::boost_format_adapter</text>
<text xml:space="preserve" text-anchor="middle" x="164.25" y="-201.75" font-family="Helvetica,sans-Serif" font-size="10.00">&lt; TPolicy &gt;</text>
</a>
</g>
</g>
<!-- Node1&#45;&gt;Node2 -->
<g id="edge1_Node000001_Node000002" class="edge">
<title>Node1&#45;&gt;Node2</title>
<g id="a_edge1_Node000001_Node000002"><a xlink:title=" ">
<path fill="none" stroke="#63b8ff" d="M47.12,-132.39C59.57,-148.57 79.22,-171.43 100.75,-186.25 105.85,-189.76 111.52,-192.89 117.3,-195.65"/>
<polygon fill="#63b8ff" stroke="#63b8ff" points="50.03,-130.44 41.25,-124.52 44.42,-134.63 50.03,-130.44"/>
</a>
</g>
</g>
<!-- Node3 -->
<g id="Node000003" class="node">
<title>Node3</title>
<g id="a_Node000003"><a xlink:href="classsir_1_1default__adapter.html" target="_top" xlink:title="The default adapter implementation.">
<polygon fill="white" stroke="#666666" points="213.88,-177.5 114.62,-177.5 114.62,-147 213.88,-147 213.88,-177.5"/>
<text xml:space="preserve" text-anchor="start" x="122.62" y="-164" font-family="Helvetica,sans-Serif" font-size="10.00">sir::default_adapter</text>
<text xml:space="preserve" text-anchor="middle" x="164.25" y="-152.75" font-family="Helvetica,sans-Serif" font-size="10.00">&lt; TPolicy &gt;</text>
</a>
</g>
</g>
<!-- Node1&#45;&gt;Node3 -->
<g id="edge2_Node000001_Node000003" class="edge">
<title>Node1&#45;&gt;Node3</title>
<g id="a_edge2_Node000001_Node000003"><a xlink:title=" ">
<path fill="none" stroke="#63b8ff" d="M70.51,-127.26C86.47,-133.28 105.18,-140.34 121.6,-146.54"/>
<polygon fill="#63b8ff" stroke="#63b8ff" points="71.98,-124.07 61.39,-123.82 69.51,-130.62 71.98,-124.07"/>
</a>
</g>
</g>
<!-- Node9 -->
<g id="Node000009" class="node">
<title>Node9</title>
<g id="a_Node000009"><a xlink:href="classsir_1_1fmt__format__adapter.html" target="_top" xlink:title="Adapter for {fmt} (when available).">
<polygon fill="white" stroke="#666666" points="222.88,-128.5 105.62,-128.5 105.62,-98 222.88,-98 222.88,-128.5"/>
<text xml:space="preserve" text-anchor="start" x="113.62" y="-115" font-family="Helvetica,sans-Serif" font-size="10.00">sir::fmt_format_adapter</text>
<text xml:space="preserve" text-anchor="middle" x="164.25" y="-103.75" font-family="Helvetica,sans-Serif" font-size="10.00">&lt; TPolicy &gt;</text>
</a>
</g>
</g>
<!-- Node1&#45;&gt;Node9 -->
<g id="edge8_Node000001_Node000009" class="edge">
<title>Node1&#45;&gt;Node9</title>
<g id="a_edge8_Node000001_Node000009"><a xlink:title=" ">
<path fill="none" stroke="#63b8ff" d="M76.4,-113.25C85.62,-113.25 95.51,-113.25 105.19,-113.25"/>
<polygon fill="#63b8ff" stroke="#63b8ff" points="76.66,-109.75 66.66,-113.25 76.66,-116.75 76.66,-109.75"/>
</a>
</g>
</g>
<!-- Node10 -->
<g id="Node000010" class="node">
<title>Node10</title>
<g id="a_Node000010"><a xlink:href="classsir_1_1std__format__adapter.html" target="_top" xlink:title="Adapter for std::format (when available).">
<polygon fill="white" stroke="#666666" points="222.5,-79.5 106,-79.5 106,-49 222.5,-49 222.5,-79.5"/>
<text xml:space="preserve" text-anchor="start" x="114" y="-66" font-family="Helvetica,sans-Serif" font-size="10.00">sir::std_format_adapter</text>
<text xml:space="preserve" text-anchor="middle" x="164.25" y="-54.75" font-family="Helvetica,sans-Serif" font-size="10.00">&lt; TPolicy &gt;</text>
</a>
</g>
</g>
<!-- Node1&#45;&gt;Node10 -->
<g id="edge9_Node000001_Node000010" class="edge">
<title>Node1&#45;&gt;Node10</title>
<g id="a_edge9_Node000001_Node000010"><a xlink:title=" ">
<path fill="none" stroke="#63b8ff" d="M70.51,-99.24C86.47,-93.22 105.18,-86.16 121.6,-79.96"/>
<polygon fill="#63b8ff" stroke="#63b8ff" points="69.51,-95.88 61.39,-102.68 71.98,-102.43 69.51,-95.88"/>
</a>
</g>
</g>
<!-- Node11 -->
<g id="Node000011" class="node">
<title>Node11</title>
<g id="a_Node000011"><a xlink:href="classsir_1_1std__iostream__adapter.html" target="_top" xlink:title="Provides a std::iostream interface to libsir&#39;s logging functions.">
<polygon fill="white" stroke="#666666" points="227.38,-30.5 101.12,-30.5 101.12,0 227.38,0 227.38,-30.5"/>
<text xml:space="preserve" text-anchor="start" x="109.12" y="-17" font-family="Helvetica,sans-Serif" font-size="10.00">sir::std_iostream_adapter</text>
<text xml:space="preserve" text-anchor="middle" x="164.25" y="-5.75" font-family="Helvetica,sans-Serif" font-size="10.00">&lt; TPolicy &gt;</text>
</a>
</g>
</g>
<!-- Node1&#45;&gt;Node11 -->
<g id="edge10_Node000001_Node000011" class="edge">
<title>Node1&#45;&gt;Node11</title>
<g id="a_edge10_Node000001_Node000011"><a xlink:title=" ">
<path fill="none" stroke="#63b8ff" d="M47.12,-94.11C59.57,-77.93 79.22,-55.07 100.75,-40.25 105.85,-36.74 111.52,-33.61 117.3,-30.85"/>
<polygon fill="#63b8ff" stroke="#63b8ff" points="44.42,-91.87 41.25,-101.98 50.03,-96.06 44.42,-91.87"/>
</a>
</g>
</g>
<!-- Node4 -->
<g id="Node000004" class="node">
<title>Node4</title>
<g id="a_Node000004"><a xlink:href="classsir_1_1logger.html" target="_top" xlink:title=" ">
<polygon fill="white" stroke="#666666" points="396.38,-308.12 283.62,-308.12 283.62,-266.38 396.38,-266.38 396.38,-308.12"/>
<text xml:space="preserve" text-anchor="start" x="291.62" y="-294.62" font-family="Helvetica,sans-Serif" font-size="10.00">sir::logger&lt; true,</text>
<text xml:space="preserve" text-anchor="start" x="291.62" y="-283.38" font-family="Helvetica,sans-Serif" font-size="10.00"> default_policy, default</text>
<text xml:space="preserve" text-anchor="middle" x="340" y="-272.12" font-family="Helvetica,sans-Serif" font-size="10.00">_adapter &gt;</text>
</a>
</g>
</g>
<!-- Node3&#45;&gt;Node4 -->
<g id="edge3_Node000003_Node000004" class="edge">
<title>Node3&#45;&gt;Node4</title>
<g id="a_edge3_Node000003_Node000004"><a xlink:title=" ">
<path fill="none" stroke="#63b8ff" d="M223.36,-183.62C224.88,-184.77 226.35,-185.98 227.75,-187.25 253.63,-210.79 237.86,-233.72 263.75,-257.25 269.47,-262.45 276.21,-266.8 283.27,-270.43"/>
<polygon fill="#63b8ff" stroke="#63b8ff" points="225.65,-180.93 215.35,-178.46 221.86,-186.82 225.65,-180.93"/>
</a>
</g>
</g>
<!-- Node5 -->
<g id="Node000005" class="node">
<title>Node5</title>
<g id="a_Node000005"><a xlink:href="classsir_1_1logger.html" target="_top" xlink:title=" ">
<polygon fill="white" stroke="#666666" points="415.88,-248.12 264.12,-248.12 264.12,-206.38 415.88,-206.38 415.88,-248.12"/>
<text xml:space="preserve" text-anchor="start" x="272.12" y="-234.62" font-family="Helvetica,sans-Serif" font-size="10.00">sir::logger&lt; true,</text>
<text xml:space="preserve" text-anchor="start" x="272.12" y="-223.38" font-family="Helvetica,sans-Serif" font-size="10.00"> default_policy, default</text>
<text xml:space="preserve" text-anchor="middle" x="340" y="-212.12" font-family="Helvetica,sans-Serif" font-size="10.00">_adapter, std_format_adapter &gt;</text>
</a>
</g>
</g>
<!-- Node3&#45;&gt;Node5 -->
<g id="edge4_Node000003_Node000005" class="edge">
<title>Node3&#45;&gt;Node5</title>
<g id="a_edge4_Node000003_Node000005"><a xlink:title=" ">
<path fill="none" stroke="#63b8ff" d="M217.9,-181.94C238.12,-189.51 261.28,-198.18 281.9,-205.89"/>
<polygon fill="#63b8ff" stroke="#63b8ff" points="219.32,-178.74 208.73,-178.52 216.87,-185.3 219.32,-178.74"/>
</a>
</g>
</g>
<!-- Node6 -->
<g id="Node000006" class="node">
<title>Node6</title>
<g id="a_Node000006"><a xlink:href="classsir_1_1logger.html" target="_top" xlink:title=" ">
<polygon fill="white" stroke="#666666" points="397.88,-188.75 282.12,-188.75 282.12,-135.75 397.88,-135.75 397.88,-188.75"/>
<text xml:space="preserve" text-anchor="start" x="290.12" y="-175.25" font-family="Helvetica,sans-Serif" font-size="10.00">sir::logger&lt; true,</text>
<text xml:space="preserve" text-anchor="start" x="290.12" y="-164" font-family="Helvetica,sans-Serif" font-size="10.00"> default_policy, default</text>
<text xml:space="preserve" text-anchor="start" x="290.12" y="-152.75" font-family="Helvetica,sans-Serif" font-size="10.00">_adapter, boost_format</text>
<text xml:space="preserve" text-anchor="middle" x="340" y="-141.5" font-family="Helvetica,sans-Serif" font-size="10.00">_adapter &gt;</text>
</a>
</g>
</g>
<!-- Node3&#45;&gt;Node6 -->
<g id="edge5_Node000003_Node000006" class="edge">
<title>Node3&#45;&gt;Node6</title>
<g id="a_edge5_Node000003_Node000006"><a xlink:title=" ">
<path fill="none" stroke="#63b8ff" d="M225.54,-162.25C243.82,-162.25 263.84,-162.25 281.91,-162.25"/>
<polygon fill="#63b8ff" stroke="#63b8ff" points="225.63,-158.75 215.62,-162.25 225.62,-165.75 225.63,-158.75"/>
</a>
</g>
</g>
<!-- Node7 -->
<g id="Node000007" class="node">
<title>Node7</title>
<g id="a_Node000007"><a xlink:href="classsir_1_1logger.html" target="_top" xlink:title=" ">
<polygon fill="white" stroke="#666666" points="416.25,-118.12 263.75,-118.12 263.75,-76.38 416.25,-76.38 416.25,-118.12"/>
<text xml:space="preserve" text-anchor="start" x="271.75" y="-104.62" font-family="Helvetica,sans-Serif" font-size="10.00">sir::logger&lt; true,</text>
<text xml:space="preserve" text-anchor="start" x="271.75" y="-93.38" font-family="Helvetica,sans-Serif" font-size="10.00"> default_policy, default</text>
<text xml:space="preserve" text-anchor="middle" x="340" y="-82.12" font-family="Helvetica,sans-Serif" font-size="10.00">_adapter, fmt_format_adapter &gt;</text>
</a>
</g>
</g>
<!-- Node3&#45;&gt;Node7 -->
<g id="edge6_Node000003_Node000007" class="edge">
<title>Node3&#45;&gt;Node7</title>
<g id="a_edge6_Node000003_Node000007"><a xlink:title=" ">
<path fill="none" stroke="#63b8ff" d="M217.9,-142.56C238.12,-134.99 261.28,-126.32 281.9,-118.61"/>
<polygon fill="#63b8ff" stroke="#63b8ff" points="216.87,-139.2 208.73,-145.98 219.32,-145.76 216.87,-139.2"/>
</a>
</g>
</g>
<!-- Node8 -->
<g id="Node000008" class="node">
<title>Node8</title>
<g id="a_Node000008"><a xlink:href="classsir_1_1logger.html" target="_top" xlink:title=" ">
<polygon fill="white" stroke="#666666" points="397.5,-58.75 282.5,-58.75 282.5,-5.75 397.5,-5.75 397.5,-58.75"/>
<text xml:space="preserve" text-anchor="start" x="290.5" y="-45.25" font-family="Helvetica,sans-Serif" font-size="10.00">sir::logger&lt; true,</text>
<text xml:space="preserve" text-anchor="start" x="290.5" y="-34" font-family="Helvetica,sans-Serif" font-size="10.00"> default_policy, default</text>
<text xml:space="preserve" text-anchor="start" x="290.5" y="-22.75" font-family="Helvetica,sans-Serif" font-size="10.00">_adapter, std_iostream</text>
<text xml:space="preserve" text-anchor="middle" x="340" y="-11.5" font-family="Helvetica,sans-Serif" font-size="10.00">_adapter &gt;</text>
</a>
</g>
</g>
<!-- Node3&#45;&gt;Node8 -->
<g id="edge7_Node000003_Node000008" class="edge">
<title>Node3&#45;&gt;Node8</title>
<g id="a_edge7_Node000003_Node000008"><a xlink:title=" ">
<path fill="none" stroke="#63b8ff" d="M223.36,-140.88C224.88,-139.73 226.35,-138.52 227.75,-137.25 253.63,-113.71 238.53,-91.49 263.75,-67.25 269.15,-62.06 275.46,-57.53 282.09,-53.61"/>
<polygon fill="#63b8ff" stroke="#63b8ff" points="221.86,-137.68 215.35,-146.04 225.65,-143.57 221.86,-137.68"/>
</a>
</g>
</g>
</g>
</svg>
</svg>

<style type='text/css'>
<![CDATA[
[data-mouse-over-selected='false'] { opacity: 0.7; }
[data-mouse-over-selected='true']  { opacity: 1.0; }
]]>
</style>
<script type="application/ecmascript"><![CDATA[
document.addEventListener('DOMContentLoaded', (event) => {
  highlightEdges();
  highlightAdjacentNodes();
});
]]></script>
</svg>
