<?xml version="1.0" encoding="UTF-8" standalone="no"?>
<!DOCTYPE svg PUBLIC "-//W3C//DTD SVG 1.1//EN"
 "http://www.w3.org/Graphics/SVG/1.1/DTD/svg11.dtd">
<!-- Generated by graphviz version 12.2.1 (20241206.2353)
 -->
<!-- Title: sir::adapter Pages: 1 -->
<svg width="425pt" height="304pt"
 viewBox="0.00 0.00 425.00 304.25" xmlns="http://www.w3.org/2000/svg" xmlns:xlink="http://www.w3.org/1999/xlink">

<svg id="main" version="1.1" xmlns="http://www.w3.org/2000/svg" xmlns:xlink="http://www.w3.org/1999/xlink" xml:space="preserve">

<style type="text/css"><![CDATA[
.node, .edge {opacity: 0.7;}
.node.selected, .edge.selected {opacity: 1;}
.edge:hover path { stroke: red; }
.edge:hover polygon { stroke: red; fill: red; }
]]></style>
<script type="application/ecmascript" xlink:href="svg.min.js"/>
<svg id="graph" class="graph">
<g id="graph0" class="graph" transform="scale(1 1) rotate(0) translate(4 300.25)">
<title>sir::adapter</title>
<!-- Node1 -->
<g id="Node000001" class="node">
<title>Node1</title>
<g id="a_Node000001"><a xlink:title="Defines the abstract interface for an adapter, which ultimately becomes a public base class of logger...">
<polygon fill="#999999" stroke="#666666" points="64.75,-117.75 0,-117.75 0,-99.25 64.75,-99.25 64.75,-117.75"/>
<text text-anchor="middle" x="32.38" y="-104.25" font-family="Helvetica,sans-Serif" font-size="10.00">sir::adapter</text>
</a>
</g>
</g>
<!-- Node2 -->
<g id="Node000002" class="node">
<title>Node2</title>
<g id="a_Node000002"><a xlink:href="classsir_1_1boost__format__adapter.html" target="_top" xlink:title="Adapter for boost::format (when available).">
<polygon fill="white" stroke="#666666" points="227.75,-217 100.75,-217 100.75,-188 227.75,-188 227.75,-217"/>
<text text-anchor="start" x="108.75" y="-203.5" font-family="Helvetica,sans-Serif" font-size="10.00">sir::boost_format_adapter</text>
<text text-anchor="middle" x="164.25" y="-193" font-family="Helvetica,sans-Serif" font-size="10.00">&lt; TPolicy &gt;</text>
</a>
</g>
</g>
<!-- Node1&#45;&gt;Node2 -->
<g id="edge1_Node000001_Node000002" class="edge">
<title>Node1&#45;&gt;Node2</title>
<g id="a_edge1_Node000001_Node000002"><a xlink:title=" ">
<path fill="none" stroke="#63b8ff" d="M46.92,-126.98C59.37,-142.82 79.12,-165.26 100.75,-179.5 105.29,-182.49 110.27,-185.15 115.37,-187.52"/>
<polygon fill="#63b8ff" stroke="#63b8ff" points="49.93,-125.15 41.08,-119.31 44.36,-129.39 49.93,-125.15"/>
</a>
</g>
</g>
<!-- Node3 -->
<g id="Node000003" class="node">
<title>Node3</title>
<g id="a_Node000003"><a xlink:href="classsir_1_1default__adapter.html" target="_top" xlink:title="The default adapter implementation.">
<polygon fill="white" stroke="#666666" points="213.88,-170 114.62,-170 114.62,-141 213.88,-141 213.88,-170"/>
<text text-anchor="start" x="122.62" y="-156.5" font-family="Helvetica,sans-Serif" font-size="10.00">sir::default_adapter</text>
<text text-anchor="middle" x="164.25" y="-146" font-family="Helvetica,sans-Serif" font-size="10.00">&lt; TPolicy &gt;</text>
</a>
</g>
</g>
<!-- Node1&#45;&gt;Node3 -->
<g id="edge2_Node000001_Node000003" class="edge">
<title>Node1&#45;&gt;Node3</title>
<g id="a_edge2_Node000001_Node000003"><a xlink:title=" ">
<path fill="none" stroke="#63b8ff" d="M70.88,-122.07C86.89,-127.87 105.64,-134.65 122.05,-140.59"/>
<polygon fill="#63b8ff" stroke="#63b8ff" points="72.3,-118.87 61.71,-118.75 69.92,-125.45 72.3,-118.87"/>
</a>
</g>
</g>
<!-- Node9 -->
<g id="Node000009" class="node">
<title>Node9</title>
<g id="a_Node000009"><a xlink:href="classsir_1_1fmt__format__adapter.html" target="_top" xlink:title="Adapter for {fmt} (when available).">
<polygon fill="white" stroke="#666666" points="222.88,-123 105.62,-123 105.62,-94 222.88,-94 222.88,-123"/>
<text text-anchor="start" x="113.62" y="-109.5" font-family="Helvetica,sans-Serif" font-size="10.00">sir::fmt_format_adapter</text>
<text text-anchor="middle" x="164.25" y="-99" font-family="Helvetica,sans-Serif" font-size="10.00">&lt; TPolicy &gt;</text>
</a>
</g>
</g>
<!-- Node1&#45;&gt;Node9 -->
<g id="edge8_Node000001_Node000009" class="edge">
<title>Node1&#45;&gt;Node9</title>
<g id="a_edge8_Node000001_Node000009"><a xlink:title=" ">
<path fill="none" stroke="#63b8ff" d="M76.4,-108.5C85.62,-108.5 95.51,-108.5 105.19,-108.5"/>
<polygon fill="#63b8ff" stroke="#63b8ff" points="76.66,-105 66.66,-108.5 76.66,-112 76.66,-105"/>
</a>
</g>
</g>
<!-- Node10 -->
<g id="Node000010" class="node">
<title>Node10</title>
<g id="a_Node000010"><a xlink:href="classsir_1_1std__format__adapter.html" target="_top" xlink:title="Adapter for std::format (when available).">
<polygon fill="white" stroke="#666666" points="222.5,-76 106,-76 106,-47 222.5,-47 222.5,-76"/>
<text text-anchor="start" x="114" y="-62.5" font-family="Helvetica,sans-Serif" font-size="10.00">sir::std_format_adapter</text>
<text text-anchor="middle" x="164.25" y="-52" font-family="Helvetica,sans-Serif" font-size="10.00">&lt; TPolicy &gt;</text>
</a>
</g>
</g>
<!-- Node1&#45;&gt;Node10 -->
<g id="edge9_Node000001_Node000010" class="edge">
<title>Node1&#45;&gt;Node10</title>
<g id="a_edge9_Node000001_Node000010"><a xlink:title=" ">
<path fill="none" stroke="#63b8ff" d="M70.88,-94.93C86.89,-89.13 105.64,-82.35 122.05,-76.41"/>
<polygon fill="#63b8ff" stroke="#63b8ff" points="69.92,-91.55 61.71,-98.25 72.3,-98.13 69.92,-91.55"/>
</a>
</g>
</g>
<!-- Node11 -->
<g id="Node000011" class="node">
<title>Node11</title>
<g id="a_Node000011"><a xlink:href="classsir_1_1std__iostream__adapter.html" target="_top" xlink:title="Provides a std::iostream interface to libsir&#39;s logging functions.">
<polygon fill="white" stroke="#666666" points="227.38,-29 101.12,-29 101.12,0 227.38,0 227.38,-29"/>
<text text-anchor="start" x="109.12" y="-15.5" font-family="Helvetica,sans-Serif" font-size="10.00">sir::std_iostream_adapter</text>
<text text-anchor="middle" x="164.25" y="-5" font-family="Helvetica,sans-Serif" font-size="10.00">&lt; TPolicy &gt;</text>
</a>
</g>
</g>
<!-- Node1&#45;&gt;Node11 -->
<g id="edge10_Node000001_Node000011" class="edge">
<title>Node1&#45;&gt;Node11</title>
<g id="a_edge10_Node000001_Node000011"><a xlink:title=" ">
<path fill="none" stroke="#63b8ff" d="M47.03,-90.36C59.54,-74.8 79.33,-52.7 100.75,-38.5 105.88,-35.1 111.57,-32.07 117.36,-29.42"/>
<polygon fill="#63b8ff" stroke="#63b8ff" points="44.55,-87.84 41.16,-97.88 50.07,-92.15 44.55,-87.84"/>
</a>
</g>
</g>
<!-- Node4 -->
<g id="Node000004" class="node">
<title>Node4</title>
<g id="a_Node000004"><a xlink:href="classsir_1_1logger.html" target="_top" xlink:title=" ">
<polygon fill="white" stroke="#666666" points="397.12,-296.25 283.62,-296.25 283.62,-256.75 397.12,-256.75 397.12,-296.25"/>
<text text-anchor="start" x="291.62" y="-282.75" font-family="Helvetica,sans-Serif" font-size="10.00">sir::logger&lt; true,</text>
<text text-anchor="start" x="291.62" y="-272.25" font-family="Helvetica,sans-Serif" font-size="10.00"> default_policy, default</text>
<text text-anchor="middle" x="340.38" y="-261.75" font-family="Helvetica,sans-Serif" font-size="10.00">_adapter &gt;</text>
</a>
</g>
</g>
<!-- Node3&#45;&gt;Node4 -->
<g id="edge3_Node000003_Node000004" class="edge">
<title>Node3&#45;&gt;Node4</title>
<g id="a_edge3_Node000003_Node000004"><a xlink:title=" ">
<path fill="none" stroke="#63b8ff" d="M223.84,-176.32C225.19,-177.33 226.5,-178.39 227.75,-179.5 253.34,-202.18 238.15,-224.82 263.75,-247.5 269.54,-252.63 276.33,-256.89 283.43,-260.43"/>
<polygon fill="#63b8ff" stroke="#63b8ff" points="225.94,-173.51 215.62,-171.11 222.19,-179.42 225.94,-173.51"/>
</a>
</g>
</g>
<!-- Node5 -->
<g id="Node000005" class="node">
<title>Node5</title>
<g id="a_Node000005"><a xlink:href="classsir_1_1logger.html" target="_top" xlink:title=" ">
<polygon fill="white" stroke="#666666" points="416.62,-238.25 264.12,-238.25 264.12,-198.75 416.62,-198.75 416.62,-238.25"/>
<text text-anchor="start" x="272.12" y="-224.75" font-family="Helvetica,sans-Serif" font-size="10.00">sir::logger&lt; true,</text>
<text text-anchor="start" x="272.12" y="-214.25" font-family="Helvetica,sans-Serif" font-size="10.00"> default_policy, default</text>
<text text-anchor="middle" x="340.38" y="-203.75" font-family="Helvetica,sans-Serif" font-size="10.00">_adapter, std_format_adapter &gt;</text>
</a>
</g>
</g>
<!-- Node3&#45;&gt;Node5 -->
<g id="edge4_Node000003_Node000005" class="edge">
<title>Node3&#45;&gt;Node5</title>
<g id="a_edge4_Node000003_Node000005"><a xlink:title=" ">
<path fill="none" stroke="#63b8ff" d="M217.13,-174.27C238.07,-181.85 262.27,-190.6 283.58,-198.31"/>
<polygon fill="#63b8ff" stroke="#63b8ff" points="218.53,-171.06 207.94,-170.95 216.15,-177.64 218.53,-171.06"/>
</a>
</g>
</g>
<!-- Node6 -->
<g id="Node000006" class="node">
<title>Node6</title>
<g id="a_Node000006"><a xlink:href="classsir_1_1logger.html" target="_top" xlink:title=" ">
<polygon fill="white" stroke="#666666" points="398.62,-180.5 282.12,-180.5 282.12,-130.5 398.62,-130.5 398.62,-180.5"/>
<text text-anchor="start" x="290.12" y="-167" font-family="Helvetica,sans-Serif" font-size="10.00">sir::logger&lt; true,</text>
<text text-anchor="start" x="290.12" y="-156.5" font-family="Helvetica,sans-Serif" font-size="10.00"> default_policy, default</text>
<text text-anchor="start" x="290.12" y="-146" font-family="Helvetica,sans-Serif" font-size="10.00">_adapter, boost_format</text>
<text text-anchor="middle" x="340.38" y="-135.5" font-family="Helvetica,sans-Serif" font-size="10.00">_adapter &gt;</text>
</a>
</g>
</g>
<!-- Node3&#45;&gt;Node6 -->
<g id="edge5_Node000003_Node000006" class="edge">
<title>Node3&#45;&gt;Node6</title>
<g id="a_edge5_Node000003_Node000006"><a xlink:title=" ">
<path fill="none" stroke="#63b8ff" d="M225.61,-155.5C243.84,-155.5 263.8,-155.5 281.84,-155.5"/>
<polygon fill="#63b8ff" stroke="#63b8ff" points="225.73,-152 215.73,-155.5 225.73,-159 225.73,-152"/>
</a>
</g>
</g>
<!-- Node7 -->
<g id="Node000007" class="node">
<title>Node7</title>
<g id="a_Node000007"><a xlink:href="classsir_1_1logger.html" target="_top" xlink:title=" ">
<polygon fill="white" stroke="#666666" points="417,-112.25 263.75,-112.25 263.75,-72.75 417,-72.75 417,-112.25"/>
<text text-anchor="start" x="271.75" y="-98.75" font-family="Helvetica,sans-Serif" font-size="10.00">sir::logger&lt; true,</text>
<text text-anchor="start" x="271.75" y="-88.25" font-family="Helvetica,sans-Serif" font-size="10.00"> default_policy, default</text>
<text text-anchor="middle" x="340.38" y="-77.75" font-family="Helvetica,sans-Serif" font-size="10.00">_adapter, fmt_format_adapter &gt;</text>
</a>
</g>
</g>
<!-- Node3&#45;&gt;Node7 -->
<g id="edge6_Node000003_Node000007" class="edge">
<title>Node3&#45;&gt;Node7</title>
<g id="a_edge6_Node000003_Node000007"><a xlink:title=" ">
<path fill="none" stroke="#63b8ff" d="M217.13,-136.73C238.07,-129.15 262.27,-120.4 283.58,-112.69"/>
<polygon fill="#63b8ff" stroke="#63b8ff" points="216.15,-133.36 207.94,-140.05 218.53,-139.94 216.15,-133.36"/>
</a>
</g>
</g>
<!-- Node8 -->
<g id="Node000008" class="node">
<title>Node8</title>
<g id="a_Node000008"><a xlink:href="classsir_1_1logger.html" target="_top" xlink:title=" ">
<polygon fill="white" stroke="#666666" points="398.25,-54.5 282.5,-54.5 282.5,-4.5 398.25,-4.5 398.25,-54.5"/>
<text text-anchor="start" x="290.5" y="-41" font-family="Helvetica,sans-Serif" font-size="10.00">sir::logger&lt; true,</text>
<text text-anchor="start" x="290.5" y="-30.5" font-family="Helvetica,sans-Serif" font-size="10.00"> default_policy, default</text>
<text text-anchor="start" x="290.5" y="-20" font-family="Helvetica,sans-Serif" font-size="10.00">_adapter, std_iostream</text>
<text text-anchor="middle" x="340.38" y="-9.5" font-family="Helvetica,sans-Serif" font-size="10.00">_adapter &gt;</text>
</a>
</g>
</g>
<!-- Node3&#45;&gt;Node8 -->
<g id="edge7_Node000003_Node000008" class="edge">
<title>Node3&#45;&gt;Node8</title>
<g id="a_edge7_Node000003_Node000008"><a xlink:title=" ">
<path fill="none" stroke="#63b8ff" d="M223.85,-135.64C225.2,-134.64 226.5,-133.6 227.75,-132.5 253.73,-109.66 238.59,-87.23 263.75,-63.5 269.2,-58.36 275.55,-53.91 282.22,-50.08"/>
<polygon fill="#63b8ff" stroke="#63b8ff" points="222.28,-132.49 215.64,-140.75 225.98,-138.44 222.28,-132.49"/>
</a>
</g>
</g>
</g>
</svg>
</svg>

<style type='text/css'>
<![CDATA[
[data-mouse-over-selected='false'] { opacity: 0.7; }
[data-mouse-over-selected='true']  { opacity: 1.0; }
]]>
</style>
<script type="application/ecmascript"><![CDATA[
document.addEventListener('DOMContentLoaded', (event) => {
  highlightEdges();
  highlightAdjacentNodes();
});
]]></script>
</svg>
