<?xml version="1.0" encoding="UTF-8" standalone="no"?>
<!DOCTYPE svg PUBLIC "-//W3C//DTD SVG 1.1//EN"
 "http://www.w3.org/Graphics/SVG/1.1/DTD/svg11.dtd">
<!-- Generated by graphviz version 8.1.0 (20230707.0739)
 -->
<!-- Title: sir::adapter Pages: 1 -->
<svg width="236pt" height="225pt"
 viewBox="0.00 0.00 235.75 225.00" xmlns="http://www.w3.org/2000/svg" xmlns:xlink="http://www.w3.org/1999/xlink">
<g id="graph0" class="graph" transform="scale(1 1) rotate(0) translate(4 221)">
<title>sir::adapter</title>
<!-- Node1 -->
<g id="Node000001" class="node">
<title>Node1</title>
<g id="a_Node000001"><a xlink:title="Defines the abstract interface for an adapter, which ultimately becomes a public base class of logger...">
<polygon fill="#999999" stroke="#666666" points="64.75,-117.75 0,-117.75 0,-99.25 64.75,-99.25 64.75,-117.75"/>
<text text-anchor="middle" x="32.38" y="-104.25" font-family="Helvetica,sans-Serif" font-size="10.00">sir::adapter</text>
</a>
</g>
</g>
<!-- Node2 -->
<g id="Node000002" class="node">
<title>Node2</title>
<g id="a_Node000002"><a xlink:href="classsir_1_1boost__format__adapter.html" target="_top" xlink:title="Adapter for boost::format (when available).">
<polygon fill="white" stroke="#666666" points="227.75,-217 100.75,-217 100.75,-188 227.75,-188 227.75,-217"/>
<text text-anchor="start" x="108.75" y="-203.5" font-family="Helvetica,sans-Serif" font-size="10.00">sir::boost_format_adapter</text>
<text text-anchor="middle" x="164.25" y="-193" font-family="Helvetica,sans-Serif" font-size="10.00">&lt; TPolicy &gt;</text>
</a>
</g>
</g>
<!-- Node1&#45;&gt;Node2 -->
<g id="edge1_Node000001_Node000002" class="edge">
<title>Node1&#45;&gt;Node2</title>
<g id="a_edge1_Node000001_Node000002"><a xlink:title=" ">
<path fill="none" stroke="#63b8ff" d="M46.57,-126.54C59,-142.4 78.92,-165.13 100.75,-179.5 105.29,-182.49 110.27,-185.15 115.37,-187.52"/>
<polygon fill="#63b8ff" stroke="#63b8ff" points="49.01,-124.95 40.17,-119.11 43.43,-129.19 49.01,-124.95"/>
</a>
</g>
</g>
<!-- Node3 -->
<g id="Node000003" class="node">
<title>Node3</title>
<g id="a_Node000003"><a xlink:href="classsir_1_1default__adapter.html" target="_top" xlink:title="The default adapter implementation.">
<polygon fill="white" stroke="#666666" points="213.88,-170 114.62,-170 114.62,-141 213.88,-141 213.88,-170"/>
<text text-anchor="start" x="122.62" y="-156.5" font-family="Helvetica,sans-Serif" font-size="10.00">sir::default_adapter</text>
<text text-anchor="middle" x="164.25" y="-146" font-family="Helvetica,sans-Serif" font-size="10.00">&lt; TPolicy &gt;</text>
</a>
</g>
</g>
<!-- Node1&#45;&gt;Node3 -->
<g id="edge2_Node000001_Node000003" class="edge">
<title>Node1&#45;&gt;Node3</title>
<g id="a_edge2_Node000001_Node000003"><a xlink:title=" ">
<path fill="none" stroke="#63b8ff" d="M70.41,-121.9C86.53,-127.74 105.48,-134.6 122.05,-140.59"/>
<polygon fill="#63b8ff" stroke="#63b8ff" points="71.88,-118.35 61.29,-118.24 69.5,-124.93 71.88,-118.35"/>
</a>
</g>
</g>
<!-- Node4 -->
<g id="Node000004" class="node">
<title>Node4</title>
<g id="a_Node000004"><a xlink:href="classsir_1_1fmt__format__adapter.html" target="_top" xlink:title="Adapter for {fmt} (when available).">
<polygon fill="white" stroke="#666666" points="222.88,-123 105.62,-123 105.62,-94 222.88,-94 222.88,-123"/>
<text text-anchor="start" x="113.62" y="-109.5" font-family="Helvetica,sans-Serif" font-size="10.00">sir::fmt_format_adapter</text>
<text text-anchor="middle" x="164.25" y="-99" font-family="Helvetica,sans-Serif" font-size="10.00">&lt; TPolicy &gt;</text>
</a>
</g>
</g>
<!-- Node1&#45;&gt;Node4 -->
<g id="edge3_Node000001_Node000004" class="edge">
<title>Node1&#45;&gt;Node4</title>
<g id="a_edge3_Node000001_Node000004"><a xlink:title=" ">
<path fill="none" stroke="#63b8ff" d="M76.1,-108.5C85.4,-108.5 95.4,-108.5 105.19,-108.5"/>
<polygon fill="#63b8ff" stroke="#63b8ff" points="76.15,-105 66.15,-108.5 76.15,-112 76.15,-105"/>
</a>
</g>
</g>
<!-- Node5 -->
<g id="Node000005" class="node">
<title>Node5</title>
<g id="a_Node000005"><a xlink:href="classsir_1_1std__format__adapter.html" target="_top" xlink:title="Adapter for std::format (when available).">
<polygon fill="white" stroke="#666666" points="222.5,-76 106,-76 106,-47 222.5,-47 222.5,-76"/>
<text text-anchor="start" x="114" y="-62.5" font-family="Helvetica,sans-Serif" font-size="10.00">sir::std_format_adapter</text>
<text text-anchor="middle" x="164.25" y="-52" font-family="Helvetica,sans-Serif" font-size="10.00">&lt; TPolicy &gt;</text>
</a>
</g>
</g>
<!-- Node1&#45;&gt;Node5 -->
<g id="edge4_Node000001_Node000005" class="edge">
<title>Node1&#45;&gt;Node5</title>
<g id="a_edge4_Node000001_Node000005"><a xlink:title=" ">
<path fill="none" stroke="#63b8ff" d="M70.41,-95.1C86.53,-89.26 105.48,-82.4 122.05,-76.41"/>
<polygon fill="#63b8ff" stroke="#63b8ff" points="69.5,-92.07 61.29,-98.76 71.88,-98.65 69.5,-92.07"/>
</a>
</g>
</g>
<!-- Node6 -->
<g id="Node000006" class="node">
<title>Node6</title>
<g id="a_Node000006"><a xlink:href="classsir_1_1std__iostream__adapter.html" target="_top" xlink:title="Provides a std::iostream interface to libsir&#39;s logging functions.">
<polygon fill="white" stroke="#666666" points="227.38,-29 101.12,-29 101.12,0 227.38,0 227.38,-29"/>
<text text-anchor="start" x="109.12" y="-15.5" font-family="Helvetica,sans-Serif" font-size="10.00">sir::std_iostream_adapter</text>
<text text-anchor="middle" x="164.25" y="-5" font-family="Helvetica,sans-Serif" font-size="10.00">&lt; TPolicy &gt;</text>
</a>
</g>
</g>
<!-- Node1&#45;&gt;Node6 -->
<g id="edge5_Node000001_Node000006" class="edge">
<title>Node1&#45;&gt;Node6</title>
<g id="a_edge5_Node000001_Node000006"><a xlink:title=" ">
<path fill="none" stroke="#63b8ff" d="M46.68,-90.8C59.17,-75.22 79.13,-52.84 100.75,-38.5 105.88,-35.1 111.57,-32.07 117.36,-29.42"/>
<polygon fill="#63b8ff" stroke="#63b8ff" points="43.61,-88.03 40.23,-98.07 49.13,-92.34 43.61,-88.03"/>
</a>
</g>
</g>
</g>
</svg>
