<?xml version="1.0" encoding="UTF-8" standalone="no"?>
<!DOCTYPE svg PUBLIC "-//W3C//DTD SVG 1.1//EN"
 "http://www.w3.org/Graphics/SVG/1.1/DTD/svg11.dtd">
<!-- Generated by graphviz version 14.1.4 (20260321.0153)
 -->
<!-- Title: sir::default_adapter&lt; TPolicy &gt; Pages: 1 -->
<svg width="397pt" height="310pt"
 viewBox="0.00 0.00 397.00 310.00" xmlns="http://www.w3.org/2000/svg" xmlns:xlink="http://www.w3.org/1999/xlink">
<g id="graph0" class="graph" transform="scale(1 1) rotate(0) translate(4 306.38)">
<title>sir::default_adapter&lt; TPolicy &gt;</title>
<!-- Node1 -->
<g id="Node000001" class="node">
<title>Node1</title>
<g id="a_Node000001"><a xlink:title="The default adapter implementation.">
<polygon fill="#999999" stroke="#666666" points="200,-171.75 100.75,-171.75 100.75,-141.25 200,-141.25 200,-171.75"/>
<text xml:space="preserve" text-anchor="start" x="108.75" y="-158.25" font-family="Helvetica,sans-Serif" font-size="10.00">sir::default_adapter</text>
<text xml:space="preserve" text-anchor="middle" x="150.38" y="-147" font-family="Helvetica,sans-Serif" font-size="10.00">&lt; TPolicy &gt;</text>
</a>
</g>
</g>
<!-- Node3 -->
<g id="Node000003" class="node">
<title>Node3</title>
<g id="a_Node000003"><a xlink:href="classsir_1_1logger.html" target="_top" xlink:title=" ">
<polygon fill="white" stroke="#666666" points="368.62,-302.38 255.88,-302.38 255.88,-260.62 368.62,-260.62 368.62,-302.38"/>
<text xml:space="preserve" text-anchor="start" x="263.88" y="-288.88" font-family="Helvetica,sans-Serif" font-size="10.00">sir::logger&lt; true,</text>
<text xml:space="preserve" text-anchor="start" x="263.88" y="-277.62" font-family="Helvetica,sans-Serif" font-size="10.00"> default_policy, default</text>
<text xml:space="preserve" text-anchor="middle" x="312.25" y="-266.38" font-family="Helvetica,sans-Serif" font-size="10.00">_adapter &gt;</text>
</a>
</g>
</g>
<!-- Node1&#45;&gt;Node3 -->
<g id="edge2_Node000001_Node000003" class="edge">
<title>Node1&#45;&gt;Node3</title>
<g id="a_edge2_Node000001_Node000003"><a xlink:title=" ">
<path fill="none" stroke="#63b8ff" d="M168.33,-181.28C183.85,-202.38 208.52,-232.24 236,-251.5 241.99,-255.7 248.65,-259.43 255.46,-262.71"/>
<polygon fill="#63b8ff" stroke="#63b8ff" points="171.23,-179.32 162.56,-173.23 165.54,-183.39 171.23,-179.32"/>
</a>
</g>
</g>
<!-- Node4 -->
<g id="Node000004" class="node">
<title>Node4</title>
<g id="a_Node000004"><a xlink:href="classsir_1_1logger.html" target="_top" xlink:title=" ">
<polygon fill="white" stroke="#666666" points="388.12,-242.38 236.38,-242.38 236.38,-200.62 388.12,-200.62 388.12,-242.38"/>
<text xml:space="preserve" text-anchor="start" x="244.38" y="-228.88" font-family="Helvetica,sans-Serif" font-size="10.00">sir::logger&lt; true,</text>
<text xml:space="preserve" text-anchor="start" x="244.38" y="-217.62" font-family="Helvetica,sans-Serif" font-size="10.00"> default_policy, default</text>
<text xml:space="preserve" text-anchor="middle" x="312.25" y="-206.38" font-family="Helvetica,sans-Serif" font-size="10.00">_adapter, std_format_adapter &gt;</text>
</a>
</g>
</g>
<!-- Node1&#45;&gt;Node4 -->
<g id="edge3_Node000001_Node000004" class="edge">
<title>Node1&#45;&gt;Node4</title>
<g id="a_edge3_Node000001_Node000004"><a xlink:title=" ">
<path fill="none" stroke="#63b8ff" d="M198.02,-176.68C210.34,-181.92 223.64,-187.49 236,-192.5 242.23,-195.02 248.77,-197.62 255.28,-200.18"/>
<polygon fill="#63b8ff" stroke="#63b8ff" points="199.46,-173.49 188.89,-172.79 196.71,-179.93 199.46,-173.49"/>
</a>
</g>
</g>
<!-- Node5 -->
<g id="Node000005" class="node">
<title>Node5</title>
<g id="a_Node000005"><a xlink:href="classsir_1_1logger.html" target="_top" xlink:title=" ">
<polygon fill="white" stroke="#666666" points="370.12,-183 254.38,-183 254.38,-130 370.12,-130 370.12,-183"/>
<text xml:space="preserve" text-anchor="start" x="262.38" y="-169.5" font-family="Helvetica,sans-Serif" font-size="10.00">sir::logger&lt; true,</text>
<text xml:space="preserve" text-anchor="start" x="262.38" y="-158.25" font-family="Helvetica,sans-Serif" font-size="10.00"> default_policy, default</text>
<text xml:space="preserve" text-anchor="start" x="262.38" y="-147" font-family="Helvetica,sans-Serif" font-size="10.00">_adapter, boost_format</text>
<text xml:space="preserve" text-anchor="middle" x="312.25" y="-135.75" font-family="Helvetica,sans-Serif" font-size="10.00">_adapter &gt;</text>
</a>
</g>
</g>
<!-- Node1&#45;&gt;Node5 -->
<g id="edge4_Node000001_Node000005" class="edge">
<title>Node1&#45;&gt;Node5</title>
<g id="a_edge4_Node000001_Node000005"><a xlink:title=" ">
<path fill="none" stroke="#63b8ff" d="M211.64,-156.5C225.53,-156.5 240.26,-156.5 254.01,-156.5"/>
<polygon fill="#63b8ff" stroke="#63b8ff" points="211.73,-153 201.73,-156.5 211.72,-160 211.73,-153"/>
</a>
</g>
</g>
<!-- Node6 -->
<g id="Node000006" class="node">
<title>Node6</title>
<g id="a_Node000006"><a xlink:href="classsir_1_1logger.html" target="_top" xlink:title=" ">
<polygon fill="white" stroke="#666666" points="388.5,-112.38 236,-112.38 236,-70.62 388.5,-70.62 388.5,-112.38"/>
<text xml:space="preserve" text-anchor="start" x="244" y="-98.88" font-family="Helvetica,sans-Serif" font-size="10.00">sir::logger&lt; true,</text>
<text xml:space="preserve" text-anchor="start" x="244" y="-87.62" font-family="Helvetica,sans-Serif" font-size="10.00"> default_policy, default</text>
<text xml:space="preserve" text-anchor="middle" x="312.25" y="-76.38" font-family="Helvetica,sans-Serif" font-size="10.00">_adapter, fmt_format_adapter &gt;</text>
</a>
</g>
</g>
<!-- Node1&#45;&gt;Node6 -->
<g id="edge5_Node000001_Node000006" class="edge">
<title>Node1&#45;&gt;Node6</title>
<g id="a_edge5_Node000001_Node000006"><a xlink:title=" ">
<path fill="none" stroke="#63b8ff" d="M198.02,-136.32C210.34,-131.08 223.64,-125.51 236,-120.5 242.23,-117.98 248.77,-115.38 255.28,-112.82"/>
<polygon fill="#63b8ff" stroke="#63b8ff" points="196.71,-133.07 188.89,-140.21 199.46,-139.51 196.71,-133.07"/>
</a>
</g>
</g>
<!-- Node7 -->
<g id="Node000007" class="node">
<title>Node7</title>
<g id="a_Node000007"><a xlink:href="classsir_1_1logger.html" target="_top" xlink:title=" ">
<polygon fill="white" stroke="#666666" points="369.75,-53 254.75,-53 254.75,0 369.75,0 369.75,-53"/>
<text xml:space="preserve" text-anchor="start" x="262.75" y="-39.5" font-family="Helvetica,sans-Serif" font-size="10.00">sir::logger&lt; true,</text>
<text xml:space="preserve" text-anchor="start" x="262.75" y="-28.25" font-family="Helvetica,sans-Serif" font-size="10.00"> default_policy, default</text>
<text xml:space="preserve" text-anchor="start" x="262.75" y="-17" font-family="Helvetica,sans-Serif" font-size="10.00">_adapter, std_iostream</text>
<text xml:space="preserve" text-anchor="middle" x="312.25" y="-5.75" font-family="Helvetica,sans-Serif" font-size="10.00">_adapter &gt;</text>
</a>
</g>
</g>
<!-- Node1&#45;&gt;Node7 -->
<g id="edge6_Node000001_Node000007" class="edge">
<title>Node1&#45;&gt;Node7</title>
<g id="a_edge6_Node000001_Node000007"><a xlink:title=" ">
<path fill="none" stroke="#63b8ff" d="M168.87,-131.74C184.58,-110.9 209.22,-81.41 236,-61.5 241.67,-57.29 247.92,-53.41 254.33,-49.88"/>
<polygon fill="#63b8ff" stroke="#63b8ff" points="166.13,-129.57 163.01,-139.69 171.76,-133.72 166.13,-129.57"/>
</a>
</g>
</g>
<!-- Node2 -->
<g id="Node000002" class="node">
<title>Node2</title>
<g id="a_Node000002"><a xlink:href="classsir_1_1adapter.html" target="_top" xlink:title="Defines the abstract interface for an adapter, which ultimately becomes a public base class of logger...">
<polygon fill="white" stroke="#666666" points="64.75,-166.12 0,-166.12 0,-146.88 64.75,-146.88 64.75,-166.12"/>
<text xml:space="preserve" text-anchor="middle" x="32.38" y="-152.62" font-family="Helvetica,sans-Serif" font-size="10.00">sir::adapter</text>
</a>
</g>
</g>
<!-- Node2&#45;&gt;Node1 -->
<g id="edge1_Node000001_Node000002" class="edge">
<title>Node2&#45;&gt;Node1</title>
<g id="a_edge1_Node000001_Node000002"><a xlink:title=" ">
<path fill="none" stroke="#63b8ff" d="M76.47,-156.5C84.23,-156.5 92.37,-156.5 100.29,-156.5"/>
<polygon fill="#63b8ff" stroke="#63b8ff" points="76.59,-153 66.59,-156.5 76.59,-160 76.59,-153"/>
</a>
</g>
</g>
</g>
</svg>
