<?xml version="1.0" encoding="UTF-8" standalone="no"?>
<!DOCTYPE svg PUBLIC "-//W3C//DTD SVG 1.1//EN"
 "http://www.w3.org/Graphics/SVG/1.1/DTD/svg11.dtd">
<!-- Generated by graphviz version 8.1.0 (20230707.0739)
 -->
<!-- Title: include/sir/config.h Pages: 1 -->
<svg width="1322pt" height="364pt"
 viewBox="0.00 0.00 1322.12 364.00" xmlns="http://www.w3.org/2000/svg" xmlns:xlink="http://www.w3.org/1999/xlink">
<g id="graph0" class="graph" transform="scale(1 1) rotate(0) translate(4 360)">
<title>include/sir/config.h</title>
<!-- Node1 -->
<g id="Node000001" class="node">
<title>Node1</title>
<g id="a_Node000001"><a xlink:title="Compile&#45;time configuration.">
<polygon fill="#999999" stroke="#666666" points="694.12,-356 596.38,-356 596.38,-337.5 694.12,-337.5 694.12,-356"/>
<text text-anchor="middle" x="645.25" y="-342.5" font-family="Helvetica,sans-Serif" font-size="10.00">include/sir/config.h</text>
</a>
</g>
</g>
<!-- Node2 -->
<g id="Node000002" class="node">
<title>Node2</title>
<g id="a_Node000002"><a xlink:href="types_8h_source.html" target="_top" xlink:title=" ">
<polygon fill="white" stroke="#666666" points="693,-301.5 597.5,-301.5 597.5,-283 693,-283 693,-301.5"/>
<text text-anchor="middle" x="645.25" y="-288" font-family="Helvetica,sans-Serif" font-size="10.00">include/sir/types.h</text>
</a>
</g>
</g>
<!-- Node1&#45;&gt;Node2 -->
<g id="edge1_Node000001_Node000002" class="edge">
<title>Node1&#45;&gt;Node2</title>
<g id="a_edge1_Node000001_Node000002"><a xlink:title=" ">
<path fill="none" stroke="#63b8ff" d="M645.25,-326.22C645.25,-317.79 645.25,-308.36 645.25,-301.76"/>
<polygon fill="#63b8ff" stroke="#63b8ff" points="641.75,-326.08 645.25,-336.08 648.75,-326.08 641.75,-326.08"/>
</a>
</g>
</g>
<!-- Node3 -->
<g id="Node000003" class="node">
<title>Node3</title>
<g id="a_Node000003"><a xlink:href="sir_8h.html" target="_top" xlink:title="Public interface to libsir.">
<polygon fill="white" stroke="#666666" points="548.5,-127.5 480,-127.5 480,-109 548.5,-109 548.5,-127.5"/>
<text text-anchor="middle" x="514.25" y="-114" font-family="Helvetica,sans-Serif" font-size="10.00">include/sir.h</text>
</a>
</g>
</g>
<!-- Node2&#45;&gt;Node3 -->
<g id="edge2_Node000002_Node000003" class="edge">
<title>Node2&#45;&gt;Node3</title>
<g id="a_edge2_Node000002_Node000003"><a xlink:title=" ">
<path fill="none" stroke="#63b8ff" d="M616.21,-277.83C583.29,-260.81 531.32,-228.03 509.25,-182 500.75,-164.26 506.67,-140.45 510.94,-127.87"/>
<polygon fill="#63b8ff" stroke="#63b8ff" points="614.26,-281.27 624.77,-282.61 617.39,-275 614.26,-281.27"/>
</a>
</g>
</g>
<!-- Node10 -->
<g id="Node000010" class="node">
<title>Node10</title>
<g id="a_Node000010"><a xlink:href="condition_8h.html" target="_top" xlink:title=" ">
<polygon fill="white" stroke="#666666" points="110.5,-182 0,-182 0,-163.5 110.5,-163.5 110.5,-182"/>
<text text-anchor="middle" x="55.25" y="-168.5" font-family="Helvetica,sans-Serif" font-size="10.00">include/sir/condition.h</text>
</a>
</g>
</g>
<!-- Node2&#45;&gt;Node10 -->
<g id="edge10_Node000002_Node000010" class="edge">
<title>Node2&#45;&gt;Node10</title>
<g id="a_edge10_Node000002_Node000010"><a xlink:title=" ">
<path fill="none" stroke="#63b8ff" d="M586.37,-291.42C467.95,-290.92 205.39,-285.37 125.25,-247 94.79,-232.42 70.64,-198.51 60.48,-182.46"/>
<polygon fill="#63b8ff" stroke="#63b8ff" points="586.02,-294.92 596.04,-291.45 586.05,-287.92 586.02,-294.92"/>
</a>
</g>
</g>
<!-- Node12 -->
<g id="Node000012" class="node">
<title>Node12</title>
<g id="a_Node000012"><a xlink:href="console_8h_source.html" target="_top" xlink:title=" ">
<polygon fill="white" stroke="#666666" points="187.88,-127.5 82.62,-127.5 82.62,-109 187.88,-109 187.88,-127.5"/>
<text text-anchor="middle" x="135.25" y="-114" font-family="Helvetica,sans-Serif" font-size="10.00">include/sir/console.h</text>
</a>
</g>
</g>
<!-- Node2&#45;&gt;Node12 -->
<g id="edge12_Node000002_Node000012" class="edge">
<title>Node2&#45;&gt;Node12</title>
<g id="a_edge12_Node000002_Node000012"><a xlink:title=" ">
<path fill="none" stroke="#63b8ff" d="M586.37,-290.87C512.83,-288.87 383.95,-280.35 279.25,-247 221.46,-228.59 199.24,-227.61 159.25,-182 145.26,-166.04 139.03,-141.06 136.6,-127.95"/>
<polygon fill="#63b8ff" stroke="#63b8ff" points="586.17,-294.38 596.25,-291.12 586.33,-287.39 586.17,-294.38"/>
</a>
</g>
</g>
<!-- Node13 -->
<g id="Node000013" class="node">
<title>Node13</title>
<g id="a_Node000013"><a xlink:href="defaults_8h.html" target="_top" xlink:title="Default levels, options, and text styling.">
<polygon fill="white" stroke="#666666" points="744.25,-182 638.25,-182 638.25,-163.5 744.25,-163.5 744.25,-182"/>
<text text-anchor="middle" x="691.25" y="-168.5" font-family="Helvetica,sans-Serif" font-size="10.00">include/sir/defaults.h</text>
</a>
</g>
</g>
<!-- Node2&#45;&gt;Node13 -->
<g id="edge13_Node000002_Node000013" class="edge">
<title>Node2&#45;&gt;Node13</title>
<g id="a_edge13_Node000002_Node000013"><a xlink:title=" ">
<path fill="none" stroke="#63b8ff" d="M652.46,-272.84C662.52,-247.13 680.4,-201.46 687.85,-182.44"/>
<polygon fill="#63b8ff" stroke="#63b8ff" points="648.94,-271.21 648.56,-281.8 655.46,-273.76 648.94,-271.21"/>
</a>
</g>
</g>
<!-- Node14 -->
<g id="Node000014" class="node">
<title>Node14</title>
<g id="a_Node000014"><a xlink:href="errors_8h_source.html" target="_top" xlink:title=" ">
<polygon fill="white" stroke="#666666" points="462.75,-241.75 365.75,-241.75 365.75,-223.25 462.75,-223.25 462.75,-241.75"/>
<text text-anchor="middle" x="414.25" y="-228.25" font-family="Helvetica,sans-Serif" font-size="10.00">include/sir/errors.h</text>
</a>
</g>
</g>
<!-- Node2&#45;&gt;Node14 -->
<g id="edge15_Node000002_Node000014" class="edge">
<title>Node2&#45;&gt;Node14</title>
<g id="a_edge15_Node000002_Node000014"><a xlink:title=" ">
<path fill="none" stroke="#63b8ff" d="M599.95,-279.92C555.67,-268.86 489.23,-252.25 448.99,-242.18"/>
<polygon fill="#63b8ff" stroke="#63b8ff" points="598.87,-283.51 609.42,-282.54 600.56,-276.72 598.87,-283.51"/>
</a>
</g>
</g>
<!-- Node15 -->
<g id="Node000015" class="node">
<title>Node15</title>
<g id="a_Node000015"><a xlink:href="helpers_8h_source.html" target="_top" xlink:title=" ">
<polygon fill="white" stroke="#666666" points="272.12,-182 168.38,-182 168.38,-163.5 272.12,-163.5 272.12,-182"/>
<text text-anchor="middle" x="220.25" y="-168.5" font-family="Helvetica,sans-Serif" font-size="10.00">include/sir/helpers.h</text>
</a>
</g>
</g>
<!-- Node2&#45;&gt;Node15 -->
<g id="edge32_Node000002_Node000015" class="edge">
<title>Node2&#45;&gt;Node15</title>
<g id="a_edge32_Node000002_Node000015"><a xlink:title=" ">
<path fill="none" stroke="#63b8ff" d="M586.09,-289.99C522.74,-286.99 420.16,-277.36 337.25,-247 294.27,-231.26 250.29,-198.23 230.74,-182.47"/>
<polygon fill="#63b8ff" stroke="#63b8ff" points="585.92,-293.52 596.06,-290.46 586.22,-286.53 585.92,-293.52"/>
</a>
</g>
</g>
<!-- Node17 -->
<g id="Node000017" class="node">
<title>Node17</title>
<g id="a_Node000017"><a xlink:href="filecache_8h_source.html" target="_top" xlink:title=" ">
<polygon fill="white" stroke="#666666" points="752.5,-127.5 642,-127.5 642,-109 752.5,-109 752.5,-127.5"/>
<text text-anchor="middle" x="697.25" y="-114" font-family="Helvetica,sans-Serif" font-size="10.00">include/sir/filecache.h</text>
</a>
</g>
</g>
<!-- Node2&#45;&gt;Node17 -->
<g id="edge29_Node000002_Node000017" class="edge">
<title>Node2&#45;&gt;Node17</title>
<g id="a_edge29_Node000002_Node000017"><a xlink:title=" ">
<path fill="none" stroke="#63b8ff" d="M668.16,-276.49C694.43,-258.04 736.1,-223.75 753.25,-182 762.68,-159.04 734.89,-138.9 715.16,-127.96"/>
<polygon fill="#63b8ff" stroke="#63b8ff" points="666.54,-274.04 660.24,-282.56 670.48,-279.82 666.54,-274.04"/>
</a>
</g>
</g>
<!-- Node18 -->
<g id="Node000018" class="node">
<title>Node18</title>
<g id="a_Node000018"><a xlink:href="maps_8h_source.html" target="_top" xlink:title=" ">
<polygon fill="white" stroke="#666666" points="386,-182 290.5,-182 290.5,-163.5 386,-163.5 386,-182"/>
<text text-anchor="middle" x="338.25" y="-168.5" font-family="Helvetica,sans-Serif" font-size="10.00">include/sir/maps.h</text>
</a>
</g>
</g>
<!-- Node2&#45;&gt;Node18 -->
<g id="edge33_Node000002_Node000018" class="edge">
<title>Node2&#45;&gt;Node18</title>
<g id="a_edge33_Node000002_Node000018"><a xlink:title=" ">
<path fill="none" stroke="#63b8ff" d="M586.43,-289.66C512.14,-286.42 390.03,-276.62 357.25,-247 338.53,-230.09 337.2,-197.34 337.71,-182.02"/>
<polygon fill="#63b8ff" stroke="#63b8ff" points="585.89,-293.18 596.03,-290.09 586.18,-286.18 585.89,-293.18"/>
</a>
</g>
</g>
<!-- Node19 -->
<g id="Node000019" class="node">
<title>Node19</title>
<g id="a_Node000019"><a xlink:href="mutex_8h_source.html" target="_top" xlink:title=" ">
<polygon fill="white" stroke="#666666" points="936.12,-241.75 838.38,-241.75 838.38,-223.25 936.12,-223.25 936.12,-241.75"/>
<text text-anchor="middle" x="887.25" y="-228.25" font-family="Helvetica,sans-Serif" font-size="10.00">include/sir/mutex.h</text>
</a>
</g>
</g>
<!-- Node2&#45;&gt;Node19 -->
<g id="edge35_Node000002_Node000019" class="edge">
<title>Node2&#45;&gt;Node19</title>
<g id="a_edge35_Node000002_Node000019"><a xlink:title=" ">
<path fill="none" stroke="#63b8ff" d="M692.42,-279.99C738.8,-268.93 808.61,-252.27 850.86,-242.18"/>
<polygon fill="#63b8ff" stroke="#63b8ff" points="691.66,-276.82 682.74,-282.54 693.28,-283.62 691.66,-276.82"/>
</a>
</g>
</g>
<!-- Node20 -->
<g id="Node000020" class="node">
<title>Node20</title>
<g id="a_Node000020"><a xlink:href="plugins_8h_source.html" target="_top" xlink:title=" ">
<polygon fill="white" stroke="#666666" points="620.38,-182 518.12,-182 518.12,-163.5 620.38,-163.5 620.38,-182"/>
<text text-anchor="middle" x="569.25" y="-168.5" font-family="Helvetica,sans-Serif" font-size="10.00">include/sir/plugins.h</text>
</a>
</g>
</g>
<!-- Node2&#45;&gt;Node20 -->
<g id="edge37_Node000002_Node000020" class="edge">
<title>Node2&#45;&gt;Node20</title>
<g id="a_edge37_Node000002_Node000020"><a xlink:title=" ">
<path fill="none" stroke="#63b8ff" d="M634.01,-273.87C617.51,-248.36 587.34,-201.72 574.87,-182.44"/>
<polygon fill="#63b8ff" stroke="#63b8ff" points="631.41,-275.3 639.78,-281.8 637.29,-271.5 631.41,-275.3"/>
</a>
</g>
</g>
<!-- Node21 -->
<g id="Node000021" class="node">
<title>Node21</title>
<g id="a_Node000021"><a xlink:href="queue_8h_source.html" target="_top" xlink:title=" ">
<polygon fill="white" stroke="#666666" points="1052.12,-241.75 954.38,-241.75 954.38,-223.25 1052.12,-223.25 1052.12,-241.75"/>
<text text-anchor="middle" x="1003.25" y="-228.25" font-family="Helvetica,sans-Serif" font-size="10.00">include/sir/queue.h</text>
</a>
</g>
</g>
<!-- Node2&#45;&gt;Node21 -->
<g id="edge39_Node000002_Node000021" class="edge">
<title>Node2&#45;&gt;Node21</title>
<g id="a_edge39_Node000002_Node000021"><a xlink:title=" ">
<path fill="none" stroke="#63b8ff" d="M704.15,-284.02C764.81,-276.23 861.99,-262.8 945.25,-247 952.56,-245.61 960.35,-243.94 967.77,-242.25"/>
<polygon fill="#63b8ff" stroke="#63b8ff" points="703.73,-280.67 694.25,-285.41 704.62,-287.61 703.73,-280.67"/>
</a>
</g>
</g>
<!-- Node22 -->
<g id="Node000022" class="node">
<title>Node22</title>
<g id="a_Node000022"><a xlink:href="textstyle_8h_source.html" target="_top" xlink:title=" ">
<polygon fill="white" stroke="#666666" points="879.75,-127.5 770.75,-127.5 770.75,-109 879.75,-109 879.75,-127.5"/>
<text text-anchor="middle" x="825.25" y="-114" font-family="Helvetica,sans-Serif" font-size="10.00">include/sir/textstyle.h</text>
</a>
</g>
</g>
<!-- Node2&#45;&gt;Node22 -->
<g id="edge41_Node000002_Node000022" class="edge">
<title>Node2&#45;&gt;Node22</title>
<g id="a_edge41_Node000002_Node000022"><a xlink:title=" ">
<path fill="none" stroke="#63b8ff" d="M678.91,-278.29C695.76,-270.77 715.8,-260.17 731.25,-247 774.42,-210.21 808.98,-149.91 820.83,-127.76"/>
<polygon fill="#63b8ff" stroke="#63b8ff" points="677.72,-275.42 669.91,-282.57 680.48,-281.85 677.72,-275.42"/>
</a>
</g>
</g>
<!-- Node23 -->
<g id="Node000023" class="node">
<title>Node23</title>
<g id="a_Node000023"><a xlink:href="threadpool_8h_source.html" target="_top" xlink:title=" ">
<polygon fill="white" stroke="#666666" points="1186.5,-241.75 1070,-241.75 1070,-223.25 1186.5,-223.25 1186.5,-241.75"/>
<text text-anchor="middle" x="1128.25" y="-228.25" font-family="Helvetica,sans-Serif" font-size="10.00">include/sir/threadpool.h</text>
</a>
</g>
</g>
<!-- Node2&#45;&gt;Node23 -->
<g id="edge44_Node000002_Node000023" class="edge">
<title>Node2&#45;&gt;Node23</title>
<g id="a_edge44_Node000002_Node000023"><a xlink:title=" ">
<path fill="none" stroke="#63b8ff" d="M704.43,-286.7C785.3,-280.08 934.75,-266.43 1061.25,-247 1069.93,-245.67 1079.19,-243.98 1087.97,-242.25"/>
<polygon fill="#63b8ff" stroke="#63b8ff" points="704.16,-283.29 694.48,-287.58 704.73,-290.26 704.16,-283.29"/>
</a>
</g>
</g>
<!-- Node24 -->
<g id="Node000024" class="node">
<title>Node24</title>
<g id="a_Node000024"><a xlink:href="plugin__sample_8h_source.html" target="_top" xlink:title=" ">
<polygon fill="white" stroke="#666666" points="1314.12,-247 1204.38,-247 1204.38,-218 1314.12,-218 1314.12,-247"/>
<text text-anchor="start" x="1212.38" y="-233.5" font-family="Helvetica,sans-Serif" font-size="10.00">plugins/sample/plugin</text>
<text text-anchor="middle" x="1259.25" y="-223" font-family="Helvetica,sans-Serif" font-size="10.00">_sample.h</text>
</a>
</g>
</g>
<!-- Node2&#45;&gt;Node24 -->
<g id="edge46_Node000002_Node000024" class="edge">
<title>Node2&#45;&gt;Node24</title>
<g id="a_edge46_Node000002_Node000024"><a xlink:title=" ">
<path fill="none" stroke="#63b8ff" d="M704.18,-288.98C805.14,-284.54 1017.52,-272.79 1195.25,-247 1198.17,-246.58 1201.16,-246.1 1204.17,-245.58"/>
<polygon fill="#63b8ff" stroke="#63b8ff" points="704.14,-285.52 694.3,-289.45 704.44,-292.51 704.14,-285.52"/>
</a>
</g>
</g>
<!-- Node4 -->
<g id="Node000004" class="node">
<title>Node4</title>
<g id="a_Node000004"><a xlink:href="example_8c.html" target="_top" xlink:title="A simple demonstration of initialization, configuration, and basic usage of libsir.">
<polygon fill="white" stroke="#666666" points="288.88,-73 189.62,-73 189.62,-54.5 288.88,-54.5 288.88,-73"/>
<text text-anchor="middle" x="239.25" y="-59.5" font-family="Helvetica,sans-Serif" font-size="10.00">example/example.c</text>
</a>
</g>
</g>
<!-- Node3&#45;&gt;Node4 -->
<g id="edge3_Node000003_Node000004" class="edge">
<title>Node3&#45;&gt;Node4</title>
<g id="a_edge3_Node000003_Node000004"><a xlink:title=" ">
<path fill="none" stroke="#63b8ff" d="M469.03,-108.62C418.13,-98.9 335.91,-83.2 284.85,-73.46"/>
<polygon fill="#63b8ff" stroke="#63b8ff" points="468.22,-112.22 478.7,-110.65 469.53,-105.34 468.22,-112.22"/>
</a>
</g>
</g>
<!-- Node5 -->
<g id="Node000005" class="node">
<title>Node5</title>
<g id="a_Node000005"><a xlink:href="sir_8hh.html" target="_top" xlink:title="C++ interface to libsir.">
<polygon fill="white" stroke="#666666" points="381.12,-73 307.38,-73 307.38,-54.5 381.12,-54.5 381.12,-73"/>
<text text-anchor="middle" x="344.25" y="-59.5" font-family="Helvetica,sans-Serif" font-size="10.00">include/sir.hh</text>
</a>
</g>
</g>
<!-- Node3&#45;&gt;Node5 -->
<g id="edge4_Node000003_Node000005" class="edge">
<title>Node3&#45;&gt;Node5</title>
<g id="a_edge4_Node000003_Node000005"><a xlink:title=" ">
<path fill="none" stroke="#63b8ff" d="M476.02,-105.44C444.56,-95.73 400.68,-82.18 372.36,-73.43"/>
<polygon fill="#63b8ff" stroke="#63b8ff" points="474.59,-108.97 485.18,-108.58 476.66,-102.29 474.59,-108.97"/>
</a>
</g>
</g>
<!-- Node7 -->
<g id="Node000007" class="node">
<title>Node7</title>
<g id="a_Node000007"><a xlink:href="sir_8c.html" target="_top" xlink:title="Public interface to libsir.">
<polygon fill="white" stroke="#666666" points="620.88,-73 569.62,-73 569.62,-54.5 620.88,-54.5 620.88,-73"/>
<text text-anchor="middle" x="595.25" y="-59.5" font-family="Helvetica,sans-Serif" font-size="10.00">src/sir.c</text>
</a>
</g>
</g>
<!-- Node3&#45;&gt;Node7 -->
<g id="edge6_Node000003_Node000007" class="edge">
<title>Node3&#45;&gt;Node7</title>
<g id="a_edge6_Node000003_Node000007"><a xlink:title=" ">
<path fill="none" stroke="#63b8ff" d="M536.5,-102.83C551.04,-93.41 569.54,-81.42 581.85,-73.43"/>
<polygon fill="#63b8ff" stroke="#63b8ff" points="535.11,-100.2 528.63,-108.58 538.92,-106.08 535.11,-100.2"/>
</a>
</g>
</g>
<!-- Node8 -->
<g id="Node000008" class="node">
<title>Node8</title>
<g id="a_Node000008"><a xlink:href="tests__shared_8h_source.html" target="_top" xlink:title=" ">
<polygon fill="white" stroke="#666666" points="504.88,-73 399.62,-73 399.62,-54.5 504.88,-54.5 504.88,-73"/>
<text text-anchor="middle" x="452.25" y="-59.5" font-family="Helvetica,sans-Serif" font-size="10.00">tests/tests_shared.h</text>
</a>
</g>
</g>
<!-- Node3&#45;&gt;Node8 -->
<g id="edge7_Node000003_Node000008" class="edge">
<title>Node3&#45;&gt;Node8</title>
<g id="a_edge7_Node000003_Node000008"><a xlink:title=" ">
<path fill="none" stroke="#63b8ff" d="M495.88,-101.7C484.9,-92.39 471.35,-80.93 462.3,-73.26"/>
<polygon fill="#63b8ff" stroke="#63b8ff" points="493.12,-104.79 503.01,-108.58 497.64,-99.45 493.12,-104.79"/>
</a>
</g>
</g>
<!-- Node6 -->
<g id="Node000006" class="node">
<title>Node6</title>
<g id="a_Node000006"><a xlink:href="tests_09_09_8hh_source.html" target="_top" xlink:title=" ">
<polygon fill="white" stroke="#666666" points="442.25,-18.5 354.25,-18.5 354.25,0 442.25,0 442.25,-18.5"/>
<text text-anchor="middle" x="398.25" y="-5" font-family="Helvetica,sans-Serif" font-size="10.00">tests/tests++.hh</text>
</a>
</g>
</g>
<!-- Node5&#45;&gt;Node6 -->
<g id="edge5_Node000005_Node000006" class="edge">
<title>Node5&#45;&gt;Node6</title>
<g id="a_edge5_Node000005_Node000006"><a xlink:title=" ">
<path fill="none" stroke="#63b8ff" d="M360.82,-46.64C370.28,-37.44 381.77,-26.27 389.5,-18.76"/>
<polygon fill="#63b8ff" stroke="#63b8ff" points="358.9,-43.6 354.17,-53.08 363.78,-48.62 358.9,-43.6"/>
</a>
</g>
</g>
<!-- Node8&#45;&gt;Node6 -->
<g id="edge8_Node000008_Node000006" class="edge">
<title>Node8&#45;&gt;Node6</title>
<g id="a_edge8_Node000008_Node000006"><a xlink:title=" ">
<path fill="none" stroke="#63b8ff" d="M435.68,-46.64C426.22,-37.44 414.73,-26.27 407,-18.76"/>
<polygon fill="#63b8ff" stroke="#63b8ff" points="432.72,-48.62 442.33,-53.08 437.6,-43.6 432.72,-48.62"/>
</a>
</g>
</g>
<!-- Node9 -->
<g id="Node000009" class="node">
<title>Node9</title>
<g id="a_Node000009"><a xlink:href="tests_8h_source.html" target="_top" xlink:title=" ">
<polygon fill="white" stroke="#666666" points="922.62,-18.5 851.88,-18.5 851.88,0 922.62,0 922.62,-18.5"/>
<text text-anchor="middle" x="887.25" y="-5" font-family="Helvetica,sans-Serif" font-size="10.00">tests/tests.h</text>
</a>
</g>
</g>
<!-- Node8&#45;&gt;Node9 -->
<g id="edge9_Node000008_Node000009" class="edge">
<title>Node8&#45;&gt;Node9</title>
<g id="a_edge9_Node000008_Node000009"><a xlink:title=" ">
<path fill="none" stroke="#63b8ff" d="M515.79,-55.08C608.48,-43.89 777.73,-23.47 851.4,-14.58"/>
<polygon fill="#63b8ff" stroke="#63b8ff" points="515.66,-51.69 506.15,-56.36 516.5,-58.64 515.66,-51.69"/>
</a>
</g>
</g>
<!-- Node11 -->
<g id="Node000011" class="node">
<title>Node11</title>
<g id="a_Node000011"><a xlink:href="sircondition_8c.html" target="_top" xlink:title=" ">
<polygon fill="white" stroke="#666666" points="135.38,-73 45.12,-73 45.12,-54.5 135.38,-54.5 135.38,-73"/>
<text text-anchor="middle" x="90.25" y="-59.5" font-family="Helvetica,sans-Serif" font-size="10.00">src/sircondition.c</text>
</a>
</g>
</g>
<!-- Node10&#45;&gt;Node11 -->
<g id="edge11_Node000010_Node000011" class="edge">
<title>Node10&#45;&gt;Node11</title>
<g id="a_edge11_Node000010_Node000011"><a xlink:title=" ">
<path fill="none" stroke="#63b8ff" d="M60.27,-152.64C63.66,-140.14 68.4,-123.5 73.25,-109 77.43,-96.51 83.03,-82.35 86.63,-73.48"/>
<polygon fill="#63b8ff" stroke="#63b8ff" points="56.66,-151.59 57.46,-162.15 63.42,-153.39 56.66,-151.59"/>
</a>
</g>
</g>
<!-- Node13&#45;&gt;Node7 -->
<g id="edge14_Node000013_Node000007" class="edge">
<title>Node13&#45;&gt;Node7</title>
<g id="a_edge14_Node000013_Node000007"><a xlink:title=" ">
<path fill="none" stroke="#63b8ff" d="M668.22,-157.19C656.85,-149.29 643.43,-138.84 633.25,-127.5 617.76,-110.25 605.09,-85.81 599.06,-73.13"/>
<polygon fill="#63b8ff" stroke="#63b8ff" points="665.92,-160.53 676.17,-163.18 669.81,-154.71 665.92,-160.53"/>
</a>
</g>
</g>
<!-- Node14&#45;&gt;Node8 -->
<g id="edge28_Node000014_Node000008" class="edge">
<title>Node14&#45;&gt;Node8</title>
<g id="a_edge28_Node000014_Node000008"><a xlink:title=" ">
<path fill="none" stroke="#63b8ff" d="M418.59,-212.47C426.81,-176.38 444.37,-99.31 450.27,-73.43"/>
<polygon fill="#63b8ff" stroke="#63b8ff" points="415,-211.47 416.19,-222 421.82,-213.03 415,-211.47"/>
</a>
</g>
</g>
<!-- Node14&#45;&gt;Node15 -->
<g id="edge16_Node000014_Node000015" class="edge">
<title>Node14&#45;&gt;Node15</title>
<g id="a_edge16_Node000014_Node000015"><a xlink:title=" ">
<path fill="none" stroke="#63b8ff" d="M374.76,-219.74C337.62,-208.69 282.86,-192.39 249.49,-182.45"/>
<polygon fill="#63b8ff" stroke="#63b8ff" points="373.62,-223.36 384.21,-222.85 375.62,-216.65 373.62,-223.36"/>
</a>
</g>
</g>
<!-- Node16 -->
<g id="Node000016" class="node">
<title>Node16</title>
<g id="a_Node000016"><a xlink:href="internal_8h_source.html" target="_top" xlink:title=" ">
<polygon fill="white" stroke="#666666" points="385.75,-127.5 282.75,-127.5 282.75,-109 385.75,-109 385.75,-127.5"/>
<text text-anchor="middle" x="334.25" y="-114" font-family="Helvetica,sans-Serif" font-size="10.00">include/sir/internal.h</text>
</a>
</g>
</g>
<!-- Node14&#45;&gt;Node16 -->
<g id="edge27_Node000014_Node000016" class="edge">
<title>Node14&#45;&gt;Node16</title>
<g id="a_edge27_Node000014_Node000016"><a xlink:title=" ">
<path fill="none" stroke="#63b8ff" d="M412.3,-212.09C410.07,-197.63 405.31,-177.96 395.25,-163.5 384.27,-147.71 365.78,-135.47 352.04,-127.9"/>
<polygon fill="#63b8ff" stroke="#63b8ff" points="408.92,-212.3 413.64,-221.78 415.87,-211.42 408.92,-212.3"/>
</a>
</g>
</g>
<!-- Node15&#45;&gt;Node4 -->
<g id="edge17_Node000015_Node000004" class="edge">
<title>Node15&#45;&gt;Node4</title>
<g id="a_edge17_Node000015_Node000004"><a xlink:title=" ">
<path fill="none" stroke="#63b8ff" d="M223.63,-152.7C227.79,-129.3 234.66,-90.57 237.71,-73.4"/>
<polygon fill="#63b8ff" stroke="#63b8ff" points="220.04,-151.9 221.74,-162.35 226.94,-153.12 220.04,-151.9"/>
</a>
</g>
</g>
<!-- Node15&#45;&gt;Node5 -->
<g id="edge18_Node000015_Node000005" class="edge">
<title>Node15&#45;&gt;Node5</title>
<g id="a_edge18_Node000015_Node000005"><a xlink:title=" ">
<path fill="none" stroke="#63b8ff" d="M232.7,-154.67C242.94,-141.31 258.31,-122.75 274.25,-109 290.9,-94.63 312.65,-81.63 327.46,-73.5"/>
<polygon fill="#63b8ff" stroke="#63b8ff" points="229.4,-152.23 226.21,-162.34 235.01,-156.42 229.4,-152.23"/>
</a>
</g>
</g>
<!-- Node15&#45;&gt;Node8 -->
<g id="edge26_Node000015_Node000008" class="edge">
<title>Node15&#45;&gt;Node8</title>
<g id="a_edge26_Node000015_Node000008"><a xlink:title=" ">
<path fill="none" stroke="#63b8ff" d="M278.04,-160.89C321.04,-152.11 375.56,-139.32 395.25,-127.5 418.72,-113.41 438.18,-86.67 447.06,-73.1"/>
<polygon fill="#63b8ff" stroke="#63b8ff" points="277.5,-157.63 268.38,-163.03 278.88,-164.49 277.5,-157.63"/>
</a>
</g>
</g>
<!-- Node15&#45;&gt;Node12 -->
<g id="edge19_Node000015_Node000012" class="edge">
<title>Node15&#45;&gt;Node12</title>
<g id="a_edge19_Node000015_Node000012"><a xlink:title=" ">
<path fill="none" stroke="#63b8ff" d="M196.9,-157.33C181.65,-147.91 162.23,-135.92 149.31,-127.93"/>
<polygon fill="#63b8ff" stroke="#63b8ff" points="194.87,-160.8 205.21,-163.08 198.55,-154.85 194.87,-160.8"/>
</a>
</g>
</g>
<!-- Node15&#45;&gt;Node16 -->
<g id="edge20_Node000015_Node000016" class="edge">
<title>Node15&#45;&gt;Node16</title>
<g id="a_edge20_Node000015_Node000016"><a xlink:title=" ">
<path fill="none" stroke="#63b8ff" d="M248.97,-158.53C269.77,-148.94 297.32,-136.26 315.4,-127.93"/>
<polygon fill="#63b8ff" stroke="#63b8ff" points="247.69,-155.72 240.07,-163.08 250.62,-162.08 247.69,-155.72"/>
</a>
</g>
</g>
<!-- Node16&#45;&gt;Node4 -->
<g id="edge21_Node000016_Node000004" class="edge">
<title>Node16&#45;&gt;Node4</title>
<g id="a_edge21_Node000016_Node000004"><a xlink:title=" ">
<path fill="none" stroke="#63b8ff" d="M309.12,-103.36C291.94,-93.87 269.68,-81.57 254.96,-73.43"/>
<polygon fill="#63b8ff" stroke="#63b8ff" points="307.12,-106.81 317.56,-108.58 310.5,-100.68 307.12,-106.81"/>
</a>
</g>
</g>
<!-- Node16&#45;&gt;Node5 -->
<g id="edge22_Node000016_Node000005" class="edge">
<title>Node16&#45;&gt;Node5</title>
<g id="a_edge22_Node000016_Node000005"><a xlink:title=" ">
<path fill="none" stroke="#63b8ff" d="M337.91,-98.01C339.53,-89.5 341.36,-79.94 342.63,-73.26"/>
<polygon fill="#63b8ff" stroke="#63b8ff" points="334.33,-97.1 335.9,-107.58 341.21,-98.41 334.33,-97.1"/>
</a>
</g>
</g>
<!-- Node16&#45;&gt;Node7 -->
<g id="edge23_Node000016_Node000007" class="edge">
<title>Node16&#45;&gt;Node7</title>
<g id="a_edge23_Node000016_Node000007"><a xlink:title=" ">
<path fill="none" stroke="#63b8ff" d="M388.31,-106.38C443.62,-95.25 527.24,-78.43 569.24,-69.98"/>
<polygon fill="#63b8ff" stroke="#63b8ff" points="387.76,-103.12 378.64,-108.52 389.14,-109.98 387.76,-103.12"/>
</a>
</g>
</g>
<!-- Node16&#45;&gt;Node8 -->
<g id="edge25_Node000016_Node000008" class="edge">
<title>Node16&#45;&gt;Node8</title>
<g id="a_edge25_Node000016_Node000008"><a xlink:title=" ">
<path fill="none" stroke="#63b8ff" d="M363.68,-104.16C385.25,-94.56 413.94,-81.8 432.74,-73.43"/>
<polygon fill="#63b8ff" stroke="#63b8ff" points="362.45,-101.32 354.74,-108.58 365.29,-107.71 362.45,-101.32"/>
</a>
</g>
</g>
<!-- Node16&#45;&gt;Node11 -->
<g id="edge24_Node000016_Node000011" class="edge">
<title>Node16&#45;&gt;Node11</title>
<g id="a_edge24_Node000016_Node000011"><a xlink:title=" ">
<path fill="none" stroke="#63b8ff" d="M283.21,-106.27C237.95,-96.53 172.73,-82.5 130.91,-73.5"/>
<polygon fill="#63b8ff" stroke="#63b8ff" points="282.17,-109.84 292.68,-108.52 283.64,-103 282.17,-109.84"/>
</a>
</g>
</g>
<!-- Node17&#45;&gt;Node7 -->
<g id="edge30_Node000017_Node000007" class="edge">
<title>Node17&#45;&gt;Node7</title>
<g id="a_edge30_Node000017_Node000007"><a xlink:title=" ">
<path fill="none" stroke="#63b8ff" d="M670.79,-103.63C652.27,-94.1 628.07,-81.64 612.12,-73.43"/>
<polygon fill="#63b8ff" stroke="#63b8ff" points="668.91,-107.12 679.41,-108.58 672.12,-100.89 668.91,-107.12"/>
</a>
</g>
</g>
<!-- Node17&#45;&gt;Node9 -->
<g id="edge31_Node000017_Node000009" class="edge">
<title>Node17&#45;&gt;Node9</title>
<g id="a_edge31_Node000017_Node000009"><a xlink:title=" ">
<path fill="none" stroke="#63b8ff" d="M721.98,-103.32C761.85,-80.87 839.16,-37.33 871.95,-18.87"/>
<polygon fill="#63b8ff" stroke="#63b8ff" points="720.47,-100.72 713.48,-108.67 723.91,-106.82 720.47,-100.72"/>
</a>
</g>
</g>
<!-- Node18&#45;&gt;Node16 -->
<g id="edge34_Node000018_Node000016" class="edge">
<title>Node18&#45;&gt;Node16</title>
<g id="a_edge34_Node000018_Node000016"><a xlink:title=" ">
<path fill="none" stroke="#63b8ff" d="M336.76,-152.22C336.12,-143.79 335.4,-134.36 334.9,-127.76"/>
<polygon fill="#63b8ff" stroke="#63b8ff" points="333.34,-152.38 337.59,-162.08 340.32,-151.84 333.34,-152.38"/>
</a>
</g>
</g>
<!-- Node19&#45;&gt;Node9 -->
<g id="edge36_Node000019_Node000009" class="edge">
<title>Node19&#45;&gt;Node9</title>
<g id="a_edge36_Node000019_Node000009"><a xlink:title=" ">
<path fill="none" stroke="#63b8ff" d="M887.88,-212.05C888.6,-187.89 889.62,-145.41 889.25,-109 888.91,-75.74 887.94,-36.18 887.49,-18.97"/>
<polygon fill="#63b8ff" stroke="#63b8ff" points="884.36,-211.78 887.55,-221.89 891.36,-212 884.36,-211.78"/>
</a>
</g>
</g>
<!-- Node20&#45;&gt;Node7 -->
<g id="edge38_Node000020_Node000007" class="edge">
<title>Node20&#45;&gt;Node7</title>
<g id="a_edge38_Node000020_Node000007"><a xlink:title=" ">
<path fill="none" stroke="#63b8ff" d="M573.88,-152.7C579.57,-129.3 588.98,-90.57 593.15,-73.4"/>
<polygon fill="#63b8ff" stroke="#63b8ff" points="570.25,-151.81 571.29,-162.35 577.05,-153.46 570.25,-151.81"/>
</a>
</g>
</g>
<!-- Node21&#45;&gt;Node9 -->
<g id="edge40_Node000021_Node000009" class="edge">
<title>Node21&#45;&gt;Node9</title>
<g id="a_edge40_Node000021_Node000009"><a xlink:title=" ">
<path fill="none" stroke="#63b8ff" d="M993.6,-213.1C969.72,-167.54 908.55,-50.88 891.64,-18.63"/>
<polygon fill="#63b8ff" stroke="#63b8ff" points="990.96,-214.6 998.7,-221.83 997.16,-211.34 990.96,-214.6"/>
</a>
</g>
</g>
<!-- Node22&#45;&gt;Node7 -->
<g id="edge42_Node000022_Node000007" class="edge">
<title>Node22&#45;&gt;Node7</title>
<g id="a_edge42_Node000022_Node000007"><a xlink:title=" ">
<path fill="none" stroke="#63b8ff" d="M776.35,-106.09C728.86,-95.25 658.58,-79.21 621.07,-70.64"/>
<polygon fill="#63b8ff" stroke="#63b8ff" points="775.48,-109.71 786.01,-108.52 777.04,-102.88 775.48,-109.71"/>
</a>
</g>
</g>
<!-- Node22&#45;&gt;Node9 -->
<g id="edge43_Node000022_Node000009" class="edge">
<title>Node22&#45;&gt;Node9</title>
<g id="a_edge43_Node000022_Node000009"><a xlink:title=" ">
<path fill="none" stroke="#63b8ff" d="M835.55,-99.48C849.02,-76.22 872.11,-36.39 882.24,-18.9"/>
<polygon fill="#63b8ff" stroke="#63b8ff" points="832.1,-97.45 830.12,-107.85 838.16,-100.96 832.1,-97.45"/>
</a>
</g>
</g>
<!-- Node23&#45;&gt;Node9 -->
<g id="edge45_Node000023_Node000009" class="edge">
<title>Node23&#45;&gt;Node9</title>
<g id="a_edge45_Node000023_Node000009"><a xlink:title=" ">
<path fill="none" stroke="#63b8ff" d="M1110.97,-215.64C1063.6,-172.15 932.81,-52.08 896.63,-18.86"/>
<polygon fill="#63b8ff" stroke="#63b8ff" points="1108.07,-217.64 1117.8,-221.83 1112.8,-212.49 1108.07,-217.64"/>
</a>
</g>
</g>
</g>
</svg>
