<?xml version="1.0" encoding="UTF-8" standalone="no"?>
<!DOCTYPE svg PUBLIC "-//W3C//DTD SVG 1.1//EN"
 "http://www.w3.org/Graphics/SVG/1.1/DTD/svg11.dtd">
<!-- Generated by graphviz version 9.0.0 (20230911.1827)
 -->
<!-- Title: include/sir/config.h Pages: 1 -->
<!--zoomable 370 -->

<svg id="main" version="1.1" xmlns="http://www.w3.org/2000/svg" xmlns:xlink="http://www.w3.org/1999/xlink" xml:space="preserve" onload="init(evt)">
<style type="text/css"><![CDATA[
.node, .edge {opacity: 0.7;}
.node.selected, .edge.selected {opacity: 1;}
.edge:hover path { stroke: red; }
.edge:hover polygon { stroke: red; fill: red; }
]]></style>

<defs>
  <circle id="rim" cx="0" cy="0" r="7"/>
  <circle id="rim2" cx="0" cy="0" r="3.5"/>
  <g id="zoomPlus">
    <use xlink:href="#rim" fill="#404040"><set attributeName="fill" to="#808080" begin="zoomplus.mouseover" end="zoomplus.mouseout"/></use>
    <path d="M-4,0h8M0,-4v8" fill="none" stroke="white" stroke-width="1.5" pointer-events="none"/>
  </g>
  <g id="zoomMin">
    <use xlink:href="#rim" fill="#404040"><set attributeName="fill" to="#808080" begin="zoomminus.mouseover" end="zoomminus.mouseout"/></use>
    <path d="M-4,0h8" fill="none" stroke="white" stroke-width="1.5" pointer-events="none"/>
  </g>
  <g id="arrowUp" transform="translate(30 24)">
    <use xlink:href="#rim"/>
    <path pointer-events="none" fill="none" stroke="white" stroke-width="1.5" d="M0,-3.0v7 M-2.5,-0.5L0,-3.0L2.5,-0.5"/>
  </g>
  <g id="arrowRight" transform="rotate(90) translate(36 -43)">
    <use xlink:href="#rim"/>
    <path pointer-events="none" fill="none" stroke="white" stroke-width="1.5" d="M0,-3.0v7 M-2.5,-0.5L0,-3.0L2.5,-0.5"/>
  </g>
  <g id="arrowDown" transform="rotate(180) translate(-30 -48)">
    <use xlink:href="#rim"/>
    <path pointer-events="none" fill="none" stroke="white" stroke-width="1.5" d="M0,-3.0v7 M-2.5,-0.5L0,-3.0L2.5,-0.5"/>
  </g>
  <g id="arrowLeft" transform="rotate(270) translate(-36 17)">
    <use xlink:href="#rim"/>
    <path pointer-events="none" fill="none" stroke="white" stroke-width="1.5" d="M0,-3.0v7 M-2.5,-0.5L0,-3.0L2.5,-0.5"/>
  </g>
  <g id="resetDef">
    <use xlink:href="#rim2" fill="#404040"><set attributeName="fill" to="#808080" begin="reset.mouseover" end="reset.mouseout"/></use>
  </g>
</defs>
<script type="application/ecmascript">
var viewWidth = 1322;
var viewHeight = 370;
var sectionId = 'dynsection-0';
</script>
<script type="application/ecmascript" xlink:href="svg.min.js"/>
<svg id="graph" class="graph">
<g id="viewport">
<title>include/sir/config.h</title>
<!-- Node1 -->
<g id="Node000001" class="node">
<title>Node1</title>
<g id="a_Node000001"><a xlink:title="Compile&#45;time configuration.">
<polygon fill="#999999" stroke="#666666" points="694.12,-362 596.38,-362 596.38,-342.75 694.12,-342.75 694.12,-362"/>
<text text-anchor="middle" x="645.25" y="-348.5" font-family="Helvetica,sans-Serif" font-size="10.00">include/sir/config.h</text>
</a>
</g>
</g>
<!-- Node2 -->
<g id="Node000002" class="node">
<title>Node2</title>
<g id="a_Node000002"><a xlink:href="types_8h_source.html" target="_top" xlink:title=" ">
<polygon fill="white" stroke="#666666" points="693,-306.75 597.5,-306.75 597.5,-287.5 693,-287.5 693,-306.75"/>
<text text-anchor="middle" x="645.25" y="-293.25" font-family="Helvetica,sans-Serif" font-size="10.00">include/sir/types.h</text>
</a>
</g>
</g>
<!-- Node1&#45;&gt;Node2 -->
<g id="edge1_Node000001_Node000002" class="edge">
<title>Node1&#45;&gt;Node2</title>
<g id="a_edge1_Node000001_Node000002"><a xlink:title=" ">
<path fill="none" stroke="#63b8ff" d="M645.25,-331.13C645.25,-322.84 645.25,-313.67 645.25,-307.11"/>
<polygon fill="#63b8ff" stroke="#63b8ff" points="641.75,-331.07 645.25,-341.07 648.75,-331.07 641.75,-331.07"/>
</a>
</g>
</g>
<!-- Node3 -->
<g id="Node000003" class="node">
<title>Node3</title>
<g id="a_Node000003"><a xlink:href="sir_8h.html" target="_top" xlink:title="Public interface to libsir.">
<polygon fill="white" stroke="#666666" points="548.12,-129.75 480.38,-129.75 480.38,-110.5 548.12,-110.5 548.12,-129.75"/>
<text text-anchor="middle" x="514.25" y="-116.25" font-family="Helvetica,sans-Serif" font-size="10.00">include/sir.h</text>
</a>
</g>
</g>
<!-- Node2&#45;&gt;Node3 -->
<g id="edge2_Node000002_Node000003" class="edge">
<title>Node2&#45;&gt;Node3</title>
<g id="a_edge2_Node000002_Node000003"><a xlink:title=" ">
<path fill="none" stroke="#63b8ff" d="M615.51,-281.97C582.53,-264.43 531.12,-231.11 509.25,-185 500.67,-166.91 506.63,-142.68 510.92,-129.89"/>
<polygon fill="#63b8ff" stroke="#63b8ff" points="613.66,-284.96 624.16,-286.42 616.86,-278.74 613.66,-284.96"/>
</a>
</g>
</g>
<!-- Node10 -->
<g id="Node000010" class="node">
<title>Node10</title>
<g id="a_Node000010"><a xlink:href="condition_8h.html" target="_top" xlink:title=" ">
<polygon fill="white" stroke="#666666" points="110.5,-185 0,-185 0,-165.75 110.5,-165.75 110.5,-185"/>
<text text-anchor="middle" x="55.25" y="-171.5" font-family="Helvetica,sans-Serif" font-size="10.00">include/sir/condition.h</text>
</a>
</g>
</g>
<!-- Node2&#45;&gt;Node10 -->
<g id="edge10_Node000002_Node000010" class="edge">
<title>Node2&#45;&gt;Node10</title>
<g id="a_edge10_Node000002_Node000010"><a xlink:title=" ">
<path fill="none" stroke="#63b8ff" d="M585.75,-296.27C467.18,-295.7 205.96,-289.97 126.25,-251.5 95.22,-236.52 70.8,-201.75 60.53,-185.3"/>
<polygon fill="#63b8ff" stroke="#63b8ff" points="585.59,-299.77 595.6,-296.3 585.61,-292.77 585.59,-299.77"/>
</a>
</g>
</g>
<!-- Node12 -->
<g id="Node000012" class="node">
<title>Node12</title>
<g id="a_Node000012"><a xlink:href="console_8h_source.html" target="_top" xlink:title=" ">
<polygon fill="white" stroke="#666666" points="187.88,-129.75 82.62,-129.75 82.62,-110.5 187.88,-110.5 187.88,-129.75"/>
<text text-anchor="middle" x="135.25" y="-116.25" font-family="Helvetica,sans-Serif" font-size="10.00">include/sir/console.h</text>
</a>
</g>
</g>
<!-- Node2&#45;&gt;Node12 -->
<g id="edge12_Node000002_Node000012" class="edge">
<title>Node2&#45;&gt;Node12</title>
<g id="a_edge12_Node000002_Node000012"><a xlink:title=" ">
<path fill="none" stroke="#63b8ff" d="M585.73,-296.24C511.26,-294.75 380.69,-286.7 275.25,-251.5 219.25,-232.81 198.73,-229.78 160.25,-185 146.13,-168.56 139.45,-143.21 136.77,-129.93"/>
<polygon fill="#63b8ff" stroke="#63b8ff" points="585.62,-299.74 595.68,-296.4 585.73,-292.74 585.62,-299.74"/>
</a>
</g>
</g>
<!-- Node13 -->
<g id="Node000013" class="node">
<title>Node13</title>
<g id="a_Node000013"><a xlink:href="defaults_8h.html" target="_top" xlink:title="Default levels, options, and text styling.">
<polygon fill="white" stroke="#666666" points="744.25,-185 638.25,-185 638.25,-165.75 744.25,-165.75 744.25,-185"/>
<text text-anchor="middle" x="691.25" y="-171.5" font-family="Helvetica,sans-Serif" font-size="10.00">include/sir/defaults.h</text>
</a>
</g>
</g>
<!-- Node2&#45;&gt;Node13 -->
<g id="edge13_Node000002_Node000013" class="edge">
<title>Node2&#45;&gt;Node13</title>
<g id="a_edge13_Node000002_Node000013"><a xlink:title=" ">
<path fill="none" stroke="#63b8ff" d="M652.75,-276.6C662.83,-250.37 680.32,-204.82 687.75,-185.48"/>
<polygon fill="#63b8ff" stroke="#63b8ff" points="649.57,-275.12 649.25,-285.71 656.1,-277.63 649.57,-275.12"/>
</a>
</g>
</g>
<!-- Node14 -->
<g id="Node000014" class="node">
<title>Node14</title>
<g id="a_Node000014"><a xlink:href="errors_8h_source.html" target="_top" xlink:title=" ">
<polygon fill="white" stroke="#666666" points="462.38,-245.88 366.12,-245.88 366.12,-226.62 462.38,-226.62 462.38,-245.88"/>
<text text-anchor="middle" x="414.25" y="-232.38" font-family="Helvetica,sans-Serif" font-size="10.00">include/sir/errors.h</text>
</a>
</g>
</g>
<!-- Node2&#45;&gt;Node14 -->
<g id="edge15_Node000002_Node000014" class="edge">
<title>Node2&#45;&gt;Node14</title>
<g id="a_edge15_Node000002_Node000014"><a xlink:title=" ">
<path fill="none" stroke="#63b8ff" d="M598.7,-284.26C554.76,-273.06 489.83,-256.51 449.88,-246.33"/>
<polygon fill="#63b8ff" stroke="#63b8ff" points="597.64,-287.6 608.2,-286.68 599.37,-280.82 597.64,-287.6"/>
</a>
</g>
</g>
<!-- Node15 -->
<g id="Node000015" class="node">
<title>Node15</title>
<g id="a_Node000015"><a xlink:href="helpers_8h_source.html" target="_top" xlink:title=" ">
<polygon fill="white" stroke="#666666" points="272.75,-185 169.75,-185 169.75,-165.75 272.75,-165.75 272.75,-185"/>
<text text-anchor="middle" x="221.25" y="-171.5" font-family="Helvetica,sans-Serif" font-size="10.00">include/sir/helpers.h</text>
</a>
</g>
</g>
<!-- Node2&#45;&gt;Node15 -->
<g id="edge32_Node000002_Node000015" class="edge">
<title>Node2&#45;&gt;Node15</title>
<g id="a_edge32_Node000002_Node000015"><a xlink:title=" ">
<path fill="none" stroke="#63b8ff" d="M585.66,-295.11C522,-292.31 419.07,-282.77 336.25,-251.5 293.64,-235.41 250.6,-201.51 231.49,-185.33"/>
<polygon fill="#63b8ff" stroke="#63b8ff" points="585.43,-298.6 595.56,-295.5 585.7,-291.61 585.43,-298.6"/>
</a>
</g>
</g>
<!-- Node17 -->
<g id="Node000017" class="node">
<title>Node17</title>
<g id="a_Node000017"><a xlink:href="filecache_8h_source.html" target="_top" xlink:title=" ">
<polygon fill="white" stroke="#666666" points="752.5,-129.75 642,-129.75 642,-110.5 752.5,-110.5 752.5,-129.75"/>
<text text-anchor="middle" x="697.25" y="-116.25" font-family="Helvetica,sans-Serif" font-size="10.00">include/sir/filecache.h</text>
</a>
</g>
</g>
<!-- Node2&#45;&gt;Node17 -->
<g id="edge29_Node000002_Node000017" class="edge">
<title>Node2&#45;&gt;Node17</title>
<g id="a_edge29_Node000002_Node000017"><a xlink:title=" ">
<path fill="none" stroke="#63b8ff" d="M668.51,-280.77C694.82,-261.85 736.2,-227 753.25,-185 756.47,-177.07 756.96,-173.46 753.25,-165.75 745.53,-149.73 728.96,-137.69 715.84,-130.17"/>
<polygon fill="#63b8ff" stroke="#63b8ff" points="666.7,-277.77 660.49,-286.35 670.7,-283.51 666.7,-277.77"/>
</a>
</g>
</g>
<!-- Node18 -->
<g id="Node000018" class="node">
<title>Node18</title>
<g id="a_Node000018"><a xlink:href="maps_8h_source.html" target="_top" xlink:title=" ">
<polygon fill="white" stroke="#666666" points="386,-185 290.5,-185 290.5,-165.75 386,-165.75 386,-185"/>
<text text-anchor="middle" x="338.25" y="-171.5" font-family="Helvetica,sans-Serif" font-size="10.00">include/sir/maps.h</text>
</a>
</g>
</g>
<!-- Node2&#45;&gt;Node18 -->
<g id="edge33_Node000002_Node000018" class="edge">
<title>Node2&#45;&gt;Node18</title>
<g id="a_edge33_Node000002_Node000018"><a xlink:title=" ">
<path fill="none" stroke="#63b8ff" d="M585.94,-294.46C511.58,-291.13 389.86,-281.18 357.25,-251.5 338.35,-234.29 337.04,-201.25 337.62,-185.35"/>
<polygon fill="#63b8ff" stroke="#63b8ff" points="585.35,-297.94 595.49,-294.86 585.64,-290.94 585.35,-297.94"/>
</a>
</g>
</g>
<!-- Node19 -->
<g id="Node000019" class="node">
<title>Node19</title>
<g id="a_Node000019"><a xlink:href="mutex_8h_source.html" target="_top" xlink:title=" ">
<polygon fill="white" stroke="#666666" points="936.5,-245.88 838,-245.88 838,-226.62 936.5,-226.62 936.5,-245.88"/>
<text text-anchor="middle" x="887.25" y="-232.38" font-family="Helvetica,sans-Serif" font-size="10.00">include/sir/mutex.h</text>
</a>
</g>
</g>
<!-- Node2&#45;&gt;Node19 -->
<g id="edge35_Node000002_Node000019" class="edge">
<title>Node2&#45;&gt;Node19</title>
<g id="a_edge35_Node000002_Node000019"><a xlink:title=" ">
<path fill="none" stroke="#63b8ff" d="M693.44,-284.4C739.47,-273.2 807.9,-256.56 849.93,-246.33"/>
<polygon fill="#63b8ff" stroke="#63b8ff" points="692.89,-280.93 684,-286.7 694.55,-287.73 692.89,-280.93"/>
</a>
</g>
</g>
<!-- Node20 -->
<g id="Node000020" class="node">
<title>Node20</title>
<g id="a_Node000020"><a xlink:href="plugins_8h_source.html" target="_top" xlink:title=" ">
<polygon fill="white" stroke="#666666" points="620.38,-185 518.12,-185 518.12,-165.75 620.38,-165.75 620.38,-185"/>
<text text-anchor="middle" x="569.25" y="-171.5" font-family="Helvetica,sans-Serif" font-size="10.00">include/sir/plugins.h</text>
</a>
</g>
</g>
<!-- Node2&#45;&gt;Node20 -->
<g id="edge37_Node000002_Node000020" class="edge">
<title>Node2&#45;&gt;Node20</title>
<g id="a_edge37_Node000002_Node000020"><a xlink:title=" ">
<path fill="none" stroke="#63b8ff" d="M633.52,-277.65C616.99,-251.6 587.47,-205.08 575.03,-185.48"/>
<polygon fill="#63b8ff" stroke="#63b8ff" points="630.41,-279.28 638.73,-285.85 636.32,-275.53 630.41,-279.28"/>
</a>
</g>
</g>
<!-- Node21 -->
<g id="Node000021" class="node">
<title>Node21</title>
<g id="a_Node000021"><a xlink:href="queue_8h_source.html" target="_top" xlink:title=" ">
<polygon fill="white" stroke="#666666" points="1052.12,-245.88 954.38,-245.88 954.38,-226.62 1052.12,-226.62 1052.12,-245.88"/>
<text text-anchor="middle" x="1003.25" y="-232.38" font-family="Helvetica,sans-Serif" font-size="10.00">include/sir/queue.h</text>
</a>
</g>
</g>
<!-- Node2&#45;&gt;Node21 -->
<g id="edge39_Node000002_Node000021" class="edge">
<title>Node2&#45;&gt;Node21</title>
<g id="a_edge39_Node000002_Node000021"><a xlink:title=" ">
<path fill="none" stroke="#63b8ff" d="M704.56,-288.96C765.28,-281.24 862.25,-267.83 945.25,-251.5 952.78,-250.02 960.8,-248.2 968.4,-246.37"/>
<polygon fill="#63b8ff" stroke="#63b8ff" points="704.27,-285.47 694.79,-290.19 705.15,-292.42 704.27,-285.47"/>
</a>
</g>
</g>
<!-- Node22 -->
<g id="Node000022" class="node">
<title>Node22</title>
<g id="a_Node000022"><a xlink:href="textstyle_8h_source.html" target="_top" xlink:title=" ">
<polygon fill="white" stroke="#666666" points="879.75,-129.75 770.75,-129.75 770.75,-110.5 879.75,-110.5 879.75,-129.75"/>
<text text-anchor="middle" x="825.25" y="-116.25" font-family="Helvetica,sans-Serif" font-size="10.00">include/sir/textstyle.h</text>
</a>
</g>
</g>
<!-- Node2&#45;&gt;Node22 -->
<g id="edge41_Node000002_Node000022" class="edge">
<title>Node2&#45;&gt;Node22</title>
<g id="a_edge41_Node000002_Node000022"><a xlink:title=" ">
<path fill="none" stroke="#63b8ff" d="M680.57,-282.64C697.38,-275.12 717.08,-264.61 732.25,-251.5 775.38,-214.24 809.07,-153.05 820.78,-130.15"/>
<polygon fill="#63b8ff" stroke="#63b8ff" points="679.23,-279.41 671.41,-286.56 681.98,-285.85 679.23,-279.41"/>
</a>
</g>
</g>
<!-- Node23 -->
<g id="Node000023" class="node">
<title>Node23</title>
<g id="a_Node000023"><a xlink:href="threadpool_8h_source.html" target="_top" xlink:title=" ">
<polygon fill="white" stroke="#666666" points="1186.5,-245.88 1070,-245.88 1070,-226.62 1186.5,-226.62 1186.5,-245.88"/>
<text text-anchor="middle" x="1128.25" y="-232.38" font-family="Helvetica,sans-Serif" font-size="10.00">include/sir/threadpool.h</text>
</a>
</g>
</g>
<!-- Node2&#45;&gt;Node23 -->
<g id="edge44_Node000002_Node000023" class="edge">
<title>Node2&#45;&gt;Node23</title>
<g id="a_edge44_Node000002_Node000023"><a xlink:title=" ">
<path fill="none" stroke="#63b8ff" d="M704.62,-291.69C785.57,-285.19 934.94,-271.65 1061.25,-251.5 1070.18,-250.08 1079.71,-248.24 1088.7,-246.37"/>
<polygon fill="#63b8ff" stroke="#63b8ff" points="704.39,-288.19 694.7,-292.47 704.94,-295.17 704.39,-288.19"/>
</a>
</g>
</g>
<!-- Node24 -->
<g id="Node000024" class="node">
<title>Node24</title>
<g id="a_Node000024"><a xlink:href="plugin__sample_8h_source.html" target="_top" xlink:title=" ">
<polygon fill="white" stroke="#666666" points="1314.12,-251.5 1204.38,-251.5 1204.38,-221 1314.12,-221 1314.12,-251.5"/>
<text text-anchor="start" x="1212.38" y="-238" font-family="Helvetica,sans-Serif" font-size="10.00">plugins/sample/plugin</text>
<text text-anchor="middle" x="1259.25" y="-226.75" font-family="Helvetica,sans-Serif" font-size="10.00">_sample.h</text>
</a>
</g>
</g>
<!-- Node2&#45;&gt;Node24 -->
<g id="edge46_Node000002_Node000024" class="edge">
<title>Node2&#45;&gt;Node24</title>
<g id="a_edge46_Node000002_Node000024"><a xlink:title=" ">
<path fill="none" stroke="#63b8ff" d="M704.82,-293.99C806.08,-289.76 1018.03,-278.29 1195.25,-251.5 1198.18,-251.06 1201.17,-250.56 1204.18,-250.02"/>
<polygon fill="#63b8ff" stroke="#63b8ff" points="704.69,-290.49 694.84,-294.4 704.97,-297.49 704.69,-290.49"/>
</a>
</g>
</g>
<!-- Node4 -->
<g id="Node000004" class="node">
<title>Node4</title>
<g id="a_Node000004"><a xlink:href="example_8c.html" target="_top" xlink:title="A simple demonstration of initialization, configuration, and basic usage of libsir.">
<polygon fill="white" stroke="#666666" points="290.62,-74.5 189.88,-74.5 189.88,-55.25 290.62,-55.25 290.62,-74.5"/>
<text text-anchor="middle" x="240.25" y="-61" font-family="Helvetica,sans-Serif" font-size="10.00">example/example.c</text>
</a>
</g>
</g>
<!-- Node3&#45;&gt;Node4 -->
<g id="edge3_Node000003_Node000004" class="edge">
<title>Node3&#45;&gt;Node4</title>
<g id="a_edge3_Node000003_Node000004"><a xlink:title=" ">
<path fill="none" stroke="#63b8ff" d="M468.91,-110.31C418.53,-100.52 337.6,-84.79 286.75,-74.91"/>
<polygon fill="#63b8ff" stroke="#63b8ff" points="468.13,-113.73 478.62,-112.2 469.47,-106.86 468.13,-113.73"/>
</a>
</g>
</g>
<!-- Node5 -->
<g id="Node000005" class="node">
<title>Node5</title>
<g id="a_Node000005"><a xlink:href="sir_8hh_source.html" target="_top" xlink:title=" ">
<polygon fill="white" stroke="#666666" points="381.75,-74.5 308.75,-74.5 308.75,-55.25 381.75,-55.25 381.75,-74.5"/>
<text text-anchor="middle" x="345.25" y="-61" font-family="Helvetica,sans-Serif" font-size="10.00">include/sir.hh</text>
</a>
</g>
</g>
<!-- Node3&#45;&gt;Node5 -->
<g id="edge4_Node000003_Node000005" class="edge">
<title>Node3&#45;&gt;Node5</title>
<g id="a_edge4_Node000003_Node000005"><a xlink:title=" ">
<path fill="none" stroke="#63b8ff" d="M474.78,-106.69C443.93,-96.97 401.79,-83.69 374.06,-74.95"/>
<polygon fill="#63b8ff" stroke="#63b8ff" points="473.55,-109.97 484.14,-109.64 475.65,-103.29 473.55,-109.97"/>
</a>
</g>
</g>
<!-- Node7 -->
<g id="Node000007" class="node">
<title>Node7</title>
<g id="a_Node000007"><a xlink:href="sir_8c.html" target="_top" xlink:title="Public interface to libsir.">
<polygon fill="white" stroke="#666666" points="620.5,-74.5 570,-74.5 570,-55.25 620.5,-55.25 620.5,-74.5"/>
<text text-anchor="middle" x="595.25" y="-61" font-family="Helvetica,sans-Serif" font-size="10.00">src/sir.c</text>
</a>
</g>
</g>
<!-- Node3&#45;&gt;Node7 -->
<g id="edge6_Node000003_Node000007" class="edge">
<title>Node3&#45;&gt;Node7</title>
<g id="a_edge6_Node000003_Node000007"><a xlink:title=" ">
<path fill="none" stroke="#63b8ff" d="M537.59,-103.78C551.79,-94.45 569.44,-82.85 581.44,-74.95"/>
<polygon fill="#63b8ff" stroke="#63b8ff" points="535.69,-100.84 529.26,-109.26 539.53,-106.69 535.69,-100.84"/>
</a>
</g>
</g>
<!-- Node8 -->
<g id="Node000008" class="node">
<title>Node8</title>
<g id="a_Node000008"><a xlink:href="tests__shared_8h_source.html" target="_top" xlink:title=" ">
<polygon fill="white" stroke="#666666" points="504.88,-74.5 399.62,-74.5 399.62,-55.25 504.88,-55.25 504.88,-74.5"/>
<text text-anchor="middle" x="452.25" y="-61" font-family="Helvetica,sans-Serif" font-size="10.00">tests/tests_shared.h</text>
</a>
</g>
</g>
<!-- Node3&#45;&gt;Node8 -->
<g id="edge7_Node000003_Node000008" class="edge">
<title>Node3&#45;&gt;Node8</title>
<g id="a_edge7_Node000003_Node000008"><a xlink:title=" ">
<path fill="none" stroke="#63b8ff" d="M495.05,-102.64C484.35,-93.44 471.44,-82.35 462.61,-74.77"/>
<polygon fill="#63b8ff" stroke="#63b8ff" points="492.72,-105.25 502.58,-109.11 497.28,-99.94 492.72,-105.25"/>
</a>
</g>
</g>
<!-- Node6 -->
<g id="Node000006" class="node">
<title>Node6</title>
<g id="a_Node000006"><a xlink:href="tests_09_09_8hh_source.html" target="_top" xlink:title=" ">
<polygon fill="white" stroke="#666666" points="443.25,-19.25 355.25,-19.25 355.25,0 443.25,0 443.25,-19.25"/>
<text text-anchor="middle" x="399.25" y="-5.75" font-family="Helvetica,sans-Serif" font-size="10.00">tests/tests++.hh</text>
</a>
</g>
</g>
<!-- Node5&#45;&gt;Node6 -->
<g id="edge5_Node000005_Node000006" class="edge">
<title>Node5&#45;&gt;Node6</title>
<g id="a_edge5_Node000005_Node000006"><a xlink:title=" ">
<path fill="none" stroke="#63b8ff" d="M362.29,-47.07C371.51,-37.98 382.54,-27.1 390.14,-19.61"/>
<polygon fill="#63b8ff" stroke="#63b8ff" points="359.91,-44.51 355.24,-54.02 364.82,-49.49 359.91,-44.51"/>
</a>
</g>
</g>
<!-- Node8&#45;&gt;Node6 -->
<g id="edge8_Node000008_Node000006" class="edge">
<title>Node8&#45;&gt;Node6</title>
<g id="a_edge8_Node000008_Node000006"><a xlink:title=" ">
<path fill="none" stroke="#63b8ff" d="M435.53,-47.07C426.47,-37.98 415.65,-27.1 408.19,-19.61"/>
<polygon fill="#63b8ff" stroke="#63b8ff" points="432.9,-49.39 442.43,-54.01 437.86,-44.45 432.9,-49.39"/>
</a>
</g>
</g>
<!-- Node9 -->
<g id="Node000009" class="node">
<title>Node9</title>
<g id="a_Node000009"><a xlink:href="tests_8h_source.html" target="_top" xlink:title=" ">
<polygon fill="white" stroke="#666666" points="922.62,-19.25 851.88,-19.25 851.88,0 922.62,0 922.62,-19.25"/>
<text text-anchor="middle" x="887.25" y="-5.75" font-family="Helvetica,sans-Serif" font-size="10.00">tests/tests.h</text>
</a>
</g>
</g>
<!-- Node8&#45;&gt;Node9 -->
<g id="edge9_Node000008_Node000009" class="edge">
<title>Node8&#45;&gt;Node9</title>
<g id="a_edge9_Node000008_Node000009"><a xlink:title=" ">
<path fill="none" stroke="#63b8ff" d="M516.36,-56.03C609.17,-44.67 777.87,-24.01 851.4,-15.01"/>
<polygon fill="#63b8ff" stroke="#63b8ff" points="516.16,-52.53 506.66,-57.21 517.01,-59.47 516.16,-52.53"/>
</a>
</g>
</g>
<!-- Node11 -->
<g id="Node000011" class="node">
<title>Node11</title>
<g id="a_Node000011"><a xlink:href="sircondition_8c.html" target="_top" xlink:title=" ">
<polygon fill="white" stroke="#666666" points="135.38,-74.5 45.12,-74.5 45.12,-55.25 135.38,-55.25 135.38,-74.5"/>
<text text-anchor="middle" x="90.25" y="-61" font-family="Helvetica,sans-Serif" font-size="10.00">src/sircondition.c</text>
</a>
</g>
</g>
<!-- Node10&#45;&gt;Node11 -->
<g id="edge11_Node000010_Node000011" class="edge">
<title>Node10&#45;&gt;Node11</title>
<g id="a_edge11_Node000010_Node000011"><a xlink:title=" ">
<path fill="none" stroke="#63b8ff" d="M60.35,-154.53C63.73,-141.85 68.42,-125.1 73.25,-110.5 77.41,-97.91 83.01,-83.62 86.63,-74.68"/>
<polygon fill="#63b8ff" stroke="#63b8ff" points="56.98,-153.6 57.83,-164.16 63.75,-155.37 56.98,-153.6"/>
</a>
</g>
</g>
<!-- Node13&#45;&gt;Node7 -->
<g id="edge14_Node000013_Node000007" class="edge">
<title>Node13&#45;&gt;Node7</title>
<g id="a_edge14_Node000013_Node000007"><a xlink:title=" ">
<path fill="none" stroke="#63b8ff" d="M667.19,-158.98C656.03,-151.11 643.1,-140.85 633.25,-129.75 617.83,-112.38 605.31,-87.86 599.23,-74.83"/>
<polygon fill="#63b8ff" stroke="#63b8ff" points="664.92,-161.67 675.16,-164.4 668.86,-155.89 664.92,-161.67"/>
</a>
</g>
</g>
<!-- Node14&#45;&gt;Node8 -->
<g id="edge28_Node000014_Node000008" class="edge">
<title>Node14&#45;&gt;Node8</title>
<g id="a_edge28_Node000014_Node000008"><a xlink:title=" ">
<path fill="none" stroke="#63b8ff" d="M418.72,-215.31C427.01,-178.37 444.44,-100.69 450.29,-74.62"/>
<polygon fill="#63b8ff" stroke="#63b8ff" points="415.4,-214.14 416.62,-224.67 422.23,-215.68 415.4,-214.14"/>
</a>
</g>
</g>
<!-- Node14&#45;&gt;Node15 -->
<g id="edge16_Node000014_Node000015" class="edge">
<title>Node14&#45;&gt;Node15</title>
<g id="a_edge16_Node000014_Node000015"><a xlink:title=" ">
<path fill="none" stroke="#63b8ff" d="M373.71,-222.88C337.04,-211.7 283.9,-195.49 251.02,-185.46"/>
<polygon fill="#63b8ff" stroke="#63b8ff" points="372.48,-226.17 383.07,-225.74 374.53,-219.47 372.48,-226.17"/>
</a>
</g>
</g>
<!-- Node16 -->
<g id="Node000016" class="node">
<title>Node16</title>
<g id="a_Node000016"><a xlink:href="internal_8h_source.html" target="_top" xlink:title=" ">
<polygon fill="white" stroke="#666666" points="385.75,-129.75 282.75,-129.75 282.75,-110.5 385.75,-110.5 385.75,-129.75"/>
<text text-anchor="middle" x="334.25" y="-116.25" font-family="Helvetica,sans-Serif" font-size="10.00">include/sir/internal.h</text>
</a>
</g>
</g>
<!-- Node14&#45;&gt;Node16 -->
<g id="edge27_Node000014_Node000016" class="edge">
<title>Node14&#45;&gt;Node16</title>
<g id="a_edge27_Node000014_Node000016"><a xlink:title=" ">
<path fill="none" stroke="#63b8ff" d="M412.31,-214.98C410.09,-200.25 405.35,-180.41 395.25,-165.75 384.46,-150.08 366.32,-137.84 352.62,-130.18"/>
<polygon fill="#63b8ff" stroke="#63b8ff" points="408.83,-215.34 413.5,-224.85 415.78,-214.5 408.83,-215.34"/>
</a>
</g>
</g>
<!-- Node15&#45;&gt;Node4 -->
<g id="edge17_Node000015_Node000004" class="edge">
<title>Node15&#45;&gt;Node4</title>
<g id="a_edge17_Node000015_Node000004"><a xlink:title=" ">
<path fill="none" stroke="#63b8ff" d="M224.76,-154.35C228.91,-130.65 235.64,-92.22 238.67,-74.88"/>
<polygon fill="#63b8ff" stroke="#63b8ff" points="221.34,-153.55 223.07,-164.01 228.24,-154.76 221.34,-153.55"/>
</a>
</g>
</g>
<!-- Node15&#45;&gt;Node5 -->
<g id="edge18_Node000015_Node000005" class="edge">
<title>Node15&#45;&gt;Node5</title>
<g id="a_edge18_Node000015_Node000005"><a xlink:title=" ">
<path fill="none" stroke="#63b8ff" d="M233.96,-156.09C243.94,-142.53 258.71,-124.12 274.25,-110.5 290.78,-96.01 312.51,-83.09 327.56,-74.93"/>
<polygon fill="#63b8ff" stroke="#63b8ff" points="231.19,-153.95 228.21,-164.12 236.88,-158.03 231.19,-153.95"/>
</a>
</g>
</g>
<!-- Node15&#45;&gt;Node8 -->
<g id="edge26_Node000015_Node000008" class="edge">
<title>Node15&#45;&gt;Node8</title>
<g id="a_edge26_Node000015_Node000008"><a xlink:title=" ">
<path fill="none" stroke="#63b8ff" d="M280.5,-163.03C322.99,-154.18 375.99,-141.47 395.25,-129.75 418.61,-115.53 437.84,-88.76 446.8,-74.82"/>
<polygon fill="#63b8ff" stroke="#63b8ff" points="279.96,-159.57 270.87,-165.01 281.37,-166.43 279.96,-159.57"/>
</a>
</g>
</g>
<!-- Node15&#45;&gt;Node12 -->
<g id="edge19_Node000015_Node000012" class="edge">
<title>Node15&#45;&gt;Node12</title>
<g id="a_edge19_Node000015_Node000012"><a xlink:title=" ">
<path fill="none" stroke="#63b8ff" d="M196.91,-159.3C181.76,-149.92 162.78,-138.17 149.91,-130.2"/>
<polygon fill="#63b8ff" stroke="#63b8ff" points="195.03,-162.26 205.37,-164.55 198.71,-156.3 195.03,-162.26"/>
</a>
</g>
</g>
<!-- Node15&#45;&gt;Node16 -->
<g id="edge20_Node000015_Node000016" class="edge">
<title>Node15&#45;&gt;Node16</title>
<g id="a_edge20_Node000015_Node000016"><a xlink:title=" ">
<path fill="none" stroke="#63b8ff" d="M250.68,-160.51C270.96,-150.95 297.34,-138.52 314.99,-130.2"/>
<polygon fill="#63b8ff" stroke="#63b8ff" points="249.34,-157.27 241.79,-164.7 252.33,-163.6 249.34,-157.27"/>
</a>
</g>
</g>
<!-- Node16&#45;&gt;Node4 -->
<g id="edge21_Node000016_Node000004" class="edge">
<title>Node16&#45;&gt;Node4</title>
<g id="a_edge21_Node000016_Node000004"><a xlink:title=" ">
<path fill="none" stroke="#63b8ff" d="M308.6,-104.59C291.89,-95.13 270.61,-83.08 256.27,-74.95"/>
<polygon fill="#63b8ff" stroke="#63b8ff" points="306.56,-107.46 316.99,-109.35 310.01,-101.37 306.56,-107.46"/>
</a>
</g>
</g>
<!-- Node16&#45;&gt;Node5 -->
<g id="edge22_Node000016_Node000005" class="edge">
<title>Node16&#45;&gt;Node5</title>
<g id="a_edge22_Node000016_Node000005"><a xlink:title=" ">
<path fill="none" stroke="#63b8ff" d="M338.37,-99.17C340.1,-90.8 342.02,-81.5 343.39,-74.86"/>
<polygon fill="#63b8ff" stroke="#63b8ff" points="334.97,-98.35 336.37,-108.85 341.82,-99.76 334.97,-98.35"/>
</a>
</g>
</g>
<!-- Node16&#45;&gt;Node7 -->
<g id="edge23_Node000016_Node000007" class="edge">
<title>Node16&#45;&gt;Node7</title>
<g id="a_edge23_Node000016_Node000007"><a xlink:title=" ">
<path fill="none" stroke="#63b8ff" d="M389.9,-107.77C445.48,-96.43 528.45,-79.5 569.84,-71.06"/>
<polygon fill="#63b8ff" stroke="#63b8ff" points="389.4,-104.3 380.3,-109.73 390.8,-111.16 389.4,-104.3"/>
</a>
</g>
</g>
<!-- Node16&#45;&gt;Node8 -->
<g id="edge25_Node000016_Node000008" class="edge">
<title>Node16&#45;&gt;Node8</title>
<g id="a_edge25_Node000016_Node000008"><a xlink:title=" ">
<path fill="none" stroke="#63b8ff" d="M364.69,-105.39C385.91,-95.81 413.62,-83.31 432.13,-74.95"/>
<polygon fill="#63b8ff" stroke="#63b8ff" points="363.32,-102.17 355.65,-109.47 366.2,-108.55 363.32,-102.17"/>
</a>
</g>
</g>
<!-- Node16&#45;&gt;Node11 -->
<g id="edge24_Node000016_Node000011" class="edge">
<title>Node16&#45;&gt;Node11</title>
<g id="a_edge24_Node000016_Node000011"><a xlink:title=" ">
<path fill="none" stroke="#63b8ff" d="M281.6,-107.63C236.72,-97.84 173.09,-83.95 131.75,-74.93"/>
<polygon fill="#63b8ff" stroke="#63b8ff" points="280.59,-111 291.1,-109.71 282.08,-104.16 280.59,-111"/>
</a>
</g>
</g>
<!-- Node17&#45;&gt;Node7 -->
<g id="edge30_Node000017_Node000007" class="edge">
<title>Node17&#45;&gt;Node7</title>
<g id="a_edge30_Node000017_Node000007"><a xlink:title=" ">
<path fill="none" stroke="#63b8ff" d="M669.92,-104.86C651.72,-95.36 628.34,-83.15 612.64,-74.95"/>
<polygon fill="#63b8ff" stroke="#63b8ff" points="668.12,-107.87 678.61,-109.39 671.36,-101.66 668.12,-107.87"/>
</a>
</g>
</g>
<!-- Node17&#45;&gt;Node9 -->
<g id="edge31_Node000017_Node000009" class="edge">
<title>Node17&#45;&gt;Node9</title>
<g id="a_edge31_Node000017_Node000009"><a xlink:title=" ">
<path fill="none" stroke="#63b8ff" d="M722.89,-104.48C762.75,-81.72 838.38,-38.53 871.29,-19.74"/>
<polygon fill="#63b8ff" stroke="#63b8ff" points="721.39,-101.31 714.44,-109.31 724.86,-107.39 721.39,-101.31"/>
</a>
</g>
</g>
<!-- Node18&#45;&gt;Node16 -->
<g id="edge34_Node000018_Node000016" class="edge">
<title>Node18&#45;&gt;Node16</title>
<g id="a_edge34_Node000018_Node000016"><a xlink:title=" ">
<path fill="none" stroke="#63b8ff" d="M336.73,-154.13C336.11,-145.84 335.42,-136.67 334.92,-130.11"/>
<polygon fill="#63b8ff" stroke="#63b8ff" points="333.24,-154.36 337.48,-164.07 340.22,-153.84 333.24,-154.36"/>
</a>
</g>
</g>
<!-- Node19&#45;&gt;Node9 -->
<g id="edge36_Node000019_Node000009" class="edge">
<title>Node19&#45;&gt;Node9</title>
<g id="a_edge36_Node000019_Node000009"><a xlink:title=" ">
<path fill="none" stroke="#63b8ff" d="M887.91,-214.74C888.62,-190.01 889.62,-147.22 889.25,-110.5 888.91,-77.03 887.95,-37.26 887.49,-19.71"/>
<polygon fill="#63b8ff" stroke="#63b8ff" points="884.41,-214.56 887.6,-224.66 891.41,-214.77 884.41,-214.56"/>
</a>
</g>
</g>
<!-- Node20&#45;&gt;Node7 -->
<g id="edge38_Node000020_Node000007" class="edge">
<title>Node20&#45;&gt;Node7</title>
<g id="a_edge38_Node000020_Node000007"><a xlink:title=" ">
<path fill="none" stroke="#63b8ff" d="M574.05,-154.35C579.73,-130.65 588.94,-92.22 593.09,-74.88"/>
<polygon fill="#63b8ff" stroke="#63b8ff" points="570.66,-153.48 571.73,-164.02 577.46,-155.12 570.66,-153.48"/>
</a>
</g>
</g>
<!-- Node21&#45;&gt;Node9 -->
<g id="edge40_Node000021_Node000009" class="edge">
<title>Node21&#45;&gt;Node9</title>
<g id="a_edge40_Node000021_Node000009"><a xlink:title=" ">
<path fill="none" stroke="#63b8ff" d="M993.29,-215.96C969.3,-169.51 909.03,-52.8 891.87,-19.58"/>
<polygon fill="#63b8ff" stroke="#63b8ff" points="990.17,-217.54 997.86,-224.82 996.39,-214.33 990.17,-217.54"/>
</a>
</g>
</g>
<!-- Node22&#45;&gt;Node7 -->
<g id="edge42_Node000022_Node000007" class="edge">
<title>Node22&#45;&gt;Node7</title>
<g id="a_edge42_Node000022_Node000007"><a xlink:title=" ">
<path fill="none" stroke="#63b8ff" d="M774.98,-107.49C727.41,-96.47 657.91,-80.38 620.82,-71.79"/>
<polygon fill="#63b8ff" stroke="#63b8ff" points="773.97,-110.84 784.5,-109.69 775.55,-104.02 773.97,-110.84"/>
</a>
</g>
</g>
<!-- Node22&#45;&gt;Node9 -->
<g id="edge43_Node000022_Node000009" class="edge">
<title>Node22&#45;&gt;Node9</title>
<g id="a_edge43_Node000022_Node000009"><a xlink:title=" ">
<path fill="none" stroke="#63b8ff" d="M835.95,-100.4C849.42,-76.83 872.01,-37.29 882.11,-19.63"/>
<polygon fill="#63b8ff" stroke="#63b8ff" points="833,-98.51 831.07,-108.93 839.07,-101.99 833,-98.51"/>
</a>
</g>
</g>
<!-- Node23&#45;&gt;Node9 -->
<g id="edge45_Node000023_Node000009" class="edge">
<title>Node23&#45;&gt;Node9</title>
<g id="a_edge45_Node000023_Node000009"><a xlink:title=" ">
<path fill="none" stroke="#63b8ff" d="M1110.32,-218.54C1062.52,-173.99 933.18,-53.43 896.85,-19.58"/>
<polygon fill="#63b8ff" stroke="#63b8ff" points="1107.7,-220.88 1117.4,-225.13 1112.47,-215.76 1107.7,-220.88"/>
</a>
</g>
</g>
</g>
</svg>

<g id="navigator" transform="translate(0 0)" fill="#404254">
  <rect fill="#f2f5e9" fill-opacity="0.5" stroke="#606060" stroke-width=".5" x="0" y="0" width="60" height="60"/>
  <use id="zoomplus" xlink:href="#zoomPlus" x="17" y="9" onmousedown="handleZoom(evt,'in')"/>
  <use id="zoomminus" xlink:href="#zoomMin" x="42" y="9" onmousedown="handleZoom(evt,'out')"/>
  <use id="reset" xlink:href="#resetDef" x="30" y="36" onmousedown="handleReset()"/>
   <use id="arrowup" xlink:href="#arrowUp" x="0" y="0" onmousedown="handlePan(0,-1)"/>
  <use id="arrowright" xlink:href="#arrowRight" x="0" y="0" onmousedown="handlePan(1,0)"/>
  <use id="arrowdown" xlink:href="#arrowDown" x="0" y="0" onmousedown="handlePan(0,1)"/>
  <use id="arrowleft" xlink:href="#arrowLeft" x="0" y="0" onmousedown="handlePan(-1,0)"/>
</g>
<svg viewBox="0 0 15 15" width="100%" height="30px" preserveAspectRatio="xMaxYMin meet">
 <g id="arrow_out" transform="scale(0.3 0.3)">
  <a xlink:href="config_8h__dep__incl_org.svg" target="_base">
   <rect id="button" ry="5" rx="5" y="6" x="6" height="38" width="38"
        fill="#f2f5e9" fill-opacity="0.5" stroke="#606060" stroke-width="1.0"/>
   <path id="arrow"
     d="M 11.500037,31.436501 C 11.940474,20.09759 22.043105,11.32322 32.158766,21.979434 L 37.068811,17.246167 C 37.068811,17.246167 37.088388,32 37.088388,32 L 22.160133,31.978069 C 22.160133,31.978069 26.997745,27.140456 26.997745,27.140456 C 18.528582,18.264221 13.291696,25.230495 11.500037,31.436501 z"
     style="fill:#404040;"/>
  </a>
 </g>
</svg>

<style type='text/css'>
<![CDATA[
[data-mouse-over-selected='false'] { opacity: 0.7; }
[data-mouse-over-selected='true']  { opacity: 1.0; }
]]>
</style>
<script type="application/ecmascript"><![CDATA[
document.addEventListener('DOMContentLoaded', (event) => {
  highlightEdges();
  highlightAdjacentNodes();
});
]]></script>
</svg>
