<?xml version="1.0" encoding="UTF-8" standalone="no"?>
<!DOCTYPE svg PUBLIC "-//W3C//DTD SVG 1.1//EN"
 "http://www.w3.org/Graphics/SVG/1.1/DTD/svg11.dtd">
<!-- Generated by graphviz version 8.1.0 (20230707.0739)
 -->
<!-- Title: include/sir/defaults.h Pages: 1 -->
<svg width="1700pt" height="190pt"
 viewBox="0.00 0.00 1699.88 190.00" xmlns="http://www.w3.org/2000/svg" xmlns:xlink="http://www.w3.org/1999/xlink">
<g id="graph0" class="graph" transform="scale(1 1) rotate(0) translate(4 186)">
<title>include/sir/defaults.h</title>
<!-- Node1 -->
<g id="Node000001" class="node">
<title>Node1</title>
<g id="a_Node000001"><a xlink:title="Default levels, options, and text styling.">
<polygon fill="#999999" stroke="#666666" points="962,-182 856,-182 856,-163.5 962,-163.5 962,-182"/>
<text text-anchor="middle" x="909" y="-168.5" font-family="Helvetica,sans-Serif" font-size="10.00">include/sir/defaults.h</text>
</a>
</g>
</g>
<!-- Node2 -->
<g id="Node000002" class="node">
<title>Node2</title>
<g id="a_Node000002"><a xlink:href="types_8h_source.html" target="_top" xlink:title=" ">
<polygon fill="white" stroke="#666666" points="939.88,-127.5 878.12,-127.5 878.12,-109 939.88,-109 939.88,-127.5"/>
<text text-anchor="middle" x="909" y="-114" font-family="Helvetica,sans-Serif" font-size="10.00">sir/types.h</text>
</a>
</g>
</g>
<!-- Node1&#45;&gt;Node2 -->
<g id="edge1_Node000001_Node000002" class="edge">
<title>Node1&#45;&gt;Node2</title>
<g id="a_edge1_Node000001_Node000002"><a xlink:title=" ">
<path fill="none" stroke="#63b8ff" d="M909,-163.08C909,-156.43 909,-146.99 909,-138.58"/>
<polygon fill="#63b8ff" stroke="#63b8ff" points="912.5,-138.76 909,-128.76 905.5,-138.76 912.5,-138.76"/>
</a>
</g>
</g>
<!-- Node3 -->
<g id="Node000003" class="node">
<title>Node3</title>
<g id="a_Node000003"><a xlink:href="platform_8h_source.html" target="_top" xlink:title=" ">
<polygon fill="white" stroke="#666666" points="858.5,-73 785.5,-73 785.5,-54.5 858.5,-54.5 858.5,-73"/>
<text text-anchor="middle" x="822" y="-59.5" font-family="Helvetica,sans-Serif" font-size="10.00">sir/platform.h</text>
</a>
</g>
</g>
<!-- Node2&#45;&gt;Node3 -->
<g id="edge2_Node000002_Node000003" class="edge">
<title>Node2&#45;&gt;Node3</title>
<g id="a_edge2_Node000002_Node000003"><a xlink:title=" ">
<path fill="none" stroke="#63b8ff" d="M894.63,-108.58C881.28,-100.53 861.16,-88.38 845.48,-78.92"/>
<polygon fill="#63b8ff" stroke="#63b8ff" points="847.76,-75.6 837.39,-73.43 844.14,-81.6 847.76,-75.6"/>
</a>
</g>
</g>
<!-- Node28 -->
<g id="Node000028" class="node">
<title>Node28</title>
<g id="a_Node000028"><a xlink:href="config_8h.html" target="_top" xlink:title="Compile&#45;time configuration.">
<polygon fill="white" stroke="#666666" points="941,-73 877,-73 877,-54.5 941,-54.5 941,-73"/>
<text text-anchor="middle" x="909" y="-59.5" font-family="Helvetica,sans-Serif" font-size="10.00">sir/config.h</text>
</a>
</g>
</g>
<!-- Node2&#45;&gt;Node28 -->
<g id="edge27_Node000002_Node000028" class="edge">
<title>Node2&#45;&gt;Node28</title>
<g id="a_edge27_Node000002_Node000028"><a xlink:title=" ">
<path fill="none" stroke="#63b8ff" d="M909,-108.58C909,-101.93 909,-92.49 909,-84.08"/>
<polygon fill="#63b8ff" stroke="#63b8ff" points="912.5,-84.26 909,-74.26 905.5,-84.26 912.5,-84.26"/>
</a>
</g>
</g>
<!-- Node29 -->
<g id="Node000029" class="node">
<title>Node29</title>
<g id="a_Node000029"><a xlink:href="ansimacros_8h.html" target="_top" xlink:title="ANSI escape sequence macros.">
<polygon fill="white" stroke="#666666" points="1047,-73 959,-73 959,-54.5 1047,-54.5 1047,-73"/>
<text text-anchor="middle" x="1003" y="-59.5" font-family="Helvetica,sans-Serif" font-size="10.00">sir/ansimacros.h</text>
</a>
</g>
</g>
<!-- Node2&#45;&gt;Node29 -->
<g id="edge28_Node000002_Node000029" class="edge">
<title>Node2&#45;&gt;Node29</title>
<g id="a_edge28_Node000002_Node000029"><a xlink:title=" ">
<path fill="none" stroke="#63b8ff" d="M924.52,-108.58C939.08,-100.45 961.1,-88.15 978.11,-78.65"/>
<polygon fill="#63b8ff" stroke="#63b8ff" points="979.43,-81.36 986.45,-73.43 976.02,-75.25 979.43,-81.36"/>
</a>
</g>
</g>
<!-- Node4 -->
<g id="Node000004" class="node">
<title>Node4</title>
<g id="a_Node000004"><a xlink:title=" ">
<polygon fill="#e0e0e0" stroke="#999999" points="46,-18.5 0,-18.5 0,0 46,0 46,-18.5"/>
<text text-anchor="middle" x="23" y="-5" font-family="Helvetica,sans-Serif" font-size="10.00">errno.h</text>
</a>
</g>
</g>
<!-- Node3&#45;&gt;Node4 -->
<g id="edge3_Node000003_Node000004" class="edge">
<title>Node3&#45;&gt;Node4</title>
<g id="a_edge3_Node000003_Node000004"><a xlink:title=" ">
<path fill="none" stroke="#63b8ff" d="M785.01,-63.16C675.16,-63.82 341.35,-61.99 56.83,-18.45"/>
<polygon fill="#63b8ff" stroke="#63b8ff" points="57.73,-14.89 47.31,-16.82 56.65,-21.81 57.73,-14.89"/>
</a>
</g>
</g>
<!-- Node5 -->
<g id="Node000005" class="node">
<title>Node5</title>
<g id="a_Node000005"><a xlink:title=" ">
<polygon fill="#e0e0e0" stroke="#999999" points="115.62,-18.5 64.38,-18.5 64.38,0 115.62,0 115.62,-18.5"/>
<text text-anchor="middle" x="90" y="-5" font-family="Helvetica,sans-Serif" font-size="10.00">stdarg.h</text>
</a>
</g>
</g>
<!-- Node3&#45;&gt;Node5 -->
<g id="edge4_Node000003_Node000005" class="edge">
<title>Node3&#45;&gt;Node5</title>
<g id="a_edge4_Node000003_Node000005"><a xlink:title=" ">
<path fill="none" stroke="#63b8ff" d="M785.12,-62.58C682.3,-61.66 383.68,-55.85 126.57,-18.44"/>
<polygon fill="#63b8ff" stroke="#63b8ff" points="127.3,-14.86 116.9,-16.87 126.28,-21.79 127.3,-14.86"/>
</a>
</g>
</g>
<!-- Node6 -->
<g id="Node000006" class="node">
<title>Node6</title>
<g id="a_Node000006"><a xlink:title=" ">
<polygon fill="#e0e0e0" stroke="#999999" points="189.88,-18.5 134.12,-18.5 134.12,0 189.88,0 189.88,-18.5"/>
<text text-anchor="middle" x="162" y="-5" font-family="Helvetica,sans-Serif" font-size="10.00">stdbool.h</text>
</a>
</g>
</g>
<!-- Node3&#45;&gt;Node6 -->
<g id="edge5_Node000003_Node000006" class="edge">
<title>Node3&#45;&gt;Node6</title>
<g id="a_edge5_Node000003_Node000006"><a xlink:title=" ">
<path fill="none" stroke="#63b8ff" d="M785.28,-62.04C690.25,-59.81 428.38,-51.09 201,-18.56"/>
<polygon fill="#63b8ff" stroke="#63b8ff" points="201.6,-14.96 191.2,-16.99 200.6,-21.89 201.6,-14.96"/>
</a>
</g>
</g>
<!-- Node7 -->
<g id="Node000007" class="node">
<title>Node7</title>
<g id="a_Node000007"><a xlink:title=" ">
<polygon fill="#e0e0e0" stroke="#999999" points="255.75,-18.5 208.25,-18.5 208.25,0 255.75,0 255.75,-18.5"/>
<text text-anchor="middle" x="232" y="-5" font-family="Helvetica,sans-Serif" font-size="10.00">stdint.h</text>
</a>
</g>
</g>
<!-- Node3&#45;&gt;Node7 -->
<g id="edge6_Node000003_Node000007" class="edge">
<title>Node3&#45;&gt;Node7</title>
<g id="a_edge6_Node000003_Node000007"><a xlink:title=" ">
<path fill="none" stroke="#63b8ff" d="M785.25,-61.93C697.28,-59.53 467.6,-50.61 266.8,-18.5"/>
<polygon fill="#63b8ff" stroke="#63b8ff" points="267.49,-14.9 257.05,-16.75 266.36,-21.81 267.49,-14.9"/>
</a>
</g>
</g>
<!-- Node8 -->
<g id="Node000008" class="node">
<title>Node8</title>
<g id="a_Node000008"><a xlink:title=" ">
<polygon fill="#e0e0e0" stroke="#999999" points="332.38,-18.5 273.62,-18.5 273.62,0 332.38,0 332.38,-18.5"/>
<text text-anchor="middle" x="303" y="-5" font-family="Helvetica,sans-Serif" font-size="10.00">inttypes.h</text>
</a>
</g>
</g>
<!-- Node3&#45;&gt;Node8 -->
<g id="edge7_Node000003_Node000008" class="edge">
<title>Node3&#45;&gt;Node8</title>
<g id="a_edge7_Node000003_Node000008"><a xlink:title=" ">
<path fill="none" stroke="#63b8ff" d="M785,-60.89C705.76,-56.57 513.62,-44.35 343.46,-18.71"/>
<polygon fill="#63b8ff" stroke="#63b8ff" points="344.22,-15.13 333.81,-17.08 343.16,-22.05 344.22,-15.13"/>
</a>
</g>
</g>
<!-- Node9 -->
<g id="Node000009" class="node">
<title>Node9</title>
<g id="a_Node000009"><a xlink:title=" ">
<polygon fill="#e0e0e0" stroke="#999999" points="395.62,-18.5 350.38,-18.5 350.38,0 395.62,0 395.62,-18.5"/>
<text text-anchor="middle" x="373" y="-5" font-family="Helvetica,sans-Serif" font-size="10.00">stdio.h</text>
</a>
</g>
</g>
<!-- Node3&#45;&gt;Node9 -->
<g id="edge8_Node000003_Node000009" class="edge">
<title>Node3&#45;&gt;Node9</title>
<g id="a_edge8_Node000003_Node000009"><a xlink:title=" ">
<path fill="none" stroke="#63b8ff" d="M785.1,-60.77C713.63,-56.51 551.24,-44.83 406.33,-18.68"/>
<polygon fill="#63b8ff" stroke="#63b8ff" points="407.4,-15.14 396.93,-16.78 406.14,-22.02 407.4,-15.14"/>
</a>
</g>
</g>
<!-- Node10 -->
<g id="Node000010" class="node">
<title>Node10</title>
<g id="a_Node000010"><a xlink:title=" ">
<polygon fill="#e0e0e0" stroke="#999999" points="460.75,-18.5 413.25,-18.5 413.25,0 460.75,0 460.75,-18.5"/>
<text text-anchor="middle" x="437" y="-5" font-family="Helvetica,sans-Serif" font-size="10.00">stdlib.h</text>
</a>
</g>
</g>
<!-- Node3&#45;&gt;Node10 -->
<g id="edge9_Node000003_Node000010" class="edge">
<title>Node3&#45;&gt;Node10</title>
<g id="a_edge9_Node000003_Node000010"><a xlink:title=" ">
<path fill="none" stroke="#63b8ff" d="M785.03,-59.57C722.49,-53.88 591.65,-40.61 471.55,-18.57"/>
<polygon fill="#63b8ff" stroke="#63b8ff" points="472.55,-15.01 462.08,-16.62 471.27,-21.89 472.55,-15.01"/>
</a>
</g>
</g>
<!-- Node11 -->
<g id="Node000011" class="node">
<title>Node11</title>
<g id="a_Node000011"><a xlink:title=" ">
<polygon fill="#e0e0e0" stroke="#999999" points="527.12,-18.5 478.88,-18.5 478.88,0 527.12,0 527.12,-18.5"/>
<text text-anchor="middle" x="503" y="-5" font-family="Helvetica,sans-Serif" font-size="10.00">string.h</text>
</a>
</g>
</g>
<!-- Node3&#45;&gt;Node11 -->
<g id="edge10_Node000003_Node000011" class="edge">
<title>Node3&#45;&gt;Node11</title>
<g id="a_edge10_Node000003_Node000011"><a xlink:title=" ">
<path fill="none" stroke="#63b8ff" d="M785.24,-58.16C732.59,-51.34 632.47,-37.5 538.04,-18.76"/>
<polygon fill="#63b8ff" stroke="#63b8ff" points="538.95,-15.17 528.45,-16.63 537.57,-22.03 538.95,-15.17"/>
</a>
</g>
</g>
<!-- Node12 -->
<g id="Node000012" class="node">
<title>Node12</title>
<g id="a_Node000012"><a xlink:title=" ">
<polygon fill="#e0e0e0" stroke="#999999" points="602.62,-18.5 545.38,-18.5 545.38,0 602.62,0 602.62,-18.5"/>
<text text-anchor="middle" x="574" y="-5" font-family="Helvetica,sans-Serif" font-size="10.00">sys/stat.h</text>
</a>
</g>
</g>
<!-- Node3&#45;&gt;Node12 -->
<g id="edge11_Node000003_Node000012" class="edge">
<title>Node3&#45;&gt;Node12</title>
<g id="a_edge11_Node000003_Node000012"><a xlink:title=" ">
<path fill="none" stroke="#63b8ff" d="M785.38,-55.22C745.41,-46.96 679.25,-33.2 613.6,-19.05"/>
<polygon fill="#63b8ff" stroke="#63b8ff" points="614.59,-15.46 604.08,-16.77 613.11,-22.3 614.59,-15.46"/>
</a>
</g>
</g>
<!-- Node13 -->
<g id="Node000013" class="node">
<title>Node13</title>
<g id="a_Node000013"><a xlink:title=" ">
<polygon fill="#e0e0e0" stroke="#999999" points="685.75,-18.5 620.25,-18.5 620.25,0 685.75,0 685.75,-18.5"/>
<text text-anchor="middle" x="653" y="-5" font-family="Helvetica,sans-Serif" font-size="10.00">sys/types.h</text>
</a>
</g>
</g>
<!-- Node3&#45;&gt;Node13 -->
<g id="edge12_Node000003_Node000013" class="edge">
<title>Node3&#45;&gt;Node13</title>
<g id="a_edge12_Node000003_Node000013"><a xlink:title=" ">
<path fill="none" stroke="#63b8ff" d="M794.09,-54.08C765.96,-45.34 722.34,-31.79 691.05,-22.07"/>
<polygon fill="#63b8ff" stroke="#63b8ff" points="692.54,-18.56 681.95,-18.93 690.46,-25.24 692.54,-18.56"/>
</a>
</g>
</g>
<!-- Node14 -->
<g id="Node000014" class="node">
<title>Node14</title>
<g id="a_Node000014"><a xlink:title=" ">
<polygon fill="#e0e0e0" stroke="#999999" points="751.75,-18.5 704.25,-18.5 704.25,0 751.75,0 751.75,-18.5"/>
<text text-anchor="middle" x="728" y="-5" font-family="Helvetica,sans-Serif" font-size="10.00">limits.h</text>
</a>
</g>
</g>
<!-- Node3&#45;&gt;Node14 -->
<g id="edge13_Node000003_Node000014" class="edge">
<title>Node3&#45;&gt;Node14</title>
<g id="a_edge13_Node000003_Node000014"><a xlink:title=" ">
<path fill="none" stroke="#63b8ff" d="M806.48,-54.08C791.92,-45.95 769.9,-33.65 752.89,-24.15"/>
<polygon fill="#63b8ff" stroke="#63b8ff" points="754.98,-20.75 744.55,-18.93 751.57,-26.86 754.98,-20.75"/>
</a>
</g>
</g>
<!-- Node15 -->
<g id="Node000015" class="node">
<title>Node15</title>
<g id="a_Node000015"><a xlink:title=" ">
<polygon fill="#e0e0e0" stroke="#999999" points="812.5,-18.5 769.5,-18.5 769.5,0 812.5,0 812.5,-18.5"/>
<text text-anchor="middle" x="791" y="-5" font-family="Helvetica,sans-Serif" font-size="10.00">time.h</text>
</a>
</g>
</g>
<!-- Node3&#45;&gt;Node15 -->
<g id="edge14_Node000003_Node000015" class="edge">
<title>Node3&#45;&gt;Node15</title>
<g id="a_edge14_Node000003_Node000015"><a xlink:title=" ">
<path fill="none" stroke="#63b8ff" d="M816.88,-54.08C812.73,-47.05 806.73,-36.9 801.56,-28.14"/>
<polygon fill="#63b8ff" stroke="#63b8ff" points="804.12,-26.59 796.02,-19.76 798.09,-30.15 804.12,-26.59"/>
</a>
</g>
</g>
<!-- Node16 -->
<g id="Node000016" class="node">
<title>Node16</title>
<g id="a_Node000016"><a xlink:title=" ">
<polygon fill="#e0e0e0" stroke="#999999" points="875.62,-18.5 830.38,-18.5 830.38,0 875.62,0 875.62,-18.5"/>
<text text-anchor="middle" x="853" y="-5" font-family="Helvetica,sans-Serif" font-size="10.00">dlfcn.h</text>
</a>
</g>
</g>
<!-- Node3&#45;&gt;Node16 -->
<g id="edge15_Node000003_Node000016" class="edge">
<title>Node3&#45;&gt;Node16</title>
<g id="a_edge15_Node000003_Node000016"><a xlink:title=" ">
<path fill="none" stroke="#63b8ff" d="M827.12,-54.08C831.27,-47.05 837.27,-36.9 842.44,-28.14"/>
<polygon fill="#63b8ff" stroke="#63b8ff" points="845.91,-30.15 847.98,-19.76 839.88,-26.59 845.91,-30.15"/>
</a>
</g>
</g>
<!-- Node17 -->
<g id="Node000017" class="node">
<title>Node17</title>
<g id="a_Node000017"><a xlink:title=" ">
<polygon fill="#e0e0e0" stroke="#999999" points="950.25,-18.5 893.75,-18.5 893.75,0 950.25,0 950.25,-18.5"/>
<text text-anchor="middle" x="922" y="-5" font-family="Helvetica,sans-Serif" font-size="10.00">pthread.h</text>
</a>
</g>
</g>
<!-- Node3&#45;&gt;Node17 -->
<g id="edge16_Node000003_Node000017" class="edge">
<title>Node3&#45;&gt;Node17</title>
<g id="a_edge16_Node000003_Node000017"><a xlink:title=" ">
<path fill="none" stroke="#63b8ff" d="M838.51,-54.08C854.07,-45.91 877.64,-33.54 895.78,-24.02"/>
<polygon fill="#63b8ff" stroke="#63b8ff" points="897.24,-26.68 904.46,-18.93 893.98,-20.48 897.24,-26.68"/>
</a>
</g>
</g>
<!-- Node18 -->
<g id="Node000018" class="node">
<title>Node18</title>
<g id="a_Node000018"><a xlink:title=" ">
<polygon fill="#e0e0e0" stroke="#999999" points="1011.5,-18.5 968.5,-18.5 968.5,0 1011.5,0 1011.5,-18.5"/>
<text text-anchor="middle" x="990" y="-5" font-family="Helvetica,sans-Serif" font-size="10.00">fcntl.h</text>
</a>
</g>
</g>
<!-- Node3&#45;&gt;Node18 -->
<g id="edge17_Node000003_Node000018" class="edge">
<title>Node3&#45;&gt;Node18</title>
<g id="a_edge17_Node000003_Node000018"><a xlink:title=" ">
<path fill="none" stroke="#63b8ff" d="M849.74,-54.08C879.42,-44.81 926.44,-30.11 957.75,-20.33"/>
<polygon fill="#63b8ff" stroke="#63b8ff" points="958.61,-23.41 967.11,-17.09 956.52,-16.73 958.61,-23.41"/>
</a>
</g>
</g>
<!-- Node19 -->
<g id="Node000019" class="node">
<title>Node19</title>
<g id="a_Node000019"><a xlink:title=" ">
<polygon fill="#e0e0e0" stroke="#999999" points="1080.25,-18.5 1029.75,-18.5 1029.75,0 1080.25,0 1080.25,-18.5"/>
<text text-anchor="middle" x="1055" y="-5" font-family="Helvetica,sans-Serif" font-size="10.00">unistd.h</text>
</a>
</g>
</g>
<!-- Node3&#45;&gt;Node19 -->
<g id="edge18_Node000003_Node000019" class="edge">
<title>Node3&#45;&gt;Node19</title>
<g id="a_edge18_Node000003_Node000019"><a xlink:title=" ">
<path fill="none" stroke="#63b8ff" d="M858.73,-54.81C896.51,-46.58 957.35,-33.21 1018.74,-18.99"/>
<polygon fill="#63b8ff" stroke="#63b8ff" points="1019.44,-22.19 1028.39,-16.52 1017.86,-15.37 1019.44,-22.19"/>
</a>
</g>
</g>
<!-- Node20 -->
<g id="Node000020" class="node">
<title>Node20</title>
<g id="a_Node000020"><a xlink:title=" ">
<polygon fill="#e0e0e0" stroke="#999999" points="1169.38,-18.5 1098.62,-18.5 1098.62,0 1169.38,0 1169.38,-18.5"/>
<text text-anchor="middle" x="1134" y="-5" font-family="Helvetica,sans-Serif" font-size="10.00">sys/syscall.h</text>
</a>
</g>
</g>
<!-- Node3&#45;&gt;Node20 -->
<g id="edge19_Node000003_Node000020" class="edge">
<title>Node3&#45;&gt;Node20</title>
<g id="a_edge19_Node000003_Node000020"><a xlink:title=" ">
<path fill="none" stroke="#63b8ff" d="M858.65,-56.12C861.81,-55.57 864.96,-55.02 868,-54.5 962.74,-38.29 989.16,-35.64 1087.44,-18.74"/>
<polygon fill="#63b8ff" stroke="#63b8ff" points="1087.89,-22.04 1097.15,-16.89 1086.7,-15.14 1087.89,-22.04"/>
</a>
</g>
</g>
<!-- Node21 -->
<g id="Node000021" class="node">
<title>Node21</title>
<g id="a_Node000021"><a xlink:title=" ">
<polygon fill="#e0e0e0" stroke="#999999" points="1248.12,-18.5 1187.88,-18.5 1187.88,0 1248.12,0 1248.12,-18.5"/>
<text text-anchor="middle" x="1218" y="-5" font-family="Helvetica,sans-Serif" font-size="10.00">sys/time.h</text>
</a>
</g>
</g>
<!-- Node3&#45;&gt;Node21 -->
<g id="edge20_Node000003_Node000021" class="edge">
<title>Node3&#45;&gt;Node21</title>
<g id="a_edge20_Node000003_Node000021"><a xlink:title=" ">
<path fill="none" stroke="#63b8ff" d="M858.62,-55.97C861.79,-55.45 864.95,-54.95 868,-54.5 1001.87,-34.74 1039.25,-40.24 1176.95,-18.52"/>
<polygon fill="#63b8ff" stroke="#63b8ff" points="1177.15,-21.87 1186.48,-16.83 1176.05,-14.96 1177.15,-21.87"/>
</a>
</g>
</g>
<!-- Node22 -->
<g id="Node000022" class="node">
<title>Node22</title>
<g id="a_Node000022"><a xlink:title=" ">
<polygon fill="#e0e0e0" stroke="#999999" points="1319.75,-18.5 1266.25,-18.5 1266.25,0 1319.75,0 1319.75,-18.5"/>
<text text-anchor="middle" x="1293" y="-5" font-family="Helvetica,sans-Serif" font-size="10.00">strings.h</text>
</a>
</g>
</g>
<!-- Node3&#45;&gt;Node22 -->
<g id="edge21_Node000003_Node000022" class="edge">
<title>Node3&#45;&gt;Node22</title>
<g id="a_edge21_Node000003_Node000022"><a xlink:title=" ">
<path fill="none" stroke="#63b8ff" d="M858.86,-55.85C861.95,-55.36 865.03,-54.9 868,-54.5 1036.61,-31.62 1083.68,-45.38 1255.27,-18.55"/>
<polygon fill="#63b8ff" stroke="#63b8ff" points="1255.62,-21.88 1264.95,-16.86 1254.52,-14.97 1255.62,-21.88"/>
</a>
</g>
</g>
<!-- Node23 -->
<g id="Node000023" class="node">
<title>Node23</title>
<g id="a_Node000023"><a xlink:title=" ">
<polygon fill="#e0e0e0" stroke="#999999" points="1394.25,-18.5 1337.75,-18.5 1337.75,0 1394.25,0 1394.25,-18.5"/>
<text text-anchor="middle" x="1366" y="-5" font-family="Helvetica,sans-Serif" font-size="10.00">termios.h</text>
</a>
</g>
</g>
<!-- Node3&#45;&gt;Node23 -->
<g id="edge22_Node000003_Node000023" class="edge">
<title>Node3&#45;&gt;Node23</title>
<g id="a_edge22_Node000003_Node000023"><a xlink:title=" ">
<path fill="none" stroke="#63b8ff" d="M858.86,-55.81C861.94,-55.33 865.02,-54.88 868,-54.5 1068.36,-28.78 1123.87,-48.25 1326.68,-18.64"/>
<polygon fill="#63b8ff" stroke="#63b8ff" points="1327.01,-21.98 1336.39,-17.05 1325.99,-15.05 1327.01,-21.98"/>
</a>
</g>
</g>
<!-- Node24 -->
<g id="Node000024" class="node">
<title>Node24</title>
<g id="a_Node000024"><a xlink:title=" ">
<polygon fill="#e0e0e0" stroke="#999999" points="1463.25,-18.5 1412.75,-18.5 1412.75,0 1463.25,0 1463.25,-18.5"/>
<text text-anchor="middle" x="1438" y="-5" font-family="Helvetica,sans-Serif" font-size="10.00">libgen.h</text>
</a>
</g>
</g>
<!-- Node3&#45;&gt;Node24 -->
<g id="edge23_Node000003_Node000024" class="edge">
<title>Node3&#45;&gt;Node24</title>
<g id="a_edge23_Node000003_Node000024"><a xlink:title=" ">
<path fill="none" stroke="#63b8ff" d="M858.85,-55.77C861.94,-55.3 865.02,-54.87 868,-54.5 1101.07,-25.85 1165.46,-53.13 1401.82,-18.37"/>
<polygon fill="#63b8ff" stroke="#63b8ff" points="1402.11,-21.72 1411.48,-16.78 1401.07,-14.79 1402.11,-21.72"/>
</a>
</g>
</g>
<!-- Node25 -->
<g id="Node000025" class="node">
<title>Node25</title>
<g id="a_Node000025"><a xlink:title=" ">
<polygon fill="#e0e0e0" stroke="#999999" points="1548.5,-18.5 1481.5,-18.5 1481.5,0 1548.5,0 1548.5,-18.5"/>
<text text-anchor="middle" x="1515" y="-5" font-family="Helvetica,sans-Serif" font-size="10.00">stdatomic.h</text>
</a>
</g>
</g>
<!-- Node3&#45;&gt;Node25 -->
<g id="edge24_Node000003_Node000025" class="edge">
<title>Node3&#45;&gt;Node25</title>
<g id="a_edge24_Node000003_Node000025"><a xlink:title=" ">
<path fill="none" stroke="#63b8ff" d="M858.85,-55.75C861.94,-55.28 865.02,-54.85 868,-54.5 1131.51,-23.13 1203.28,-51.15 1470.45,-18.49"/>
<polygon fill="#63b8ff" stroke="#63b8ff" points="1470.77,-21.86 1480.26,-17.15 1469.91,-14.91 1470.77,-21.86"/>
</a>
</g>
</g>
<!-- Node26 -->
<g id="Node000026" class="node">
<title>Node26</title>
<g id="a_Node000026"><a xlink:title=" ">
<polygon fill="#e0e0e0" stroke="#999999" points="1617.62,-18.5 1566.38,-18.5 1566.38,0 1617.62,0 1617.62,-18.5"/>
<text text-anchor="middle" x="1592" y="-5" font-family="Helvetica,sans-Serif" font-size="10.00">syslog.h</text>
</a>
</g>
</g>
<!-- Node3&#45;&gt;Node26 -->
<g id="edge25_Node000003_Node000026" class="edge">
<title>Node3&#45;&gt;Node26</title>
<g id="a_edge25_Node000003_Node000026"><a xlink:title=" ">
<path fill="none" stroke="#63b8ff" d="M858.85,-55.72C861.94,-55.26 865.02,-54.84 868,-54.5 1169.49,-19.74 1252.21,-61.89 1555.24,-18.63"/>
<polygon fill="#63b8ff" stroke="#63b8ff" points="1555.71,-21.96 1565.11,-17.06 1554.71,-15.03 1555.71,-21.96"/>
</a>
</g>
</g>
<!-- Node27 -->
<g id="Node000027" class="node">
<title>Node27</title>
<g id="a_Node000027"><a xlink:href="impl_8h_source.html" target="_top" xlink:title=" ">
<polygon fill="white" stroke="#666666" points="1691.88,-18.5 1636.12,-18.5 1636.12,0 1691.88,0 1691.88,-18.5"/>
<text text-anchor="middle" x="1664" y="-5" font-family="Helvetica,sans-Serif" font-size="10.00">sir/impl.h</text>
</a>
</g>
</g>
<!-- Node3&#45;&gt;Node27 -->
<g id="edge26_Node000003_Node000027" class="edge">
<title>Node3&#45;&gt;Node27</title>
<g id="a_edge26_Node000003_Node000027"><a xlink:title=" ">
<path fill="none" stroke="#63b8ff" d="M858.85,-55.71C861.94,-55.25 865.02,-54.84 868,-54.5 1200.14,-17 1290.44,-62.46 1625.32,-18.46"/>
<polygon fill="#63b8ff" stroke="#63b8ff" points="1625.36,-21.85 1634.81,-17.06 1624.43,-14.91 1625.36,-21.85"/>
</a>
</g>
</g>
</g>
</svg>
