<?xml version="1.0" encoding="UTF-8" standalone="no"?>
<!DOCTYPE svg PUBLIC "-//W3C//DTD SVG 1.1//EN"
 "http://www.w3.org/Graphics/SVG/1.1/DTD/svg11.dtd">
<!-- Generated by graphviz version 8.1.0 (20230707.0739)
 -->
<!-- Title: Graph Legend Pages: 1 -->
<svg width="504pt" height="157pt"
 viewBox="0.00 0.00 504.38 156.50" xmlns="http://www.w3.org/2000/svg" xmlns:xlink="http://www.w3.org/1999/xlink">
<g id="graph0" class="graph" transform="scale(1 1) rotate(0) translate(4 152.5)">
<title>Graph Legend</title>
<!-- Node9 -->
<g id="Node000009" class="node">
<title>Node9</title>
<g id="a_Node000009"><a xlink:title=" ">
<polygon fill="#999999" stroke="#666666" points="289.5,-18.5 236,-18.5 236,0 289.5,0 289.5,-18.5"/>
<text text-anchor="middle" x="262.75" y="-5" font-family="Helvetica,sans-Serif" font-size="10.00">Inherited</text>
</a>
</g>
</g>
<!-- Node10 -->
<g id="Node000010" class="node">
<title>Node10</title>
<g id="a_Node000010"><a xlink:title=" ">
<polygon fill="white" stroke="#666666" points="65.5,-83.5 0,-83.5 0,-65 65.5,-65 65.5,-83.5"/>
<text text-anchor="middle" x="32.75" y="-70" font-family="Helvetica,sans-Serif" font-size="10.00">PublicBase</text>
</a>
</g>
</g>
<!-- Node10&#45;&gt;Node9 -->
<g id="edge1" class="edge">
<title>Node10&#45;&gt;Node9</title>
<g id="a_edge1"><a xlink:title=" ">
<path fill="none" stroke="#63b8ff" d="M74.65,-61.77C121.44,-48.96 195.81,-28.59 235.57,-17.69"/>
<polygon fill="#63b8ff" stroke="#63b8ff" points="73.97,-58.6 65.25,-64.62 75.82,-65.36 73.97,-58.6"/>
</a>
</g>
</g>
<!-- Node11 -->
<g id="Node000011" class="node">
<title>Node11</title>
<g id="a_Node000011"><a xlink:title=" ">
<polygon fill="#fff0f0" stroke="red" points="62.12,-148.5 3.38,-148.5 3.38,-130 62.12,-130 62.12,-148.5"/>
<text text-anchor="middle" x="32.75" y="-135" font-family="Helvetica,sans-Serif" font-size="10.00">Truncated</text>
</a>
</g>
</g>
<!-- Node11&#45;&gt;Node10 -->
<g id="edge2" class="edge">
<title>Node11&#45;&gt;Node10</title>
<g id="a_edge2"><a xlink:title=" ">
<path fill="none" stroke="#63b8ff" d="M32.75,-118.76C32.75,-106.97 32.75,-92.53 32.75,-83.61"/>
<polygon fill="#63b8ff" stroke="#63b8ff" points="29.25,-118.75 32.75,-128.75 36.25,-118.75 29.25,-118.75"/>
</a>
</g>
</g>
<!-- Node13 -->
<g id="node4" class="node">
<title>Node13</title>
<g id="a_node4"><a xlink:title=" ">
<polygon fill="white" stroke="#666666" points="164,-83.5 83.5,-83.5 83.5,-65 164,-65 164,-83.5"/>
<text text-anchor="middle" x="123.75" y="-70" font-family="Helvetica,sans-Serif" font-size="10.00">ProtectedBase</text>
</a>
</g>
</g>
<!-- Node13&#45;&gt;Node9 -->
<g id="edge3" class="edge">
<title>Node13&#45;&gt;Node9</title>
<g id="a_edge3"><a xlink:title=" ">
<path fill="none" stroke="darkgreen" d="M152.54,-60.2C179.78,-47.85 219.93,-29.66 243.5,-18.98"/>
<polygon fill="darkgreen" stroke="darkgreen" points="151.45,-57.31 143.79,-64.62 154.34,-63.68 151.45,-57.31"/>
</a>
</g>
</g>
<!-- Node14 -->
<g id="node5" class="node">
<title>Node14</title>
<g id="a_node5"><a xlink:title=" ">
<polygon fill="white" stroke="#666666" points="251,-83.5 182.5,-83.5 182.5,-65 251,-65 251,-83.5"/>
<text text-anchor="middle" x="216.75" y="-70" font-family="Helvetica,sans-Serif" font-size="10.00">PrivateBase</text>
</a>
</g>
</g>
<!-- Node14&#45;&gt;Node9 -->
<g id="edge4" class="edge">
<title>Node14&#45;&gt;Node9</title>
<g id="a_edge4"><a xlink:title=" ">
<path fill="none" stroke="#8b1a1a" d="M229.37,-55.96C238.24,-43.81 249.72,-28.09 256.64,-18.61"/>
<polygon fill="#8b1a1a" stroke="#8b1a1a" points="226.02,-53.61 222.95,-63.75 231.68,-57.74 226.02,-53.61"/>
</a>
</g>
</g>
<!-- Node15 -->
<g id="Node000015" class="node">
<title>Node15</title>
<g id="a_Node000015"><a xlink:title=" ">
<polygon fill="#e0e0e0" stroke="#999999" points="350.75,-83.5 268.75,-83.5 268.75,-65 350.75,-65 350.75,-83.5"/>
<text text-anchor="middle" x="309.75" y="-70" font-family="Helvetica,sans-Serif" font-size="10.00">Undocumented</text>
</a>
</g>
</g>
<!-- Node15&#45;&gt;Node9 -->
<g id="edge5" class="edge">
<title>Node15&#45;&gt;Node9</title>
<g id="a_edge5"><a xlink:title=" ">
<path fill="none" stroke="#63b8ff" d="M296.85,-55.96C287.79,-43.81 276.06,-28.09 268.99,-18.61"/>
<polygon fill="#63b8ff" stroke="#63b8ff" points="294.63,-57.83 303.41,-63.75 300.24,-53.65 294.63,-57.83"/>
</a>
</g>
</g>
<!-- Node16 -->
<g id="node7" class="node">
<title>Node16</title>
<g id="a_node7"><a xlink:title=" ">
<polygon fill="white" stroke="#666666" points="439.12,-83.5 368.38,-83.5 368.38,-65 439.12,-65 439.12,-83.5"/>
<text text-anchor="middle" x="403.75" y="-70" font-family="Helvetica,sans-Serif" font-size="10.00">Templ&lt; int &gt;</text>
</a>
</g>
</g>
<!-- Node16&#45;&gt;Node9 -->
<g id="edge6" class="edge">
<title>Node16&#45;&gt;Node9</title>
<g id="a_edge6"><a xlink:title=" ">
<path fill="none" stroke="#63b8ff" d="M374.55,-60.2C346.91,-47.85 306.19,-29.66 282.28,-18.98"/>
<polygon fill="#63b8ff" stroke="#63b8ff" points="372.88,-63.74 383.44,-64.62 375.74,-57.35 372.88,-63.74"/>
</a>
</g>
</g>
<!-- Node17 -->
<g id="node8" class="node">
<title>Node17</title>
<g id="a_node8"><a xlink:title=" ">
<polygon fill="white" stroke="#666666" points="436.88,-148.5 370.62,-148.5 370.62,-130 436.88,-130 436.88,-148.5"/>
<text text-anchor="middle" x="403.75" y="-135" font-family="Helvetica,sans-Serif" font-size="10.00">Templ&lt; T &gt;</text>
</a>
</g>
</g>
<!-- Node17&#45;&gt;Node16 -->
<g id="edge7" class="edge">
<title>Node17&#45;&gt;Node16</title>
<g id="a_edge7"><a xlink:title=" ">
<path fill="none" stroke="orange" stroke-dasharray="5,2" d="M403.75,-118.76C403.75,-106.97 403.75,-92.53 403.75,-83.61"/>
<polygon fill="orange" stroke="orange" points="400.25,-118.75 403.75,-128.75 407.25,-118.75 400.25,-118.75"/>
</a>
</g>
<text text-anchor="middle" x="418" y="-102.5" font-family="Helvetica,sans-Serif" font-size="10.00" fill="grey">&lt; int &gt;</text>
</g>
<!-- Node18 -->
<g id="node9" class="node">
<title>Node18</title>
<g id="a_node9"><a xlink:title=" ">
<polygon fill="white" stroke="#666666" points="496.38,-83.5 457.12,-83.5 457.12,-65 496.38,-65 496.38,-83.5"/>
<text text-anchor="middle" x="476.75" y="-70" font-family="Helvetica,sans-Serif" font-size="10.00">Used</text>
</a>
</g>
</g>
<!-- Node18&#45;&gt;Node9 -->
<g id="edge8" class="edge">
<title>Node18&#45;&gt;Node9</title>
<g id="a_edge8"><a xlink:title=" ">
<path fill="none" stroke="#9a32cd" stroke-dasharray="5,2" d="M446.64,-64.38C404.83,-52.08 329.83,-30 289.74,-18.2"/>
<polygon fill="#9a32cd" stroke="#9a32cd" points="445.42,-67.97 456,-67.44 447.4,-61.25 445.42,-67.97"/>
</a>
</g>
<text text-anchor="middle" x="411.75" y="-37.5" font-family="Helvetica,sans-Serif" font-size="10.00" fill="grey">m_usedClass</text>
</g>
</g>
</svg>
