<?xml version="1.0" encoding="UTF-8" standalone="no"?>
<!DOCTYPE svg PUBLIC "-//W3C//DTD SVG 1.1//EN"
 "http://www.w3.org/Graphics/SVG/1.1/DTD/svg11.dtd">
<!-- Generated by graphviz version 8.1.0 (20230707.0739)
 -->
<!-- Title: C++ Wrapper Pages: 1 -->
<svg width="291pt" height="28pt"
 viewBox="0.00 0.00 291.00 27.75" xmlns="http://www.w3.org/2000/svg" xmlns:xlink="http://www.w3.org/1999/xlink">
<g id="graph0" class="graph" transform="scale(1 1) rotate(0) translate(4 23.75)">
<title>C++ Wrapper</title>
<!-- Node1 -->
<g id="Node000001" class="node">
<title>Node1</title>
<g id="a_Node000001"><a xlink:title=" ">
<polygon fill="#999999" stroke="#666666" points="196.5,-18.5 122,-18.5 122,0 196.5,0 196.5,-18.5"/>
<text text-anchor="middle" x="159.25" y="-5" font-family="Helvetica,sans-Serif" font-size="10.00">C++ Wrapper</text>
</a>
</g>
</g>
<!-- Node3 -->
<g id="Node000003" class="node">
<title>Node3</title>
<g id="a_Node000003"><a xlink:href="group__tests.html" target="_top" xlink:title="libsir integrity tests">
<polygon fill="white" stroke="#666666" points="283,-18.5 243,-18.5 243,0 283,0 283,-18.5"/>
<text text-anchor="middle" x="263" y="-5" font-family="Helvetica,sans-Serif" font-size="10.00">Tests</text>
</a>
</g>
</g>
<!-- Node1&#45;&gt;Node3 -->
<g id="edge2" class="edge">
<title>Node1&#45;&gt;Node3</title>
<path fill="none" stroke="blueviolet" stroke-dasharray="5,2" d="M196.98,-9.25C212.47,-9.25 229.85,-9.25 242.74,-9.25"/>
<text text-anchor="middle" x="219.75" y="-10.25" font-family="Helvetica,sans-Serif" font-size="10.00">sir</text>
</g>
<!-- Node2 -->
<g id="Node000002" class="node">
<title>Node2</title>
<g id="a_Node000002"><a xlink:href="group__public.html" target="_top" xlink:title="Functions and types that comprise the public interface to libsir.">
<polygon fill="white" stroke="#666666" points="85,-18.5 0,-18.5 0,0 85,0 85,-18.5"/>
<text text-anchor="middle" x="42.5" y="-5" font-family="Helvetica,sans-Serif" font-size="10.00">Public Interface</text>
</a>
</g>
</g>
<!-- Node2&#45;&gt;Node1 -->
<g id="edge1" class="edge">
<title>Node2&#45;&gt;Node1</title>
<path fill="none" stroke="black" d="M96.07,-9.25C104.71,-9.25 113.5,-9.25 121.65,-9.25"/>
<polygon fill="black" stroke="black" points="96.25,-5.75 86.25,-9.25 96.25,-12.75 96.25,-5.75"/>
</g>
</g>
</svg>
