<?xml version="1.0" encoding="UTF-8" standalone="no"?>
<!DOCTYPE svg PUBLIC "-//W3C//DTD SVG 1.1//EN"
 "http://www.w3.org/Graphics/SVG/1.1/DTD/svg11.dtd">
<!-- Generated by graphviz version 9.0.0 (20230911.1827)
 -->
<!-- Title: C++ Wrapper Pages: 1 -->
<svg width="290pt" height="29pt"
 viewBox="0.00 0.00 290.25 28.88" xmlns="http://www.w3.org/2000/svg" xmlns:xlink="http://www.w3.org/1999/xlink">
<g id="graph0" class="graph" transform="scale(1 1) rotate(0) translate(4 24.88)">
<title>C++ Wrapper</title>
<!-- Node1 -->
<g id="Node000001" class="node">
<title>Node1</title>
<g id="a_Node000001"><a xlink:title=" ">
<polygon fill="#999999" stroke="#666666" points="195.75,-19.25 121.25,-19.25 121.25,0 195.75,0 195.75,-19.25"/>
<text text-anchor="middle" x="158.5" y="-5.75" font-family="Helvetica,sans-Serif" font-size="10.00">C++ Wrapper</text>
</a>
</g>
</g>
<!-- Node3 -->
<g id="Node000003" class="node">
<title>Node3</title>
<g id="a_Node000003"><a xlink:href="group__tests.html" target="_top" xlink:title="libsir integrity tests">
<polygon fill="white" stroke="#666666" points="282.25,-19.25 242.25,-19.25 242.25,0 282.25,0 282.25,-19.25"/>
<text text-anchor="middle" x="262.25" y="-5.75" font-family="Helvetica,sans-Serif" font-size="10.00">Tests</text>
</a>
</g>
</g>
<!-- Node1&#45;&gt;Node3 -->
<g id="edge2" class="edge">
<title>Node1&#45;&gt;Node3</title>
<path fill="none" stroke="blueviolet" stroke-dasharray="5,2" d="M196.23,-9.62C211.72,-9.62 229.1,-9.62 241.99,-9.62"/>
<text text-anchor="middle" x="219" y="-11.38" font-family="Helvetica,sans-Serif" font-size="10.00">sir</text>
</g>
<!-- Node2 -->
<g id="Node000002" class="node">
<title>Node2</title>
<g id="a_Node000002"><a xlink:href="group__public.html" target="_top" xlink:title="Functions and types that comprise the public interface to libsir.">
<polygon fill="white" stroke="#666666" points="84.25,-19.25 0,-19.25 0,0 84.25,0 84.25,-19.25"/>
<text text-anchor="middle" x="42.12" y="-5.75" font-family="Helvetica,sans-Serif" font-size="10.00">Public Interface</text>
</a>
</g>
</g>
<!-- Node2&#45;&gt;Node1 -->
<g id="edge1" class="edge">
<title>Node2&#45;&gt;Node1</title>
<path fill="none" stroke="black" d="M96.09,-9.62C104.53,-9.62 113.08,-9.62 121.02,-9.62"/>
<polygon fill="black" stroke="black" points="96.25,-6.13 86.25,-9.63 96.25,-13.13 96.25,-6.13"/>
</g>
</g>
</svg>
