<?xml version="1.0" encoding="UTF-8" standalone="no"?>
<!DOCTYPE svg PUBLIC "-//W3C//DTD SVG 1.1//EN"
 "http://www.w3.org/Graphics/SVG/1.1/DTD/svg11.dtd">
<!-- Generated by graphviz version 9.0.0 (20230911.1827)
 -->
<!-- Title: Public Interface Pages: 1 -->
<svg width="203pt" height="101pt"
 viewBox="0.00 0.00 202.75 101.25" xmlns="http://www.w3.org/2000/svg" xmlns:xlink="http://www.w3.org/1999/xlink">
<g id="graph0" class="graph" transform="scale(1 1) rotate(0) translate(4 97.25)">
<title>Public Interface</title>
<!-- Node4 -->
<g id="Node000004" class="node">
<title>Node4</title>
<g id="a_Node000004"><a xlink:href="group__cpp.html" target="_top" xlink:title=" ">
<polygon fill="white" stroke="#666666" points="194.75,-93.25 120.25,-93.25 120.25,-74 194.75,-74 194.75,-93.25"/>
<text text-anchor="middle" x="157.5" y="-79.75" font-family="Helvetica,sans-Serif" font-size="10.00">C++ Wrapper</text>
</a>
</g>
</g>
<!-- Node1 -->
<g id="Node000001" class="node">
<title>Node1</title>
<g id="a_Node000001"><a xlink:title="Functions and types that comprise the public interface to libsir.">
<polygon fill="#999999" stroke="#666666" points="84.25,-56.25 0,-56.25 0,-37 84.25,-37 84.25,-56.25"/>
<text text-anchor="middle" x="42.12" y="-42.75" font-family="Helvetica,sans-Serif" font-size="10.00">Public Interface</text>
</a>
</g>
</g>
<!-- Node1&#45;&gt;Node4 -->
<g id="edge3" class="edge">
<title>Node1&#45;&gt;Node4</title>
<path fill="none" stroke="black" d="M85.03,-60.3C98.45,-64.68 113.06,-69.45 125.56,-73.53"/>
<polygon fill="black" stroke="black" points="86.14,-56.98 75.54,-57.2 83.96,-63.63 86.14,-56.98"/>
</g>
<!-- Node2 -->
<g id="Node000002" class="node">
<title>Node2</title>
<g id="a_Node000002"><a xlink:href="group__publicfuncs.html" target="_top" xlink:title=" ">
<polygon fill="white" stroke="#666666" points="186.88,-56.25 128.12,-56.25 128.12,-37 186.88,-37 186.88,-56.25"/>
<text text-anchor="middle" x="157.5" y="-42.75" font-family="Helvetica,sans-Serif" font-size="10.00">Functions</text>
</a>
</g>
</g>
<!-- Node1&#45;&gt;Node2 -->
<g id="edge1" class="edge">
<title>Node1&#45;&gt;Node2</title>
<path fill="none" stroke="black" d="M95.95,-46.62C106.88,-46.62 118.01,-46.62 127.69,-46.62"/>
<polygon fill="black" stroke="black" points="96.21,-43.13 86.21,-46.63 96.21,-50.13 96.21,-43.13"/>
</g>
<!-- Node3 -->
<g id="Node000003" class="node">
<title>Node3</title>
<g id="a_Node000003"><a xlink:href="group__publictypes.html" target="_top" xlink:title=" ">
<polygon fill="white" stroke="#666666" points="178.62,-19.25 136.38,-19.25 136.38,0 178.62,0 178.62,-19.25"/>
<text text-anchor="middle" x="157.5" y="-5.75" font-family="Helvetica,sans-Serif" font-size="10.00">Types</text>
</a>
</g>
</g>
<!-- Node1&#45;&gt;Node3 -->
<g id="edge2" class="edge">
<title>Node1&#45;&gt;Node3</title>
<path fill="none" stroke="black" d="M84.65,-33.07C102.11,-27.38 121.65,-21 135.94,-16.34"/>
<polygon fill="black" stroke="black" points="83.96,-29.62 75.54,-36.05 86.14,-36.27 83.96,-29.62"/>
</g>
</g>
</svg>
