<?xml version="1.0" encoding="UTF-8" standalone="no"?>
<!DOCTYPE svg PUBLIC "-//W3C//DTD SVG 1.1//EN"
 "http://www.w3.org/Graphics/SVG/1.1/DTD/svg11.dtd">
<!-- Generated by graphviz version 9.0.0 (20230911.1827)
 -->
<!-- Title: Public Interface Pages: 1 -->
<svg width="204pt" height="101pt"
 viewBox="0.00 0.00 203.50 100.50" xmlns="http://www.w3.org/2000/svg" xmlns:xlink="http://www.w3.org/1999/xlink">
<g id="graph0" class="graph" transform="scale(1 1) rotate(0) translate(4 96.5)">
<title>Public Interface</title>
<!-- Node4 -->
<g id="Node000004" class="node">
<title>Node4</title>
<g id="a_Node000004"><a xlink:href="group__cpp.html" target="_top" xlink:title=" ">
<polygon fill="white" stroke="#666666" points="195.5,-92.5 121,-92.5 121,-74 195.5,-74 195.5,-92.5"/>
<text text-anchor="middle" x="158.25" y="-79" font-family="Helvetica,sans-Serif" font-size="10.00">C++ Wrapper</text>
</a>
</g>
</g>
<!-- Node1 -->
<g id="Node000001" class="node">
<title>Node1</title>
<g id="a_Node000001"><a xlink:title=" ">
<polygon fill="#999999" stroke="#666666" points="85,-55.5 0,-55.5 0,-37 85,-37 85,-55.5"/>
<text text-anchor="middle" x="42.5" y="-42" font-family="Helvetica,sans-Serif" font-size="10.00">Public Interface</text>
</a>
</g>
</g>
<!-- Node1&#45;&gt;Node4 -->
<g id="edge3" class="edge">
<title>Node1&#45;&gt;Node4</title>
<path fill="none" stroke="black" d="M84.01,-59.43C98.38,-64.1 114.27,-69.27 127.56,-73.59"/>
<polygon fill="black" stroke="black" points="85.42,-56.2 74.83,-56.44 83.25,-62.86 85.42,-56.2"/>
</g>
<!-- Node2 -->
<g id="Node000002" class="node">
<title>Node2</title>
<g id="a_Node000002"><a xlink:href="group__publicfuncs.html" target="_top" xlink:title=" ">
<polygon fill="white" stroke="#666666" points="187.62,-55.5 128.88,-55.5 128.88,-37 187.62,-37 187.62,-55.5"/>
<text text-anchor="middle" x="158.25" y="-42" font-family="Helvetica,sans-Serif" font-size="10.00">Functions</text>
</a>
</g>
</g>
<!-- Node1&#45;&gt;Node2 -->
<g id="edge1" class="edge">
<title>Node1&#45;&gt;Node2</title>
<path fill="none" stroke="black" d="M96.6,-46.25C107.67,-46.25 118.93,-46.25 128.69,-46.25"/>
<polygon fill="black" stroke="black" points="96.72,-42.75 86.72,-46.25 96.72,-49.75 96.72,-42.75"/>
</g>
<!-- Node3 -->
<g id="Node000003" class="node">
<title>Node3</title>
<g id="a_Node000003"><a xlink:href="group__publictypes.html" target="_top" xlink:title=" ">
<polygon fill="white" stroke="#666666" points="179.38,-18.5 137.12,-18.5 137.12,0 179.38,0 179.38,-18.5"/>
<text text-anchor="middle" x="158.25" y="-5" font-family="Helvetica,sans-Serif" font-size="10.00">Types</text>
</a>
</g>
</g>
<!-- Node1&#45;&gt;Node3 -->
<g id="edge2" class="edge">
<title>Node1&#45;&gt;Node3</title>
<path fill="none" stroke="black" d="M84.15,-33.03C102.03,-27.21 122.25,-20.64 136.88,-15.88"/>
<polygon fill="black" stroke="black" points="83.25,-29.64 74.83,-36.06 85.42,-36.3 83.25,-29.64"/>
</g>
</g>
</svg>
