<?xml version="1.0" encoding="UTF-8" standalone="no"?>
<!DOCTYPE svg PUBLIC "-//W3C//DTD SVG 1.1//EN"
 "http://www.w3.org/Graphics/SVG/1.1/DTD/svg11.dtd">
<!-- Generated by graphviz version 8.1.0 (20230707.0739)
 -->
<!-- Title: Public Interface Pages: 1 -->
<svg width="204pt" height="101pt"
 viewBox="0.00 0.00 203.50 100.50" xmlns="http://www.w3.org/2000/svg" xmlns:xlink="http://www.w3.org/1999/xlink">

<svg id="main" version="1.1" xmlns="http://www.w3.org/2000/svg" xmlns:xlink="http://www.w3.org/1999/xlink" xml:space="preserve" onload="init(evt)">
<style type="text/css"><![CDATA[
.node, .edge {opacity: 0.7;}
.node.selected, .edge.selected {opacity: 1;}
.edge:hover path { stroke: red; }
.edge:hover polygon { stroke: red; fill: red; }
]]></style>
<script type="application/ecmascript" xlink:href="svg.min.js"/>
<svg id="graph" class="graph">
<g id="graph0" class="graph" transform="scale(1 1) rotate(0) translate(4 96.5)">
<title>Public Interface</title>
<!-- Node4 -->
<g id="Node000004" class="node">
<title>Node4</title>
<g id="a_Node000004"><a xlink:href="group__cpp.html" target="_top" xlink:title=" ">
<polygon fill="white" stroke="#666666" points="195.5,-92.5 121,-92.5 121,-74 195.5,-74 195.5,-92.5"/>
<text text-anchor="middle" x="158.25" y="-79" font-family="Helvetica,sans-Serif" font-size="10.00">C++ Wrapper</text>
</a>
</g>
</g>
<!-- Node1 -->
<g id="Node000001" class="node">
<title>Node1</title>
<g id="a_Node000001"><a xlink:title="Functions and types that comprise the public interface to libsir.">
<polygon fill="#999999" stroke="#666666" points="85,-55.5 0,-55.5 0,-37 85,-37 85,-55.5"/>
<text text-anchor="middle" x="42.5" y="-42" font-family="Helvetica,sans-Serif" font-size="10.00">Public Interface</text>
</a>
</g>
</g>
<!-- Node1&#45;&gt;Node4 -->
<g id="edge3" class="edge">
<title>Node1&#45;&gt;Node4</title>
<path fill="none" stroke="black" d="M83.59,-59.29C98.06,-64 114.14,-69.23 127.56,-73.59"/>
<polygon fill="black" stroke="black" points="84.98,-55.74 74.39,-55.97 82.81,-62.39 84.98,-55.74"/>
</g>
<!-- Node2 -->
<g id="Node000002" class="node">
<title>Node2</title>
<g id="a_Node000002"><a xlink:href="group__publicfuncs.html" target="_top" xlink:title=" ">
<polygon fill="white" stroke="#666666" points="187.62,-55.5 128.88,-55.5 128.88,-37 187.62,-37 187.62,-55.5"/>
<text text-anchor="middle" x="158.25" y="-42" font-family="Helvetica,sans-Serif" font-size="10.00">Functions</text>
</a>
</g>
</g>
<!-- Node1&#45;&gt;Node2 -->
<g id="edge1" class="edge">
<title>Node1&#45;&gt;Node2</title>
<path fill="none" stroke="black" d="M95.9,-46.25C107.19,-46.25 118.72,-46.25 128.69,-46.25"/>
<polygon fill="black" stroke="black" points="96.21,-42.75 86.21,-46.25 96.21,-49.75 96.21,-42.75"/>
</g>
<!-- Node3 -->
<g id="Node000003" class="node">
<title>Node3</title>
<g id="a_Node000003"><a xlink:href="group__publictypes.html" target="_top" xlink:title=" ">
<polygon fill="white" stroke="#666666" points="179.38,-18.5 137.12,-18.5 137.12,0 179.38,0 179.38,-18.5"/>
<text text-anchor="middle" x="158.25" y="-5" font-family="Helvetica,sans-Serif" font-size="10.00">Types</text>
</a>
</g>
</g>
<!-- Node1&#45;&gt;Node3 -->
<g id="edge2" class="edge">
<title>Node1&#45;&gt;Node3</title>
<path fill="none" stroke="black" d="M83.64,-33.19C101.65,-27.34 122.11,-20.68 136.88,-15.88"/>
<polygon fill="black" stroke="black" points="82.81,-30.11 74.39,-36.53 84.98,-36.76 82.81,-30.11"/>
</g>
</g>
</svg>
</svg>

<style type='text/css'>
<![CDATA[
[data-mouse-over-selected='false'] { opacity: 0.7; }
[data-mouse-over-selected='true']  { opacity: 1.0; }
]]>
</style>
<script type="application/ecmascript"><![CDATA[
document.addEventListener('DOMContentLoaded', (event) => {
  highlightEdges();
  highlightAdjacentNodes();
});
]]></script>
</svg>
