<?xml version="1.0" encoding="UTF-8" standalone="no"?>
<!DOCTYPE svg PUBLIC "-//W3C//DTD SVG 1.1//EN" "http://www.w3.org/Graphics/SVG/1.1/DTD/svg11.dtd">
<svg xmlns="http://www.w3.org/2000/svg" xmlns:xl="http://www.w3.org/1999/xlink" version="1.1" xmlns:dc="http://purl.org/dc/elements/1.1/" viewBox="522 338 689 190" width="689" height="190">
  <defs>
    <filter id="Shadow" filterUnits="userSpaceOnUse" x="453.1" y="319">
      <feGaussianBlur in="SourceAlpha" result="blur" stdDeviation=".436"/>
      <feOffset in="blur" result="offset" dx="1" dy="2"/>
      <feFlood flood-color="black" flood-opacity=".5" result="flood"/>
      <feComposite in="flood" in2="offset" operator="in" result="color"/>
      <feMerge>
        <feMergeNode in="color"/>
        <feMergeNode in="SourceGraphic"/>
      </feMerge>
    </filter>
    <marker orient="auto" overflow="visible" markerUnits="strokeWidth" id="StickArrow_Marker" stroke-linejoin="miter" stroke-miterlimit="10" viewBox="-1 -4 10 8" markerWidth="10" markerHeight="8" color="#92fd9b">
      <g>
        <path d="M 8 0 L 0 0 M 0 -3 L 8 0 L 0 3" fill="none" stroke="currentColor" stroke-width="1"/>
      </g>
    </marker>
    <filter id="Shadow_2" filterUnits="userSpaceOnUse" x="453.1" y="319">
      <feGaussianBlur in="SourceAlpha" result="blur" stdDeviation=".436"/>
      <feOffset in="blur" result="offset" dx="1" dy="1"/>
      <feFlood flood-color="black" flood-opacity=".5" result="flood"/>
      <feComposite in="flood" in2="offset" operator="in" result="color"/>
      <feMerge>
        <feMergeNode in="color"/>
        <feMergeNode in="SourceGraphic"/>
      </feMerge>
    </filter>
    <marker orient="auto" overflow="visible" markerUnits="strokeWidth" id="StickArrow_Marker_2" stroke-linejoin="miter" stroke-miterlimit="10" viewBox="-1 -4 10 8" markerWidth="10" markerHeight="8" color="#4a814e">
      <g>
        <path d="M 8 0 L 0 0 M 0 -3 L 8 0 L 0 3" fill="none" stroke="currentColor" stroke-width="1"/>
      </g>
    </marker>
  </defs>
  <g id="diagram" fill="none" stroke-dasharray="none" fill-opacity="1" stroke="none" stroke-opacity="1">
    <title>diagram</title>
    <rect fill="#333" x="522" y="338" width="689" height="190"/>
    <g id="diagram_Layer_1">
      <title>Layer 1</title>
      <g id="Line_18" filter="url(#Shadow)">
        <line x1="956.8333" y1="458.5" x2="1008.3442" y2="489.4065" marker-end="url(#StickArrow_Marker)" stroke="#92fd9b" stroke-linecap="round" stroke-linejoin="round" stroke-width="1"/>
      </g>
      <g id="Line_16" filter="url(#Shadow)">
        <line x1="926" y1="458.5" x2="926" y2="484.6" marker-end="url(#StickArrow_Marker)" stroke="#92fd9b" stroke-linecap="round" stroke-linejoin="round" stroke-width="1"/>
      </g>
      <g id="Line_14" filter="url(#Shadow_2)">
        <line x1="895.1667" y1="458.5" x2="843.6558" y2="489.4065" marker-end="url(#StickArrow_Marker)" stroke="#92fd9b" stroke-linecap="round" stroke-linejoin="round" stroke-width="1"/>
      </g>
      <g id="Line_12" filter="url(#Shadow)">
        <line x1="839.6" y1="386" x2="888.0048" y2="416.253" marker-end="url(#StickArrow_Marker)" stroke="#92fd9b" stroke-linecap="round" stroke-linejoin="round" stroke-width="1"/>
      </g>
      <g id="Line_10" filter="url(#Shadow)">
        <line x1="802" y1="386" x2="802" y2="411.6" marker-end="url(#StickArrow_Marker)" stroke="#92fd9b" stroke-linecap="round" stroke-linejoin="round" stroke-width="1"/>
      </g>
      <g id="Line_8" filter="url(#Shadow)">
        <line x1="679.41304" y1="458.5" x2="682.8282" y2="484.68316" marker-end="url(#StickArrow_Marker)" stroke="#92fd9b" stroke-linecap="round" stroke-linejoin="round" stroke-width="1"/>
      </g>
      <g id="Line_6" filter="url(#Shadow)">
        <line x1="648.5797" y1="458.5" x2="601.5724" y2="489.0991" marker-end="url(#StickArrow_Marker)" stroke="#92fd9b" stroke-linecap="round" stroke-linejoin="round" stroke-width="1"/>
      </g>
      <g id="Line_3" filter="url(#Shadow)">
        <line x1="764.0968" y1="386" x2="715.25275" y2="416.2833" marker-end="url(#StickArrow_Marker)" stroke="#92fd9b" stroke-linecap="round" stroke-linejoin="round" stroke-width="1"/>
      </g>
      <g id="Graphic_2" filter="url(#Shadow)">
        <path d="M 748 339 L 856 339 C 859.866 339 863 342.134 863 346 L 863 379 C 863 382.866 859.866 386 856 386 L 748 386 C 744.134 386 741 382.866 741 379 L 741 346 C 741 342.134 744.134 339 748 339 Z" fill="#333"/>
        <path d="M 748 339 L 856 339 C 859.866 339 863 342.134 863 346 L 863 379 C 863 382.866 859.866 386 856 386 L 748 386 C 744.134 386 741 382.866 741 379 L 741 346 C 741 342.134 744.134 339 748 339 Z" stroke="#93ff9c" stroke-linecap="round" stroke-linejoin="round" stroke-width="1"/>
        <text transform="translate(746 354.5)" fill="#92fd9b">
          <tspan font-family="Cascadia Mono" font-size="14" fill="#92fd9b" x="31.390625" y="13">libsir</tspan>
        </text>
      </g>
      <g id="Graphic_4" filter="url(#Shadow)">
        <path d="M 631.5 421.5 L 722.5 421.5 C 726.366 421.5 729.5 424.634 729.5 428.5 L 729.5 451.5 C 729.5 455.366 726.366 458.5 722.5 458.5 L 631.5 458.5 C 627.634 458.5 624.5 455.366 624.5 451.5 L 624.5 428.5 C 624.5 424.634 627.634 421.5 631.5 421.5 Z" fill="#333"/>
        <path d="M 631.5 421.5 L 722.5 421.5 C 726.366 421.5 729.5 424.634 729.5 428.5 L 729.5 451.5 C 729.5 455.366 726.366 458.5 722.5 458.5 L 631.5 458.5 C 627.634 458.5 624.5 455.366 624.5 451.5 L 624.5 428.5 C 624.5 424.634 627.634 421.5 631.5 421.5 Z" stroke="#93ff9c" stroke-linecap="round" stroke-linejoin="round" stroke-width="1"/>
        <text transform="translate(629.5 432)" fill="#92fd9b">
          <tspan font-family="Cascadia Mono" font-size="14" fill="#92fd9b" x="26.992188" y="13">stdio</tspan>
        </text>
      </g>
      <g id="Graphic_11" filter="url(#Shadow)">
        <path d="M 756 421.5 L 848 421.5 C 851.866 421.5 855 424.634 855 428.5 L 855 451.5 C 855 455.366 851.866 458.5 848 458.5 L 756 458.5 C 752.134 458.5 749 455.366 749 451.5 L 749 428.5 C 749 424.634 752.134 421.5 756 421.5 Z" fill="#333"/>
        <path d="M 756 421.5 L 848 421.5 C 851.866 421.5 855 424.634 855 428.5 L 855 451.5 C 855 455.366 851.866 458.5 848 458.5 L 756 458.5 C 752.134 458.5 749 455.366 749 451.5 L 749 428.5 C 749 424.634 752.134 421.5 756 421.5 Z" stroke="#93ff9c" stroke-linecap="round" stroke-linejoin="round" stroke-width="1"/>
        <text transform="translate(754 424)" fill="#92fd9b">
          <tspan font-family="Cascadia Mono" font-size="14" fill="#92fd9b" x="23.390625" y="13">system </tspan>
          <tspan font-family="Cascadia Mono" font-size="14" fill="#92fd9b" x="23.390625" y="29">logger</tspan>
        </text>
      </g>
      <g id="Graphic_13" filter="url(#Shadow)">
        <path d="M 880 421.5 L 972 421.5 C 975.866 421.5 979 424.634 979 428.5 L 979 451.5 C 979 455.366 975.866 458.5 972 458.5 L 880 458.5 C 876.134 458.5 873 455.366 873 451.5 L 873 428.5 C 873 424.634 876.134 421.5 880 421.5 Z" fill="#333"/>
        <path d="M 880 421.5 L 972 421.5 C 975.866 421.5 979 424.634 979 428.5 L 979 451.5 C 979 455.366 975.866 458.5 972 458.5 L 880 458.5 C 876.134 458.5 873 455.366 873 451.5 L 873 428.5 C 873 424.634 876.134 421.5 880 421.5 Z" stroke="#93ff9c" stroke-linecap="round" stroke-linejoin="round" stroke-width="1"/>
        <text transform="translate(878 432)" fill="#92fd9b">
          <tspan font-family="Cascadia Mono" font-size="14" fill="#92fd9b" x="11.085938" y="13">log files</tspan>
        </text>
      </g>
      <g id="Graphic_7" filter="url(#Shadow)">
        <path d="M 529.5 494.5 L 612.5 494.5 C 616.366 494.5 619.5 497.634 619.5 501.5 L 619.5 516.5 C 619.5 520.366 616.366 523.5 612.5 523.5 L 529.5 523.5 C 525.634 523.5 522.5 520.366 522.5 516.5 L 522.5 501.5 C 522.5 497.634 525.634 494.5 529.5 494.5 Z" fill="#333"/>
        <path d="M 529.5 494.5 L 612.5 494.5 C 616.366 494.5 619.5 497.634 619.5 501.5 L 619.5 516.5 C 619.5 520.366 616.366 523.5 612.5 523.5 L 529.5 523.5 C 525.634 523.5 522.5 520.366 522.5 516.5 L 522.5 501.5 C 522.5 497.634 525.634 494.5 529.5 494.5 Z" stroke="#93ff9c" stroke-linecap="round" stroke-linejoin="round" stroke-width="1"/>
        <text transform="translate(527.5 501)" fill="#92fd9b">
          <tspan font-family="Cascadia Mono" font-size="14" fill="#92fd9b" x="18.890625" y="13">stdout</tspan>
        </text>
      </g>
      <g id="Graphic_9" filter="url(#Shadow)">
        <path d="M 644.5 494.5 L 727.5 494.5 C 731.366 494.5 734.5 497.634 734.5 501.5 L 734.5 516.5 C 734.5 520.366 731.366 523.5 727.5 523.5 L 644.5 523.5 C 640.634 523.5 637.5 520.366 637.5 516.5 L 637.5 501.5 C 637.5 497.634 640.634 494.5 644.5 494.5 Z" fill="#333"/>
        <path d="M 644.5 494.5 L 727.5 494.5 C 731.366 494.5 734.5 497.634 734.5 501.5 L 734.5 516.5 C 734.5 520.366 731.366 523.5 727.5 523.5 L 644.5 523.5 C 640.634 523.5 637.5 520.366 637.5 516.5 L 637.5 501.5 C 637.5 497.634 640.634 494.5 644.5 494.5 Z" stroke="#93ff9c" stroke-linecap="round" stroke-linejoin="round" stroke-width="1"/>
        <text transform="translate(642.5 501)" fill="#92fd9b">
          <tspan font-family="Cascadia Mono" font-size="14" fill="#92fd9b" x="18.890625" y="13">stderr</tspan>
        </text>
      </g>
      <g id="Graphic_15" filter="url(#Shadow)">
        <path d="M 769.5 494.5 L 852.5 494.5 C 856.366 494.5 859.5 497.634 859.5 501.5 L 859.5 516.5 C 859.5 520.366 856.366 523.5 852.5 523.5 L 769.5 523.5 C 765.634 523.5 762.5 520.366 762.5 516.5 L 762.5 501.5 C 762.5 497.634 765.634 494.5 769.5 494.5 Z" fill="#333"/>
        <path d="M 769.5 494.5 L 852.5 494.5 C 856.366 494.5 859.5 497.634 859.5 501.5 L 859.5 516.5 C 859.5 520.366 856.366 523.5 852.5 523.5 L 769.5 523.5 C 765.634 523.5 762.5 520.366 762.5 516.5 L 762.5 501.5 C 762.5 497.634 765.634 494.5 769.5 494.5 Z" stroke="#93ff9c" stroke-linecap="round" stroke-linejoin="round" stroke-width="1"/>
        <text transform="translate(767.5 501)" fill="#92fd9b">
          <tspan font-family="Cascadia Mono" font-size="14" fill="#92fd9b" x="31.195312" y="13">n=1</tspan>
        </text>
      </g>
      <g id="Graphic_17" filter="url(#Shadow)">
        <path d="M 884.5 494.5 L 967.5 494.5 C 971.366 494.5 974.5 497.634 974.5 501.5 L 974.5 516.5 C 974.5 520.366 971.366 523.5 967.5 523.5 L 884.5 523.5 C 880.634 523.5 877.5 520.366 877.5 516.5 L 877.5 501.5 C 877.5 497.634 880.634 494.5 884.5 494.5 Z" fill="#333"/>
        <path d="M 884.5 494.5 L 967.5 494.5 C 971.366 494.5 974.5 497.634 974.5 501.5 L 974.5 516.5 C 974.5 520.366 971.366 523.5 967.5 523.5 L 884.5 523.5 C 880.634 523.5 877.5 520.366 877.5 516.5 L 877.5 501.5 C 877.5 497.634 880.634 494.5 884.5 494.5 Z" stroke="#93ff9c" stroke-linecap="round" stroke-linejoin="round" stroke-width="1"/>
        <text transform="translate(882.5 501)" fill="#92fd9b">
          <tspan font-family="Cascadia Mono" font-size="14" fill="#92fd9b" x="31.195312" y="13">n=2</tspan>
        </text>
      </g>
      <g id="Graphic_19" filter="url(#Shadow)">
        <path d="M 999.5 494.5 L 1082.5 494.5 C 1086.366 494.5 1089.5 497.634 1089.5 501.5 L 1089.5 516.5 C 1089.5 520.366 1086.366 523.5 1082.5 523.5 L 999.5 523.5 C 995.634 523.5 992.5 520.366 992.5 516.5 L 992.5 501.5 C 992.5 497.634 995.634 494.5 999.5 494.5 Z" fill="#333"/>
        <path d="M 999.5 494.5 L 1082.5 494.5 C 1086.366 494.5 1089.5 497.634 1089.5 501.5 L 1089.5 516.5 C 1089.5 520.366 1086.366 523.5 1082.5 523.5 L 999.5 523.5 C 995.634 523.5 992.5 520.366 992.5 516.5 L 992.5 501.5 C 992.5 497.634 995.634 494.5 999.5 494.5 Z" stroke="#93ff9c" stroke-linecap="round" stroke-linejoin="round" stroke-width="1"/>
        <text transform="translate(997.5 501)" fill="#92fd9b">
          <tspan font-family="Cascadia Mono" font-size="14" fill="#92fd9b" x="22.992188" y="13">n=max</tspan>
        </text>
      </g>
      <g id="Graphic_33" filter="url(#Shadow)">
        <path d="M 1109 421.5 L 1201 421.5 C 1204.866 421.5 1208 424.634 1208 428.5 L 1208 451.5 C 1208 455.366 1204.866 458.5 1201 458.5 L 1109 458.5 C 1105.134 458.5 1102 455.366 1102 451.5 L 1102 428.5 C 1102 424.634 1105.134 421.5 1109 421.5 Z" fill="#333"/>
        <path d="M 1109 421.5 L 1201 421.5 C 1204.866 421.5 1208 424.634 1208 428.5 L 1208 451.5 C 1208 455.366 1204.866 458.5 1201 458.5 L 1109 458.5 C 1105.134 458.5 1102 455.366 1102 451.5 L 1102 428.5 C 1102 424.634 1105.134 421.5 1109 421.5 Z" stroke="#4a814e" stroke-linecap="round" stroke-linejoin="round" stroke-dasharray="2.0,2.0" stroke-width="1"/>
        <text transform="translate(1107 432)" fill="#4a814e">
          <tspan font-family="Cascadia Mono" font-size="14" fill="#4a814e" x="19.289062" y="13">plugins</tspan>
        </text>
      </g>
      <g id="Line_32" filter="url(#Shadow)">
        <line x1="863" y1="375.89235" x2="1092.3316" y2="426.24135" marker-end="url(#StickArrow_Marker_2)" stroke="#4a814e" stroke-linecap="round" stroke-linejoin="round" stroke-dasharray="2.0,2.0" stroke-width="1"/>
      </g>
      <g id="Graphic_35" filter="url(#Shadow)">
        <path d="M 1113.5 495 L 1196.5 495 C 1200.366 495 1203.5 498.134 1203.5 502 L 1203.5 517 C 1203.5 520.866 1200.366 524 1196.5 524 L 1113.5 524 C 1109.634 524 1106.5 520.866 1106.5 517 L 1106.5 502 C 1106.5 498.134 1109.634 495 1113.5 495 Z" fill="#333"/>
        <path d="M 1113.5 495 L 1196.5 495 C 1200.366 495 1203.5 498.134 1203.5 502 L 1203.5 517 C 1203.5 520.866 1200.366 524 1196.5 524 L 1113.5 524 C 1109.634 524 1106.5 520.866 1106.5 517 L 1106.5 502 C 1106.5 498.134 1109.634 495 1113.5 495 Z" stroke="#4a814e" stroke-linecap="round" stroke-linejoin="round" stroke-dasharray="2.0,2.0" stroke-width="1"/>
        <text transform="translate(1111.5 501.5)" fill="#4a814e">
          <tspan font-family="Cascadia Mono" font-size="14" fill="#4a814e" x="39.398438" y="13">…</tspan>
        </text>
      </g>
      <g id="Line_36" filter="url(#Shadow)">
        <line x1="1155" y1="458.5" x2="1155" y2="485.1" marker-end="url(#StickArrow_Marker_2)" stroke="#4a814e" stroke-linecap="round" stroke-linejoin="round" stroke-dasharray="2.0,2.0" stroke-width="1"/>
      </g>
    </g>
  </g>
</svg>
