<?xml version="1.0" encoding="UTF-8" standalone="no"?>
<!DOCTYPE svg PUBLIC "-//W3C//DTD SVG 1.1//EN"
 "http://www.w3.org/Graphics/SVG/1.1/DTD/svg11.dtd">
<!-- Generated by graphviz version 8.1.0 (20230707.0739)
 -->
<!-- Title: include/sir.h Pages: 1 -->
<svg width="1700pt" height="190pt"
 viewBox="0.00 0.00 1699.62 190.00" xmlns="http://www.w3.org/2000/svg" xmlns:xlink="http://www.w3.org/1999/xlink">
<g id="graph0" class="graph" transform="scale(1 1) rotate(0) translate(4 186)">
<title>include/sir.h</title>
<!-- Node1 -->
<g id="Node000001" class="node">
<title>Node1</title>
<g id="a_Node000001"><a xlink:title="Public interface to libsir.">
<polygon fill="#999999" stroke="#666666" points="825,-182 756.5,-182 756.5,-163.5 825,-163.5 825,-182"/>
<text text-anchor="middle" x="790.75" y="-168.5" font-family="Helvetica,sans-Serif" font-size="10.00">include/sir.h</text>
</a>
</g>
</g>
<!-- Node2 -->
<g id="Node000002" class="node">
<title>Node2</title>
<g id="a_Node000002"><a xlink:href="platform_8h_source.html" target="_top" xlink:title=" ">
<polygon fill="white" stroke="#666666" points="827.25,-73 754.25,-73 754.25,-54.5 827.25,-54.5 827.25,-73"/>
<text text-anchor="middle" x="790.75" y="-59.5" font-family="Helvetica,sans-Serif" font-size="10.00">sir/platform.h</text>
</a>
</g>
</g>
<!-- Node1&#45;&gt;Node2 -->
<g id="edge1_Node000001_Node000002" class="edge">
<title>Node1&#45;&gt;Node2</title>
<g id="a_edge1_Node000001_Node000002"><a xlink:title=" ">
<path fill="none" stroke="#63b8ff" d="M790.75,-163.35C790.75,-146.4 790.75,-107.71 790.75,-84.15"/>
<polygon fill="#63b8ff" stroke="#63b8ff" points="794.25,-84.4 790.75,-74.4 787.25,-84.4 794.25,-84.4"/>
</a>
</g>
</g>
<!-- Node27 -->
<g id="Node000027" class="node">
<title>Node27</title>
<g id="a_Node000027"><a xlink:href="version_8h_source.html" target="_top" xlink:title=" ">
<polygon fill="white" stroke="#666666" points="761.38,-127.5 692.12,-127.5 692.12,-109 761.38,-109 761.38,-127.5"/>
<text text-anchor="middle" x="726.75" y="-114" font-family="Helvetica,sans-Serif" font-size="10.00">sir/version.h</text>
</a>
</g>
</g>
<!-- Node1&#45;&gt;Node27 -->
<g id="edge26_Node000001_Node000027" class="edge">
<title>Node1&#45;&gt;Node27</title>
<g id="a_edge26_Node000001_Node000027"><a xlink:title=" ">
<path fill="none" stroke="#63b8ff" d="M780.18,-163.08C770.77,-155.36 756.78,-143.88 745.47,-134.61"/>
<polygon fill="#63b8ff" stroke="#63b8ff" points="748.07,-131.39 738.12,-127.76 743.63,-136.81 748.07,-131.39"/>
</a>
</g>
</g>
<!-- Node28 -->
<g id="Node000028" class="node">
<title>Node28</title>
<g id="a_Node000028"><a xlink:href="types_8h_source.html" target="_top" xlink:title=" ">
<polygon fill="white" stroke="#666666" points="894.62,-127.5 832.88,-127.5 832.88,-109 894.62,-109 894.62,-127.5"/>
<text text-anchor="middle" x="863.75" y="-114" font-family="Helvetica,sans-Serif" font-size="10.00">sir/types.h</text>
</a>
</g>
</g>
<!-- Node1&#45;&gt;Node28 -->
<g id="edge28_Node000001_Node000028" class="edge">
<title>Node1&#45;&gt;Node28</title>
<g id="a_edge28_Node000001_Node000028"><a xlink:title=" ">
<path fill="none" stroke="#63b8ff" d="M802.8,-163.08C813.75,-155.21 830.13,-143.43 843.16,-134.06"/>
<polygon fill="#63b8ff" stroke="#63b8ff" points="844.84,-136.44 850.92,-127.76 840.76,-130.76 844.84,-136.44"/>
</a>
</g>
</g>
<!-- Node3 -->
<g id="Node000003" class="node">
<title>Node3</title>
<g id="a_Node000003"><a xlink:title=" ">
<polygon fill="#e0e0e0" stroke="#999999" points="111.75,-18.5 65.75,-18.5 65.75,0 111.75,0 111.75,-18.5"/>
<text text-anchor="middle" x="88.75" y="-5" font-family="Helvetica,sans-Serif" font-size="10.00">errno.h</text>
</a>
</g>
</g>
<!-- Node2&#45;&gt;Node3 -->
<g id="edge2_Node000002_Node000003" class="edge">
<title>Node2&#45;&gt;Node3</title>
<g id="a_edge2_Node000002_Node000003"><a xlink:title=" ">
<path fill="none" stroke="#63b8ff" d="M753.8,-62.72C653.57,-62.12 368.11,-57.02 122.62,-18.48"/>
<polygon fill="#63b8ff" stroke="#63b8ff" points="123.49,-14.91 113.06,-16.8 122.39,-21.83 123.49,-14.91"/>
</a>
</g>
</g>
<!-- Node4 -->
<g id="Node000004" class="node">
<title>Node4</title>
<g id="a_Node000004"><a xlink:title=" ">
<polygon fill="#e0e0e0" stroke="#999999" points="181.38,-18.5 130.12,-18.5 130.12,0 181.38,0 181.38,-18.5"/>
<text text-anchor="middle" x="155.75" y="-5" font-family="Helvetica,sans-Serif" font-size="10.00">stdarg.h</text>
</a>
</g>
</g>
<!-- Node2&#45;&gt;Node4 -->
<g id="edge3_Node000002_Node000004" class="edge">
<title>Node2&#45;&gt;Node4</title>
<g id="a_edge3_Node000002_Node000004"><a xlink:title=" ">
<path fill="none" stroke="#63b8ff" d="M754,-62.06C661.34,-59.88 410.64,-51.32 192.35,-18.47"/>
<polygon fill="#63b8ff" stroke="#63b8ff" points="193.07,-14.89 182.65,-16.84 192.01,-21.81 193.07,-14.89"/>
</a>
</g>
</g>
<!-- Node5 -->
<g id="Node000005" class="node">
<title>Node5</title>
<g id="a_Node000005"><a xlink:title=" ">
<polygon fill="#e0e0e0" stroke="#999999" points="255.62,-18.5 199.88,-18.5 199.88,0 255.62,0 255.62,-18.5"/>
<text text-anchor="middle" x="227.75" y="-5" font-family="Helvetica,sans-Serif" font-size="10.00">stdbool.h</text>
</a>
</g>
</g>
<!-- Node2&#45;&gt;Node5 -->
<g id="edge4_Node000002_Node000005" class="edge">
<title>Node2&#45;&gt;Node5</title>
<g id="a_edge4_Node000002_Node000005"><a xlink:title=" ">
<path fill="none" stroke="#63b8ff" d="M753.88,-61.37C669.4,-57.83 455.21,-46.78 266.62,-18.57"/>
<polygon fill="#63b8ff" stroke="#63b8ff" points="267.37,-14.99 256.96,-16.95 266.32,-21.91 267.37,-14.99"/>
</a>
</g>
</g>
<!-- Node6 -->
<g id="Node000006" class="node">
<title>Node6</title>
<g id="a_Node000006"><a xlink:title=" ">
<polygon fill="#e0e0e0" stroke="#999999" points="47.5,-18.5 0,-18.5 0,0 47.5,0 47.5,-18.5"/>
<text text-anchor="middle" x="23.75" y="-5" font-family="Helvetica,sans-Serif" font-size="10.00">stdint.h</text>
</a>
</g>
</g>
<!-- Node2&#45;&gt;Node6 -->
<g id="edge5_Node000002_Node000006" class="edge">
<title>Node2&#45;&gt;Node6</title>
<g id="a_edge5_Node000002_Node000006"><a xlink:title=" ">
<path fill="none" stroke="#63b8ff" d="M753.84,-62.92C647.32,-62.92 330.23,-59.35 58.66,-18.47"/>
<polygon fill="#63b8ff" stroke="#63b8ff" points="59.21,-14.86 48.8,-16.81 58.15,-21.78 59.21,-14.86"/>
</a>
</g>
</g>
<!-- Node7 -->
<g id="Node000007" class="node">
<title>Node7</title>
<g id="a_Node000007"><a xlink:title=" ">
<polygon fill="#e0e0e0" stroke="#999999" points="332.12,-18.5 273.38,-18.5 273.38,0 332.12,0 332.12,-18.5"/>
<text text-anchor="middle" x="302.75" y="-5" font-family="Helvetica,sans-Serif" font-size="10.00">inttypes.h</text>
</a>
</g>
</g>
<!-- Node2&#45;&gt;Node7 -->
<g id="edge6_Node000002_Node000007" class="edge">
<title>Node2&#45;&gt;Node7</title>
<g id="a_edge6_Node000002_Node000007"><a xlink:title=" ">
<path fill="none" stroke="#63b8ff" d="M753.82,-60.57C678.45,-55.81 501.33,-43.04 343.41,-18.76"/>
<polygon fill="#63b8ff" stroke="#63b8ff" points="343.98,-15.15 333.56,-17.06 342.9,-22.06 343.98,-15.15"/>
</a>
</g>
</g>
<!-- Node8 -->
<g id="Node000008" class="node">
<title>Node8</title>
<g id="a_Node000008"><a xlink:title=" ">
<polygon fill="#e0e0e0" stroke="#999999" points="395.38,-18.5 350.12,-18.5 350.12,0 395.38,0 395.38,-18.5"/>
<text text-anchor="middle" x="372.75" y="-5" font-family="Helvetica,sans-Serif" font-size="10.00">stdio.h</text>
</a>
</g>
</g>
<!-- Node2&#45;&gt;Node8 -->
<g id="edge7_Node000002_Node000008" class="edge">
<title>Node2&#45;&gt;Node8</title>
<g id="a_edge7_Node000002_Node000008"><a xlink:title=" ">
<path fill="none" stroke="#63b8ff" d="M753.93,-60.34C686.65,-55.55 539.21,-43.27 406.44,-18.77"/>
<polygon fill="#63b8ff" stroke="#63b8ff" points="407.16,-15.16 396.69,-16.75 405.87,-22.04 407.16,-15.16"/>
</a>
</g>
</g>
<!-- Node9 -->
<g id="Node000009" class="node">
<title>Node9</title>
<g id="a_Node000009"><a xlink:title=" ">
<polygon fill="#e0e0e0" stroke="#999999" points="460.5,-18.5 413,-18.5 413,0 460.5,0 460.5,-18.5"/>
<text text-anchor="middle" x="436.75" y="-5" font-family="Helvetica,sans-Serif" font-size="10.00">stdlib.h</text>
</a>
</g>
</g>
<!-- Node2&#45;&gt;Node9 -->
<g id="edge8_Node000002_Node000009" class="edge">
<title>Node2&#45;&gt;Node9</title>
<g id="a_edge8_Node000002_Node000009"><a xlink:title=" ">
<path fill="none" stroke="#63b8ff" d="M753.95,-58.99C696,-52.77 579.74,-39.17 471.61,-18.66"/>
<polygon fill="#63b8ff" stroke="#63b8ff" points="472.31,-15.04 461.83,-16.59 470.99,-21.92 472.31,-15.04"/>
</a>
</g>
</g>
<!-- Node10 -->
<g id="Node000010" class="node">
<title>Node10</title>
<g id="a_Node000010"><a xlink:title=" ">
<polygon fill="#e0e0e0" stroke="#999999" points="526.88,-18.5 478.62,-18.5 478.62,0 526.88,0 526.88,-18.5"/>
<text text-anchor="middle" x="502.75" y="-5" font-family="Helvetica,sans-Serif" font-size="10.00">string.h</text>
</a>
</g>
</g>
<!-- Node2&#45;&gt;Node10 -->
<g id="edge9_Node000002_Node000010" class="edge">
<title>Node2&#45;&gt;Node10</title>
<g id="a_edge9_Node000002_Node000010"><a xlink:title=" ">
<path fill="none" stroke="#63b8ff" d="M753.85,-57.22C706.15,-49.87 620.31,-36.01 537.78,-18.8"/>
<polygon fill="#63b8ff" stroke="#63b8ff" points="538.72,-15.21 528.21,-16.58 537.28,-22.06 538.72,-15.21"/>
</a>
</g>
</g>
<!-- Node11 -->
<g id="Node000011" class="node">
<title>Node11</title>
<g id="a_Node000011"><a xlink:title=" ">
<polygon fill="#e0e0e0" stroke="#999999" points="602.38,-18.5 545.12,-18.5 545.12,0 602.38,0 602.38,-18.5"/>
<text text-anchor="middle" x="573.75" y="-5" font-family="Helvetica,sans-Serif" font-size="10.00">sys/stat.h</text>
</a>
</g>
</g>
<!-- Node2&#45;&gt;Node11 -->
<g id="edge10_Node000002_Node000011" class="edge">
<title>Node2&#45;&gt;Node11</title>
<g id="a_edge10_Node000002_Node000011"><a xlink:title=" ">
<path fill="none" stroke="#63b8ff" d="M754.92,-54.08C715.88,-44.64 653.62,-29.57 613.21,-19.8"/>
<polygon fill="#63b8ff" stroke="#63b8ff" points="614.23,-16.2 603.69,-17.25 612.58,-23 614.23,-16.2"/>
</a>
</g>
</g>
<!-- Node12 -->
<g id="Node000012" class="node">
<title>Node12</title>
<g id="a_Node000012"><a xlink:title=" ">
<polygon fill="#e0e0e0" stroke="#999999" points="685.5,-18.5 620,-18.5 620,0 685.5,0 685.5,-18.5"/>
<text text-anchor="middle" x="652.75" y="-5" font-family="Helvetica,sans-Serif" font-size="10.00">sys/types.h</text>
</a>
</g>
</g>
<!-- Node2&#45;&gt;Node12 -->
<g id="edge11_Node000002_Node000012" class="edge">
<title>Node2&#45;&gt;Node12</title>
<g id="a_edge11_Node000002_Node000012"><a xlink:title=" ">
<path fill="none" stroke="#63b8ff" d="M767.96,-54.08C745.59,-45.57 711.22,-32.49 685.84,-22.84"/>
<polygon fill="#63b8ff" stroke="#63b8ff" points="687.16,-19.22 676.57,-18.93 684.67,-25.76 687.16,-19.22"/>
</a>
</g>
</g>
<!-- Node13 -->
<g id="Node000013" class="node">
<title>Node13</title>
<g id="a_Node000013"><a xlink:title=" ">
<polygon fill="#e0e0e0" stroke="#999999" points="751.5,-18.5 704,-18.5 704,0 751.5,0 751.5,-18.5"/>
<text text-anchor="middle" x="727.75" y="-5" font-family="Helvetica,sans-Serif" font-size="10.00">limits.h</text>
</a>
</g>
</g>
<!-- Node2&#45;&gt;Node13 -->
<g id="edge12_Node000002_Node000013" class="edge">
<title>Node2&#45;&gt;Node13</title>
<g id="a_edge12_Node000002_Node000013"><a xlink:title=" ">
<path fill="none" stroke="#63b8ff" d="M780.35,-54.08C771.08,-46.36 757.31,-34.88 746.18,-25.61"/>
<polygon fill="#63b8ff" stroke="#63b8ff" points="748.88,-22.47 738.96,-18.76 744.4,-27.85 748.88,-22.47"/>
</a>
</g>
</g>
<!-- Node14 -->
<g id="Node000014" class="node">
<title>Node14</title>
<g id="a_Node000014"><a xlink:title=" ">
<polygon fill="#e0e0e0" stroke="#999999" points="812.25,-18.5 769.25,-18.5 769.25,0 812.25,0 812.25,-18.5"/>
<text text-anchor="middle" x="790.75" y="-5" font-family="Helvetica,sans-Serif" font-size="10.00">time.h</text>
</a>
</g>
</g>
<!-- Node2&#45;&gt;Node14 -->
<g id="edge13_Node000002_Node000014" class="edge">
<title>Node2&#45;&gt;Node14</title>
<g id="a_edge13_Node000002_Node000014"><a xlink:title=" ">
<path fill="none" stroke="#63b8ff" d="M790.75,-54.08C790.75,-47.43 790.75,-37.99 790.75,-29.58"/>
<polygon fill="#63b8ff" stroke="#63b8ff" points="794.25,-29.76 790.75,-19.76 787.25,-29.76 794.25,-29.76"/>
</a>
</g>
</g>
<!-- Node15 -->
<g id="Node000015" class="node">
<title>Node15</title>
<g id="a_Node000015"><a xlink:title=" ">
<polygon fill="#e0e0e0" stroke="#999999" points="875.38,-18.5 830.12,-18.5 830.12,0 875.38,0 875.38,-18.5"/>
<text text-anchor="middle" x="852.75" y="-5" font-family="Helvetica,sans-Serif" font-size="10.00">dlfcn.h</text>
</a>
</g>
</g>
<!-- Node2&#45;&gt;Node15 -->
<g id="edge14_Node000002_Node000015" class="edge">
<title>Node2&#45;&gt;Node15</title>
<g id="a_edge14_Node000002_Node000015"><a xlink:title=" ">
<path fill="none" stroke="#63b8ff" d="M800.99,-54.08C810.11,-46.36 823.66,-34.88 834.61,-25.61"/>
<polygon fill="#63b8ff" stroke="#63b8ff" points="836.33,-27.89 841.7,-18.76 831.81,-22.55 836.33,-27.89"/>
</a>
</g>
</g>
<!-- Node16 -->
<g id="Node000016" class="node">
<title>Node16</title>
<g id="a_Node000016"><a xlink:title=" ">
<polygon fill="#e0e0e0" stroke="#999999" points="950,-18.5 893.5,-18.5 893.5,0 950,0 950,-18.5"/>
<text text-anchor="middle" x="921.75" y="-5" font-family="Helvetica,sans-Serif" font-size="10.00">pthread.h</text>
</a>
</g>
</g>
<!-- Node2&#45;&gt;Node16 -->
<g id="edge15_Node000002_Node000016" class="edge">
<title>Node2&#45;&gt;Node16</title>
<g id="a_edge15_Node000002_Node000016"><a xlink:title=" ">
<path fill="none" stroke="#63b8ff" d="M812.38,-54.08C833.53,-45.61 865.96,-32.61 890.02,-22.97"/>
<polygon fill="#63b8ff" stroke="#63b8ff" points="891.11,-25.9 899.09,-18.93 888.5,-19.4 891.11,-25.9"/>
</a>
</g>
</g>
<!-- Node17 -->
<g id="Node000017" class="node">
<title>Node17</title>
<g id="a_Node000017"><a xlink:title=" ">
<polygon fill="#e0e0e0" stroke="#999999" points="1011.25,-18.5 968.25,-18.5 968.25,0 1011.25,0 1011.25,-18.5"/>
<text text-anchor="middle" x="989.75" y="-5" font-family="Helvetica,sans-Serif" font-size="10.00">fcntl.h</text>
</a>
</g>
</g>
<!-- Node2&#45;&gt;Node17 -->
<g id="edge16_Node000002_Node000017" class="edge">
<title>Node2&#45;&gt;Node17</title>
<g id="a_edge16_Node000002_Node000017"><a xlink:title=" ">
<path fill="none" stroke="#63b8ff" d="M823.91,-54.04C855.68,-45.69 905.26,-32.65 957.58,-18.81"/>
<polygon fill="#63b8ff" stroke="#63b8ff" points="958.3,-21.97 967.07,-16.03 956.51,-15.2 958.3,-21.97"/>
</a>
</g>
</g>
<!-- Node18 -->
<g id="Node000018" class="node">
<title>Node18</title>
<g id="a_Node000018"><a xlink:title=" ">
<polygon fill="#e0e0e0" stroke="#999999" points="1080,-18.5 1029.5,-18.5 1029.5,0 1080,0 1080,-18.5"/>
<text text-anchor="middle" x="1054.75" y="-5" font-family="Helvetica,sans-Serif" font-size="10.00">unistd.h</text>
</a>
</g>
</g>
<!-- Node2&#45;&gt;Node18 -->
<g id="edge17_Node000002_Node000018" class="edge">
<title>Node2&#45;&gt;Node18</title>
<g id="a_edge17_Node000002_Node000018"><a xlink:title=" ">
<path fill="none" stroke="#63b8ff" d="M827.32,-55.94C878.5,-46.36 969.91,-29.13 1018.6,-18.86"/>
<polygon fill="#63b8ff" stroke="#63b8ff" points="1019.12,-22.12 1028.16,-16.6 1017.65,-15.27 1019.12,-22.12"/>
</a>
</g>
</g>
<!-- Node19 -->
<g id="Node000019" class="node">
<title>Node19</title>
<g id="a_Node000019"><a xlink:title=" ">
<polygon fill="#e0e0e0" stroke="#999999" points="1169.12,-18.5 1098.38,-18.5 1098.38,0 1169.12,0 1169.12,-18.5"/>
<text text-anchor="middle" x="1133.75" y="-5" font-family="Helvetica,sans-Serif" font-size="10.00">sys/syscall.h</text>
</a>
</g>
</g>
<!-- Node2&#45;&gt;Node19 -->
<g id="edge18_Node000002_Node000019" class="edge">
<title>Node2&#45;&gt;Node19</title>
<g id="a_edge18_Node000002_Node000019"><a xlink:title=" ">
<path fill="none" stroke="#63b8ff" d="M827.39,-56.06C830.55,-55.52 833.71,-54.99 836.75,-54.5 945.07,-37.06 975.28,-36.71 1087.19,-18.69"/>
<polygon fill="#63b8ff" stroke="#63b8ff" points="1087.6,-22.01 1096.91,-16.95 1086.48,-15.1 1087.6,-22.01"/>
</a>
</g>
</g>
<!-- Node20 -->
<g id="Node000020" class="node">
<title>Node20</title>
<g id="a_Node000020"><a xlink:title=" ">
<polygon fill="#e0e0e0" stroke="#999999" points="1247.88,-18.5 1187.62,-18.5 1187.62,0 1247.88,0 1247.88,-18.5"/>
<text text-anchor="middle" x="1217.75" y="-5" font-family="Helvetica,sans-Serif" font-size="10.00">sys/time.h</text>
</a>
</g>
</g>
<!-- Node2&#45;&gt;Node20 -->
<g id="edge19_Node000002_Node000020" class="edge">
<title>Node2&#45;&gt;Node20</title>
<g id="a_edge19_Node000002_Node000020"><a xlink:title=" ">
<path fill="none" stroke="#63b8ff" d="M827.62,-55.9C830.7,-55.4 833.78,-54.92 836.75,-54.5 984.24,-33.52 1025.33,-41.54 1176.63,-18.5"/>
<polygon fill="#63b8ff" stroke="#63b8ff" points="1176.88,-21.85 1186.23,-16.87 1175.81,-14.93 1176.88,-21.85"/>
</a>
</g>
</g>
<!-- Node21 -->
<g id="Node000021" class="node">
<title>Node21</title>
<g id="a_Node000021"><a xlink:title=" ">
<polygon fill="#e0e0e0" stroke="#999999" points="1319.5,-18.5 1266,-18.5 1266,0 1319.5,0 1319.5,-18.5"/>
<text text-anchor="middle" x="1292.75" y="-5" font-family="Helvetica,sans-Serif" font-size="10.00">strings.h</text>
</a>
</g>
</g>
<!-- Node2&#45;&gt;Node21 -->
<g id="edge20_Node000002_Node000021" class="edge">
<title>Node2&#45;&gt;Node21</title>
<g id="a_edge20_Node000002_Node000021"><a xlink:title=" ">
<path fill="none" stroke="#63b8ff" d="M827.61,-55.83C830.7,-55.35 833.77,-54.89 836.75,-54.5 1019.04,-30.39 1069.78,-46.86 1255.05,-18.53"/>
<polygon fill="#63b8ff" stroke="#63b8ff" points="1255.36,-21.87 1264.7,-16.88 1254.28,-14.95 1255.36,-21.87"/>
</a>
</g>
</g>
<!-- Node22 -->
<g id="Node000022" class="node">
<title>Node22</title>
<g id="a_Node000022"><a xlink:title=" ">
<polygon fill="#e0e0e0" stroke="#999999" points="1394,-18.5 1337.5,-18.5 1337.5,0 1394,0 1394,-18.5"/>
<text text-anchor="middle" x="1365.75" y="-5" font-family="Helvetica,sans-Serif" font-size="10.00">termios.h</text>
</a>
</g>
</g>
<!-- Node2&#45;&gt;Node22 -->
<g id="edge21_Node000002_Node000022" class="edge">
<title>Node2&#45;&gt;Node22</title>
<g id="a_edge21_Node000002_Node000022"><a xlink:title=" ">
<path fill="none" stroke="#63b8ff" d="M827.61,-55.79C830.69,-55.31 833.77,-54.88 836.75,-54.5 1050.78,-27.55 1109.94,-49.7 1326.38,-18.63"/>
<polygon fill="#63b8ff" stroke="#63b8ff" points="1326.75,-21.97 1336.14,-17.06 1325.74,-15.04 1326.75,-21.97"/>
</a>
</g>
</g>
<!-- Node23 -->
<g id="Node000023" class="node">
<title>Node23</title>
<g id="a_Node000023"><a xlink:title=" ">
<polygon fill="#e0e0e0" stroke="#999999" points="1463,-18.5 1412.5,-18.5 1412.5,0 1463,0 1463,-18.5"/>
<text text-anchor="middle" x="1437.75" y="-5" font-family="Helvetica,sans-Serif" font-size="10.00">libgen.h</text>
</a>
</g>
</g>
<!-- Node2&#45;&gt;Node23 -->
<g id="edge22_Node000002_Node000023" class="edge">
<title>Node2&#45;&gt;Node23</title>
<g id="a_edge22_Node000002_Node000023"><a xlink:title=" ">
<path fill="none" stroke="#63b8ff" d="M827.6,-55.76C830.69,-55.29 833.77,-54.86 836.75,-54.5 1083.44,-24.63 1151.5,-54.67 1401.35,-18.39"/>
<polygon fill="#63b8ff" stroke="#63b8ff" points="1401.85,-21.71 1411.23,-16.79 1400.83,-14.78 1401.85,-21.71"/>
</a>
</g>
</g>
<!-- Node24 -->
<g id="Node000024" class="node">
<title>Node24</title>
<g id="a_Node000024"><a xlink:title=" ">
<polygon fill="#e0e0e0" stroke="#999999" points="1548.25,-18.5 1481.25,-18.5 1481.25,0 1548.25,0 1548.25,-18.5"/>
<text text-anchor="middle" x="1514.75" y="-5" font-family="Helvetica,sans-Serif" font-size="10.00">stdatomic.h</text>
</a>
</g>
</g>
<!-- Node2&#45;&gt;Node24 -->
<g id="edge23_Node000002_Node000024" class="edge">
<title>Node2&#45;&gt;Node24</title>
<g id="a_edge23_Node000002_Node000024"><a xlink:title=" ">
<path fill="none" stroke="#63b8ff" d="M827.6,-55.74C830.69,-55.27 833.77,-54.85 836.75,-54.5 1114.06,-21.89 1189.38,-52.44 1470.5,-18.45"/>
<polygon fill="#63b8ff" stroke="#63b8ff" points="1470.52,-21.85 1480.02,-17.16 1469.66,-14.9 1470.52,-21.85"/>
</a>
</g>
</g>
<!-- Node25 -->
<g id="Node000025" class="node">
<title>Node25</title>
<g id="a_Node000025"><a xlink:title=" ">
<polygon fill="#e0e0e0" stroke="#999999" points="1617.38,-18.5 1566.12,-18.5 1566.12,0 1617.38,0 1617.38,-18.5"/>
<text text-anchor="middle" x="1591.75" y="-5" font-family="Helvetica,sans-Serif" font-size="10.00">syslog.h</text>
</a>
</g>
</g>
<!-- Node2&#45;&gt;Node25 -->
<g id="edge24_Node000002_Node000025" class="edge">
<title>Node2&#45;&gt;Node25</title>
<g id="a_edge24_Node000002_Node000025"><a xlink:title=" ">
<path fill="none" stroke="#63b8ff" d="M827.6,-55.71C830.69,-55.25 833.77,-54.84 836.75,-54.5 1151.94,-18.52 1238.29,-63.5 1554.98,-18.63"/>
<polygon fill="#63b8ff" stroke="#63b8ff" points="1555.46,-21.95 1564.86,-17.06 1554.46,-15.02 1555.46,-21.95"/>
</a>
</g>
</g>
<!-- Node26 -->
<g id="Node000026" class="node">
<title>Node26</title>
<g id="a_Node000026"><a xlink:href="impl_8h_source.html" target="_top" xlink:title=" ">
<polygon fill="white" stroke="#666666" points="1691.62,-18.5 1635.88,-18.5 1635.88,0 1691.62,0 1691.62,-18.5"/>
<text text-anchor="middle" x="1663.75" y="-5" font-family="Helvetica,sans-Serif" font-size="10.00">sir/impl.h</text>
</a>
</g>
</g>
<!-- Node2&#45;&gt;Node26 -->
<g id="edge25_Node000002_Node000026" class="edge">
<title>Node2&#45;&gt;Node26</title>
<g id="a_edge25_Node000002_Node000026"><a xlink:title=" ">
<path fill="none" stroke="#63b8ff" d="M827.6,-55.7C830.68,-55.24 833.77,-54.83 836.75,-54.5 1182.55,-15.78 1276.48,-63.94 1624.91,-18.47"/>
<polygon fill="#63b8ff" stroke="#63b8ff" points="1625.1,-21.85 1634.56,-17.07 1624.19,-14.91 1625.1,-21.85"/>
</a>
</g>
</g>
<!-- Node27&#45;&gt;Node6 -->
<g id="edge27_Node000027_Node000006" class="edge">
<title>Node27&#45;&gt;Node6</title>
<g id="a_edge27_Node000027_Node000006"><a xlink:title=" ">
<path fill="none" stroke="#63b8ff" d="M691.67,-113.32C593.24,-102.02 306.08,-67.28 58.48,-18.67"/>
<polygon fill="#63b8ff" stroke="#63b8ff" points="59.33,-15.07 48.84,-16.56 57.97,-21.94 59.33,-15.07"/>
</a>
</g>
</g>
<!-- Node28&#45;&gt;Node2 -->
<g id="edge29_Node000028_Node000002" class="edge">
<title>Node28&#45;&gt;Node2</title>
<g id="a_edge29_Node000028_Node000002"><a xlink:title=" ">
<path fill="none" stroke="#63b8ff" d="M851.7,-108.58C840.75,-100.71 824.37,-88.93 811.34,-79.56"/>
<polygon fill="#63b8ff" stroke="#63b8ff" points="813.74,-76.26 803.58,-73.26 809.66,-81.94 813.74,-76.26"/>
</a>
</g>
</g>
<!-- Node29 -->
<g id="Node000029" class="node">
<title>Node29</title>
<g id="a_Node000029"><a xlink:href="config_8h.html" target="_top" xlink:title="Compile&#45;time configuration.">
<polygon fill="white" stroke="#666666" points="909.75,-73 845.75,-73 845.75,-54.5 909.75,-54.5 909.75,-73"/>
<text text-anchor="middle" x="877.75" y="-59.5" font-family="Helvetica,sans-Serif" font-size="10.00">sir/config.h</text>
</a>
</g>
</g>
<!-- Node28&#45;&gt;Node29 -->
<g id="edge30_Node000028_Node000029" class="edge">
<title>Node28&#45;&gt;Node29</title>
<g id="a_edge30_Node000028_Node000029"><a xlink:title=" ">
<path fill="none" stroke="#63b8ff" d="M866.06,-108.58C867.86,-101.85 870.41,-92.27 872.67,-83.79"/>
<polygon fill="#63b8ff" stroke="#63b8ff" points="876.29,-84.82 875.48,-74.26 869.52,-83.02 876.29,-84.82"/>
</a>
</g>
</g>
<!-- Node30 -->
<g id="Node000030" class="node">
<title>Node30</title>
<g id="a_Node000030"><a xlink:href="ansimacros_8h.html" target="_top" xlink:title="ANSI escape sequence macros.">
<polygon fill="white" stroke="#666666" points="1015.75,-73 927.75,-73 927.75,-54.5 1015.75,-54.5 1015.75,-73"/>
<text text-anchor="middle" x="971.75" y="-59.5" font-family="Helvetica,sans-Serif" font-size="10.00">sir/ansimacros.h</text>
</a>
</g>
</g>
<!-- Node28&#45;&gt;Node30 -->
<g id="edge31_Node000028_Node000030" class="edge">
<title>Node28&#45;&gt;Node30</title>
<g id="a_edge31_Node000028_Node000030"><a xlink:title=" ">
<path fill="none" stroke="#63b8ff" d="M881.58,-108.58C898.62,-100.3 924.56,-87.69 944.24,-78.12"/>
<polygon fill="#63b8ff" stroke="#63b8ff" points="945.43,-80.95 952.89,-73.43 942.37,-74.66 945.43,-80.95"/>
</a>
</g>
</g>
</g>
</svg>
