<?xml version="1.0" encoding="UTF-8" standalone="no"?>
<!DOCTYPE svg PUBLIC "-//W3C//DTD SVG 1.1//EN"
 "http://www.w3.org/Graphics/SVG/1.1/DTD/svg11.dtd">
<!-- Generated by graphviz version 8.1.0 (20230707.0739)
 -->
<!-- Title: include/sir.hh Pages: 1 -->
<svg width="1700pt" height="354pt"
 viewBox="0.00 0.00 1699.62 353.50" xmlns="http://www.w3.org/2000/svg" xmlns:xlink="http://www.w3.org/1999/xlink">
<g id="graph0" class="graph" transform="scale(1 1) rotate(0) translate(4 349.5)">
<title>include/sir.hh</title>
<!-- Node1 -->
<g id="Node000001" class="node">
<title>Node1</title>
<g id="a_Node000001"><a xlink:title="C++ interface to libsir.">
<polygon fill="#999999" stroke="#666666" points="1242.62,-345.5 1168.88,-345.5 1168.88,-327 1242.62,-327 1242.62,-345.5"/>
<text text-anchor="middle" x="1205.75" y="-332" font-family="Helvetica,sans-Serif" font-size="10.00">include/sir.hh</text>
</a>
</g>
</g>
<!-- Node2 -->
<g id="Node000002" class="node">
<title>Node2</title>
<g id="a_Node000002"><a xlink:href="sir_8h.html" target="_top" xlink:title="Public interface to libsir.">
<polygon fill="white" stroke="#666666" points="794.12,-182 759.38,-182 759.38,-163.5 794.12,-163.5 794.12,-182"/>
<text text-anchor="middle" x="776.75" y="-168.5" font-family="Helvetica,sans-Serif" font-size="10.00">sir.h</text>
</a>
</g>
</g>
<!-- Node1&#45;&gt;Node2 -->
<g id="edge1_Node000001_Node000002" class="edge">
<title>Node1&#45;&gt;Node2</title>
<g id="a_edge1_Node000001_Node000002"><a xlink:title=" ">
<path fill="none" stroke="#63b8ff" d="M1168.38,-334.21C1085.92,-331.37 891.17,-321.54 833.75,-291 805.51,-275.98 800.22,-265.51 786.75,-236.5 780.41,-222.85 777.99,-205.93 777.11,-193.1"/>
<polygon fill="#63b8ff" stroke="#63b8ff" points="780.57,-193.14 776.66,-183.3 773.58,-193.43 780.57,-193.14"/>
</a>
</g>
</g>
<!-- Node32 -->
<g id="Node000032" class="node">
<title>Node32</title>
<g id="a_Node000032"><a xlink:href="helpers_8h_source.html" target="_top" xlink:title=" ">
<polygon fill="white" stroke="#666666" points="865.75,-236.5 795.75,-236.5 795.75,-218 865.75,-218 865.75,-236.5"/>
<text text-anchor="middle" x="830.75" y="-223" font-family="Helvetica,sans-Serif" font-size="10.00">sir/helpers.h</text>
</a>
</g>
</g>
<!-- Node1&#45;&gt;Node32 -->
<g id="edge33_Node000001_Node000032" class="edge">
<title>Node1&#45;&gt;Node32</title>
<g id="a_edge33_Node000001_Node000032"><a xlink:title=" ">
<path fill="none" stroke="#63b8ff" d="M1168.63,-335.59C1087.4,-335.56 897.32,-331.08 849.75,-291 837.1,-280.34 832.69,-261.57 831.24,-247.32"/>
<polygon fill="#63b8ff" stroke="#63b8ff" points="834.7,-247.47 830.6,-237.7 827.71,-247.89 834.7,-247.47"/>
</a>
</g>
</g>
<!-- Node34 -->
<g id="Node000034" class="node">
<title>Node34</title>
<g id="a_Node000034"><a xlink:href="internal_8h_source.html" target="_top" xlink:title=" ">
<polygon fill="white" stroke="#666666" points="928.38,-291 859.12,-291 859.12,-272.5 928.38,-272.5 928.38,-291"/>
<text text-anchor="middle" x="893.75" y="-277.5" font-family="Helvetica,sans-Serif" font-size="10.00">sir/internal.h</text>
</a>
</g>
</g>
<!-- Node1&#45;&gt;Node34 -->
<g id="edge37_Node000001_Node000034" class="edge">
<title>Node1&#45;&gt;Node34</title>
<g id="a_edge37_Node000001_Node000034"><a xlink:title=" ">
<path fill="none" stroke="#63b8ff" d="M1168.42,-329.35C1118.62,-321.42 1027.43,-306.7 939.51,-291.28"/>
<polygon fill="#63b8ff" stroke="#63b8ff" points="940.26,-287.68 929.8,-289.39 939.04,-294.57 940.26,-287.68"/>
</a>
</g>
</g>
<!-- Node36 -->
<g id="Node000036" class="node">
<title>Node36</title>
<g id="a_Node000036"><a xlink:title=" ">
<polygon fill="#e0e0e0" stroke="#999999" points="1008.62,-291 946.88,-291 946.88,-272.5 1008.62,-272.5 1008.62,-291"/>
<text text-anchor="middle" x="977.75" y="-277.5" font-family="Helvetica,sans-Serif" font-size="10.00">type_traits</text>
</a>
</g>
</g>
<!-- Node1&#45;&gt;Node36 -->
<g id="edge42_Node000001_Node000036" class="edge">
<title>Node1&#45;&gt;Node36</title>
<g id="a_edge42_Node000001_Node000036"><a xlink:title=" ">
<path fill="none" stroke="#63b8ff" d="M1168.61,-326.7C1127.75,-317.29 1062.23,-302.2 1019.59,-292.38"/>
<polygon fill="#63b8ff" stroke="#63b8ff" points="1020.53,-288.78 1010,-289.95 1018.96,-295.6 1020.53,-288.78"/>
</a>
</g>
</g>
<!-- Node37 -->
<g id="Node000037" class="node">
<title>Node37</title>
<g id="a_Node000037"><a xlink:title=" ">
<polygon fill="#e0e0e0" stroke="#999999" points="1084.75,-291 1026.75,-291 1026.75,-272.5 1084.75,-272.5 1084.75,-291"/>
<text text-anchor="middle" x="1055.75" y="-277.5" font-family="Helvetica,sans-Serif" font-size="10.00">stdexcept</text>
</a>
</g>
</g>
<!-- Node1&#45;&gt;Node37 -->
<g id="edge43_Node000001_Node000037" class="edge">
<title>Node1&#45;&gt;Node37</title>
<g id="a_edge43_Node000001_Node000037"><a xlink:title=" ">
<path fill="none" stroke="#63b8ff" d="M1180.98,-326.58C1156.34,-317.96 1118.3,-304.64 1090.61,-294.95"/>
<polygon fill="#63b8ff" stroke="#63b8ff" points="1092.15,-291.43 1081.56,-291.43 1089.84,-298.04 1092.15,-291.43"/>
</a>
</g>
</g>
<!-- Node38 -->
<g id="Node000038" class="node">
<title>Node38</title>
<g id="a_Node000038"><a xlink:title=" ">
<polygon fill="#e0e0e0" stroke="#999999" points="1158.62,-291 1102.88,-291 1102.88,-272.5 1158.62,-272.5 1158.62,-291"/>
<text text-anchor="middle" x="1130.75" y="-277.5" font-family="Helvetica,sans-Serif" font-size="10.00">algorithm</text>
</a>
</g>
</g>
<!-- Node1&#45;&gt;Node38 -->
<g id="edge44_Node000001_Node000038" class="edge">
<title>Node1&#45;&gt;Node38</title>
<g id="a_edge44_Node000001_Node000038"><a xlink:title=" ">
<path fill="none" stroke="#63b8ff" d="M1193.37,-326.58C1182.18,-318.75 1165.49,-307.07 1152.15,-297.73"/>
<polygon fill="#63b8ff" stroke="#63b8ff" points="1154.35,-294.3 1144.15,-291.43 1150.34,-300.03 1154.35,-294.3"/>
</a>
</g>
</g>
<!-- Node39 -->
<g id="Node000039" class="node">
<title>Node39</title>
<g id="a_Node000039"><a xlink:title=" ">
<polygon fill="#e0e0e0" stroke="#999999" points="1234.38,-291 1177.12,-291 1177.12,-272.5 1234.38,-272.5 1234.38,-291"/>
<text text-anchor="middle" x="1205.75" y="-277.5" font-family="Helvetica,sans-Serif" font-size="10.00">exception</text>
</a>
</g>
</g>
<!-- Node1&#45;&gt;Node39 -->
<g id="edge45_Node000001_Node000039" class="edge">
<title>Node1&#45;&gt;Node39</title>
<g id="a_edge45_Node000001_Node000039"><a xlink:title=" ">
<path fill="none" stroke="#63b8ff" d="M1205.75,-326.58C1205.75,-319.93 1205.75,-310.49 1205.75,-302.08"/>
<polygon fill="#63b8ff" stroke="#63b8ff" points="1209.25,-302.26 1205.75,-292.26 1202.25,-302.26 1209.25,-302.26"/>
</a>
</g>
</g>
<!-- Node40 -->
<g id="Node000040" class="node">
<title>Node40</title>
<g id="a_Node000040"><a xlink:title=" ">
<polygon fill="#e0e0e0" stroke="#999999" points="1305.5,-291 1252,-291 1252,-272.5 1305.5,-272.5 1305.5,-291"/>
<text text-anchor="middle" x="1278.75" y="-277.5" font-family="Helvetica,sans-Serif" font-size="10.00">iostream</text>
</a>
</g>
</g>
<!-- Node1&#45;&gt;Node40 -->
<g id="edge46_Node000001_Node000040" class="edge">
<title>Node1&#45;&gt;Node40</title>
<g id="a_edge46_Node000001_Node000040"><a xlink:title=" ">
<path fill="none" stroke="#63b8ff" d="M1217.8,-326.58C1228.75,-318.71 1245.13,-306.93 1258.16,-297.56"/>
<polygon fill="#63b8ff" stroke="#63b8ff" points="1259.84,-299.94 1265.92,-291.26 1255.76,-294.26 1259.84,-299.94"/>
</a>
</g>
</g>
<!-- Node41 -->
<g id="Node000041" class="node">
<title>Node41</title>
<g id="a_Node000041"><a xlink:title=" ">
<polygon fill="#e0e0e0" stroke="#999999" points="1368.38,-291 1323.12,-291 1323.12,-272.5 1368.38,-272.5 1368.38,-291"/>
<text text-anchor="middle" x="1345.75" y="-277.5" font-family="Helvetica,sans-Serif" font-size="10.00">cstring</text>
</a>
</g>
</g>
<!-- Node1&#45;&gt;Node41 -->
<g id="edge47_Node000001_Node000041" class="edge">
<title>Node1&#45;&gt;Node41</title>
<g id="a_edge47_Node000001_Node000041"><a xlink:title=" ">
<path fill="none" stroke="#63b8ff" d="M1228.87,-326.58C1251.8,-317.98 1287.17,-304.72 1312.99,-295.04"/>
<polygon fill="#63b8ff" stroke="#63b8ff" points="1313.93,-298.05 1322.06,-291.26 1311.47,-291.49 1313.93,-298.05"/>
</a>
</g>
</g>
<!-- Node42 -->
<g id="Node000042" class="node">
<title>Node42</title>
<g id="a_Node000042"><a xlink:title=" ">
<polygon fill="#e0e0e0" stroke="#999999" points="1438.75,-291 1386.75,-291 1386.75,-272.5 1438.75,-272.5 1438.75,-291"/>
<text text-anchor="middle" x="1412.75" y="-277.5" font-family="Helvetica,sans-Serif" font-size="10.00">memory</text>
</a>
</g>
</g>
<!-- Node1&#45;&gt;Node42 -->
<g id="edge48_Node000001_Node000042" class="edge">
<title>Node1&#45;&gt;Node42</title>
<g id="a_edge48_Node000001_Node000042"><a xlink:title=" ">
<path fill="none" stroke="#63b8ff" d="M1239.93,-326.58C1277.51,-317.05 1337.65,-301.8 1376.16,-292.03"/>
<polygon fill="#63b8ff" stroke="#63b8ff" points="1376.58,-295.28 1385.41,-289.43 1374.85,-288.5 1376.58,-295.28"/>
</a>
</g>
</g>
<!-- Node43 -->
<g id="Node000043" class="node">
<title>Node43</title>
<g id="a_Node000043"><a xlink:title=" ">
<polygon fill="#e0e0e0" stroke="#999999" points="1494.25,-291 1457.25,-291 1457.25,-272.5 1494.25,-272.5 1494.25,-291"/>
<text text-anchor="middle" x="1475.75" y="-277.5" font-family="Helvetica,sans-Serif" font-size="10.00">tuple</text>
</a>
</g>
</g>
<!-- Node1&#45;&gt;Node43 -->
<g id="edge49_Node000001_Node000043" class="edge">
<title>Node1&#45;&gt;Node43</title>
<g id="a_edge49_Node000001_Node000043"><a xlink:title=" ">
<path fill="none" stroke="#63b8ff" d="M1242.9,-329.71C1288.57,-322.62 1368.61,-309.32 1446.39,-291.1"/>
<polygon fill="#63b8ff" stroke="#63b8ff" points="1446.92,-294.33 1455.85,-288.61 1445.31,-287.52 1446.92,-294.33"/>
</a>
</g>
</g>
<!-- Node44 -->
<g id="Node000044" class="node">
<title>Node44</title>
<g id="a_Node000044"><a xlink:title=" ">
<polygon fill="#e0e0e0" stroke="#999999" points="1552.75,-291 1512.75,-291 1512.75,-272.5 1552.75,-272.5 1552.75,-291"/>
<text text-anchor="middle" x="1532.75" y="-277.5" font-family="Helvetica,sans-Serif" font-size="10.00">string</text>
</a>
</g>
</g>
<!-- Node1&#45;&gt;Node44 -->
<g id="edge50_Node000001_Node000044" class="edge">
<title>Node1&#45;&gt;Node44</title>
<g id="a_edge50_Node000001_Node000044"><a xlink:title=" ">
<path fill="none" stroke="#63b8ff" d="M1242.73,-331.32C1297.4,-325.18 1403.15,-312 1502.08,-291.1"/>
<polygon fill="#63b8ff" stroke="#63b8ff" points="1502.51,-294.38 1511.55,-288.86 1501.04,-287.53 1502.51,-294.38"/>
</a>
</g>
</g>
<!-- Node45 -->
<g id="Node000045" class="node">
<title>Node45</title>
<g id="a_Node000045"><a xlink:title=" ">
<polygon fill="#e0e0e0" stroke="#999999" points="1608.62,-291 1570.88,-291 1570.88,-272.5 1608.62,-272.5 1608.62,-291"/>
<text text-anchor="middle" x="1589.75" y="-277.5" font-family="Helvetica,sans-Serif" font-size="10.00">array</text>
</a>
</g>
</g>
<!-- Node1&#45;&gt;Node45 -->
<g id="edge51_Node000001_Node000045" class="edge">
<title>Node1&#45;&gt;Node45</title>
<g id="a_edge51_Node000001_Node000045"><a xlink:title=" ">
<path fill="none" stroke="#63b8ff" d="M1242.98,-332.63C1306.28,-327.74 1439.01,-315.62 1560.03,-291.03"/>
<polygon fill="#63b8ff" stroke="#63b8ff" points="1560.49,-294.3 1569.57,-288.85 1559.07,-287.45 1560.49,-294.3"/>
</a>
</g>
</g>
<!-- Node3 -->
<g id="Node000003" class="node">
<title>Node3</title>
<g id="a_Node000003"><a xlink:href="platform_8h_source.html" target="_top" xlink:title=" ">
<polygon fill="white" stroke="#666666" points="827.25,-73 754.25,-73 754.25,-54.5 827.25,-54.5 827.25,-73"/>
<text text-anchor="middle" x="790.75" y="-59.5" font-family="Helvetica,sans-Serif" font-size="10.00">sir/platform.h</text>
</a>
</g>
</g>
<!-- Node2&#45;&gt;Node3 -->
<g id="edge2_Node000002_Node000003" class="edge">
<title>Node2&#45;&gt;Node3</title>
<g id="a_edge2_Node000002_Node000003"><a xlink:title=" ">
<path fill="none" stroke="#63b8ff" d="M777.85,-163.35C780.07,-146.4 785.13,-107.71 788.21,-84.15"/>
<polygon fill="#63b8ff" stroke="#63b8ff" points="791.79,-84.77 789.62,-74.4 784.85,-83.87 791.79,-84.77"/>
</a>
</g>
</g>
<!-- Node28 -->
<g id="Node000028" class="node">
<title>Node28</title>
<g id="a_Node000028"><a xlink:href="version_8h_source.html" target="_top" xlink:title=" ">
<polygon fill="white" stroke="#666666" points="761.38,-127.5 692.12,-127.5 692.12,-109 761.38,-109 761.38,-127.5"/>
<text text-anchor="middle" x="726.75" y="-114" font-family="Helvetica,sans-Serif" font-size="10.00">sir/version.h</text>
</a>
</g>
</g>
<!-- Node2&#45;&gt;Node28 -->
<g id="edge27_Node000002_Node000028" class="edge">
<title>Node2&#45;&gt;Node28</title>
<g id="a_edge27_Node000002_Node000028"><a xlink:title=" ">
<path fill="none" stroke="#63b8ff" d="M768.49,-163.08C761.43,-155.67 751.07,-144.78 742.44,-135.72"/>
<polygon fill="#63b8ff" stroke="#63b8ff" points="745.28,-133.59 735.85,-128.76 740.21,-138.41 745.28,-133.59"/>
</a>
</g>
</g>
<!-- Node29 -->
<g id="Node000029" class="node">
<title>Node29</title>
<g id="a_Node000029"><a xlink:href="types_8h_source.html" target="_top" xlink:title=" ">
<polygon fill="white" stroke="#666666" points="908.62,-127.5 846.88,-127.5 846.88,-109 908.62,-109 908.62,-127.5"/>
<text text-anchor="middle" x="877.75" y="-114" font-family="Helvetica,sans-Serif" font-size="10.00">sir/types.h</text>
</a>
</g>
</g>
<!-- Node2&#45;&gt;Node29 -->
<g id="edge29_Node000002_Node000029" class="edge">
<title>Node2&#45;&gt;Node29</title>
<g id="a_edge29_Node000002_Node000029"><a xlink:title=" ">
<path fill="none" stroke="#63b8ff" d="M793.43,-163.08C809.22,-154.87 833.17,-142.42 851.52,-132.89"/>
<polygon fill="#63b8ff" stroke="#63b8ff" points="852.79,-135.65 860.05,-127.93 849.56,-129.44 852.79,-135.65"/>
</a>
</g>
</g>
<!-- Node4 -->
<g id="Node000004" class="node">
<title>Node4</title>
<g id="a_Node000004"><a xlink:title=" ">
<polygon fill="#e0e0e0" stroke="#999999" points="111.75,-18.5 65.75,-18.5 65.75,0 111.75,0 111.75,-18.5"/>
<text text-anchor="middle" x="88.75" y="-5" font-family="Helvetica,sans-Serif" font-size="10.00">errno.h</text>
</a>
</g>
</g>
<!-- Node3&#45;&gt;Node4 -->
<g id="edge3_Node000003_Node000004" class="edge">
<title>Node3&#45;&gt;Node4</title>
<g id="a_edge3_Node000003_Node000004"><a xlink:title=" ">
<path fill="none" stroke="#63b8ff" d="M753.8,-62.72C653.57,-62.12 368.11,-57.02 122.62,-18.48"/>
<polygon fill="#63b8ff" stroke="#63b8ff" points="123.49,-14.91 113.06,-16.8 122.39,-21.83 123.49,-14.91"/>
</a>
</g>
</g>
<!-- Node5 -->
<g id="Node000005" class="node">
<title>Node5</title>
<g id="a_Node000005"><a xlink:title=" ">
<polygon fill="#e0e0e0" stroke="#999999" points="181.38,-18.5 130.12,-18.5 130.12,0 181.38,0 181.38,-18.5"/>
<text text-anchor="middle" x="155.75" y="-5" font-family="Helvetica,sans-Serif" font-size="10.00">stdarg.h</text>
</a>
</g>
</g>
<!-- Node3&#45;&gt;Node5 -->
<g id="edge4_Node000003_Node000005" class="edge">
<title>Node3&#45;&gt;Node5</title>
<g id="a_edge4_Node000003_Node000005"><a xlink:title=" ">
<path fill="none" stroke="#63b8ff" d="M754,-62.06C661.34,-59.88 410.64,-51.32 192.35,-18.47"/>
<polygon fill="#63b8ff" stroke="#63b8ff" points="193.07,-14.89 182.65,-16.84 192.01,-21.81 193.07,-14.89"/>
</a>
</g>
</g>
<!-- Node6 -->
<g id="Node000006" class="node">
<title>Node6</title>
<g id="a_Node000006"><a xlink:title=" ">
<polygon fill="#e0e0e0" stroke="#999999" points="255.62,-18.5 199.88,-18.5 199.88,0 255.62,0 255.62,-18.5"/>
<text text-anchor="middle" x="227.75" y="-5" font-family="Helvetica,sans-Serif" font-size="10.00">stdbool.h</text>
</a>
</g>
</g>
<!-- Node3&#45;&gt;Node6 -->
<g id="edge5_Node000003_Node000006" class="edge">
<title>Node3&#45;&gt;Node6</title>
<g id="a_edge5_Node000003_Node000006"><a xlink:title=" ">
<path fill="none" stroke="#63b8ff" d="M753.88,-61.37C669.4,-57.83 455.21,-46.78 266.62,-18.57"/>
<polygon fill="#63b8ff" stroke="#63b8ff" points="267.37,-14.99 256.96,-16.95 266.32,-21.91 267.37,-14.99"/>
</a>
</g>
</g>
<!-- Node7 -->
<g id="Node000007" class="node">
<title>Node7</title>
<g id="a_Node000007"><a xlink:title=" ">
<polygon fill="#e0e0e0" stroke="#999999" points="47.5,-18.5 0,-18.5 0,0 47.5,0 47.5,-18.5"/>
<text text-anchor="middle" x="23.75" y="-5" font-family="Helvetica,sans-Serif" font-size="10.00">stdint.h</text>
</a>
</g>
</g>
<!-- Node3&#45;&gt;Node7 -->
<g id="edge6_Node000003_Node000007" class="edge">
<title>Node3&#45;&gt;Node7</title>
<g id="a_edge6_Node000003_Node000007"><a xlink:title=" ">
<path fill="none" stroke="#63b8ff" d="M753.84,-62.92C647.32,-62.92 330.23,-59.35 58.66,-18.47"/>
<polygon fill="#63b8ff" stroke="#63b8ff" points="59.21,-14.86 48.8,-16.81 58.15,-21.78 59.21,-14.86"/>
</a>
</g>
</g>
<!-- Node8 -->
<g id="Node000008" class="node">
<title>Node8</title>
<g id="a_Node000008"><a xlink:title=" ">
<polygon fill="#e0e0e0" stroke="#999999" points="332.12,-18.5 273.38,-18.5 273.38,0 332.12,0 332.12,-18.5"/>
<text text-anchor="middle" x="302.75" y="-5" font-family="Helvetica,sans-Serif" font-size="10.00">inttypes.h</text>
</a>
</g>
</g>
<!-- Node3&#45;&gt;Node8 -->
<g id="edge7_Node000003_Node000008" class="edge">
<title>Node3&#45;&gt;Node8</title>
<g id="a_edge7_Node000003_Node000008"><a xlink:title=" ">
<path fill="none" stroke="#63b8ff" d="M753.82,-60.57C678.45,-55.81 501.33,-43.04 343.41,-18.76"/>
<polygon fill="#63b8ff" stroke="#63b8ff" points="343.98,-15.15 333.56,-17.06 342.9,-22.06 343.98,-15.15"/>
</a>
</g>
</g>
<!-- Node9 -->
<g id="Node000009" class="node">
<title>Node9</title>
<g id="a_Node000009"><a xlink:title=" ">
<polygon fill="#e0e0e0" stroke="#999999" points="395.38,-18.5 350.12,-18.5 350.12,0 395.38,0 395.38,-18.5"/>
<text text-anchor="middle" x="372.75" y="-5" font-family="Helvetica,sans-Serif" font-size="10.00">stdio.h</text>
</a>
</g>
</g>
<!-- Node3&#45;&gt;Node9 -->
<g id="edge8_Node000003_Node000009" class="edge">
<title>Node3&#45;&gt;Node9</title>
<g id="a_edge8_Node000003_Node000009"><a xlink:title=" ">
<path fill="none" stroke="#63b8ff" d="M753.93,-60.34C686.65,-55.55 539.21,-43.27 406.44,-18.77"/>
<polygon fill="#63b8ff" stroke="#63b8ff" points="407.16,-15.16 396.69,-16.75 405.87,-22.04 407.16,-15.16"/>
</a>
</g>
</g>
<!-- Node10 -->
<g id="Node000010" class="node">
<title>Node10</title>
<g id="a_Node000010"><a xlink:title=" ">
<polygon fill="#e0e0e0" stroke="#999999" points="460.5,-18.5 413,-18.5 413,0 460.5,0 460.5,-18.5"/>
<text text-anchor="middle" x="436.75" y="-5" font-family="Helvetica,sans-Serif" font-size="10.00">stdlib.h</text>
</a>
</g>
</g>
<!-- Node3&#45;&gt;Node10 -->
<g id="edge9_Node000003_Node000010" class="edge">
<title>Node3&#45;&gt;Node10</title>
<g id="a_edge9_Node000003_Node000010"><a xlink:title=" ">
<path fill="none" stroke="#63b8ff" d="M753.95,-58.99C696,-52.77 579.74,-39.17 471.61,-18.66"/>
<polygon fill="#63b8ff" stroke="#63b8ff" points="472.31,-15.04 461.83,-16.59 470.99,-21.92 472.31,-15.04"/>
</a>
</g>
</g>
<!-- Node11 -->
<g id="Node000011" class="node">
<title>Node11</title>
<g id="a_Node000011"><a xlink:title=" ">
<polygon fill="#e0e0e0" stroke="#999999" points="526.88,-18.5 478.62,-18.5 478.62,0 526.88,0 526.88,-18.5"/>
<text text-anchor="middle" x="502.75" y="-5" font-family="Helvetica,sans-Serif" font-size="10.00">string.h</text>
</a>
</g>
</g>
<!-- Node3&#45;&gt;Node11 -->
<g id="edge10_Node000003_Node000011" class="edge">
<title>Node3&#45;&gt;Node11</title>
<g id="a_edge10_Node000003_Node000011"><a xlink:title=" ">
<path fill="none" stroke="#63b8ff" d="M753.85,-57.22C706.15,-49.87 620.31,-36.01 537.78,-18.8"/>
<polygon fill="#63b8ff" stroke="#63b8ff" points="538.72,-15.21 528.21,-16.58 537.28,-22.06 538.72,-15.21"/>
</a>
</g>
</g>
<!-- Node12 -->
<g id="Node000012" class="node">
<title>Node12</title>
<g id="a_Node000012"><a xlink:title=" ">
<polygon fill="#e0e0e0" stroke="#999999" points="602.38,-18.5 545.12,-18.5 545.12,0 602.38,0 602.38,-18.5"/>
<text text-anchor="middle" x="573.75" y="-5" font-family="Helvetica,sans-Serif" font-size="10.00">sys/stat.h</text>
</a>
</g>
</g>
<!-- Node3&#45;&gt;Node12 -->
<g id="edge11_Node000003_Node000012" class="edge">
<title>Node3&#45;&gt;Node12</title>
<g id="a_edge11_Node000003_Node000012"><a xlink:title=" ">
<path fill="none" stroke="#63b8ff" d="M754.92,-54.08C715.88,-44.64 653.62,-29.57 613.21,-19.8"/>
<polygon fill="#63b8ff" stroke="#63b8ff" points="614.23,-16.2 603.69,-17.25 612.58,-23 614.23,-16.2"/>
</a>
</g>
</g>
<!-- Node13 -->
<g id="Node000013" class="node">
<title>Node13</title>
<g id="a_Node000013"><a xlink:title=" ">
<polygon fill="#e0e0e0" stroke="#999999" points="685.5,-18.5 620,-18.5 620,0 685.5,0 685.5,-18.5"/>
<text text-anchor="middle" x="652.75" y="-5" font-family="Helvetica,sans-Serif" font-size="10.00">sys/types.h</text>
</a>
</g>
</g>
<!-- Node3&#45;&gt;Node13 -->
<g id="edge12_Node000003_Node000013" class="edge">
<title>Node3&#45;&gt;Node13</title>
<g id="a_edge12_Node000003_Node000013"><a xlink:title=" ">
<path fill="none" stroke="#63b8ff" d="M767.96,-54.08C745.59,-45.57 711.22,-32.49 685.84,-22.84"/>
<polygon fill="#63b8ff" stroke="#63b8ff" points="687.16,-19.22 676.57,-18.93 684.67,-25.76 687.16,-19.22"/>
</a>
</g>
</g>
<!-- Node14 -->
<g id="Node000014" class="node">
<title>Node14</title>
<g id="a_Node000014"><a xlink:title=" ">
<polygon fill="#e0e0e0" stroke="#999999" points="751.5,-18.5 704,-18.5 704,0 751.5,0 751.5,-18.5"/>
<text text-anchor="middle" x="727.75" y="-5" font-family="Helvetica,sans-Serif" font-size="10.00">limits.h</text>
</a>
</g>
</g>
<!-- Node3&#45;&gt;Node14 -->
<g id="edge13_Node000003_Node000014" class="edge">
<title>Node3&#45;&gt;Node14</title>
<g id="a_edge13_Node000003_Node000014"><a xlink:title=" ">
<path fill="none" stroke="#63b8ff" d="M780.35,-54.08C771.08,-46.36 757.31,-34.88 746.18,-25.61"/>
<polygon fill="#63b8ff" stroke="#63b8ff" points="748.88,-22.47 738.96,-18.76 744.4,-27.85 748.88,-22.47"/>
</a>
</g>
</g>
<!-- Node15 -->
<g id="Node000015" class="node">
<title>Node15</title>
<g id="a_Node000015"><a xlink:title=" ">
<polygon fill="#e0e0e0" stroke="#999999" points="812.25,-18.5 769.25,-18.5 769.25,0 812.25,0 812.25,-18.5"/>
<text text-anchor="middle" x="790.75" y="-5" font-family="Helvetica,sans-Serif" font-size="10.00">time.h</text>
</a>
</g>
</g>
<!-- Node3&#45;&gt;Node15 -->
<g id="edge14_Node000003_Node000015" class="edge">
<title>Node3&#45;&gt;Node15</title>
<g id="a_edge14_Node000003_Node000015"><a xlink:title=" ">
<path fill="none" stroke="#63b8ff" d="M790.75,-54.08C790.75,-47.43 790.75,-37.99 790.75,-29.58"/>
<polygon fill="#63b8ff" stroke="#63b8ff" points="794.25,-29.76 790.75,-19.76 787.25,-29.76 794.25,-29.76"/>
</a>
</g>
</g>
<!-- Node16 -->
<g id="Node000016" class="node">
<title>Node16</title>
<g id="a_Node000016"><a xlink:title=" ">
<polygon fill="#e0e0e0" stroke="#999999" points="875.38,-18.5 830.12,-18.5 830.12,0 875.38,0 875.38,-18.5"/>
<text text-anchor="middle" x="852.75" y="-5" font-family="Helvetica,sans-Serif" font-size="10.00">dlfcn.h</text>
</a>
</g>
</g>
<!-- Node3&#45;&gt;Node16 -->
<g id="edge15_Node000003_Node000016" class="edge">
<title>Node3&#45;&gt;Node16</title>
<g id="a_edge15_Node000003_Node000016"><a xlink:title=" ">
<path fill="none" stroke="#63b8ff" d="M800.99,-54.08C810.11,-46.36 823.66,-34.88 834.61,-25.61"/>
<polygon fill="#63b8ff" stroke="#63b8ff" points="836.33,-27.89 841.7,-18.76 831.81,-22.55 836.33,-27.89"/>
</a>
</g>
</g>
<!-- Node17 -->
<g id="Node000017" class="node">
<title>Node17</title>
<g id="a_Node000017"><a xlink:title=" ">
<polygon fill="#e0e0e0" stroke="#999999" points="950,-18.5 893.5,-18.5 893.5,0 950,0 950,-18.5"/>
<text text-anchor="middle" x="921.75" y="-5" font-family="Helvetica,sans-Serif" font-size="10.00">pthread.h</text>
</a>
</g>
</g>
<!-- Node3&#45;&gt;Node17 -->
<g id="edge16_Node000003_Node000017" class="edge">
<title>Node3&#45;&gt;Node17</title>
<g id="a_edge16_Node000003_Node000017"><a xlink:title=" ">
<path fill="none" stroke="#63b8ff" d="M812.38,-54.08C833.53,-45.61 865.96,-32.61 890.02,-22.97"/>
<polygon fill="#63b8ff" stroke="#63b8ff" points="891.11,-25.9 899.09,-18.93 888.5,-19.4 891.11,-25.9"/>
</a>
</g>
</g>
<!-- Node18 -->
<g id="Node000018" class="node">
<title>Node18</title>
<g id="a_Node000018"><a xlink:title=" ">
<polygon fill="#e0e0e0" stroke="#999999" points="1011.25,-18.5 968.25,-18.5 968.25,0 1011.25,0 1011.25,-18.5"/>
<text text-anchor="middle" x="989.75" y="-5" font-family="Helvetica,sans-Serif" font-size="10.00">fcntl.h</text>
</a>
</g>
</g>
<!-- Node3&#45;&gt;Node18 -->
<g id="edge17_Node000003_Node000018" class="edge">
<title>Node3&#45;&gt;Node18</title>
<g id="a_edge17_Node000003_Node000018"><a xlink:title=" ">
<path fill="none" stroke="#63b8ff" d="M823.91,-54.04C855.68,-45.69 905.26,-32.65 957.58,-18.81"/>
<polygon fill="#63b8ff" stroke="#63b8ff" points="958.3,-21.97 967.07,-16.03 956.51,-15.2 958.3,-21.97"/>
</a>
</g>
</g>
<!-- Node19 -->
<g id="Node000019" class="node">
<title>Node19</title>
<g id="a_Node000019"><a xlink:title=" ">
<polygon fill="#e0e0e0" stroke="#999999" points="1080,-18.5 1029.5,-18.5 1029.5,0 1080,0 1080,-18.5"/>
<text text-anchor="middle" x="1054.75" y="-5" font-family="Helvetica,sans-Serif" font-size="10.00">unistd.h</text>
</a>
</g>
</g>
<!-- Node3&#45;&gt;Node19 -->
<g id="edge18_Node000003_Node000019" class="edge">
<title>Node3&#45;&gt;Node19</title>
<g id="a_edge18_Node000003_Node000019"><a xlink:title=" ">
<path fill="none" stroke="#63b8ff" d="M827.32,-55.94C878.5,-46.36 969.91,-29.13 1018.6,-18.86"/>
<polygon fill="#63b8ff" stroke="#63b8ff" points="1019.12,-22.12 1028.16,-16.6 1017.65,-15.27 1019.12,-22.12"/>
</a>
</g>
</g>
<!-- Node20 -->
<g id="Node000020" class="node">
<title>Node20</title>
<g id="a_Node000020"><a xlink:title=" ">
<polygon fill="#e0e0e0" stroke="#999999" points="1169.12,-18.5 1098.38,-18.5 1098.38,0 1169.12,0 1169.12,-18.5"/>
<text text-anchor="middle" x="1133.75" y="-5" font-family="Helvetica,sans-Serif" font-size="10.00">sys/syscall.h</text>
</a>
</g>
</g>
<!-- Node3&#45;&gt;Node20 -->
<g id="edge19_Node000003_Node000020" class="edge">
<title>Node3&#45;&gt;Node20</title>
<g id="a_edge19_Node000003_Node000020"><a xlink:title=" ">
<path fill="none" stroke="#63b8ff" d="M827.39,-56.06C830.55,-55.52 833.71,-54.99 836.75,-54.5 945.07,-37.06 975.28,-36.71 1087.19,-18.69"/>
<polygon fill="#63b8ff" stroke="#63b8ff" points="1087.6,-22.01 1096.91,-16.95 1086.48,-15.1 1087.6,-22.01"/>
</a>
</g>
</g>
<!-- Node21 -->
<g id="Node000021" class="node">
<title>Node21</title>
<g id="a_Node000021"><a xlink:title=" ">
<polygon fill="#e0e0e0" stroke="#999999" points="1247.88,-18.5 1187.62,-18.5 1187.62,0 1247.88,0 1247.88,-18.5"/>
<text text-anchor="middle" x="1217.75" y="-5" font-family="Helvetica,sans-Serif" font-size="10.00">sys/time.h</text>
</a>
</g>
</g>
<!-- Node3&#45;&gt;Node21 -->
<g id="edge20_Node000003_Node000021" class="edge">
<title>Node3&#45;&gt;Node21</title>
<g id="a_edge20_Node000003_Node000021"><a xlink:title=" ">
<path fill="none" stroke="#63b8ff" d="M827.62,-55.9C830.7,-55.4 833.78,-54.92 836.75,-54.5 984.24,-33.52 1025.33,-41.54 1176.63,-18.5"/>
<polygon fill="#63b8ff" stroke="#63b8ff" points="1176.88,-21.85 1186.23,-16.87 1175.81,-14.93 1176.88,-21.85"/>
</a>
</g>
</g>
<!-- Node22 -->
<g id="Node000022" class="node">
<title>Node22</title>
<g id="a_Node000022"><a xlink:title=" ">
<polygon fill="#e0e0e0" stroke="#999999" points="1319.5,-18.5 1266,-18.5 1266,0 1319.5,0 1319.5,-18.5"/>
<text text-anchor="middle" x="1292.75" y="-5" font-family="Helvetica,sans-Serif" font-size="10.00">strings.h</text>
</a>
</g>
</g>
<!-- Node3&#45;&gt;Node22 -->
<g id="edge21_Node000003_Node000022" class="edge">
<title>Node3&#45;&gt;Node22</title>
<g id="a_edge21_Node000003_Node000022"><a xlink:title=" ">
<path fill="none" stroke="#63b8ff" d="M827.61,-55.83C830.7,-55.35 833.77,-54.89 836.75,-54.5 1019.04,-30.39 1069.78,-46.86 1255.05,-18.53"/>
<polygon fill="#63b8ff" stroke="#63b8ff" points="1255.36,-21.87 1264.7,-16.88 1254.28,-14.95 1255.36,-21.87"/>
</a>
</g>
</g>
<!-- Node23 -->
<g id="Node000023" class="node">
<title>Node23</title>
<g id="a_Node000023"><a xlink:title=" ">
<polygon fill="#e0e0e0" stroke="#999999" points="1394,-18.5 1337.5,-18.5 1337.5,0 1394,0 1394,-18.5"/>
<text text-anchor="middle" x="1365.75" y="-5" font-family="Helvetica,sans-Serif" font-size="10.00">termios.h</text>
</a>
</g>
</g>
<!-- Node3&#45;&gt;Node23 -->
<g id="edge22_Node000003_Node000023" class="edge">
<title>Node3&#45;&gt;Node23</title>
<g id="a_edge22_Node000003_Node000023"><a xlink:title=" ">
<path fill="none" stroke="#63b8ff" d="M827.61,-55.79C830.69,-55.31 833.77,-54.88 836.75,-54.5 1050.78,-27.55 1109.94,-49.7 1326.38,-18.63"/>
<polygon fill="#63b8ff" stroke="#63b8ff" points="1326.75,-21.97 1336.14,-17.06 1325.74,-15.04 1326.75,-21.97"/>
</a>
</g>
</g>
<!-- Node24 -->
<g id="Node000024" class="node">
<title>Node24</title>
<g id="a_Node000024"><a xlink:title=" ">
<polygon fill="#e0e0e0" stroke="#999999" points="1463,-18.5 1412.5,-18.5 1412.5,0 1463,0 1463,-18.5"/>
<text text-anchor="middle" x="1437.75" y="-5" font-family="Helvetica,sans-Serif" font-size="10.00">libgen.h</text>
</a>
</g>
</g>
<!-- Node3&#45;&gt;Node24 -->
<g id="edge23_Node000003_Node000024" class="edge">
<title>Node3&#45;&gt;Node24</title>
<g id="a_edge23_Node000003_Node000024"><a xlink:title=" ">
<path fill="none" stroke="#63b8ff" d="M827.6,-55.76C830.69,-55.29 833.77,-54.86 836.75,-54.5 1083.44,-24.63 1151.5,-54.67 1401.35,-18.39"/>
<polygon fill="#63b8ff" stroke="#63b8ff" points="1401.85,-21.71 1411.23,-16.79 1400.83,-14.78 1401.85,-21.71"/>
</a>
</g>
</g>
<!-- Node25 -->
<g id="Node000025" class="node">
<title>Node25</title>
<g id="a_Node000025"><a xlink:title=" ">
<polygon fill="#e0e0e0" stroke="#999999" points="1548.25,-18.5 1481.25,-18.5 1481.25,0 1548.25,0 1548.25,-18.5"/>
<text text-anchor="middle" x="1514.75" y="-5" font-family="Helvetica,sans-Serif" font-size="10.00">stdatomic.h</text>
</a>
</g>
</g>
<!-- Node3&#45;&gt;Node25 -->
<g id="edge24_Node000003_Node000025" class="edge">
<title>Node3&#45;&gt;Node25</title>
<g id="a_edge24_Node000003_Node000025"><a xlink:title=" ">
<path fill="none" stroke="#63b8ff" d="M827.6,-55.74C830.69,-55.27 833.77,-54.85 836.75,-54.5 1114.06,-21.89 1189.38,-52.44 1470.5,-18.45"/>
<polygon fill="#63b8ff" stroke="#63b8ff" points="1470.52,-21.85 1480.02,-17.16 1469.66,-14.9 1470.52,-21.85"/>
</a>
</g>
</g>
<!-- Node26 -->
<g id="Node000026" class="node">
<title>Node26</title>
<g id="a_Node000026"><a xlink:title=" ">
<polygon fill="#e0e0e0" stroke="#999999" points="1617.38,-18.5 1566.12,-18.5 1566.12,0 1617.38,0 1617.38,-18.5"/>
<text text-anchor="middle" x="1591.75" y="-5" font-family="Helvetica,sans-Serif" font-size="10.00">syslog.h</text>
</a>
</g>
</g>
<!-- Node3&#45;&gt;Node26 -->
<g id="edge25_Node000003_Node000026" class="edge">
<title>Node3&#45;&gt;Node26</title>
<g id="a_edge25_Node000003_Node000026"><a xlink:title=" ">
<path fill="none" stroke="#63b8ff" d="M827.6,-55.71C830.69,-55.25 833.77,-54.84 836.75,-54.5 1151.94,-18.52 1238.29,-63.5 1554.98,-18.63"/>
<polygon fill="#63b8ff" stroke="#63b8ff" points="1555.46,-21.95 1564.86,-17.06 1554.46,-15.02 1555.46,-21.95"/>
</a>
</g>
</g>
<!-- Node27 -->
<g id="Node000027" class="node">
<title>Node27</title>
<g id="a_Node000027"><a xlink:href="impl_8h_source.html" target="_top" xlink:title=" ">
<polygon fill="white" stroke="#666666" points="1691.62,-18.5 1635.88,-18.5 1635.88,0 1691.62,0 1691.62,-18.5"/>
<text text-anchor="middle" x="1663.75" y="-5" font-family="Helvetica,sans-Serif" font-size="10.00">sir/impl.h</text>
</a>
</g>
</g>
<!-- Node3&#45;&gt;Node27 -->
<g id="edge26_Node000003_Node000027" class="edge">
<title>Node3&#45;&gt;Node27</title>
<g id="a_edge26_Node000003_Node000027"><a xlink:title=" ">
<path fill="none" stroke="#63b8ff" d="M827.6,-55.7C830.68,-55.24 833.77,-54.83 836.75,-54.5 1182.55,-15.78 1276.48,-63.94 1624.91,-18.47"/>
<polygon fill="#63b8ff" stroke="#63b8ff" points="1625.1,-21.85 1634.56,-17.07 1624.19,-14.91 1625.1,-21.85"/>
</a>
</g>
</g>
<!-- Node28&#45;&gt;Node7 -->
<g id="edge28_Node000028_Node000007" class="edge">
<title>Node28&#45;&gt;Node7</title>
<g id="a_edge28_Node000028_Node000007"><a xlink:title=" ">
<path fill="none" stroke="#63b8ff" d="M691.67,-113.32C593.24,-102.02 306.08,-67.28 58.48,-18.67"/>
<polygon fill="#63b8ff" stroke="#63b8ff" points="59.33,-15.07 48.84,-16.56 57.97,-21.94 59.33,-15.07"/>
</a>
</g>
</g>
<!-- Node29&#45;&gt;Node3 -->
<g id="edge30_Node000029_Node000003" class="edge">
<title>Node29&#45;&gt;Node3</title>
<g id="a_edge30_Node000029_Node000003"><a xlink:title=" ">
<path fill="none" stroke="#63b8ff" d="M863.38,-108.58C850.03,-100.53 829.91,-88.38 814.23,-78.92"/>
<polygon fill="#63b8ff" stroke="#63b8ff" points="816.51,-75.6 806.14,-73.43 812.89,-81.6 816.51,-75.6"/>
</a>
</g>
</g>
<!-- Node30 -->
<g id="Node000030" class="node">
<title>Node30</title>
<g id="a_Node000030"><a xlink:href="config_8h.html" target="_top" xlink:title="Compile&#45;time configuration.">
<polygon fill="white" stroke="#666666" points="909.75,-73 845.75,-73 845.75,-54.5 909.75,-54.5 909.75,-73"/>
<text text-anchor="middle" x="877.75" y="-59.5" font-family="Helvetica,sans-Serif" font-size="10.00">sir/config.h</text>
</a>
</g>
</g>
<!-- Node29&#45;&gt;Node30 -->
<g id="edge31_Node000029_Node000030" class="edge">
<title>Node29&#45;&gt;Node30</title>
<g id="a_edge31_Node000029_Node000030"><a xlink:title=" ">
<path fill="none" stroke="#63b8ff" d="M877.75,-108.58C877.75,-101.93 877.75,-92.49 877.75,-84.08"/>
<polygon fill="#63b8ff" stroke="#63b8ff" points="881.25,-84.26 877.75,-74.26 874.25,-84.26 881.25,-84.26"/>
</a>
</g>
</g>
<!-- Node31 -->
<g id="Node000031" class="node">
<title>Node31</title>
<g id="a_Node000031"><a xlink:href="ansimacros_8h.html" target="_top" xlink:title="ANSI escape sequence macros.">
<polygon fill="white" stroke="#666666" points="1015.75,-73 927.75,-73 927.75,-54.5 1015.75,-54.5 1015.75,-73"/>
<text text-anchor="middle" x="971.75" y="-59.5" font-family="Helvetica,sans-Serif" font-size="10.00">sir/ansimacros.h</text>
</a>
</g>
</g>
<!-- Node29&#45;&gt;Node31 -->
<g id="edge32_Node000029_Node000031" class="edge">
<title>Node29&#45;&gt;Node31</title>
<g id="a_edge32_Node000029_Node000031"><a xlink:title=" ">
<path fill="none" stroke="#63b8ff" d="M893.27,-108.58C907.83,-100.45 929.85,-88.15 946.86,-78.65"/>
<polygon fill="#63b8ff" stroke="#63b8ff" points="948.18,-81.36 955.2,-73.43 944.77,-75.25 948.18,-81.36"/>
</a>
</g>
</g>
<!-- Node32&#45;&gt;Node29 -->
<g id="edge34_Node000032_Node000029" class="edge">
<title>Node32&#45;&gt;Node29</title>
<g id="a_edge34_Node000032_Node000029"><a xlink:title=" ">
<path fill="none" stroke="#63b8ff" d="M832.53,-217.87C835.3,-205.58 841.23,-182.13 849.75,-163.5 853.95,-154.32 859.78,-144.77 865.03,-136.91"/>
<polygon fill="#63b8ff" stroke="#63b8ff" points="868.39,-139.21 871.21,-129 862.63,-135.22 868.39,-139.21"/>
</a>
</g>
</g>
<!-- Node33 -->
<g id="Node000033" class="node">
<title>Node33</title>
<g id="a_Node000033"><a xlink:href="errors_8h_source.html" target="_top" xlink:title=" ">
<polygon fill="white" stroke="#666666" points="922.38,-182 859.12,-182 859.12,-163.5 922.38,-163.5 922.38,-182"/>
<text text-anchor="middle" x="890.75" y="-168.5" font-family="Helvetica,sans-Serif" font-size="10.00">sir/errors.h</text>
</a>
</g>
</g>
<!-- Node32&#45;&gt;Node33 -->
<g id="edge35_Node000032_Node000033" class="edge">
<title>Node32&#45;&gt;Node33</title>
<g id="a_edge35_Node000032_Node000033"><a xlink:title=" ">
<path fill="none" stroke="#63b8ff" d="M840.66,-217.58C849.39,-209.94 862.34,-198.61 872.88,-189.38"/>
<polygon fill="#63b8ff" stroke="#63b8ff" points="874.81,-191.48 880.03,-182.26 870.2,-186.21 874.81,-191.48"/>
</a>
</g>
</g>
<!-- Node33&#45;&gt;Node29 -->
<g id="edge36_Node000033_Node000029" class="edge">
<title>Node33&#45;&gt;Node29</title>
<g id="a_edge36_Node000033_Node000029"><a xlink:title=" ">
<path fill="none" stroke="#63b8ff" d="M888.6,-163.08C886.94,-156.35 884.57,-146.77 882.46,-138.29"/>
<polygon fill="#63b8ff" stroke="#63b8ff" points="885.66,-137.62 879.86,-128.76 878.86,-139.31 885.66,-137.62"/>
</a>
</g>
</g>
<!-- Node34&#45;&gt;Node32 -->
<g id="edge38_Node000034_Node000032" class="edge">
<title>Node34&#45;&gt;Node32</title>
<g id="a_edge38_Node000034_Node000032"><a xlink:title=" ">
<path fill="none" stroke="#63b8ff" d="M883.35,-272.08C874.08,-264.36 860.31,-252.88 849.18,-243.61"/>
<polygon fill="#63b8ff" stroke="#63b8ff" points="851.88,-240.47 841.96,-236.76 847.4,-245.85 851.88,-240.47"/>
</a>
</g>
</g>
<!-- Node34&#45;&gt;Node33 -->
<g id="edge41_Node000034_Node000033" class="edge">
<title>Node34&#45;&gt;Node33</title>
<g id="a_edge41_Node000034_Node000033"><a xlink:title=" ">
<path fill="none" stroke="#63b8ff" d="M893.51,-272.35C893.04,-255.4 891.95,-216.71 891.29,-193.15"/>
<polygon fill="#63b8ff" stroke="#63b8ff" points="894.77,-193.3 890.99,-183.4 887.77,-193.5 894.77,-193.3"/>
</a>
</g>
</g>
<!-- Node35 -->
<g id="Node000035" class="node">
<title>Node35</title>
<g id="a_Node000035"><a xlink:href="maps_8h_source.html" target="_top" xlink:title=" ">
<polygon fill="white" stroke="#666666" points="983.62,-236.5 921.88,-236.5 921.88,-218 983.62,-218 983.62,-236.5"/>
<text text-anchor="middle" x="952.75" y="-223" font-family="Helvetica,sans-Serif" font-size="10.00">sir/maps.h</text>
</a>
</g>
</g>
<!-- Node34&#45;&gt;Node35 -->
<g id="edge39_Node000034_Node000035" class="edge">
<title>Node34&#45;&gt;Node35</title>
<g id="a_edge39_Node000034_Node000035"><a xlink:title=" ">
<path fill="none" stroke="#63b8ff" d="M903.49,-272.08C912.08,-264.44 924.81,-253.11 935.18,-243.88"/>
<polygon fill="#63b8ff" stroke="#63b8ff" points="937.04,-247.02 942.19,-237.76 932.39,-241.79 937.04,-247.02"/>
</a>
</g>
</g>
<!-- Node35&#45;&gt;Node29 -->
<g id="edge40_Node000035_Node000029" class="edge">
<title>Node35&#45;&gt;Node29</title>
<g id="a_edge40_Node000035_Node000029"><a xlink:title=" ">
<path fill="none" stroke="#63b8ff" d="M951.48,-217.87C949.23,-205.17 943.62,-180.71 931.75,-163.5 923.66,-151.77 911.61,-141.48 900.95,-133.78"/>
<polygon fill="#63b8ff" stroke="#63b8ff" points="903.3,-130.47 893.07,-127.72 899.35,-136.25 903.3,-130.47"/>
</a>
</g>
</g>
</g>
</svg>
