<?xml version="1.0" encoding="UTF-8" standalone="no"?>
<!DOCTYPE svg PUBLIC "-//W3C//DTD SVG 1.1//EN"
 "http://www.w3.org/Graphics/SVG/1.1/DTD/svg11.dtd">
<!-- Generated by graphviz version 8.1.0 (20230707.0739)
 -->
<!-- Title: include/sir.h Pages: 1 -->
<svg width="392pt" height="136pt"
 viewBox="0.00 0.00 392.25 135.50" xmlns="http://www.w3.org/2000/svg" xmlns:xlink="http://www.w3.org/1999/xlink">

<svg id="main" version="1.1" xmlns="http://www.w3.org/2000/svg" xmlns:xlink="http://www.w3.org/1999/xlink" xml:space="preserve" onload="init(evt)">
<style type="text/css"><![CDATA[
.node, .edge {opacity: 0.7;}
.node.selected, .edge.selected {opacity: 1;}
.edge:hover path { stroke: red; }
.edge:hover polygon { stroke: red; fill: red; }
]]></style>
<script type="application/ecmascript" xlink:href="svg.min.js"/>
<svg id="graph" class="graph">
<g id="graph0" class="graph" transform="scale(1 1) rotate(0) translate(4 131.5)">
<title>include/sir.h</title>
<!-- Node1 -->
<g id="Node000001" class="node">
<title>Node1</title>
<g id="a_Node000001"><a xlink:title="Public interface to libsir.">
<polygon fill="#999999" stroke="#666666" points="228.88,-127.5 160.38,-127.5 160.38,-109 228.88,-109 228.88,-127.5"/>
<text text-anchor="middle" x="194.62" y="-114" font-family="Helvetica,sans-Serif" font-size="10.00">include/sir.h</text>
</a>
</g>
</g>
<!-- Node2 -->
<g id="Node000002" class="node">
<title>Node2</title>
<g id="a_Node000002"><a xlink:href="example_8c.html" target="_top" xlink:title="A simple demonstration of initialization, configuration, and basic usage of libsir.">
<polygon fill="white" stroke="#666666" points="99.25,-73 0,-73 0,-54.5 99.25,-54.5 99.25,-73"/>
<text text-anchor="middle" x="49.62" y="-59.5" font-family="Helvetica,sans-Serif" font-size="10.00">example/example.c</text>
</a>
</g>
</g>
<!-- Node1&#45;&gt;Node2 -->
<g id="edge1_Node000001_Node000002" class="edge">
<title>Node1&#45;&gt;Node2</title>
<g id="a_edge1_Node000001_Node000002"><a xlink:title=" ">
<path fill="none" stroke="#63b8ff" d="M160.61,-104.93C133.89,-95.26 97.33,-82.02 73.6,-73.43"/>
<polygon fill="#63b8ff" stroke="#63b8ff" points="159.09,-108.47 169.68,-108.58 161.47,-101.89 159.09,-108.47"/>
</a>
</g>
</g>
<!-- Node3 -->
<g id="Node000003" class="node">
<title>Node3</title>
<g id="a_Node000003"><a xlink:href="sir_8hh.html" target="_top" xlink:title="C++ interface to libsir.">
<polygon fill="white" stroke="#666666" points="191.5,-73 117.75,-73 117.75,-54.5 191.5,-54.5 191.5,-73"/>
<text text-anchor="middle" x="154.62" y="-59.5" font-family="Helvetica,sans-Serif" font-size="10.00">include/sir.hh</text>
</a>
</g>
</g>
<!-- Node1&#45;&gt;Node3 -->
<g id="edge2_Node000001_Node000003" class="edge">
<title>Node1&#45;&gt;Node3</title>
<g id="a_edge2_Node000001_Node000003"><a xlink:title=" ">
<path fill="none" stroke="#63b8ff" d="M181.5,-100.02C174.66,-91.04 166.6,-80.47 161.11,-73.26"/>
<polygon fill="#63b8ff" stroke="#63b8ff" points="179.18,-101.75 188.02,-107.58 184.74,-97.51 179.18,-101.75"/>
</a>
</g>
</g>
<!-- Node5 -->
<g id="Node000005" class="node">
<title>Node5</title>
<g id="a_Node000005"><a xlink:href="sir_8c.html" target="_top" xlink:title="Public interface to libsir.">
<polygon fill="white" stroke="#666666" points="261.25,-73 210,-73 210,-54.5 261.25,-54.5 261.25,-73"/>
<text text-anchor="middle" x="235.62" y="-59.5" font-family="Helvetica,sans-Serif" font-size="10.00">src/sir.c</text>
</a>
</g>
</g>
<!-- Node1&#45;&gt;Node5 -->
<g id="edge4_Node000001_Node000005" class="edge">
<title>Node1&#45;&gt;Node5</title>
<g id="a_edge4_Node000001_Node000005"><a xlink:title=" ">
<path fill="none" stroke="#63b8ff" d="M208.08,-100.02C215.09,-91.04 223.35,-80.47 228.98,-73.26"/>
<polygon fill="#63b8ff" stroke="#63b8ff" points="204.79,-97.55 201.4,-107.58 210.31,-101.85 204.79,-97.55"/>
</a>
</g>
</g>
<!-- Node6 -->
<g id="Node000006" class="node">
<title>Node6</title>
<g id="a_Node000006"><a xlink:href="tests__shared_8h_source.html" target="_top" xlink:title=" ">
<polygon fill="white" stroke="#666666" points="384.25,-73 279,-73 279,-54.5 384.25,-54.5 384.25,-73"/>
<text text-anchor="middle" x="331.62" y="-59.5" font-family="Helvetica,sans-Serif" font-size="10.00">tests/tests_shared.h</text>
</a>
</g>
</g>
<!-- Node1&#45;&gt;Node6 -->
<g id="edge5_Node000001_Node000006" class="edge">
<title>Node1&#45;&gt;Node6</title>
<g id="a_edge5_Node000001_Node000006"><a xlink:title=" ">
<path fill="none" stroke="#63b8ff" d="M227.44,-104.68C252.62,-95.02 286.75,-81.95 308.97,-73.43"/>
<polygon fill="#63b8ff" stroke="#63b8ff" points="226.33,-101.73 218.25,-108.58 228.84,-108.27 226.33,-101.73"/>
</a>
</g>
</g>
<!-- Node4 -->
<g id="Node000004" class="node">
<title>Node4</title>
<g id="a_Node000004"><a xlink:href="tests_09_09_8hh_source.html" target="_top" xlink:title=" ">
<polygon fill="white" stroke="#666666" points="238.62,-18.5 150.62,-18.5 150.62,0 238.62,0 238.62,-18.5"/>
<text text-anchor="middle" x="194.62" y="-5" font-family="Helvetica,sans-Serif" font-size="10.00">tests/tests++.hh</text>
</a>
</g>
</g>
<!-- Node3&#45;&gt;Node4 -->
<g id="edge3_Node000003_Node000004" class="edge">
<title>Node3&#45;&gt;Node4</title>
<g id="a_edge3_Node000003_Node000004"><a xlink:title=" ">
<path fill="none" stroke="#63b8ff" d="M167.75,-45.52C174.59,-36.54 182.65,-25.97 188.14,-18.76"/>
<polygon fill="#63b8ff" stroke="#63b8ff" points="164.51,-43.01 161.23,-53.08 170.07,-47.25 164.51,-43.01"/>
</a>
</g>
</g>
<!-- Node6&#45;&gt;Node4 -->
<g id="edge6_Node000006_Node000004" class="edge">
<title>Node6&#45;&gt;Node4</title>
<g id="a_edge6_Node000006_Node000004"><a xlink:title=" ">
<path fill="none" stroke="#63b8ff" d="M298.81,-50.18C273.63,-40.52 239.5,-27.45 217.28,-18.93"/>
<polygon fill="#63b8ff" stroke="#63b8ff" points="297.41,-53.77 308,-54.08 299.92,-47.23 297.41,-53.77"/>
</a>
</g>
</g>
<!-- Node7 -->
<g id="Node000007" class="node">
<title>Node7</title>
<g id="a_Node000007"><a xlink:href="tests_8h_source.html" target="_top" xlink:title=" ">
<polygon fill="white" stroke="#666666" points="367,-18.5 296.25,-18.5 296.25,0 367,0 367,-18.5"/>
<text text-anchor="middle" x="331.62" y="-5" font-family="Helvetica,sans-Serif" font-size="10.00">tests/tests.h</text>
</a>
</g>
</g>
<!-- Node6&#45;&gt;Node7 -->
<g id="edge7_Node000006_Node000007" class="edge">
<title>Node6&#45;&gt;Node7</title>
<g id="a_edge7_Node000006_Node000007"><a xlink:title=" ">
<path fill="none" stroke="#63b8ff" d="M331.62,-43.22C331.62,-34.79 331.62,-25.36 331.62,-18.76"/>
<polygon fill="#63b8ff" stroke="#63b8ff" points="328.13,-43.08 331.62,-53.08 335.13,-43.08 328.13,-43.08"/>
</a>
</g>
</g>
</g>
</svg>
</svg>

<style type='text/css'>
<![CDATA[
[data-mouse-over-selected='false'] { opacity: 0.7; }
[data-mouse-over-selected='true']  { opacity: 1.0; }
]]>
</style>
<script type="application/ecmascript"><![CDATA[
document.addEventListener('DOMContentLoaded', (event) => {
  highlightEdges();
  highlightAdjacentNodes();
});
]]></script>
</svg>
