<?xml version="1.0" encoding="UTF-8" standalone="no"?>
<!DOCTYPE svg PUBLIC "-//W3C//DTD SVG 1.1//EN"
 "http://www.w3.org/Graphics/SVG/1.1/DTD/svg11.dtd">
<!-- Generated by graphviz version 8.1.0 (20230707.0739)
 -->
<!-- Title: src/sir.c Pages: 1 -->
<!--zoomable 354 -->

<svg id="main" version="1.1" xmlns="http://www.w3.org/2000/svg" xmlns:xlink="http://www.w3.org/1999/xlink" xml:space="preserve" onload="init(evt)">
<style type="text/css"><![CDATA[
.node, .edge {opacity: 0.7;}
.node.selected, .edge.selected {opacity: 1;}
.edge:hover path { stroke: red; }
.edge:hover polygon { stroke: red; fill: red; }
]]></style>

<defs>
  <circle id="rim" cx="0" cy="0" r="7"/>
  <circle id="rim2" cx="0" cy="0" r="3.5"/>
  <g id="zoomPlus">
    <use xlink:href="#rim" fill="#404040"><set attributeName="fill" to="#808080" begin="zoomplus.mouseover" end="zoomplus.mouseout"/></use>
    <path d="M-4,0h8M0,-4v8" fill="none" stroke="white" stroke-width="1.5" pointer-events="none"/>
  </g>
  <g id="zoomMin">
    <use xlink:href="#rim" fill="#404040"><set attributeName="fill" to="#808080" begin="zoomminus.mouseover" end="zoomminus.mouseout"/></use>
    <path d="M-4,0h8" fill="none" stroke="white" stroke-width="1.5" pointer-events="none"/>
  </g>
  <g id="arrowUp" transform="translate(30 24)">
    <use xlink:href="#rim"/>
    <path pointer-events="none" fill="none" stroke="white" stroke-width="1.5" d="M0,-3.0v7 M-2.5,-0.5L0,-3.0L2.5,-0.5"/>
  </g>
  <g id="arrowRight" transform="rotate(90) translate(36 -43)">
    <use xlink:href="#rim"/>
    <path pointer-events="none" fill="none" stroke="white" stroke-width="1.5" d="M0,-3.0v7 M-2.5,-0.5L0,-3.0L2.5,-0.5"/>
  </g>
  <g id="arrowDown" transform="rotate(180) translate(-30 -48)">
    <use xlink:href="#rim"/>
    <path pointer-events="none" fill="none" stroke="white" stroke-width="1.5" d="M0,-3.0v7 M-2.5,-0.5L0,-3.0L2.5,-0.5"/>
  </g>
  <g id="arrowLeft" transform="rotate(270) translate(-36 17)">
    <use xlink:href="#rim"/>
    <path pointer-events="none" fill="none" stroke="white" stroke-width="1.5" d="M0,-3.0v7 M-2.5,-0.5L0,-3.0L2.5,-0.5"/>
  </g>
  <g id="resetDef">
    <use xlink:href="#rim2" fill="#404040"><set attributeName="fill" to="#808080" begin="reset.mouseover" end="reset.mouseout"/></use>
  </g>
</defs>
<script type="application/ecmascript">
var viewWidth = 1700;
var viewHeight = 354;
var sectionId = 'dynsection-0';
</script>
<script type="application/ecmascript" xlink:href="svg.min.js"/>
<svg id="graph" class="graph">
<g id="viewport">
<title>src/sir.c</title>
<!-- Node1 -->
<g id="Node000001" class="node">
<title>Node1</title>
<g id="a_Node000001"><a xlink:title="Public interface to libsir.">
<polygon fill="#999999" stroke="#666666" points="973.38,-345.5 922.12,-345.5 922.12,-327 973.38,-327 973.38,-345.5"/>
<text text-anchor="middle" x="947.75" y="-332" font-family="Helvetica,sans-Serif" font-size="10.00">src/sir.c</text>
</a>
</g>
</g>
<!-- Node2 -->
<g id="Node000002" class="node">
<title>Node2</title>
<g id="a_Node000002"><a xlink:href="sir_8h.html" target="_top" xlink:title="Public interface to libsir.">
<polygon fill="white" stroke="#666666" points="684.12,-182 649.38,-182 649.38,-163.5 684.12,-163.5 684.12,-182"/>
<text text-anchor="middle" x="666.75" y="-168.5" font-family="Helvetica,sans-Serif" font-size="10.00">sir.h</text>
</a>
</g>
</g>
<!-- Node1&#45;&gt;Node2 -->
<g id="edge1_Node000001_Node000002" class="edge">
<title>Node1&#45;&gt;Node2</title>
<g id="a_edge1_Node000001_Node000002"><a xlink:title=" ">
<path fill="none" stroke="#63b8ff" d="M922.02,-335.1C865.61,-333.19 731.64,-319.69 675.75,-236.5 667.2,-223.77 665.29,-206.31 665.33,-193.04"/>
<polygon fill="#63b8ff" stroke="#63b8ff" points="668.85,-193.42 665.77,-183.28 661.86,-193.13 668.85,-193.42"/>
</a>
</g>
</g>
<!-- Node32 -->
<g id="Node000032" class="node">
<title>Node32</title>
<g id="a_Node000032"><a xlink:href="internal_8h_source.html" target="_top" xlink:title=" ">
<polygon fill="white" stroke="#666666" points="847.38,-291 778.12,-291 778.12,-272.5 847.38,-272.5 847.38,-291"/>
<text text-anchor="middle" x="812.75" y="-277.5" font-family="Helvetica,sans-Serif" font-size="10.00">sir/internal.h</text>
</a>
</g>
</g>
<!-- Node1&#45;&gt;Node32 -->
<g id="edge33_Node000001_Node000032" class="edge">
<title>Node1&#45;&gt;Node32</title>
<g id="a_edge33_Node000001_Node000032"><a xlink:title=" ">
<path fill="none" stroke="#63b8ff" d="M925.46,-326.58C903.57,-318.07 869.95,-304.99 845.12,-295.34"/>
<polygon fill="#63b8ff" stroke="#63b8ff" points="846.66,-291.79 836.08,-291.43 844.13,-298.32 846.66,-291.79"/>
</a>
</g>
</g>
<!-- Node36 -->
<g id="Node000036" class="node">
<title>Node36</title>
<g id="a_Node000036"><a xlink:href="filecache_8h_source.html" target="_top" xlink:title=" ">
<polygon fill="white" stroke="#666666" points="967.12,-236.5 890.38,-236.5 890.38,-218 967.12,-218 967.12,-236.5"/>
<text text-anchor="middle" x="928.75" y="-223" font-family="Helvetica,sans-Serif" font-size="10.00">sir/filecache.h</text>
</a>
</g>
</g>
<!-- Node1&#45;&gt;Node36 -->
<g id="edge41_Node000001_Node000036" class="edge">
<title>Node1&#45;&gt;Node36</title>
<g id="a_edge41_Node000001_Node000036"><a xlink:title=" ">
<path fill="none" stroke="#63b8ff" d="M946.26,-326.85C943.25,-309.9 936.38,-271.21 932.2,-247.65"/>
<polygon fill="#63b8ff" stroke="#63b8ff" points="935.48,-247.14 930.29,-237.9 928.59,-248.36 935.48,-247.14"/>
</a>
</g>
</g>
<!-- Node37 -->
<g id="Node000037" class="node">
<title>Node37</title>
<g id="a_Node000037"><a xlink:href="plugins_8h_source.html" target="_top" xlink:title=" ">
<polygon fill="white" stroke="#666666" points="1002,-182 933.5,-182 933.5,-163.5 1002,-163.5 1002,-182"/>
<text text-anchor="middle" x="967.75" y="-168.5" font-family="Helvetica,sans-Serif" font-size="10.00">sir/plugins.h</text>
</a>
</g>
</g>
<!-- Node1&#45;&gt;Node37 -->
<g id="edge43_Node000001_Node000037" class="edge">
<title>Node1&#45;&gt;Node37</title>
<g id="a_edge43_Node000001_Node000037"><a xlink:title=" ">
<path fill="none" stroke="#63b8ff" d="M951.85,-326.57C960.49,-307.32 979.47,-259.48 975.75,-218 975,-209.64 973.47,-200.49 971.94,-192.69"/>
<polygon fill="#63b8ff" stroke="#63b8ff" points="975.22,-192.24 969.74,-183.17 968.36,-193.68 975.22,-192.24"/>
</a>
</g>
</g>
<!-- Node38 -->
<g id="Node000038" class="node">
<title>Node38</title>
<g id="a_Node000038"><a xlink:href="textstyle_8h_source.html" target="_top" xlink:title=" ">
<polygon fill="white" stroke="#666666" points="1070.38,-291 995.12,-291 995.12,-272.5 1070.38,-272.5 1070.38,-291"/>
<text text-anchor="middle" x="1032.75" y="-277.5" font-family="Helvetica,sans-Serif" font-size="10.00">sir/textstyle.h</text>
</a>
</g>
</g>
<!-- Node1&#45;&gt;Node38 -->
<g id="edge45_Node000001_Node000038" class="edge">
<title>Node1&#45;&gt;Node38</title>
<g id="a_edge45_Node000001_Node000038"><a xlink:title=" ">
<path fill="none" stroke="#63b8ff" d="M961.79,-326.58C974.71,-318.6 994.12,-306.61 1009.38,-297.19"/>
<polygon fill="#63b8ff" stroke="#63b8ff" points="1011.02,-299.66 1017.69,-291.43 1007.35,-293.71 1011.02,-299.66"/>
</a>
</g>
</g>
<!-- Node39 -->
<g id="Node000039" class="node">
<title>Node39</title>
<g id="a_Node000039"><a xlink:href="defaults_8h.html" target="_top" xlink:title="Default levels, options, and text styling.">
<polygon fill="white" stroke="#666666" points="1160.88,-291 1088.62,-291 1088.62,-272.5 1160.88,-272.5 1160.88,-291"/>
<text text-anchor="middle" x="1124.75" y="-277.5" font-family="Helvetica,sans-Serif" font-size="10.00">sir/defaults.h</text>
</a>
</g>
</g>
<!-- Node1&#45;&gt;Node39 -->
<g id="edge47_Node000001_Node000039" class="edge">
<title>Node1&#45;&gt;Node39</title>
<g id="a_edge47_Node000001_Node000039"><a xlink:title=" ">
<path fill="none" stroke="#63b8ff" d="M973.87,-327.5C1003.11,-318.83 1050.84,-304.67 1084.78,-294.6"/>
<polygon fill="#63b8ff" stroke="#63b8ff" points="1085.68,-297.69 1094.28,-291.49 1083.69,-290.98 1085.68,-297.69"/>
</a>
</g>
</g>
<!-- Node3 -->
<g id="Node000003" class="node">
<title>Node3</title>
<g id="a_Node000003"><a xlink:href="platform_8h_source.html" target="_top" xlink:title=" ">
<polygon fill="white" stroke="#666666" points="827.25,-73 754.25,-73 754.25,-54.5 827.25,-54.5 827.25,-73"/>
<text text-anchor="middle" x="790.75" y="-59.5" font-family="Helvetica,sans-Serif" font-size="10.00">sir/platform.h</text>
</a>
</g>
</g>
<!-- Node2&#45;&gt;Node3 -->
<g id="edge2_Node000002_Node000003" class="edge">
<title>Node2&#45;&gt;Node3</title>
<g id="a_edge2_Node000002_Node000003"><a xlink:title=" ">
<path fill="none" stroke="#63b8ff" d="M676.48,-163.35C697.2,-145.47 745.97,-103.39 772.61,-80.4"/>
<polygon fill="#63b8ff" stroke="#63b8ff" points="774.44,-82.59 779.72,-73.4 769.86,-77.29 774.44,-82.59"/>
</a>
</g>
</g>
<!-- Node28 -->
<g id="Node000028" class="node">
<title>Node28</title>
<g id="a_Node000028"><a xlink:href="version_8h_source.html" target="_top" xlink:title=" ">
<polygon fill="white" stroke="#666666" points="529.38,-127.5 460.12,-127.5 460.12,-109 529.38,-109 529.38,-127.5"/>
<text text-anchor="middle" x="494.75" y="-114" font-family="Helvetica,sans-Serif" font-size="10.00">sir/version.h</text>
</a>
</g>
</g>
<!-- Node2&#45;&gt;Node28 -->
<g id="edge27_Node000002_Node000028" class="edge">
<title>Node2&#45;&gt;Node28</title>
<g id="a_edge27_Node000002_Node000028"><a xlink:title=" ">
<path fill="none" stroke="#63b8ff" d="M648.99,-166.33C621.88,-158.06 569.53,-142.08 533.39,-131.04"/>
<polygon fill="#63b8ff" stroke="#63b8ff" points="534.79,-127.51 524.2,-127.93 532.74,-134.2 534.79,-127.51"/>
</a>
</g>
</g>
<!-- Node29 -->
<g id="Node000029" class="node">
<title>Node29</title>
<g id="a_Node000029"><a xlink:href="types_8h_source.html" target="_top" xlink:title=" ">
<polygon fill="white" stroke="#666666" points="908.62,-127.5 846.88,-127.5 846.88,-109 908.62,-109 908.62,-127.5"/>
<text text-anchor="middle" x="877.75" y="-114" font-family="Helvetica,sans-Serif" font-size="10.00">sir/types.h</text>
</a>
</g>
</g>
<!-- Node2&#45;&gt;Node29 -->
<g id="edge29_Node000002_Node000029" class="edge">
<title>Node2&#45;&gt;Node29</title>
<g id="a_edge29_Node000002_Node000029"><a xlink:title=" ">
<path fill="none" stroke="#63b8ff" d="M684.38,-167.36C717.48,-159.13 789.76,-141.14 835.97,-129.65"/>
<polygon fill="#63b8ff" stroke="#63b8ff" points="836.68,-132.83 845.54,-127.01 834.99,-126.03 836.68,-132.83"/>
</a>
</g>
</g>
<!-- Node4 -->
<g id="Node000004" class="node">
<title>Node4</title>
<g id="a_Node000004"><a xlink:title=" ">
<polygon fill="#e0e0e0" stroke="#999999" points="111.75,-18.5 65.75,-18.5 65.75,0 111.75,0 111.75,-18.5"/>
<text text-anchor="middle" x="88.75" y="-5" font-family="Helvetica,sans-Serif" font-size="10.00">errno.h</text>
</a>
</g>
</g>
<!-- Node3&#45;&gt;Node4 -->
<g id="edge3_Node000003_Node000004" class="edge">
<title>Node3&#45;&gt;Node4</title>
<g id="a_edge3_Node000003_Node000004"><a xlink:title=" ">
<path fill="none" stroke="#63b8ff" d="M753.8,-62.72C653.57,-62.12 368.11,-57.02 122.62,-18.48"/>
<polygon fill="#63b8ff" stroke="#63b8ff" points="123.49,-14.91 113.06,-16.8 122.39,-21.83 123.49,-14.91"/>
</a>
</g>
</g>
<!-- Node5 -->
<g id="Node000005" class="node">
<title>Node5</title>
<g id="a_Node000005"><a xlink:title=" ">
<polygon fill="#e0e0e0" stroke="#999999" points="181.38,-18.5 130.12,-18.5 130.12,0 181.38,0 181.38,-18.5"/>
<text text-anchor="middle" x="155.75" y="-5" font-family="Helvetica,sans-Serif" font-size="10.00">stdarg.h</text>
</a>
</g>
</g>
<!-- Node3&#45;&gt;Node5 -->
<g id="edge4_Node000003_Node000005" class="edge">
<title>Node3&#45;&gt;Node5</title>
<g id="a_edge4_Node000003_Node000005"><a xlink:title=" ">
<path fill="none" stroke="#63b8ff" d="M754,-62.06C661.34,-59.88 410.64,-51.32 192.35,-18.47"/>
<polygon fill="#63b8ff" stroke="#63b8ff" points="193.07,-14.89 182.65,-16.84 192.01,-21.81 193.07,-14.89"/>
</a>
</g>
</g>
<!-- Node6 -->
<g id="Node000006" class="node">
<title>Node6</title>
<g id="a_Node000006"><a xlink:title=" ">
<polygon fill="#e0e0e0" stroke="#999999" points="255.62,-18.5 199.88,-18.5 199.88,0 255.62,0 255.62,-18.5"/>
<text text-anchor="middle" x="227.75" y="-5" font-family="Helvetica,sans-Serif" font-size="10.00">stdbool.h</text>
</a>
</g>
</g>
<!-- Node3&#45;&gt;Node6 -->
<g id="edge5_Node000003_Node000006" class="edge">
<title>Node3&#45;&gt;Node6</title>
<g id="a_edge5_Node000003_Node000006"><a xlink:title=" ">
<path fill="none" stroke="#63b8ff" d="M753.88,-61.37C669.4,-57.83 455.21,-46.78 266.62,-18.57"/>
<polygon fill="#63b8ff" stroke="#63b8ff" points="267.37,-14.99 256.96,-16.95 266.32,-21.91 267.37,-14.99"/>
</a>
</g>
</g>
<!-- Node7 -->
<g id="Node000007" class="node">
<title>Node7</title>
<g id="a_Node000007"><a xlink:title=" ">
<polygon fill="#e0e0e0" stroke="#999999" points="47.5,-18.5 0,-18.5 0,0 47.5,0 47.5,-18.5"/>
<text text-anchor="middle" x="23.75" y="-5" font-family="Helvetica,sans-Serif" font-size="10.00">stdint.h</text>
</a>
</g>
</g>
<!-- Node3&#45;&gt;Node7 -->
<g id="edge6_Node000003_Node000007" class="edge">
<title>Node3&#45;&gt;Node7</title>
<g id="a_edge6_Node000003_Node000007"><a xlink:title=" ">
<path fill="none" stroke="#63b8ff" d="M753.84,-62.92C647.32,-62.92 330.23,-59.35 58.66,-18.47"/>
<polygon fill="#63b8ff" stroke="#63b8ff" points="59.21,-14.86 48.8,-16.81 58.15,-21.78 59.21,-14.86"/>
</a>
</g>
</g>
<!-- Node8 -->
<g id="Node000008" class="node">
<title>Node8</title>
<g id="a_Node000008"><a xlink:title=" ">
<polygon fill="#e0e0e0" stroke="#999999" points="332.12,-18.5 273.38,-18.5 273.38,0 332.12,0 332.12,-18.5"/>
<text text-anchor="middle" x="302.75" y="-5" font-family="Helvetica,sans-Serif" font-size="10.00">inttypes.h</text>
</a>
</g>
</g>
<!-- Node3&#45;&gt;Node8 -->
<g id="edge7_Node000003_Node000008" class="edge">
<title>Node3&#45;&gt;Node8</title>
<g id="a_edge7_Node000003_Node000008"><a xlink:title=" ">
<path fill="none" stroke="#63b8ff" d="M753.82,-60.57C678.45,-55.81 501.33,-43.04 343.41,-18.76"/>
<polygon fill="#63b8ff" stroke="#63b8ff" points="343.98,-15.15 333.56,-17.06 342.9,-22.06 343.98,-15.15"/>
</a>
</g>
</g>
<!-- Node9 -->
<g id="Node000009" class="node">
<title>Node9</title>
<g id="a_Node000009"><a xlink:title=" ">
<polygon fill="#e0e0e0" stroke="#999999" points="395.38,-18.5 350.12,-18.5 350.12,0 395.38,0 395.38,-18.5"/>
<text text-anchor="middle" x="372.75" y="-5" font-family="Helvetica,sans-Serif" font-size="10.00">stdio.h</text>
</a>
</g>
</g>
<!-- Node3&#45;&gt;Node9 -->
<g id="edge8_Node000003_Node000009" class="edge">
<title>Node3&#45;&gt;Node9</title>
<g id="a_edge8_Node000003_Node000009"><a xlink:title=" ">
<path fill="none" stroke="#63b8ff" d="M753.93,-60.34C686.65,-55.55 539.21,-43.27 406.44,-18.77"/>
<polygon fill="#63b8ff" stroke="#63b8ff" points="407.16,-15.16 396.69,-16.75 405.87,-22.04 407.16,-15.16"/>
</a>
</g>
</g>
<!-- Node10 -->
<g id="Node000010" class="node">
<title>Node10</title>
<g id="a_Node000010"><a xlink:title=" ">
<polygon fill="#e0e0e0" stroke="#999999" points="460.5,-18.5 413,-18.5 413,0 460.5,0 460.5,-18.5"/>
<text text-anchor="middle" x="436.75" y="-5" font-family="Helvetica,sans-Serif" font-size="10.00">stdlib.h</text>
</a>
</g>
</g>
<!-- Node3&#45;&gt;Node10 -->
<g id="edge9_Node000003_Node000010" class="edge">
<title>Node3&#45;&gt;Node10</title>
<g id="a_edge9_Node000003_Node000010"><a xlink:title=" ">
<path fill="none" stroke="#63b8ff" d="M753.95,-58.99C696,-52.77 579.74,-39.17 471.61,-18.66"/>
<polygon fill="#63b8ff" stroke="#63b8ff" points="472.31,-15.04 461.83,-16.59 470.99,-21.92 472.31,-15.04"/>
</a>
</g>
</g>
<!-- Node11 -->
<g id="Node000011" class="node">
<title>Node11</title>
<g id="a_Node000011"><a xlink:title=" ">
<polygon fill="#e0e0e0" stroke="#999999" points="526.88,-18.5 478.62,-18.5 478.62,0 526.88,0 526.88,-18.5"/>
<text text-anchor="middle" x="502.75" y="-5" font-family="Helvetica,sans-Serif" font-size="10.00">string.h</text>
</a>
</g>
</g>
<!-- Node3&#45;&gt;Node11 -->
<g id="edge10_Node000003_Node000011" class="edge">
<title>Node3&#45;&gt;Node11</title>
<g id="a_edge10_Node000003_Node000011"><a xlink:title=" ">
<path fill="none" stroke="#63b8ff" d="M753.85,-57.22C706.15,-49.87 620.31,-36.01 537.78,-18.8"/>
<polygon fill="#63b8ff" stroke="#63b8ff" points="538.72,-15.21 528.21,-16.58 537.28,-22.06 538.72,-15.21"/>
</a>
</g>
</g>
<!-- Node12 -->
<g id="Node000012" class="node">
<title>Node12</title>
<g id="a_Node000012"><a xlink:title=" ">
<polygon fill="#e0e0e0" stroke="#999999" points="602.38,-18.5 545.12,-18.5 545.12,0 602.38,0 602.38,-18.5"/>
<text text-anchor="middle" x="573.75" y="-5" font-family="Helvetica,sans-Serif" font-size="10.00">sys/stat.h</text>
</a>
</g>
</g>
<!-- Node3&#45;&gt;Node12 -->
<g id="edge11_Node000003_Node000012" class="edge">
<title>Node3&#45;&gt;Node12</title>
<g id="a_edge11_Node000003_Node000012"><a xlink:title=" ">
<path fill="none" stroke="#63b8ff" d="M754.92,-54.08C715.88,-44.64 653.62,-29.57 613.21,-19.8"/>
<polygon fill="#63b8ff" stroke="#63b8ff" points="614.23,-16.2 603.69,-17.25 612.58,-23 614.23,-16.2"/>
</a>
</g>
</g>
<!-- Node13 -->
<g id="Node000013" class="node">
<title>Node13</title>
<g id="a_Node000013"><a xlink:title=" ">
<polygon fill="#e0e0e0" stroke="#999999" points="685.5,-18.5 620,-18.5 620,0 685.5,0 685.5,-18.5"/>
<text text-anchor="middle" x="652.75" y="-5" font-family="Helvetica,sans-Serif" font-size="10.00">sys/types.h</text>
</a>
</g>
</g>
<!-- Node3&#45;&gt;Node13 -->
<g id="edge12_Node000003_Node000013" class="edge">
<title>Node3&#45;&gt;Node13</title>
<g id="a_edge12_Node000003_Node000013"><a xlink:title=" ">
<path fill="none" stroke="#63b8ff" d="M767.96,-54.08C745.59,-45.57 711.22,-32.49 685.84,-22.84"/>
<polygon fill="#63b8ff" stroke="#63b8ff" points="687.16,-19.22 676.57,-18.93 684.67,-25.76 687.16,-19.22"/>
</a>
</g>
</g>
<!-- Node14 -->
<g id="Node000014" class="node">
<title>Node14</title>
<g id="a_Node000014"><a xlink:title=" ">
<polygon fill="#e0e0e0" stroke="#999999" points="751.5,-18.5 704,-18.5 704,0 751.5,0 751.5,-18.5"/>
<text text-anchor="middle" x="727.75" y="-5" font-family="Helvetica,sans-Serif" font-size="10.00">limits.h</text>
</a>
</g>
</g>
<!-- Node3&#45;&gt;Node14 -->
<g id="edge13_Node000003_Node000014" class="edge">
<title>Node3&#45;&gt;Node14</title>
<g id="a_edge13_Node000003_Node000014"><a xlink:title=" ">
<path fill="none" stroke="#63b8ff" d="M780.35,-54.08C771.08,-46.36 757.31,-34.88 746.18,-25.61"/>
<polygon fill="#63b8ff" stroke="#63b8ff" points="748.88,-22.47 738.96,-18.76 744.4,-27.85 748.88,-22.47"/>
</a>
</g>
</g>
<!-- Node15 -->
<g id="Node000015" class="node">
<title>Node15</title>
<g id="a_Node000015"><a xlink:title=" ">
<polygon fill="#e0e0e0" stroke="#999999" points="812.25,-18.5 769.25,-18.5 769.25,0 812.25,0 812.25,-18.5"/>
<text text-anchor="middle" x="790.75" y="-5" font-family="Helvetica,sans-Serif" font-size="10.00">time.h</text>
</a>
</g>
</g>
<!-- Node3&#45;&gt;Node15 -->
<g id="edge14_Node000003_Node000015" class="edge">
<title>Node3&#45;&gt;Node15</title>
<g id="a_edge14_Node000003_Node000015"><a xlink:title=" ">
<path fill="none" stroke="#63b8ff" d="M790.75,-54.08C790.75,-47.43 790.75,-37.99 790.75,-29.58"/>
<polygon fill="#63b8ff" stroke="#63b8ff" points="794.25,-29.76 790.75,-19.76 787.25,-29.76 794.25,-29.76"/>
</a>
</g>
</g>
<!-- Node16 -->
<g id="Node000016" class="node">
<title>Node16</title>
<g id="a_Node000016"><a xlink:title=" ">
<polygon fill="#e0e0e0" stroke="#999999" points="875.38,-18.5 830.12,-18.5 830.12,0 875.38,0 875.38,-18.5"/>
<text text-anchor="middle" x="852.75" y="-5" font-family="Helvetica,sans-Serif" font-size="10.00">dlfcn.h</text>
</a>
</g>
</g>
<!-- Node3&#45;&gt;Node16 -->
<g id="edge15_Node000003_Node000016" class="edge">
<title>Node3&#45;&gt;Node16</title>
<g id="a_edge15_Node000003_Node000016"><a xlink:title=" ">
<path fill="none" stroke="#63b8ff" d="M800.99,-54.08C810.11,-46.36 823.66,-34.88 834.61,-25.61"/>
<polygon fill="#63b8ff" stroke="#63b8ff" points="836.33,-27.89 841.7,-18.76 831.81,-22.55 836.33,-27.89"/>
</a>
</g>
</g>
<!-- Node17 -->
<g id="Node000017" class="node">
<title>Node17</title>
<g id="a_Node000017"><a xlink:title=" ">
<polygon fill="#e0e0e0" stroke="#999999" points="950,-18.5 893.5,-18.5 893.5,0 950,0 950,-18.5"/>
<text text-anchor="middle" x="921.75" y="-5" font-family="Helvetica,sans-Serif" font-size="10.00">pthread.h</text>
</a>
</g>
</g>
<!-- Node3&#45;&gt;Node17 -->
<g id="edge16_Node000003_Node000017" class="edge">
<title>Node3&#45;&gt;Node17</title>
<g id="a_edge16_Node000003_Node000017"><a xlink:title=" ">
<path fill="none" stroke="#63b8ff" d="M812.38,-54.08C833.53,-45.61 865.96,-32.61 890.02,-22.97"/>
<polygon fill="#63b8ff" stroke="#63b8ff" points="891.11,-25.9 899.09,-18.93 888.5,-19.4 891.11,-25.9"/>
</a>
</g>
</g>
<!-- Node18 -->
<g id="Node000018" class="node">
<title>Node18</title>
<g id="a_Node000018"><a xlink:title=" ">
<polygon fill="#e0e0e0" stroke="#999999" points="1011.25,-18.5 968.25,-18.5 968.25,0 1011.25,0 1011.25,-18.5"/>
<text text-anchor="middle" x="989.75" y="-5" font-family="Helvetica,sans-Serif" font-size="10.00">fcntl.h</text>
</a>
</g>
</g>
<!-- Node3&#45;&gt;Node18 -->
<g id="edge17_Node000003_Node000018" class="edge">
<title>Node3&#45;&gt;Node18</title>
<g id="a_edge17_Node000003_Node000018"><a xlink:title=" ">
<path fill="none" stroke="#63b8ff" d="M823.91,-54.04C855.68,-45.69 905.26,-32.65 957.58,-18.81"/>
<polygon fill="#63b8ff" stroke="#63b8ff" points="958.3,-21.97 967.07,-16.03 956.51,-15.2 958.3,-21.97"/>
</a>
</g>
</g>
<!-- Node19 -->
<g id="Node000019" class="node">
<title>Node19</title>
<g id="a_Node000019"><a xlink:title=" ">
<polygon fill="#e0e0e0" stroke="#999999" points="1080,-18.5 1029.5,-18.5 1029.5,0 1080,0 1080,-18.5"/>
<text text-anchor="middle" x="1054.75" y="-5" font-family="Helvetica,sans-Serif" font-size="10.00">unistd.h</text>
</a>
</g>
</g>
<!-- Node3&#45;&gt;Node19 -->
<g id="edge18_Node000003_Node000019" class="edge">
<title>Node3&#45;&gt;Node19</title>
<g id="a_edge18_Node000003_Node000019"><a xlink:title=" ">
<path fill="none" stroke="#63b8ff" d="M827.73,-56.08C871.04,-48.17 945.2,-34.29 1018.79,-18.63"/>
<polygon fill="#63b8ff" stroke="#63b8ff" points="1019.12,-21.92 1028.16,-16.41 1017.65,-15.08 1019.12,-21.92"/>
</a>
</g>
</g>
<!-- Node20 -->
<g id="Node000020" class="node">
<title>Node20</title>
<g id="a_Node000020"><a xlink:title=" ">
<polygon fill="#e0e0e0" stroke="#999999" points="1169.12,-18.5 1098.38,-18.5 1098.38,0 1169.12,0 1169.12,-18.5"/>
<text text-anchor="middle" x="1133.75" y="-5" font-family="Helvetica,sans-Serif" font-size="10.00">sys/syscall.h</text>
</a>
</g>
</g>
<!-- Node3&#45;&gt;Node20 -->
<g id="edge19_Node000003_Node000020" class="edge">
<title>Node3&#45;&gt;Node20</title>
<g id="a_edge19_Node000003_Node000020"><a xlink:title=" ">
<path fill="none" stroke="#63b8ff" d="M827.39,-56.06C830.55,-55.52 833.71,-54.99 836.75,-54.5 945.07,-37.06 975.28,-36.71 1087.19,-18.69"/>
<polygon fill="#63b8ff" stroke="#63b8ff" points="1087.6,-22.01 1096.91,-16.95 1086.48,-15.1 1087.6,-22.01"/>
</a>
</g>
</g>
<!-- Node21 -->
<g id="Node000021" class="node">
<title>Node21</title>
<g id="a_Node000021"><a xlink:title=" ">
<polygon fill="#e0e0e0" stroke="#999999" points="1247.88,-18.5 1187.62,-18.5 1187.62,0 1247.88,0 1247.88,-18.5"/>
<text text-anchor="middle" x="1217.75" y="-5" font-family="Helvetica,sans-Serif" font-size="10.00">sys/time.h</text>
</a>
</g>
</g>
<!-- Node3&#45;&gt;Node21 -->
<g id="edge20_Node000003_Node000021" class="edge">
<title>Node3&#45;&gt;Node21</title>
<g id="a_edge20_Node000003_Node000021"><a xlink:title=" ">
<path fill="none" stroke="#63b8ff" d="M827.62,-55.9C830.7,-55.4 833.78,-54.92 836.75,-54.5 984.24,-33.52 1025.33,-41.54 1176.63,-18.5"/>
<polygon fill="#63b8ff" stroke="#63b8ff" points="1176.88,-21.85 1186.23,-16.87 1175.81,-14.93 1176.88,-21.85"/>
</a>
</g>
</g>
<!-- Node22 -->
<g id="Node000022" class="node">
<title>Node22</title>
<g id="a_Node000022"><a xlink:title=" ">
<polygon fill="#e0e0e0" stroke="#999999" points="1319.5,-18.5 1266,-18.5 1266,0 1319.5,0 1319.5,-18.5"/>
<text text-anchor="middle" x="1292.75" y="-5" font-family="Helvetica,sans-Serif" font-size="10.00">strings.h</text>
</a>
</g>
</g>
<!-- Node3&#45;&gt;Node22 -->
<g id="edge21_Node000003_Node000022" class="edge">
<title>Node3&#45;&gt;Node22</title>
<g id="a_edge21_Node000003_Node000022"><a xlink:title=" ">
<path fill="none" stroke="#63b8ff" d="M827.61,-55.83C830.7,-55.35 833.77,-54.89 836.75,-54.5 1019.04,-30.39 1069.78,-46.86 1255.05,-18.53"/>
<polygon fill="#63b8ff" stroke="#63b8ff" points="1255.36,-21.87 1264.7,-16.88 1254.28,-14.95 1255.36,-21.87"/>
</a>
</g>
</g>
<!-- Node23 -->
<g id="Node000023" class="node">
<title>Node23</title>
<g id="a_Node000023"><a xlink:title=" ">
<polygon fill="#e0e0e0" stroke="#999999" points="1394,-18.5 1337.5,-18.5 1337.5,0 1394,0 1394,-18.5"/>
<text text-anchor="middle" x="1365.75" y="-5" font-family="Helvetica,sans-Serif" font-size="10.00">termios.h</text>
</a>
</g>
</g>
<!-- Node3&#45;&gt;Node23 -->
<g id="edge22_Node000003_Node000023" class="edge">
<title>Node3&#45;&gt;Node23</title>
<g id="a_edge22_Node000003_Node000023"><a xlink:title=" ">
<path fill="none" stroke="#63b8ff" d="M827.61,-55.79C830.69,-55.31 833.77,-54.88 836.75,-54.5 1050.78,-27.55 1109.94,-49.7 1326.38,-18.63"/>
<polygon fill="#63b8ff" stroke="#63b8ff" points="1326.75,-21.97 1336.14,-17.06 1325.74,-15.04 1326.75,-21.97"/>
</a>
</g>
</g>
<!-- Node24 -->
<g id="Node000024" class="node">
<title>Node24</title>
<g id="a_Node000024"><a xlink:title=" ">
<polygon fill="#e0e0e0" stroke="#999999" points="1463,-18.5 1412.5,-18.5 1412.5,0 1463,0 1463,-18.5"/>
<text text-anchor="middle" x="1437.75" y="-5" font-family="Helvetica,sans-Serif" font-size="10.00">libgen.h</text>
</a>
</g>
</g>
<!-- Node3&#45;&gt;Node24 -->
<g id="edge23_Node000003_Node000024" class="edge">
<title>Node3&#45;&gt;Node24</title>
<g id="a_edge23_Node000003_Node000024"><a xlink:title=" ">
<path fill="none" stroke="#63b8ff" d="M827.6,-55.76C830.69,-55.29 833.77,-54.86 836.75,-54.5 1083.44,-24.63 1151.5,-54.67 1401.35,-18.39"/>
<polygon fill="#63b8ff" stroke="#63b8ff" points="1401.85,-21.71 1411.23,-16.79 1400.83,-14.78 1401.85,-21.71"/>
</a>
</g>
</g>
<!-- Node25 -->
<g id="Node000025" class="node">
<title>Node25</title>
<g id="a_Node000025"><a xlink:title=" ">
<polygon fill="#e0e0e0" stroke="#999999" points="1548.25,-18.5 1481.25,-18.5 1481.25,0 1548.25,0 1548.25,-18.5"/>
<text text-anchor="middle" x="1514.75" y="-5" font-family="Helvetica,sans-Serif" font-size="10.00">stdatomic.h</text>
</a>
</g>
</g>
<!-- Node3&#45;&gt;Node25 -->
<g id="edge24_Node000003_Node000025" class="edge">
<title>Node3&#45;&gt;Node25</title>
<g id="a_edge24_Node000003_Node000025"><a xlink:title=" ">
<path fill="none" stroke="#63b8ff" d="M827.6,-55.74C830.69,-55.27 833.77,-54.85 836.75,-54.5 1114.06,-21.89 1189.38,-52.44 1470.5,-18.45"/>
<polygon fill="#63b8ff" stroke="#63b8ff" points="1470.52,-21.85 1480.02,-17.16 1469.66,-14.9 1470.52,-21.85"/>
</a>
</g>
</g>
<!-- Node26 -->
<g id="Node000026" class="node">
<title>Node26</title>
<g id="a_Node000026"><a xlink:title=" ">
<polygon fill="#e0e0e0" stroke="#999999" points="1617.38,-18.5 1566.12,-18.5 1566.12,0 1617.38,0 1617.38,-18.5"/>
<text text-anchor="middle" x="1591.75" y="-5" font-family="Helvetica,sans-Serif" font-size="10.00">syslog.h</text>
</a>
</g>
</g>
<!-- Node3&#45;&gt;Node26 -->
<g id="edge25_Node000003_Node000026" class="edge">
<title>Node3&#45;&gt;Node26</title>
<g id="a_edge25_Node000003_Node000026"><a xlink:title=" ">
<path fill="none" stroke="#63b8ff" d="M827.6,-55.71C830.69,-55.25 833.77,-54.84 836.75,-54.5 1151.94,-18.52 1238.29,-63.5 1554.98,-18.63"/>
<polygon fill="#63b8ff" stroke="#63b8ff" points="1555.46,-21.95 1564.86,-17.06 1554.46,-15.02 1555.46,-21.95"/>
</a>
</g>
</g>
<!-- Node27 -->
<g id="Node000027" class="node">
<title>Node27</title>
<g id="a_Node000027"><a xlink:href="impl_8h_source.html" target="_top" xlink:title=" ">
<polygon fill="white" stroke="#666666" points="1691.62,-18.5 1635.88,-18.5 1635.88,0 1691.62,0 1691.62,-18.5"/>
<text text-anchor="middle" x="1663.75" y="-5" font-family="Helvetica,sans-Serif" font-size="10.00">sir/impl.h</text>
</a>
</g>
</g>
<!-- Node3&#45;&gt;Node27 -->
<g id="edge26_Node000003_Node000027" class="edge">
<title>Node3&#45;&gt;Node27</title>
<g id="a_edge26_Node000003_Node000027"><a xlink:title=" ">
<path fill="none" stroke="#63b8ff" d="M827.6,-55.7C830.68,-55.24 833.77,-54.83 836.75,-54.5 1182.55,-15.78 1276.48,-63.94 1624.91,-18.47"/>
<polygon fill="#63b8ff" stroke="#63b8ff" points="1625.1,-21.85 1634.56,-17.07 1624.19,-14.91 1625.1,-21.85"/>
</a>
</g>
</g>
<!-- Node28&#45;&gt;Node7 -->
<g id="edge28_Node000028_Node000007" class="edge">
<title>Node28&#45;&gt;Node7</title>
<g id="a_edge28_Node000028_Node000007"><a xlink:title=" ">
<path fill="none" stroke="#63b8ff" d="M459.77,-109.65C387.04,-93.79 213.99,-55.74 58.13,-18.78"/>
<polygon fill="#63b8ff" stroke="#63b8ff" points="59.42,-15.26 48.88,-16.35 57.81,-22.07 59.42,-15.26"/>
</a>
</g>
</g>
<!-- Node29&#45;&gt;Node3 -->
<g id="edge30_Node000029_Node000003" class="edge">
<title>Node29&#45;&gt;Node3</title>
<g id="a_edge30_Node000029_Node000003"><a xlink:title=" ">
<path fill="none" stroke="#63b8ff" d="M863.38,-108.58C850.03,-100.53 829.91,-88.38 814.23,-78.92"/>
<polygon fill="#63b8ff" stroke="#63b8ff" points="816.51,-75.6 806.14,-73.43 812.89,-81.6 816.51,-75.6"/>
</a>
</g>
</g>
<!-- Node30 -->
<g id="Node000030" class="node">
<title>Node30</title>
<g id="a_Node000030"><a xlink:href="config_8h.html" target="_top" xlink:title="Compile&#45;time configuration.">
<polygon fill="white" stroke="#666666" points="909.75,-73 845.75,-73 845.75,-54.5 909.75,-54.5 909.75,-73"/>
<text text-anchor="middle" x="877.75" y="-59.5" font-family="Helvetica,sans-Serif" font-size="10.00">sir/config.h</text>
</a>
</g>
</g>
<!-- Node29&#45;&gt;Node30 -->
<g id="edge31_Node000029_Node000030" class="edge">
<title>Node29&#45;&gt;Node30</title>
<g id="a_edge31_Node000029_Node000030"><a xlink:title=" ">
<path fill="none" stroke="#63b8ff" d="M877.75,-108.58C877.75,-101.93 877.75,-92.49 877.75,-84.08"/>
<polygon fill="#63b8ff" stroke="#63b8ff" points="881.25,-84.26 877.75,-74.26 874.25,-84.26 881.25,-84.26"/>
</a>
</g>
</g>
<!-- Node31 -->
<g id="Node000031" class="node">
<title>Node31</title>
<g id="a_Node000031"><a xlink:href="ansimacros_8h.html" target="_top" xlink:title="ANSI escape sequence macros.">
<polygon fill="white" stroke="#666666" points="1015.75,-73 927.75,-73 927.75,-54.5 1015.75,-54.5 1015.75,-73"/>
<text text-anchor="middle" x="971.75" y="-59.5" font-family="Helvetica,sans-Serif" font-size="10.00">sir/ansimacros.h</text>
</a>
</g>
</g>
<!-- Node29&#45;&gt;Node31 -->
<g id="edge32_Node000029_Node000031" class="edge">
<title>Node29&#45;&gt;Node31</title>
<g id="a_edge32_Node000029_Node000031"><a xlink:title=" ">
<path fill="none" stroke="#63b8ff" d="M893.27,-108.58C907.83,-100.45 929.85,-88.15 946.86,-78.65"/>
<polygon fill="#63b8ff" stroke="#63b8ff" points="948.18,-81.36 955.2,-73.43 944.77,-75.25 948.18,-81.36"/>
</a>
</g>
</g>
<!-- Node33 -->
<g id="Node000033" class="node">
<title>Node33</title>
<g id="a_Node000033"><a xlink:href="helpers_8h_source.html" target="_top" xlink:title=" ">
<polygon fill="white" stroke="#666666" points="754.75,-236.5 684.75,-236.5 684.75,-218 754.75,-218 754.75,-236.5"/>
<text text-anchor="middle" x="719.75" y="-223" font-family="Helvetica,sans-Serif" font-size="10.00">sir/helpers.h</text>
</a>
</g>
</g>
<!-- Node32&#45;&gt;Node33 -->
<g id="edge34_Node000032_Node000033" class="edge">
<title>Node32&#45;&gt;Node33</title>
<g id="a_edge34_Node000032_Node000033"><a xlink:title=" ">
<path fill="none" stroke="#63b8ff" d="M797.39,-272.08C782.99,-263.95 761.21,-251.65 744.37,-242.15"/>
<polygon fill="#63b8ff" stroke="#63b8ff" points="746.56,-238.8 736.13,-236.93 743.12,-244.9 746.56,-238.8"/>
</a>
</g>
</g>
<!-- Node34 -->
<g id="Node000034" class="node">
<title>Node34</title>
<g id="a_Node000034"><a xlink:href="errors_8h_source.html" target="_top" xlink:title=" ">
<polygon fill="white" stroke="#666666" points="814.38,-182 751.12,-182 751.12,-163.5 814.38,-163.5 814.38,-182"/>
<text text-anchor="middle" x="782.75" y="-168.5" font-family="Helvetica,sans-Serif" font-size="10.00">sir/errors.h</text>
</a>
</g>
</g>
<!-- Node32&#45;&gt;Node34 -->
<g id="edge40_Node000032_Node000034" class="edge">
<title>Node32&#45;&gt;Node34</title>
<g id="a_edge40_Node000032_Node000034"><a xlink:title=" ">
<path fill="none" stroke="#63b8ff" d="M810.4,-272.35C805.62,-255.33 794.7,-216.36 788.1,-192.83"/>
<polygon fill="#63b8ff" stroke="#63b8ff" points="791.25,-192.09 785.18,-183.4 784.51,-193.98 791.25,-192.09"/>
</a>
</g>
</g>
<!-- Node35 -->
<g id="Node000035" class="node">
<title>Node35</title>
<g id="a_Node000035"><a xlink:href="maps_8h_source.html" target="_top" xlink:title=" ">
<polygon fill="white" stroke="#666666" points="872.62,-236.5 810.88,-236.5 810.88,-218 872.62,-218 872.62,-236.5"/>
<text text-anchor="middle" x="841.75" y="-223" font-family="Helvetica,sans-Serif" font-size="10.00">sir/maps.h</text>
</a>
</g>
</g>
<!-- Node32&#45;&gt;Node35 -->
<g id="edge38_Node000032_Node000035" class="edge">
<title>Node32&#45;&gt;Node35</title>
<g id="a_edge38_Node000032_Node000035"><a xlink:title=" ">
<path fill="none" stroke="#63b8ff" d="M817.54,-272.08C821.42,-265.05 827.03,-254.9 831.87,-246.14"/>
<polygon fill="#63b8ff" stroke="#63b8ff" points="835.28,-248.2 837.05,-237.76 829.15,-244.82 835.28,-248.2"/>
</a>
</g>
</g>
<!-- Node33&#45;&gt;Node29 -->
<g id="edge35_Node000033_Node000029" class="edge">
<title>Node33&#45;&gt;Node29</title>
<g id="a_edge35_Node000033_Node000029"><a xlink:title=" ">
<path fill="none" stroke="#63b8ff" d="M720.39,-217.67C721.84,-204.27 726.56,-178.35 741.75,-163.5 766.97,-138.84 806.08,-127.93 835.89,-123.09"/>
<polygon fill="#63b8ff" stroke="#63b8ff" points="836.02,-126.47 845.42,-121.57 835.02,-119.54 836.02,-126.47"/>
</a>
</g>
</g>
<!-- Node33&#45;&gt;Node34 -->
<g id="edge36_Node000033_Node000034" class="edge">
<title>Node33&#45;&gt;Node34</title>
<g id="a_edge36_Node000033_Node000034"><a xlink:title=" ">
<path fill="none" stroke="#63b8ff" d="M730.15,-217.58C739.42,-209.86 753.19,-198.38 764.32,-189.11"/>
<polygon fill="#63b8ff" stroke="#63b8ff" points="766.1,-191.35 771.54,-182.26 761.62,-185.97 766.1,-191.35"/>
</a>
</g>
</g>
<!-- Node34&#45;&gt;Node29 -->
<g id="edge37_Node000034_Node000029" class="edge">
<title>Node34&#45;&gt;Node29</title>
<g id="a_edge37_Node000034_Node000029"><a xlink:title=" ">
<path fill="none" stroke="#63b8ff" d="M798.44,-163.08C813.15,-154.95 835.4,-142.65 852.6,-133.15"/>
<polygon fill="#63b8ff" stroke="#63b8ff" points="853.98,-135.83 861.04,-127.93 850.59,-129.71 853.98,-135.83"/>
</a>
</g>
</g>
<!-- Node35&#45;&gt;Node29 -->
<g id="edge39_Node000035_Node000029" class="edge">
<title>Node35&#45;&gt;Node29</title>
<g id="a_edge39_Node000035_Node000029"><a xlink:title=" ">
<path fill="none" stroke="#63b8ff" d="M844.57,-217.85C850.3,-200.83 863.41,-161.86 871.33,-138.33"/>
<polygon fill="#63b8ff" stroke="#63b8ff" points="874.97,-139.5 874.84,-128.9 868.33,-137.27 874.97,-139.5"/>
</a>
</g>
</g>
<!-- Node36&#45;&gt;Node29 -->
<g id="edge42_Node000036_Node000029" class="edge">
<title>Node36&#45;&gt;Node29</title>
<g id="a_edge42_Node000036_Node000029"><a xlink:title=" ">
<path fill="none" stroke="#63b8ff" d="M924.75,-217.85C916.56,-200.67 897.72,-161.14 886.54,-137.69"/>
<polygon fill="#63b8ff" stroke="#63b8ff" points="889.34,-136.43 881.87,-128.9 883.02,-139.44 889.34,-136.43"/>
</a>
</g>
</g>
<!-- Node37&#45;&gt;Node29 -->
<g id="edge44_Node000037_Node000029" class="edge">
<title>Node37&#45;&gt;Node29</title>
<g id="a_edge44_Node000037_Node000029"><a xlink:title=" ">
<path fill="none" stroke="#63b8ff" d="M952.89,-163.08C939.08,-155.03 918.26,-142.88 902.04,-133.42"/>
<polygon fill="#63b8ff" stroke="#63b8ff" points="904.04,-129.95 893.63,-127.93 900.51,-135.99 904.04,-129.95"/>
</a>
</g>
</g>
<!-- Node38&#45;&gt;Node29 -->
<g id="edge46_Node000038_Node000029" class="edge">
<title>Node38&#45;&gt;Node29</title>
<g id="a_edge46_Node000038_Node000029"><a xlink:title=" ">
<path fill="none" stroke="#63b8ff" d="M1033.83,-272.14C1036.01,-250.89 1038.53,-195.33 1010.75,-163.5 987.95,-137.37 949.32,-126.62 919.55,-122.22"/>
<polygon fill="#63b8ff" stroke="#63b8ff" points="920.4,-118.68 910.03,-120.88 919.5,-125.62 920.4,-118.68"/>
</a>
</g>
</g>
<!-- Node39&#45;&gt;Node29 -->
<g id="edge48_Node000039_Node000029" class="edge">
<title>Node39&#45;&gt;Node29</title>
<g id="a_edge48_Node000039_Node000029"><a xlink:title=" ">
<path fill="none" stroke="#63b8ff" d="M1120.34,-272.18C1108.76,-250.51 1075.24,-193.18 1030.75,-163.5 997.17,-141.1 952.13,-129.86 919.62,-124.33"/>
<polygon fill="#63b8ff" stroke="#63b8ff" points="920.54,-120.77 910.11,-122.67 919.44,-127.69 920.54,-120.77"/>
</a>
</g>
</g>
</g>
</svg>

<g id="navigator" transform="translate(0 0)" fill="#404254">
  <rect fill="#f2f5e9" fill-opacity="0.5" stroke="#606060" stroke-width=".5" x="0" y="0" width="60" height="60"/>
  <use id="zoomplus" xlink:href="#zoomPlus" x="17" y="9" onmousedown="handleZoom(evt,'in')"/>
  <use id="zoomminus" xlink:href="#zoomMin" x="42" y="9" onmousedown="handleZoom(evt,'out')"/>
  <use id="reset" xlink:href="#resetDef" x="30" y="36" onmousedown="handleReset()"/>
   <use id="arrowup" xlink:href="#arrowUp" x="0" y="0" onmousedown="handlePan(0,-1)"/>
  <use id="arrowright" xlink:href="#arrowRight" x="0" y="0" onmousedown="handlePan(1,0)"/>
  <use id="arrowdown" xlink:href="#arrowDown" x="0" y="0" onmousedown="handlePan(0,1)"/>
  <use id="arrowleft" xlink:href="#arrowLeft" x="0" y="0" onmousedown="handlePan(-1,0)"/>
</g>
<svg viewBox="0 0 15 15" width="100%" height="30px" preserveAspectRatio="xMaxYMin meet">
 <g id="arrow_out" transform="scale(0.3 0.3)">
  <a xlink:href="sir_8c__incl_org.svg" target="_base">
   <rect id="button" ry="5" rx="5" y="6" x="6" height="38" width="38"
        fill="#f2f5e9" fill-opacity="0.5" stroke="#606060" stroke-width="1.0"/>
   <path id="arrow"
     d="M 11.500037,31.436501 C 11.940474,20.09759 22.043105,11.32322 32.158766,21.979434 L 37.068811,17.246167 C 37.068811,17.246167 37.088388,32 37.088388,32 L 22.160133,31.978069 C 22.160133,31.978069 26.997745,27.140456 26.997745,27.140456 C 18.528582,18.264221 13.291696,25.230495 11.500037,31.436501 z"
     style="fill:#404040;"/>
  </a>
 </g>
</svg>

<style type='text/css'>
<![CDATA[
[data-mouse-over-selected='false'] { opacity: 0.7; }
[data-mouse-over-selected='true']  { opacity: 1.0; }
]]>
</style>
<script type="application/ecmascript"><![CDATA[
document.addEventListener('DOMContentLoaded', (event) => {
  highlightEdges();
  highlightAdjacentNodes();
});
]]></script>
</svg>
