<?xml version="1.0" encoding="UTF-8" standalone="no"?>
<!DOCTYPE svg PUBLIC "-//W3C//DTD SVG 1.1//EN"
 "http://www.w3.org/Graphics/SVG/1.1/DTD/svg11.dtd">
<!-- Generated by graphviz version 9.0.0 (20230911.1827)
 -->
<!-- Title: include/sir.h Pages: 1 -->
<svg width="392pt" height="138pt"
 viewBox="0.00 0.00 392.00 137.75" xmlns="http://www.w3.org/2000/svg" xmlns:xlink="http://www.w3.org/1999/xlink">
<g id="graph0" class="graph" transform="scale(1 1) rotate(0) translate(4 133.75)">
<title>include/sir.h</title>
<!-- Node1 -->
<g id="Node000001" class="node">
<title>Node1</title>
<g id="a_Node000001"><a xlink:title="Public interface to libsir.">
<polygon fill="#999999" stroke="#666666" points="229.25,-129.75 161.5,-129.75 161.5,-110.5 229.25,-110.5 229.25,-129.75"/>
<text text-anchor="middle" x="195.38" y="-116.25" font-family="Helvetica,sans-Serif" font-size="10.00">include/sir.h</text>
</a>
</g>
</g>
<!-- Node2 -->
<g id="Node000002" class="node">
<title>Node2</title>
<g id="a_Node000002"><a xlink:href="example_8c.html" target="_top" xlink:title="A simple demonstration of initialization, configuration, and basic usage of libsir.">
<polygon fill="white" stroke="#666666" points="100.75,-74.5 0,-74.5 0,-55.25 100.75,-55.25 100.75,-74.5"/>
<text text-anchor="middle" x="50.38" y="-61" font-family="Helvetica,sans-Serif" font-size="10.00">example/example.c</text>
</a>
</g>
</g>
<!-- Node1&#45;&gt;Node2 -->
<g id="edge1_Node000001_Node000002" class="edge">
<title>Node1&#45;&gt;Node2</title>
<g id="a_edge1_Node000001_Node000002"><a xlink:title=" ">
<path fill="none" stroke="#63b8ff" d="M160.11,-106.17C133.78,-96.5 98.46,-83.54 75.09,-74.95"/>
<polygon fill="#63b8ff" stroke="#63b8ff" points="158.76,-109.41 169.36,-109.57 161.18,-102.84 158.76,-109.41"/>
</a>
</g>
</g>
<!-- Node3 -->
<g id="Node000003" class="node">
<title>Node3</title>
<g id="a_Node000003"><a xlink:href="sir_8hh_source.html" target="_top" xlink:title=" ">
<polygon fill="white" stroke="#666666" points="191.88,-74.5 118.88,-74.5 118.88,-55.25 191.88,-55.25 191.88,-74.5"/>
<text text-anchor="middle" x="155.38" y="-61" font-family="Helvetica,sans-Serif" font-size="10.00">include/sir.hh</text>
</a>
</g>
</g>
<!-- Node1&#45;&gt;Node3 -->
<g id="edge2_Node000001_Node000003" class="edge">
<title>Node1&#45;&gt;Node3</title>
<g id="a_edge2_Node000001_Node000003"><a xlink:title=" ">
<path fill="none" stroke="#63b8ff" d="M181.9,-101.19C175.25,-92.34 167.52,-82.04 162.12,-74.86"/>
<polygon fill="#63b8ff" stroke="#63b8ff" points="179.06,-103.23 187.86,-109.12 184.65,-99.02 179.06,-103.23"/>
</a>
</g>
</g>
<!-- Node5 -->
<g id="Node000005" class="node">
<title>Node5</title>
<g id="a_Node000005"><a xlink:href="sir_8c.html" target="_top" xlink:title="Public interface to libsir.">
<polygon fill="white" stroke="#666666" points="260.62,-74.5 210.12,-74.5 210.12,-55.25 260.62,-55.25 260.62,-74.5"/>
<text text-anchor="middle" x="235.38" y="-61" font-family="Helvetica,sans-Serif" font-size="10.00">src/sir.c</text>
</a>
</g>
</g>
<!-- Node1&#45;&gt;Node5 -->
<g id="edge4_Node000001_Node000005" class="edge">
<title>Node1&#45;&gt;Node5</title>
<g id="a_edge4_Node000001_Node000005"><a xlink:title=" ">
<path fill="none" stroke="#63b8ff" d="M208.85,-101.19C215.5,-92.34 223.23,-82.04 228.63,-74.86"/>
<polygon fill="#63b8ff" stroke="#63b8ff" points="206.1,-99.02 202.89,-109.12 211.69,-103.23 206.1,-99.02"/>
</a>
</g>
</g>
<!-- Node6 -->
<g id="Node000006" class="node">
<title>Node6</title>
<g id="a_Node000006"><a xlink:href="tests__shared_8h_source.html" target="_top" xlink:title=" ">
<polygon fill="white" stroke="#666666" points="384,-74.5 278.75,-74.5 278.75,-55.25 384,-55.25 384,-74.5"/>
<text text-anchor="middle" x="331.38" y="-61" font-family="Helvetica,sans-Serif" font-size="10.00">tests/tests_shared.h</text>
</a>
</g>
</g>
<!-- Node1&#45;&gt;Node6 -->
<g id="edge5_Node000001_Node000006" class="edge">
<title>Node1&#45;&gt;Node6</title>
<g id="a_edge5_Node000001_Node000006"><a xlink:title=" ">
<path fill="none" stroke="#63b8ff" d="M229.12,-105.91C253.74,-96.27 286.47,-83.46 308.19,-74.95"/>
<polygon fill="#63b8ff" stroke="#63b8ff" points="227.89,-102.63 219.85,-109.54 230.44,-109.15 227.89,-102.63"/>
</a>
</g>
</g>
<!-- Node4 -->
<g id="Node000004" class="node">
<title>Node4</title>
<g id="a_Node000004"><a xlink:href="tests_09_09_8hh_source.html" target="_top" xlink:title=" ">
<polygon fill="white" stroke="#666666" points="239.38,-19.25 151.38,-19.25 151.38,0 239.38,0 239.38,-19.25"/>
<text text-anchor="middle" x="195.38" y="-5.75" font-family="Helvetica,sans-Serif" font-size="10.00">tests/tests++.hh</text>
</a>
</g>
</g>
<!-- Node3&#45;&gt;Node4 -->
<g id="edge3_Node000003_Node000004" class="edge">
<title>Node3&#45;&gt;Node4</title>
<g id="a_edge3_Node000003_Node000004"><a xlink:title=" ">
<path fill="none" stroke="#63b8ff" d="M168.85,-45.94C175.5,-37.09 183.23,-26.79 188.63,-19.61"/>
<polygon fill="#63b8ff" stroke="#63b8ff" points="166.1,-43.77 162.89,-53.87 171.69,-47.98 166.1,-43.77"/>
</a>
</g>
</g>
<!-- Node6&#45;&gt;Node4 -->
<g id="edge6_Node000006_Node000004" class="edge">
<title>Node6&#45;&gt;Node4</title>
<g id="a_edge6_Node000006_Node000004"><a xlink:title=" ">
<path fill="none" stroke="#63b8ff" d="M297.63,-50.66C273.01,-41.02 240.28,-28.21 218.56,-19.7"/>
<polygon fill="#63b8ff" stroke="#63b8ff" points="296.31,-53.9 306.9,-54.29 298.86,-47.38 296.31,-53.9"/>
</a>
</g>
</g>
<!-- Node7 -->
<g id="Node000007" class="node">
<title>Node7</title>
<g id="a_Node000007"><a xlink:href="tests_8h_source.html" target="_top" xlink:title=" ">
<polygon fill="white" stroke="#666666" points="366.75,-19.25 296,-19.25 296,0 366.75,0 366.75,-19.25"/>
<text text-anchor="middle" x="331.38" y="-5.75" font-family="Helvetica,sans-Serif" font-size="10.00">tests/tests.h</text>
</a>
</g>
</g>
<!-- Node6&#45;&gt;Node7 -->
<g id="edge7_Node000006_Node000007" class="edge">
<title>Node6&#45;&gt;Node7</title>
<g id="a_edge7_Node000006_Node000007"><a xlink:title=" ">
<path fill="none" stroke="#63b8ff" d="M331.38,-43.63C331.38,-35.34 331.38,-26.17 331.38,-19.61"/>
<polygon fill="#63b8ff" stroke="#63b8ff" points="327.88,-43.57 331.38,-53.57 334.88,-43.57 327.88,-43.57"/>
</a>
</g>
</g>
</g>
</svg>
