<?xml version="1.0" encoding="UTF-8" standalone="no"?>
<!DOCTYPE svg PUBLIC "-//W3C//DTD SVG 1.1//EN"
 "http://www.w3.org/Graphics/SVG/1.1/DTD/svg11.dtd">
<!-- Generated by graphviz version 8.1.0 (20230707.0739)
 -->
<!-- Title: sir_plugincache Pages: 1 -->
<svg width="159pt" height="222pt"
 viewBox="0.00 0.00 159.12 221.50" xmlns="http://www.w3.org/2000/svg" xmlns:xlink="http://www.w3.org/1999/xlink">
<g id="graph0" class="graph" transform="scale(1 1) rotate(0) translate(4 217.5)">
<title>sir_plugincache</title>
<!-- Node1 -->
<g id="Node000001" class="node">
<title>Node1</title>
<g id="a_Node000001"><a xlink:title="Plugin module cache.">
<polygon fill="#999999" stroke="#666666" points="83.5,-18.5 0,-18.5 0,0 83.5,0 83.5,-18.5"/>
<text text-anchor="middle" x="41.75" y="-5" font-family="Helvetica,sans-Serif" font-size="10.00">sir_plugincache</text>
</a>
</g>
</g>
<!-- Node2 -->
<g id="Node000002" class="node">
<title>Node2</title>
<g id="a_Node000002"><a xlink:href="structsir__plugin.html" target="_top" xlink:title="Internally&#45;used plugin module data.">
<polygon fill="white" stroke="#666666" points="70.38,-83.5 13.12,-83.5 13.12,-65 70.38,-65 70.38,-83.5"/>
<text text-anchor="middle" x="41.75" y="-70" font-family="Helvetica,sans-Serif" font-size="10.00">sir_plugin</text>
</a>
</g>
</g>
<!-- Node2&#45;&gt;Node1 -->
<g id="edge1_Node000001_Node000002" class="edge">
<title>Node2&#45;&gt;Node1</title>
<g id="a_edge1_Node000001_Node000002"><a xlink:title=" ">
<path fill="none" stroke="#9a32cd" stroke-dasharray="5,2" d="M41.75,-53.76C41.75,-41.97 41.75,-27.53 41.75,-18.61"/>
<polygon fill="#9a32cd" stroke="#9a32cd" points="38.25,-53.75 41.75,-63.75 45.25,-53.75 38.25,-53.75"/>
</a>
</g>
<text text-anchor="middle" x="58.62" y="-37.5" font-family="Helvetica,sans-Serif" font-size="10.00" fill="grey"> plugins</text>
</g>
<!-- Node3 -->
<g id="Node000003" class="node">
<title>Node3</title>
<g id="a_Node000003"><a xlink:href="structsir__plugininfo.html" target="_top" xlink:title="The libsir&#45;to&#45;plugin query data structure.">
<polygon fill="white" stroke="#666666" points="78.25,-213.5 5.25,-213.5 5.25,-195 78.25,-195 78.25,-213.5"/>
<text text-anchor="middle" x="41.75" y="-200" font-family="Helvetica,sans-Serif" font-size="10.00">sir_plugininfo</text>
</a>
</g>
</g>
<!-- Node3&#45;&gt;Node2 -->
<g id="edge2_Node000002_Node000003" class="edge">
<title>Node3&#45;&gt;Node2</title>
<g id="a_edge2_Node000002_Node000003"><a xlink:title=" ">
<path fill="none" stroke="#9a32cd" stroke-dasharray="5,2" d="M38.78,-183.95C37.32,-173.49 35.73,-160.32 35,-148.5 33.56,-125.05 37.68,-97.47 40.11,-83.81"/>
<polygon fill="#9a32cd" stroke="#9a32cd" points="35.45,-184.36 40.37,-193.74 42.38,-183.34 35.45,-184.36"/>
</a>
</g>
<text text-anchor="middle" x="45.12" y="-135" font-family="Helvetica,sans-Serif" font-size="10.00" fill="grey"> info</text>
</g>
<!-- Node4 -->
<g id="Node000004" class="node">
<title>Node4</title>
<g id="a_Node000004"><a xlink:href="structsir__pluginifacev1.html" target="_top" xlink:title="Plugin interface for v1.">
<polygon fill="white" stroke="#666666" points="151.12,-148.5 62.38,-148.5 62.38,-130 151.12,-130 151.12,-148.5"/>
<text text-anchor="middle" x="106.75" y="-135" font-family="Helvetica,sans-Serif" font-size="10.00">sir_pluginifacev1</text>
</a>
</g>
</g>
<!-- Node3&#45;&gt;Node4 -->
<g id="edge4_Node000004_Node000003" class="edge">
<title>Node3&#45;&gt;Node4</title>
<g id="a_edge4_Node000004_Node000003"><a xlink:title=" ">
<path fill="none" stroke="#9a32cd" stroke-dasharray="5,2" d="M58.12,-187.39C70.83,-175.07 87.95,-158.47 98.12,-148.61"/>
<polygon fill="#9a32cd" stroke="#9a32cd" points="56.26,-184.28 51.52,-193.75 61.13,-189.31 56.26,-184.28"/>
</a>
</g>
<text text-anchor="middle" x="91.62" y="-167.5" font-family="Helvetica,sans-Serif" font-size="10.00" fill="grey"> query</text>
</g>
<!-- Node4&#45;&gt;Node2 -->
<g id="edge3_Node000002_Node000004" class="edge">
<title>Node4&#45;&gt;Node2</title>
<g id="a_edge3_Node000002_Node000004"><a xlink:title=" ">
<path fill="none" stroke="#9a32cd" stroke-dasharray="5,2" d="M90.38,-122.39C77.67,-110.07 60.55,-93.47 50.38,-83.61"/>
<polygon fill="#9a32cd" stroke="#9a32cd" points="87.37,-124.31 96.98,-128.75 92.24,-119.28 87.37,-124.31"/>
</a>
</g>
<text text-anchor="middle" x="89.75" y="-102.5" font-family="Helvetica,sans-Serif" font-size="10.00" fill="grey"> iface</text>
</g>
</g>
</svg>
