<?xml version="1.0" encoding="UTF-8" standalone="no"?>
<!DOCTYPE svg PUBLIC "-//W3C//DTD SVG 1.1//EN"
 "http://www.w3.org/Graphics/SVG/1.1/DTD/svg11.dtd">
<!-- Generated by graphviz version 8.1.0 (20230707.0739)
 -->
<!-- Title: sir_plugin Pages: 1 -->
<svg width="154pt" height="157pt"
 viewBox="0.00 0.00 153.88 156.50" xmlns="http://www.w3.org/2000/svg" xmlns:xlink="http://www.w3.org/1999/xlink">
<g id="graph0" class="graph" transform="scale(1 1) rotate(0) translate(4 152.5)">
<title>sir_plugin</title>
<!-- Node1 -->
<g id="Node000001" class="node">
<title>Node1</title>
<g id="a_Node000001"><a xlink:title="Internally&#45;used plugin module data.">
<polygon fill="#999999" stroke="#666666" points="65.12,-18.5 7.87,-18.5 7.87,0 65.12,0 65.12,-18.5"/>
<text text-anchor="middle" x="36.5" y="-5" font-family="Helvetica,sans-Serif" font-size="10.00">sir_plugin</text>
</a>
</g>
</g>
<!-- Node2 -->
<g id="Node000002" class="node">
<title>Node2</title>
<g id="a_Node000002"><a xlink:href="structsir__plugininfo.html" target="_top" xlink:title="The libsir&#45;to&#45;plugin query data structure.">
<polygon fill="white" stroke="#666666" points="73,-148.5 0,-148.5 0,-130 73,-130 73,-148.5"/>
<text text-anchor="middle" x="36.5" y="-135" font-family="Helvetica,sans-Serif" font-size="10.00">sir_plugininfo</text>
</a>
</g>
</g>
<!-- Node2&#45;&gt;Node1 -->
<g id="edge1_Node000001_Node000002" class="edge">
<title>Node2&#45;&gt;Node1</title>
<g id="a_edge1_Node000001_Node000002"><a xlink:title=" ">
<path fill="none" stroke="#9a32cd" stroke-dasharray="5,2" d="M33.53,-118.95C32.07,-108.49 30.48,-95.32 29.75,-83.5 28.31,-60.05 32.43,-32.47 34.86,-18.81"/>
<polygon fill="#9a32cd" stroke="#9a32cd" points="30.2,-119.36 35.12,-128.74 37.13,-118.34 30.2,-119.36"/>
</a>
</g>
<text text-anchor="middle" x="39.88" y="-70" font-family="Helvetica,sans-Serif" font-size="10.00" fill="grey"> info</text>
</g>
<!-- Node3 -->
<g id="Node000003" class="node">
<title>Node3</title>
<g id="a_Node000003"><a xlink:href="structsir__pluginifacev1.html" target="_top" xlink:title="Plugin interface for v1.">
<polygon fill="white" stroke="#666666" points="145.88,-83.5 57.12,-83.5 57.12,-65 145.88,-65 145.88,-83.5"/>
<text text-anchor="middle" x="101.5" y="-70" font-family="Helvetica,sans-Serif" font-size="10.00">sir_pluginifacev1</text>
</a>
</g>
</g>
<!-- Node2&#45;&gt;Node3 -->
<g id="edge3_Node000003_Node000002" class="edge">
<title>Node2&#45;&gt;Node3</title>
<g id="a_edge3_Node000003_Node000002"><a xlink:title=" ">
<path fill="none" stroke="#9a32cd" stroke-dasharray="5,2" d="M52.87,-122.39C65.58,-110.07 82.7,-93.47 92.87,-83.61"/>
<polygon fill="#9a32cd" stroke="#9a32cd" points="51.01,-119.28 46.27,-128.75 55.88,-124.31 51.01,-119.28"/>
</a>
</g>
<text text-anchor="middle" x="86.38" y="-102.5" font-family="Helvetica,sans-Serif" font-size="10.00" fill="grey"> query</text>
</g>
<!-- Node3&#45;&gt;Node1 -->
<g id="edge2_Node000001_Node000003" class="edge">
<title>Node3&#45;&gt;Node1</title>
<g id="a_edge2_Node000001_Node000003"><a xlink:title=" ">
<path fill="none" stroke="#9a32cd" stroke-dasharray="5,2" d="M85.13,-57.39C72.42,-45.07 55.3,-28.47 45.13,-18.61"/>
<polygon fill="#9a32cd" stroke="#9a32cd" points="82.12,-59.31 91.73,-63.75 86.99,-54.28 82.12,-59.31"/>
</a>
</g>
<text text-anchor="middle" x="84.5" y="-37.5" font-family="Helvetica,sans-Serif" font-size="10.00" fill="grey"> iface</text>
</g>
</g>
</svg>
