<?xml version="1.0" encoding="UTF-8" standalone="no"?>
<!DOCTYPE svg PUBLIC "-//W3C//DTD SVG 1.1//EN"
 "http://www.w3.org/Graphics/SVG/1.1/DTD/svg11.dtd">
<!-- Generated by graphviz version 8.1.0 (20230707.0739)
 -->
<!-- Title: sirconfig Pages: 1 -->
<svg width="186pt" height="167pt"
 viewBox="0.00 0.00 185.75 167.00" xmlns="http://www.w3.org/2000/svg" xmlns:xlink="http://www.w3.org/1999/xlink">
<g id="graph0" class="graph" transform="scale(1 1) rotate(0) translate(4 163)">
<title>sirconfig</title>
<!-- Node1 -->
<g id="Node000001" class="node">
<title>Node1</title>
<g id="a_Node000001"><a xlink:title="Internally&#45;used global config container.">
<polygon fill="#999999" stroke="#666666" points="113.75,-18.5 61,-18.5 61,0 113.75,0 113.75,-18.5"/>
<text text-anchor="middle" x="87.38" y="-5" font-family="Helvetica,sans-Serif" font-size="10.00">sirconfig</text>
</a>
</g>
</g>
<!-- Node2 -->
<g id="Node000002" class="node">
<title>Node2</title>
<g id="a_Node000002"><a xlink:href="group__publictypes.html#structsirinit" target="_top" xlink:title="libsir initialization and configuration data.">
<polygon fill="white" stroke="#666666" points="107,-83.5 67.75,-83.5 67.75,-65 107,-65 107,-83.5"/>
<text text-anchor="middle" x="87.38" y="-70" font-family="Helvetica,sans-Serif" font-size="10.00">sirinit</text>
</a>
</g>
</g>
<!-- Node2&#45;&gt;Node1 -->
<g id="edge1_Node000001_Node000002" class="edge">
<title>Node2&#45;&gt;Node1</title>
<g id="a_edge1_Node000001_Node000002"><a xlink:title=" ">
<path fill="none" stroke="#9a32cd" stroke-dasharray="5,2" d="M87.38,-53.76C87.38,-41.97 87.38,-27.53 87.38,-18.61"/>
<polygon fill="#9a32cd" stroke="#9a32cd" points="83.88,-53.75 87.38,-63.75 90.88,-53.75 83.88,-53.75"/>
</a>
</g>
<text text-anchor="middle" x="92.62" y="-37.5" font-family="Helvetica,sans-Serif" font-size="10.00" fill="grey"> si</text>
</g>
<!-- Node3 -->
<g id="Node000003" class="node">
<title>Node3</title>
<g id="a_Node000003"><a xlink:href="group__publictypes.html#structsir__stdio__dest" target="_top" xlink:title="Configuration for stdio destinations (stdout and stderr).">
<polygon fill="white" stroke="#666666" points="76.75,-159 0,-159 0,-140.5 76.75,-140.5 76.75,-159"/>
<text text-anchor="middle" x="38.38" y="-145.5" font-family="Helvetica,sans-Serif" font-size="10.00">sir_stdio_dest</text>
</a>
</g>
</g>
<!-- Node3&#45;&gt;Node2 -->
<g id="edge2_Node000002_Node000003" class="edge">
<title>Node3&#45;&gt;Node2</title>
<g id="a_edge2_Node000002_Node000003"><a xlink:title=" ">
<path fill="none" stroke="#9a32cd" stroke-dasharray="5,2" d="M50.05,-131.24C59.98,-116.34 73.84,-95.56 81.57,-83.96"/>
<polygon fill="#9a32cd" stroke="#9a32cd" points="46.82,-128.77 44.19,-139.03 52.65,-132.65 46.82,-128.77"/>
</a>
</g>
<text text-anchor="middle" x="88.5" y="-113" font-family="Helvetica,sans-Serif" font-size="10.00" fill="grey"> d_stderr</text>
<text text-anchor="middle" x="88.5" y="-102.5" font-family="Helvetica,sans-Serif" font-size="10.00" fill="grey">d_stdout</text>
</g>
<!-- Node4 -->
<g id="Node000004" class="node">
<title>Node4</title>
<g id="a_Node000004"><a xlink:href="group__publictypes.html#structsir__syslog__dest" target="_top" xlink:title="Configuration for the system logger destination.">
<polygon fill="white" stroke="#666666" points="177.75,-159 95,-159 95,-140.5 177.75,-140.5 177.75,-159"/>
<text text-anchor="middle" x="136.38" y="-145.5" font-family="Helvetica,sans-Serif" font-size="10.00">sir_syslog_dest</text>
</a>
</g>
</g>
<!-- Node4&#45;&gt;Node2 -->
<g id="edge3_Node000002_Node000004" class="edge">
<title>Node4&#45;&gt;Node2</title>
<g id="a_edge3_Node000002_Node000004"><a xlink:title=" ">
<path fill="none" stroke="#9a32cd" stroke-dasharray="5,2" d="M127.91,-130.17C123.49,-121.19 117.68,-110.45 111.38,-101.5 106.97,-95.24 101.2,-88.89 96.42,-84"/>
<polygon fill="#9a32cd" stroke="#9a32cd" points="125.13,-131.46 132.57,-139.01 131.45,-128.47 125.13,-131.46"/>
</a>
</g>
<text text-anchor="middle" x="143.62" y="-107.75" font-family="Helvetica,sans-Serif" font-size="10.00" fill="grey"> d_syslog</text>
</g>
</g>
</svg>
