<?xml version="1.0" encoding="UTF-8" standalone="no"?>
<!DOCTYPE svg PUBLIC "-//W3C//DTD SVG 1.1//EN"
 "http://www.w3.org/Graphics/SVG/1.1/DTD/svg11.dtd">
<!-- Generated by graphviz version 8.1.0 (20230707.0739)
 -->
<!-- Title: sir_text_style_data Pages: 1 -->
<svg width="112pt" height="157pt"
 viewBox="0.00 0.00 111.75 156.50" xmlns="http://www.w3.org/2000/svg" xmlns:xlink="http://www.w3.org/1999/xlink">
<g id="graph0" class="graph" transform="scale(1 1) rotate(0) translate(4 152.5)">
<title>sir_text_style_data</title>
<!-- Node1 -->
<g id="Node000001" class="node">
<title>Node1</title>
<g id="a_Node000001"><a xlink:title="Container for text style related data that is mutex protected.">
<polygon fill="#999999" stroke="#666666" points="101.12,-18.5 2.62,-18.5 2.62,0 101.12,0 101.12,-18.5"/>
<text text-anchor="middle" x="51.88" y="-5" font-family="Helvetica,sans-Serif" font-size="10.00">sir_text_style_data</text>
</a>
</g>
</g>
<!-- Node2 -->
<g id="Node000002" class="node">
<title>Node2</title>
<g id="a_Node000002"><a xlink:href="structsir__level__style__tuple.html" target="_top" xlink:title="sir_level &lt;&#45;&gt; sir_textstyle mapping.">
<polygon fill="white" stroke="#666666" points="103.75,-83.5 0,-83.5 0,-65 103.75,-65 103.75,-83.5"/>
<text text-anchor="middle" x="51.88" y="-70" font-family="Helvetica,sans-Serif" font-size="10.00">sir_level_style_tuple</text>
</a>
</g>
</g>
<!-- Node2&#45;&gt;Node1 -->
<g id="edge1_Node000001_Node000002" class="edge">
<title>Node2&#45;&gt;Node1</title>
<g id="a_edge1_Node000001_Node000002"><a xlink:title=" ">
<path fill="none" stroke="#9a32cd" stroke-dasharray="5,2" d="M51.88,-53.76C51.88,-41.97 51.88,-27.53 51.88,-18.61"/>
<polygon fill="#9a32cd" stroke="#9a32cd" points="48.38,-53.75 51.88,-63.75 55.38,-53.75 48.38,-53.75"/>
</a>
</g>
<text text-anchor="middle" x="62.75" y="-37.5" font-family="Helvetica,sans-Serif" font-size="10.00" fill="grey"> map</text>
</g>
<!-- Node3 -->
<g id="Node000003" class="node">
<title>Node3</title>
<g id="a_Node000003"><a xlink:href="group__publictypes.html#structsir__textstyle" target="_top" xlink:title="Container for all the information associated with the appearance of text in the context of stdio.">
<polygon fill="white" stroke="#666666" points="86.5,-148.5 17.25,-148.5 17.25,-130 86.5,-130 86.5,-148.5"/>
<text text-anchor="middle" x="51.88" y="-135" font-family="Helvetica,sans-Serif" font-size="10.00">sir_textstyle</text>
</a>
</g>
</g>
<!-- Node3&#45;&gt;Node2 -->
<g id="edge2_Node000002_Node000003" class="edge">
<title>Node3&#45;&gt;Node2</title>
<g id="a_edge2_Node000002_Node000003"><a xlink:title=" ">
<path fill="none" stroke="#9a32cd" stroke-dasharray="5,2" d="M51.88,-118.76C51.88,-106.97 51.88,-92.53 51.88,-83.61"/>
<polygon fill="#9a32cd" stroke="#9a32cd" points="48.38,-118.75 51.88,-128.75 55.38,-118.75 48.38,-118.75"/>
</a>
</g>
<text text-anchor="middle" x="63.88" y="-102.5" font-family="Helvetica,sans-Serif" font-size="10.00" fill="grey"> style</text>
</g>
</g>
</svg>
